<svg width="20" height="20" viewBox="0 0 20 20" fill="none" xmlns="http://www.w3.org/2000/svg">
<path fill-rule="evenodd" clip-rule="evenodd" d="M4.60714 1C3.71954 1 3 1.71954 3 2.60714V17.3929C3 18.2805 3.71954 19 4.60714 19H15.5357C16.4233 19 17.1429 18.2805 17.1429 17.3929V10.6429C17.1429 8.86766 15.7038 7.42857 13.9286 7.42857H12.3214C11.4338 7.42857 10.7143 6.70903 10.7143 5.82143V4.21429C10.7143 2.43908 9.2752 1 7.5 1H4.60714ZM10.9039 1.27078C11.5868 2.05984 12 3.08881 12 4.21429V5.82143C12 5.99895 12.1439 6.14286 12.3214 6.14286H13.9286C15.054 6.14286 16.083 6.55603 16.8721 7.23898C16.111 4.32561 13.8172 2.03181 10.9039 1.27078ZM9.02818 16.0035C9.46264 16.1812 9.92674 16.2701 10.4205 16.2701C11.0919 16.2701 11.6844 16.1318 12.1978 15.8554C12.7179 15.5723 13.126 15.1543 13.4222 14.6013C13.7185 14.0418 13.8666 13.3473 13.8666 12.5178V12.3302H10.3316V13.4954L12.4299 13.5159C12.3889 13.7228 12.3247 13.9101 12.2373 14.078C12.0727 14.3874 11.8358 14.6244 11.5264 14.7889C11.217 14.9469 10.845 15.0259 10.4106 15.0259C9.98927 15.0259 9.61405 14.9272 9.28491 14.7297C8.96235 14.5322 8.70562 14.259 8.51471 13.9101C8.33039 13.5546 8.23823 13.1465 8.23823 12.6857C8.23823 12.2249 8.33368 11.8234 8.52459 11.481C8.71549 11.1322 8.9788 10.8623 9.31453 10.6714C9.65684 10.4739 10.0485 10.3751 10.4896 10.3751C10.878 10.3751 11.2334 10.4508 11.556 10.6022C11.8786 10.7536 12.1485 10.9709 12.3657 11.2539L13.2741 10.3455C12.9581 9.95712 12.5599 9.6576 12.0793 9.44695C11.5988 9.22971 11.0722 9.12109 10.4994 9.12109C9.98598 9.12109 9.50872 9.21325 9.06767 9.39757C8.62662 9.57531 8.24152 9.82875 7.91238 10.1579C7.58324 10.4805 7.32651 10.859 7.14219 11.2934C6.95787 11.7213 6.86571 12.1887 6.86571 12.6956C6.86571 13.1959 6.95458 13.6633 7.13231 14.0977C7.31663 14.5256 7.57007 14.9041 7.89263 15.2333C8.22178 15.5624 8.60029 15.8192 9.02818 16.0035Z" fill="white"/>
</svg>
