<?xml version="1.0" encoding="utf-8"?>
<!-- Generator: Adobe Illustrator 20.0.0, SVG Export Plug-In . SVG Version: 6.00 Build 0)  -->
<svg version="1.1" id="Layer_1" xmlns="http://www.w3.org/2000/svg" xmlns:xlink="http://www.w3.org/1999/xlink" x="0px" y="0px"
	 viewBox="0 0 80 30" style="enable-background:new 0 0 80 30;" xml:space="preserve">
<style type="text/css">
	.st0{fill:#0B0D17;}
</style>
<rect x="46" y="4.8" class="st0" width="0.7" height="12.4"/>
<g>
	<path class="st0" d="M30.5,15.3v-4.1c0-0.7-0.3-1.1-1-1.1c-0.9,0-1.4,0.6-1.4,1.7v3.5h-1.6V8.9H28V10c0.3-0.7,1-1.2,2-1.2
		c1.5,0,2.1,0.8,2.1,2.2v4.4L30.5,15.3L30.5,15.3z M33.6,6.5h3.9c1.6,0,2.5,0.8,2.5,2.1c0,1-0.5,1.8-1.6,2.2
		c1.1,0.2,1.9,0.9,1.9,2.1c0,1.4-1.1,2.4-2.8,2.4h-3.9C33.6,15.3,33.6,6.5,33.6,6.5z M37.1,10.2c0.9,0,1.4-0.6,1.4-1.3
		c0-0.7-0.5-1.1-1.4-1.1h-1.8v2.4L37.1,10.2L37.1,10.2z M37.3,14c1,0,1.4-0.5,1.4-1.3c0-0.7-0.5-1.2-1.5-1.2h-2V14H37.3z M1,6.5h1.6
		v7.4h4v1.4H1V6.5z M10.3,6.5h1.9l2.9,8.8h-1.5l-0.6-2.1H9.6L9,15.3H7.5L10.3,6.5z M10.1,11.9h2.4L11.3,8L10.1,11.9z M22.3,12.6
		l1.6-6.1h1.7l-2.6,8.8h-1.4l-1.7-7l-1.7,7h-1.4L14,6.5h1.7l1.7,6.1l1.5-6.1h1.8L22.3,12.6z"/>
	<path class="st0" d="M2.3,1.7v1.9H1.8V1.7H1.1V1.2h1.8v0.4H2.3z M3.4,1.2h0.5v0.9h0.9V1.2h0.5v2.3H4.9v-1H3.9v1H3.4V1.2z M7,1.2
		c0.8,0,1.1,0.5,1.1,1.2S7.7,3.6,7,3.6S5.8,3.1,5.8,2.4S6.2,1.2,7,1.2z M7.6,2.4c0-0.5-0.2-0.8-0.6-0.8c-0.4,0-0.6,0.3-0.6,0.8
		S6.5,3.2,7,3.2S7.6,2.9,7.6,2.4z M8.5,1.2H9l0.7,1.5l0.7-1.5H11v2.3h-0.5V2.2l-0.5,1H9.5L9,2.2v1.3H8.5V1.2z M12.4,3.6
		c-0.3,0-0.6-0.1-0.8-0.2L11.6,3c0.2,0.1,0.5,0.2,0.7,0.2c0.3,0,0.4-0.1,0.4-0.3c0-0.2-0.1-0.2-0.5-0.3c-0.5-0.1-0.8-0.3-0.8-0.7
		c0-0.6,0.4-0.7,0.9-0.7c0.3,0,0.6,0.1,0.8,0.2l-0.1,0.4c-0.2-0.1-0.5-0.2-0.7-0.2c-0.3,0-0.4,0.1-0.4,0.2c0,0.2,0.1,0.2,0.5,0.3
		c0.5,0.1,0.8,0.3,0.8,0.7C13.3,3.3,13,3.6,12.4,3.6z M14.8,1.2c0.8,0,1.1,0.5,1.1,1.2s-0.4,1.2-1.1,1.2c-0.8,0-1.1-0.5-1.1-1.2
		S14,1.2,14.8,1.2z M15.4,2.4c0-0.5-0.2-0.8-0.6-0.8s-0.6,0.3-0.6,0.8s0.2,0.8,0.6,0.8S15.4,2.9,15.4,2.4z M16.3,1.2h0.5l1,1.5V1.2
		h0.5v2.3h-0.5l-1-1.5v1.5h-0.5C16.3,3.6,16.3,1.2,16.3,1.2z M21.5,2.7l0.6,0.9h-0.6l-0.5-0.8h-0.4v0.8H20V1.2h1.1
		C21.7,1.2,22,1.5,22,2C22,2.3,21.8,2.6,21.5,2.7z M21.1,1.6h-0.5v0.7h0.5c0.2,0,0.4-0.1,0.4-0.4C21.4,1.8,21.3,1.6,21.1,1.6z
		 M22.5,1.2h1.6v0.4H23v0.5h1v0.4h-1v0.5h1.1v0.4h-1.6V1.2z M26.6,2.7c0,0.5-0.3,0.9-1,0.9c-0.7,0-1-0.4-1-0.9V1.2h0.5v1.5
		c0,0.3,0.2,0.5,0.5,0.5s0.5-0.2,0.5-0.5V1.2h0.5L26.6,2.7L26.6,2.7z M28.2,1.7v1.9h-0.5V1.7H27V1.2h1.8v0.4H28.2z M29.3,1.2h1.6
		v0.4h-1.1v0.5h1v0.4h-1v0.5h1.1v0.4h-1.6V1.2z M32.8,2.7l0.6,0.9h-0.6l-0.5-0.8h-0.4v0.8h-0.5V1.2h1.1c0.5,0,0.8,0.3,0.8,0.8
		C33.3,2.3,33.1,2.6,32.8,2.7z M32.4,1.6h-0.5v0.7h0.5c0.2,0,0.4-0.1,0.4-0.4C32.8,1.8,32.7,1.6,32.4,1.6z M34.6,3.6
		c-0.3,0-0.6-0.1-0.8-0.2L33.9,3c0.2,0.1,0.5,0.2,0.7,0.2c0.3,0,0.4-0.1,0.4-0.3c0-0.2-0.1-0.2-0.5-0.3c-0.5-0.1-0.8-0.3-0.8-0.7
		c0-0.6,0.4-0.7,0.9-0.7c0.3,0,0.6,0.1,0.8,0.2l-0.1,0.4c-0.2-0.1-0.5-0.2-0.7-0.2c-0.3,0-0.4,0.1-0.4,0.2c0,0.2,0.1,0.2,0.5,0.3
		c0.5,0.1,0.8,0.3,0.8,0.7C35.5,3.3,35.2,3.6,34.6,3.6z"/>
</g>
<g>
	<path class="st0" d="M54.1,11.9V9.2h5.4V7.5H55c-0.1,0-0.3,0-0.4,0c-0.2,0-0.3,0-0.4,0V6.9c0.2,0,0.3,0,0.5,0c0.1,0,0.3,0,0.4,0
		h5.2c0,0.1,0,0.3,0,0.4c0,0.2,0,0.3,0,0.5v1.9h-5.4v1.7h4.8c0.2,0,0.3,0,0.5,0s0.3,0,0.5,0V12c-0.2,0-0.3,0-0.5,0
		c-0.1,0-0.3,0-0.5,0h-2.1v1.9h2.4c0.3,0,0.5,0,0.8,0c0.3,0,0.5,0,0.8,0v0.6c-0.3,0-0.5,0-0.8,0c-0.3,0-0.5,0-0.8,0h-5.4
		c-0.3,0-0.5,0-0.8,0c-0.3,0-0.5,0-0.8,0v-0.6c0.3,0,0.5,0,0.8,0c0.3,0,0.5,0,0.8,0h2.4v-1.9L54.1,11.9L54.1,11.9z"/>
	<path class="st0" d="M62.5,8.1c0.1-0.3,0.3-0.5,0.4-0.8c0.2-0.2,0.4-0.4,0.7-0.5c0.3-0.1,0.5-0.2,0.8-0.2c0.3,0,0.6,0.1,0.8,0.2
		c0.3,0.1,0.5,0.3,0.7,0.5c0.2,0.2,0.3,0.5,0.4,0.8c0.1,0.3,0.2,0.6,0.2,0.9c0,0.3-0.1,0.7-0.2,0.9c-0.1,0.3-0.3,0.5-0.4,0.7
		c-0.2,0.2-0.4,0.4-0.7,0.5c-0.3,0.1-0.5,0.2-0.8,0.2c-0.3,0-0.6-0.1-0.8-0.2c-0.3-0.1-0.5-0.3-0.7-0.5c-0.2-0.2-0.3-0.5-0.4-0.7
		c-0.1-0.3-0.2-0.6-0.2-0.9C62.4,8.7,62.4,8.4,62.5,8.1z M63.4,10.3c0.3,0.3,0.6,0.5,1,0.5c0.4,0,0.8-0.2,1-0.5s0.4-0.8,0.4-1.3
		s-0.1-1-0.4-1.3c-0.3-0.3-0.6-0.5-1-0.5c-0.4,0-0.8,0.2-1,0.5C63.1,8,63,8.5,63,9S63.1,10,63.4,10.3z M63.9,13.2c0-0.1,0-0.3,0-0.4
		c0-0.1,0-0.3,0-0.4h0.7c0,0.1,0,0.3,0,0.4c0,0.1,0,0.3,0,0.4v1.7h4.5c0.2,0,0.3,0,0.5,0c0.2,0,0.4,0,0.6,0v0.6c-0.2,0-0.4,0-0.6,0
		c-0.2,0-0.4,0-0.5,0h-5.2V13.2z M69.4,8.8V7.7c0-0.2,0-0.4,0-0.6s0-0.4,0-0.6h0.8c0,0.2,0,0.4,0,0.6c0,0.2,0,0.4,0,0.6v4.4
		c0,0.2,0,0.4,0,0.6c0,0.2,0,0.4,0,0.6h-0.8c0-0.2,0-0.4,0-0.6c0-0.2,0-0.4,0-0.6V9.3H68v2.6c0,0.2,0,0.4,0,0.6s0,0.4,0,0.6h-0.7
		c0-0.2,0-0.4,0-0.6c0-0.2,0-0.4,0-0.6V7.8c0-0.2,0-0.4,0-0.6c0-0.2,0-0.4,0-0.6h0.7c0,0.2,0,0.4,0,0.6c0,0.2,0,0.4,0,0.6v0.9H69.4z
		"/>
	<path class="st0" d="M76.4,13.3h-4.3V8c0-0.2,0-0.4,0-0.5c0-0.2,0-0.3,0-0.5h0.7c0,0.2,0,0.4,0,0.5c0,0.2,0,0.3,0,0.5v1.4h2.9V8
		c0-0.2,0-0.4,0-0.5s0-0.3,0-0.5h0.7c0,0.2,0,0.4,0,0.5c0,0.2,0,0.3,0,0.5C76.4,8,76.4,13.3,76.4,13.3z M75.8,9.9h-2.9v2.8h2.9V9.9z
		 M79.1,14.9c0,0.2,0,0.5,0,0.7h-0.8c0-0.2,0-0.5,0-0.7c0-0.2,0-0.5,0-0.7V7.8c0-0.2,0-0.5,0-0.7s0-0.5,0-0.7h0.8c0,0.2,0,0.5,0,0.7
		c0,0.2,0,0.5,0,0.7v6.4C79.1,14.4,79.1,14.7,79.1,14.9z"/>
</g>
</svg>
