<?xml version="1.0" encoding="utf-8"?>
<!-- Generator: Adobe Illustrator 13.0.0, SVG Export Plug-In . SVG Version: 6.00 Build 14948)  -->
<!DOCTYPE svg PUBLIC "-//W3C//DTD SVG 1.1//EN" "http://www.w3.org/Graphics/SVG/1.1/DTD/svg11.dtd">
<svg version="1.1" id="Layer_1" xmlns="http://www.w3.org/2000/svg" xmlns:xlink="http://www.w3.org/1999/xlink" x="0px" y="0px"
	  viewBox="0 0 80 30" enable-background="new 0 0 80 30" xml:space="preserve">
<rect x="46.026" y="4.818" fill="#FFFFFF" width="0.699" height="12.358"/>
<g>
	<path fill="#FFFFFF" d="M30.521,15.325v-4.092c0-0.676-0.331-1.06-1.02-1.06c-0.9,0-1.404,0.596-1.404,1.655v3.496h-1.616v-6.41
		h1.563v1.112c0.317-0.662,0.953-1.244,2.04-1.244c1.47,0,2.052,0.794,2.052,2.186v4.356H30.521z M33.629,6.504h3.92
		c1.628,0,2.543,0.822,2.543,2.146c0,0.994-0.517,1.789-1.576,2.16c1.099,0.225,1.854,0.913,1.854,2.105
		c0,1.43-1.113,2.41-2.821,2.41h-3.92V6.504z M37.085,10.24c0.927,0,1.364-0.609,1.364-1.298c0-0.703-0.45-1.139-1.351-1.139h-1.841
		v2.438H37.085z M37.337,14.027c0.953,0,1.404-0.517,1.404-1.271c0-0.742-0.53-1.218-1.51-1.218h-1.974v2.489H37.337z M1.037,6.538
		h1.647v7.355h4.007v1.424H1.037V6.538z M10.333,6.538h1.87l2.866,8.779H13.53l-0.643-2.068H9.649l-0.642,2.068h-1.54L10.333,6.538z
		 M10.074,11.864h2.388l-1.188-3.849L10.074,11.864z M22.251,12.642l1.622-6.104h1.661l-2.634,8.779H21.51l-1.672-6.973
		l-1.697,6.973h-1.388L14.04,6.538h1.66l1.7,6.104l1.517-6.104h1.832L22.251,12.642z"/>
	<path fill="#FFFFFF" d="M2.269,1.663v1.903H1.754V1.663H1.099V1.219h1.825v0.444H2.269z M3.409,1.219h0.514v0.935H4.86V1.219h0.515
		v2.348H4.86V2.612H3.923v0.955H3.409V1.219z M6.951,1.177c0.761,0,1.124,0.518,1.124,1.216S7.712,3.609,6.951,3.609
		c-0.761,0-1.125-0.518-1.125-1.216S6.19,1.177,6.951,1.177z M7.561,2.393c0-0.458-0.18-0.778-0.61-0.778
		c-0.43,0-0.61,0.32-0.61,0.778c0,0.458,0.18,0.779,0.61,0.779C7.381,3.172,7.561,2.852,7.561,2.393z M8.531,1.219h0.515
		l0.733,1.548l0.733-1.548h0.515v2.348h-0.497V2.228l-0.5,1.043h-0.5L9.027,2.228v1.339H8.531V1.219z M12.371,3.609
		c-0.275,0-0.6-0.071-0.846-0.172l0.109-0.413c0.24,0.095,0.508,0.163,0.733,0.163c0.257,0,0.42-0.063,0.42-0.254
		c0-0.183-0.117-0.24-0.469-0.31c-0.515-0.102-0.8-0.282-0.8-0.722c0-0.554,0.369-0.723,0.891-0.723
		c0.321,0,0.568,0.057,0.807,0.166l-0.092,0.409c-0.201-0.089-0.461-0.155-0.708-0.155c-0.257,0-0.384,0.053-0.384,0.247
		c0,0.175,0.116,0.215,0.49,0.303c0.503,0.12,0.778,0.268,0.778,0.726C13.301,3.338,12.963,3.609,12.371,3.609z M14.761,1.177
		c0.761,0,1.125,0.518,1.125,1.216s-0.363,1.216-1.125,1.216c-0.761,0-1.124-0.518-1.124-1.216S14,1.177,14.761,1.177z
		 M15.371,2.393c0-0.458-0.18-0.778-0.61-0.778s-0.609,0.32-0.609,0.778c0,0.458,0.179,0.779,0.609,0.779S15.371,2.852,15.371,2.393
		z M16.316,1.219h0.512l1.046,1.495V1.219h0.5v2.348h-0.51l-1.047-1.495v1.495h-0.501V1.219z M21.491,2.675l0.616,0.891h-0.645
		l-0.525-0.832h-0.373v0.832h-0.515V1.219h1.121c0.494,0,0.793,0.3,0.793,0.758C21.963,2.302,21.78,2.563,21.491,2.675z
		 M21.088,1.632h-0.524V2.33h0.524c0.212,0,0.36-0.123,0.36-0.353C21.448,1.755,21.3,1.632,21.088,1.632z M22.491,1.219h1.614v0.444
		h-1.1v0.48h1.029v0.444h-1.029v0.536h1.1v0.443h-1.614V1.219z M26.591,2.671c0,0.511-0.324,0.938-0.99,0.938
		c-0.667,0-0.99-0.426-0.99-0.938V1.219h0.514V2.7c0,0.307,0.187,0.472,0.476,0.472c0.289,0,0.476-0.165,0.476-0.472V1.219h0.515
		V2.671z M28.184,1.663v1.903h-0.515V1.663h-0.655V1.219h1.825v0.444H28.184z M29.303,1.219h1.614v0.444h-1.1v0.48h1.029v0.444
		h-1.029v0.536h1.1v0.443h-1.614V1.219z M32.846,2.675l0.617,0.891h-0.645l-0.525-0.832h-0.373v0.832h-0.515V1.219h1.121
		c0.493,0,0.792,0.3,0.792,0.758C33.318,2.302,33.135,2.563,32.846,2.675z M32.444,1.632h-0.525V2.33h0.525
		c0.211,0,0.359-0.123,0.359-0.353C32.804,1.755,32.656,1.632,32.444,1.632z M34.604,3.609c-0.274,0-0.599-0.071-0.846-0.172
		l0.11-0.413c0.239,0.095,0.507,0.163,0.733,0.163c0.257,0,0.419-0.063,0.419-0.254c0-0.183-0.117-0.24-0.468-0.31
		c-0.515-0.102-0.8-0.282-0.8-0.722c0-0.554,0.37-0.723,0.892-0.723c0.321,0,0.567,0.057,0.807,0.166l-0.09,0.409
		c-0.201-0.089-0.462-0.155-0.709-0.155c-0.258,0-0.384,0.053-0.384,0.247c0,0.175,0.116,0.215,0.49,0.303
		c0.503,0.12,0.778,0.268,0.778,0.726C35.535,3.338,35.196,3.609,34.604,3.609z"/>
</g>
<g>
	<path fill="#FFFFFF" d="M54.092,11.938V9.188h5.38V7.462h-4.518c-0.144,0-0.292,0.004-0.446,0.01
		c-0.154,0.007-0.303,0.018-0.446,0.031V6.888c0.164,0.021,0.317,0.032,0.462,0.036c0.144,0.004,0.287,0.005,0.431,0.005h5.226
		c-0.021,0.13-0.034,0.277-0.041,0.441c-0.007,0.165-0.01,0.318-0.01,0.462v1.89h-5.38v1.683h4.825c0.164,0,0.319,0,0.467,0
		s0.303-0.01,0.468-0.03v0.605c-0.171-0.021-0.329-0.032-0.473-0.036c-0.144-0.003-0.298-0.005-0.462-0.005h-2.063v1.858h2.392
		c0.268,0,0.528-0.002,0.785-0.006c0.258-0.003,0.519-0.015,0.785-0.035v0.626c-0.267-0.021-0.527-0.032-0.785-0.036
		c-0.257-0.003-0.518-0.005-0.785-0.005h-5.431c-0.267,0-0.528,0.002-0.785,0.005c-0.257,0.004-0.519,0.016-0.785,0.036v-0.626
		c0.267,0.021,0.528,0.032,0.785,0.035c0.257,0.004,0.519,0.006,0.785,0.006h2.372v-1.858H54.092z"/>
	<path fill="#FFFFFF" d="M62.516,8.089c0.105-0.288,0.255-0.537,0.446-0.75c0.185-0.205,0.403-0.369,0.657-0.493
		c0.253-0.123,0.526-0.185,0.821-0.185c0.287,0,0.556,0.062,0.806,0.185c0.25,0.124,0.471,0.288,0.662,0.493
		c0.186,0.213,0.332,0.462,0.441,0.75c0.109,0.287,0.164,0.599,0.164,0.934c0,0.342-0.055,0.657-0.164,0.945
		c-0.109,0.287-0.256,0.533-0.441,0.739c-0.191,0.212-0.412,0.376-0.662,0.492c-0.25,0.117-0.519,0.175-0.806,0.175
		c-0.295,0-0.568-0.058-0.821-0.175c-0.254-0.116-0.473-0.28-0.657-0.492c-0.191-0.212-0.341-0.461-0.446-0.744
		c-0.106-0.284-0.159-0.598-0.159-0.94C62.356,8.688,62.409,8.376,62.516,8.089z M63.413,10.342
		c0.274,0.339,0.616,0.509,1.027,0.509c0.41,0,0.751-0.17,1.021-0.509s0.405-0.778,0.405-1.319s-0.135-0.98-0.405-1.319
		c-0.271-0.339-0.611-0.508-1.021-0.508c-0.418,0-0.762,0.169-1.032,0.508c-0.271,0.338-0.405,0.778-0.405,1.319
		S63.14,10.003,63.413,10.342z M63.938,13.181c0-0.123-0.002-0.253-0.006-0.391c-0.003-0.136-0.015-0.266-0.036-0.39h0.75
		c-0.021,0.124-0.032,0.252-0.036,0.385c-0.004,0.134-0.005,0.259-0.005,0.375v1.663h4.507c0.164,0,0.348-0.002,0.549-0.005
		c0.202-0.003,0.412-0.016,0.632-0.036v0.637c-0.22-0.021-0.43-0.032-0.632-0.036c-0.201-0.004-0.385-0.005-0.549-0.005h-5.174
		V13.181z M69.368,8.766V7.667c0-0.205-0.002-0.407-0.005-0.605c-0.003-0.198-0.016-0.4-0.037-0.605h0.75
		c-0.021,0.205-0.032,0.407-0.036,0.605c-0.003,0.199-0.005,0.4-0.005,0.605v4.425c0,0.205,0.002,0.408,0.005,0.61
		c0.004,0.202,0.016,0.402,0.036,0.602h-0.76c0.021-0.199,0.034-0.399,0.041-0.602c0.008-0.202,0.011-0.405,0.011-0.61V9.331h-1.324
		v2.556c0,0.206,0,0.408,0,0.606s0.01,0.396,0.03,0.596h-0.729c0.014-0.199,0.024-0.397,0.03-0.596
		c0.007-0.198,0.011-0.4,0.011-0.606V7.822c0-0.205-0.004-0.407-0.011-0.606c-0.006-0.198-0.017-0.4-0.03-0.605h0.729
		c-0.021,0.205-0.03,0.407-0.03,0.605c0,0.199,0,0.401,0,0.606v0.944H69.368z"/>
	<path fill="#FFFFFF" d="M76.441,13.263h-4.25V7.996c0-0.185-0.002-0.359-0.006-0.523c-0.003-0.164-0.015-0.339-0.035-0.523h0.739
		c-0.021,0.185-0.033,0.359-0.036,0.523c-0.004,0.165-0.005,0.339-0.005,0.523v1.396h2.937V7.996c0-0.185-0.003-0.359-0.006-0.523
		c-0.003-0.164-0.016-0.339-0.036-0.523h0.739c-0.021,0.185-0.032,0.359-0.036,0.523c-0.004,0.165-0.005,0.339-0.005,0.523V13.263z
		 M75.785,9.947h-2.937v2.762h2.937V9.947z M79.074,14.891c0.004,0.229,0.016,0.456,0.036,0.683h-0.759
		c0.02-0.227,0.033-0.454,0.04-0.683c0.007-0.229,0.011-0.461,0.011-0.693V7.832c0-0.226-0.004-0.453-0.011-0.683
		s-0.021-0.46-0.04-0.693h0.759c-0.021,0.232-0.032,0.463-0.036,0.693c-0.003,0.229-0.005,0.457-0.005,0.683v6.365
		C79.069,14.43,79.071,14.661,79.074,14.891z"/>
</g>
</svg>
