<?xml version="1.0" standalone="no"?>
<!DOCTYPE svg PUBLIC "-//W3C//DTD SVG 1.1//EN" "http://www.w3.org/Graphics/SVG/1.1/DTD/svg11.dtd" >
<svg xmlns="http://www.w3.org/2000/svg">
<metadata>Generated by IcoMoon</metadata>
<defs>
<font id="mini" horiz-adv-x="1024">
<font-face units-per-em="1024" ascent="960" descent="-64" />
<missing-glyph horiz-adv-x="1024" />
<glyph unicode="&#x20;" horiz-adv-x="512" d="" />
<glyph unicode="&#xe900;" glyph-name="1" d="M343.991 830.464l325.925-382.098-324.096-383.561 71.314-53.248 368.494 437.102-370.542 435.419z" />
<glyph unicode="&#xe901;" glyph-name="2" d="M712.411 65.17l-325.925 382.098 324.096 383.561-71.314 53.248-368.494-437.102 370.542-435.419z" />
<glyph unicode="&#xe902;" glyph-name="3" d="M139.337 217.819l382.098 325.851 383.634-324.096 53.248 71.314-437.102 368.494-435.493-370.542z" />
<glyph unicode="&#xe903;" glyph-name="4" d="M904.704 659.383l-382.098-325.851-383.634 324.096-53.248-71.314 437.102-368.494 435.493 370.469z" />
<glyph unicode="&#xe904;" glyph-name="icon_folder_modi" d="M862.208 417.28c2.048 14.336 2.048 28.672 2.048 45.056 0 14.336 0 28.672-2.048 45.056l-94.208 22.528c-6.144 22.528-14.336 45.056-26.624 65.536l49.152 81.92c-18.432 22.528-40.96 45.056-65.536 65.536l-81.92-49.152c-20.48 12.288-40.96 20.48-65.536 26.624l-22.528 94.208c-14.336 2.048-28.672 2.048-45.056 2.048s-28.672 0-45.056-2.048l-22.528-94.208c-22.528-6.144-45.056-14.336-65.536-26.624l-81.92 49.152c-22.528-18.432-45.056-40.96-65.536-65.536l49.152-81.92c-12.288-20.48-20.48-40.96-26.624-65.536l-94.208-22.528c-2.048-14.336-2.048-28.672-2.048-45.056 0-14.336 0-28.672 2.048-45.056l94.208-22.528c6.144-22.528 14.336-45.056 26.624-65.536l-49.152-81.92c18.432-22.528 40.96-45.056 65.536-65.536l81.92 49.152c20.48-12.288 40.96-20.48 65.536-26.624l22.528-94.208c14.336-2.048 28.672-2.048 45.056-2.048s28.672 0 45.056 2.048l22.528 94.208c22.528 6.144 45.056 14.336 65.536 26.624l81.92-49.152c22.528 18.432 45.056 40.96 65.536 65.536l-49.152 81.92c12.288 20.48 20.48 40.96 26.624 65.536l94.208 22.528zM514.048 341.504c-67.584 0-122.88 55.296-122.88 122.88s55.296 122.88 122.88 122.88c67.584 0 122.88-55.296 122.88-122.88-2.048-69.632-55.296-122.88-122.88-122.88z" />
<glyph unicode="&#xe905;" d="M533.943 733.257c-146.286 0-256-131.657-256-285.257v-234.057h36.571c0 36.571 58.514 80.457 58.514 138.971 0 329.143 160.914 351.086 160.914 351.086-87.771-73.143-87.771-351.086-87.771-351.086l14.629-138.971h7.314c29.257 0 36.571 0 65.829 0s21.943 0 65.829 0h190.171v234.057c-7.314 153.6-117.029 285.257-256 285.257z" />
<glyph unicode="&#xe906;" d="M446.171 352.914v-234.057h-73.143v234.057h-190.171v-234.057h672.914v234.057z" />
<glyph unicode="&#xe907;" glyph-name="8" d="M182.345 738.743l222.939-293.961-221.623-294.766 96.329-71.973 281.454 367.104-283.136 365.861zM663.625 806.034h120.174v-720.823h-120.174v720.823z" />
<glyph unicode="&#xe908;" glyph-name="9" d="M171.52 696.247l-42.642 42.496-39.424-39.643 82.213-81.92 130.487 131.072-39.643 39.424zM172.032 468.773l-42.642 42.496-39.497-39.57 82.286-81.993 130.487 131.072-39.57 39.424zM172.544 241.445l-42.642 42.423-39.497-39.57 82.286-81.847 130.487 130.999-39.57 39.424zM378.295 748.763h540.745v-102.985h-540.745v102.985zM919.616 414.611l-540.672-1.189-0.227 103.058 540.672 1.189 0.227-103.058zM920.178 183.022l-540.745-1.298-0.247 102.985 540.745 1.298 0.247-102.985z" />
<glyph unicode="&#xe909;" glyph-name="10" d="M775.387 177.006v-63.854h-539.429v63.854h236.325v115.712h-175.982v63.195h176.055v95.086h-147.675v23.406c-10.898-11.776-22.455-21.943-34.816-30.501-12.288-8.558-26.039-17.554-41.179-26.99l-44.69 63.195c32.183 15.579 61.074 32.914 86.601 51.785 25.6 18.944 49.664 40.448 72.411 64.585 16.091 17.481 31.013 36.279 44.69 56.393 13.751 20.114 26.77 43.886 39.058 71.314h-144.091v57.563h169.618l9.947 24.795 73.143-31.963-15.653-35.401c15.141-32.622 32.987-60.928 53.541-84.846 20.626-23.918 43.008-45.568 67.072-64.951 27.429-21.285 54.638-40.082 81.627-56.393s52.297-27.136 75.922-32.256l-36.133-68.169c-5.193 1.39-12.215 3.877-20.992 7.461-8.704 3.584-17.115 7.241-25.161 10.971-9.435 4.754-18.286 9.435-26.624 14.19-8.265 4.754-15.653 9.728-22.309 14.921v-29.111h-140.507v-95.086h166.107v-63.195h-166.107v-115.712h229.23zM641.902 509.221c-15.579 12.288-29.696 24.576-42.203 36.864-12.581 12.361-24.503 25.307-35.84 39.058-10.825 14.19-21.87 29.257-32.987 45.129-11.118 15.799-22.089 32.987-32.987 51.419-9.509-15.653-20.114-31.817-31.963-48.64s-23.698-33.426-35.474-50.030c-12.8-15.579-25.088-29.842-36.937-42.569-11.776-12.8-21.943-23.186-30.501-31.232h278.894z" />
<glyph unicode="&#xe90a;" glyph-name="newspaper" d="M896 704v128h-896v-704c0-35.346 28.654-64 64-64h864c53.022 0 96 42.978 96 96v544h-128zM832 128h-768v640h768v-640zM128 640h640v-64h-640zM512 512h256v-64h-256zM512 384h256v-64h-256zM512 256h192v-64h-192zM128 512h320v-320h-320z" />
<glyph unicode="&#xe90b;" glyph-name="icon_folder_min" d="M258.048 595.456h456.704v88.064c0 14.336-14.336 28.672-28.672 28.672h-276.48l-8.192 32.768c-6.144 14.336-24.576 26.624-38.912 26.624h-147.456c-14.336 0-32.768-12.288-38.912-26.624l-8.192-32.768h-36.864c-14.336 0-28.672-14.336-28.672-28.672v-440.32c0 0 126.976 311.296 133.12 329.728s18.432 22.528 22.528 22.528zM954.368 564.736h-647.168c-14.336 0-34.816-12.288-40.96-26.624l-155.648-385.024c-6.144-14.336 2.048-26.624 18.432-26.624h647.168c14.336 0 34.816 12.288 40.96 26.624l155.648 385.024c6.144 14.336-2.048 26.624-18.432 26.624zM710.656 280.064h-337.92v129.024h337.92c0 0 0-129.024 0-129.024z" />
<glyph unicode="&#xe90c;" glyph-name="15" d="M504.686 294.4l-446.171 460.8h899.657l-453.486-460.8zM504.686 221.257l-182.857 190.171-263.314-263.314h899.657l-263.314 263.314-190.171-190.171zM731.429 448l226.743-226.743v453.486l-226.743-226.743zM58.514 674.743v-453.486l226.743 226.743-226.743 226.743z" />
<glyph unicode="&#xe90d;" glyph-name="icon_info" d="M577.829 448v58.514h-175.543v-58.514h58.514v-168.229h-51.2v-58.514h219.429v58.514h-51.2zM460.672 674.614l109.714 0.246 0.246-109.714-109.714-0.246-0.246 109.714zM519.314 894.171c-248.686 0-453.486-204.8-453.486-446.171 0-248.686 204.8-453.486 453.486-453.486s453.486 204.8 453.486 453.486-204.8 446.171-453.486 446.171zM519.314 82.286c-197.486 0-358.4 160.914-358.4 365.714 0 197.486 160.914 358.4 358.4 358.4s358.4-160.914 358.4-358.4c0-197.486-160.914-365.714-358.4-365.714z" />
<glyph unicode="&#xe90e;" glyph-name="16" d="M197.486 330.971h-109.714c-29.257 124.343-14.629 263.314 73.143 373.029 138.971 197.486 409.6 241.371 607.086 109.714h7.314l58.514 73.143c7.314 7.314 14.629 7.314 14.629-7.314l73.143-234.057c7.314-14.629-7.314-21.943-14.629-21.943l-248.686 14.629c-14.629 0-14.629 7.314-7.314 14.629l51.2 73.143c-146.286 95.086-351.086 58.514-453.486-87.771-65.829-87.771-80.457-204.8-43.886-307.2h-7.314zM950.857 550.4l-117.029-7.314c36.571-102.4 21.943-212.114-43.886-299.886-102.4-146.286-299.886-182.857-453.486-87.771l51.2 73.143c7.314 7.314 7.314 14.629-7.314 14.629h-234.057c-14.629 0-14.629-7.314-14.629-21.943l73.143-234.057c7.314-14.629 14.629-14.629 14.629-7.314l58.514 73.143h7.314c204.8-131.657 468.114-80.457 607.086 109.714 73.143 124.343 95.086 263.314 58.514 387.657z" />
<glyph unicode="&#xe90f;" glyph-name="icon_prev" d="M629.029 557.714h-117.029v117.029h-117.029v-117.029h-117.029v-117.029h117.029v-117.029h117.029v117.029h117.029zM936.229 38.4c0 21.943-7.314 43.886-29.257 65.829-14.629 14.629-29.257 29.257-51.2 36.571-58.514 51.2-124.343 117.029-124.343 117.029v7.314l14.629 14.629c43.886 58.514 73.143 138.971 73.143 219.429 0 197.486-168.229 365.714-365.714 365.714s-365.714-168.229-365.714-365.714c0-197.486 168.229-365.714 365.714-365.714 73.143 0 138.971 21.943 197.486 58.514v0 0 0l36.571-36.571c29.257-29.257 51.2-73.143 80.457-109.714 7.314-14.629 14.629-29.257 21.943-36.571s7.314-7.314 14.629-14.629c0 0 0-7.314 0-7.314v0c36.571-29.257 80.457-43.886 109.714-21.943 14.629 21.943 21.943 43.886 21.943 73.143v0 0zM453.486 221.257c-153.6 0-270.629 124.343-277.943 270.629 0 153.6 124.343 270.629 270.629 277.943 153.6 0 270.629-124.343 277.943-270.629 0-153.6-124.343-277.943-270.629-277.943z" />
<glyph unicode="&#xe910;" glyph-name="icon_search" d="M746.057 309.029c43.886 58.514 73.143 124.343 73.143 204.8 0 182.857-146.286 329.143-329.143 329.143s-329.143-146.286-329.143-329.143 146.286-329.143 329.143-329.143c43.886 0 80.457 7.314 117.029 21.943 7.314 0 7.314 0 14.629 7.314l160.914-190.171 124.343 102.4-160.914 182.857zM490.057 696.686c102.4 0 182.857-80.457 182.857-182.857s-80.457-182.857-182.857-182.857-182.857 87.771-182.857 182.857c0 102.4 87.771 182.857 182.857 182.857z" />
<glyph unicode="&#xe911;" glyph-name="7" d="M799.525 733.33l-96.256 71.899-281.454-367.104 283.063-365.861 95.963 72.411-222.939 293.815zM199.461 798.208h120.174v-720.823h-120.174v720.823z" />
<glyph unicode="&#xe912;" glyph-name="icon_folder_add" d="M258.048 595.456h456.704v88.064c0 14.336-14.336 28.672-28.672 28.672h-276.48l-8.192 32.768c-6.144 14.336-24.576 26.624-38.912 26.624h-147.456c-14.336 0-32.768-12.288-38.912-26.624l-8.192-32.768h-36.864c-14.336 0-28.672-14.336-28.672-28.672v-440.32c0 0 126.976 311.296 133.12 329.728s18.432 22.528 22.528 22.528zM954.368 564.736h-647.168c-14.336 0-34.816-12.288-40.96-26.624l-155.648-385.024c-6.144-14.336 2.048-26.624 18.432-26.624h647.168c14.336 0 34.816 12.288 40.96 26.624l155.648 385.024c6.144 14.336-2.048 26.624-18.432 26.624zM710.656 280.064h-104.448v-96.256h-129.024v96.256h-104.448v129.024h104.448v96.256h129.024v-96.256h104.448v-129.024z" />
<glyph unicode="&#xe913;" d="M1013.76 523.776l-8.192 96.256 6.144 2.048-294.912 192.512-45.056-12.288v-2.048c129.024-92.16 245.76-153.6 245.76-153.6l-83.968-30.72 45.056-24.576v-24.576l-65.536 40.96-524.288-198.656-262.144 204.8-26.624-14.336 288.768-245.76c0 0 0-30.72 10.24-71.68l10.24-8.192v-24.576c30.72-79.872 106.496-167.936 299.008-94.208 0 0 104.448 51.2 110.592 169.984 40.96-40.96 108.544-63.488 210.944-22.528 0 2.048 94.208 57.344 83.968 221.184zM567.296 181.76c-206.848-83.968-229.376 167.936-229.376 167.936l305.152 104.448c-2.048 2.048 114.688-194.56-75.776-272.384zM880.64 329.216c-131.072-47.104-172.032 151.552-172.032 151.552l243.712 98.304c0 2.048 88.064-190.464-71.68-249.856z" />
<glyph unicode="&#xe914;" glyph-name="icon_hwp" d="M687.543 960h-497.371c-51.2 0-87.771-43.886-87.771-87.771v-841.143c0-51.2 43.886-87.771 95.086-87.771h665.6c51.2 0 95.086 36.571 95.086 87.771v658.286l-270.629 270.629zM672.914 901.486v0 0l197.486-212.114h-190.171c0 0-7.314 0-7.314 0s0 0 0 0 0 0 0 0v212.114zM892.343 23.771c0-14.629-14.629-29.257-29.257-29.257h-672.914c-14.629 0-29.257 14.629-29.257 29.257v848.457c0 14.629 14.629 29.257 29.257 29.257h416.914v-204.8c0-7.314 0-29.257 14.629-43.886 7.314-7.314 21.943-21.943 51.2-21.943h212.114v-607.086zM263.314 477.257h351.086c0 0 7.314 0 7.314 0s0 7.314 0 7.314v43.886c0 0 0 7.314 0 7.314s-7.314 0-7.314 0h-351.086c0 0-7.314 0-7.314 0s-7.314-7.314-7.314-7.314v-36.571c0 0 7.314-7.314 14.629-14.629-7.314 0 0 0 0 0zM504.686 455.314c-21.943 7.314-36.571 7.314-58.514 7.314s-36.571 0-58.514-7.314c-14.629-7.314-29.257-14.629-43.886-21.943s-21.943-21.943-29.257-29.257c-7.314-14.629-14.629-29.257-14.629-43.886s7.314-29.257 14.629-43.886c7.314-14.629 14.629-21.943 29.257-29.257s29.257-14.629 43.886-21.943c14.629-7.314 36.571-7.314 58.514-7.314s36.571 0 58.514 7.314c14.629 7.314 29.257 14.629 43.886 21.943s21.943 14.629 29.257 29.257c7.314 14.629 7.314 29.257 7.314 43.886s0 29.257-7.314 43.886c-7.314 7.314-14.629 21.943-29.257 29.257s-29.257 14.629-43.886 21.943zM497.371 323.657c-14.629-7.314-29.257-14.629-51.2-14.629s-36.571 7.314-51.2 14.629c-14.629 7.314-21.943 21.943-21.943 36.571s7.314 21.943 21.943 36.571c14.629 7.314 29.257 14.629 51.2 14.629s36.571-7.314 51.2-14.629c14.629-14.629 21.943-21.943 21.943-36.571s-7.314-29.257-21.943-36.571zM533.943 608.914c0 0 0 0 0 0h-182.857c0 0-7.314 0-7.314 0s0-7.314 0-7.314v-36.571c0 0 0-7.314 0-7.314s7.314 0 7.314 0h175.543c0 0 7.314 0 7.314 0s0 7.314 0 7.314v43.886c7.314-7.314 7.314 0 0 0zM621.714 133.486h-277.943c-7.314 0-7.314 0-7.314 0s0 7.314 0 7.314v102.4c0 0 0 7.314 0 7.314s-7.314 0-7.314 0h-73.143c0 0-7.314 0-7.314 0s0-7.314 0-7.314v-124.343c0-21.943 0-29.257 7.314-36.571s21.943-14.629 43.886-14.629h321.829c0 0 7.314 0 7.314 0s0 7.314 0 7.314v51.2c0 0 0 0-7.314 7.314 7.314 0 0 0 0 0z" />
<glyph unicode="&#xe915;" glyph-name="icon_x" d="M870.4 755.2l-58.514 51.2-299.886-307.2-307.2 307.2-51.2-51.2 299.886-307.2-299.886-307.2 51.2-51.2 307.2 307.2 299.886-307.2 58.514 51.2-307.2 307.2z" />
<glyph unicode="&#xe916;" glyph-name="icon_history" d="M731.136 501.248h-139.264c-6.144 0-8.192-4.096-4.096-8.192l30.72-43.008c-30.72-20.48-57.344-28.672-98.304-28.672-102.4 0-184.32 81.92-184.32 184.32s81.92 184.32 184.32 184.32 184.32-81.92 184.32-184.32c0-14.336-2.048-20.48-4.096-40.96h61.44v-2.048c2.048 20.48 4.096 26.624 4.096 40.96 0 135.168-110.592 245.76-245.76 245.76s-245.76-110.592-245.76-245.76c0-135.168 102.4-245.76 245.76-245.76 40.96 0 92.16 12.288 133.12 40.96h2.048l30.72-40.96c4.096-4.096 8.192-4.096 8.192 2.048l45.056 131.072c2.048 6.144-2.048 10.24-8.192 10.24zM626.688 691.712l-14.336 14.336c-4.096 4.096-10.24 4.096-14.336 0l-65.536-65.536c-4.096 2.048-8.192 2.048-12.288 2.048-14.336 0-28.672-10.24-34.816-20.48h-57.344c-6.144 0-10.24-4.096-10.24-10.24v-20.48c0-6.144 4.096-10.24 10.24-10.24h57.344c6.144-10.24 20.48-20.48 34.816-20.48 22.528 0 40.96 18.432 40.96 40.96 0 4.096-2.048 6.144-2.048 10.24l67.584 67.584c4.096 4.096 4.096 12.288 0 12.288zM256 239.104h16.384v-219.136h-16.384v219.136zM202.752 157.184c-12.288 10.24-22.528 14.336-38.912 14.336s-30.72-4.096-38.912-14.336c-10.24-10.24-16.384-20.48-16.384-34.816s4.096-26.624 16.384-34.816c12.288-10.24 22.528-14.336 38.912-14.336s30.72 4.096 38.912 14.336c10.24 10.24 16.384 20.48 16.384 34.816 0 12.288-6.144 24.576-16.384 34.816zM190.464 97.792c-6.144-6.144-16.384-10.24-28.672-10.24s-20.48 2.048-28.672 10.24c-6.144 8.192-10.24 14.336-10.24 24.576s4.096 18.432 12.288 22.528c6.144 4.096 16.384 10.24 28.672 10.24s20.48-2.048 28.672-10.24c6.144-6.144 12.288-14.336 12.288-22.528-2.048-10.24-4.096-16.384-14.336-24.576zM172.032 239.104h-16.384v-34.816h-59.392v-14.336h133.12v14.336h-57.344zM407.552 220.672v-10.24c0-14.336-6.144-28.672-22.528-45.056s-34.816-26.624-61.44-30.72l12.288-14.336c18.432 4.096 34.816 14.336 49.152 26.624s26.624 22.528 32.768 34.816c4.096-12.288 16.384-22.528 32.768-34.816s32.768-20.48 49.152-26.624l12.288 14.336c-26.624 4.096-47.104 16.384-61.44 30.72s-22.528 30.72-22.528 43.008v12.288h-20.48zM315.392 69.12h202.752v-14.336h-202.752v14.336zM647.168 112.128h65.536v16.384h-126.976v30.72h118.784v14.336h-118.784v30.72h124.928v12.288h-141.312v-104.448h61.44v-45.056h-94.208v-16.384h204.8v16.384h-94.208zM923.648 239.104h16.384v-219.136h-16.384v219.136zM792.576 81.408v59.392h83.968v81.92h-100.352v-14.336h83.968v-51.2h-83.968v-86.016c65.536 0 104.448 2.048 124.928 4.096l-2.048 14.336c-16.384-8.192-51.2-8.192-106.496-8.192z" />
<glyph unicode="&#xe917;" glyph-name="icon_myinfo" d="M284.672 398.848h450.56c6.144 0 10.24 4.096 10.24 10.24 0 0 0 38.912 0 49.152 0 20.48-4.096 28.672-20.48 38.912-12.288 8.192-98.304 59.392-143.36 75.776v77.824c12.288 10.24 20.48 24.576 20.48 45.056v61.44c0 51.2-30.72 92.16-92.16 92.16s-92.16-40.96-92.16-92.16c0 0 0-10.24 0-61.44 0-22.528 8.192-36.864 20.48-45.056v-77.824c-40.96-18.432-131.072-69.632-143.36-75.776-16.384-10.24-20.48-18.432-20.48-38.912 0-8.192 0-49.152 0-49.152 0-6.144 4.096-10.24 10.24-10.24zM245.76 239.104h-16.384v-221.184h16.384v116.736h38.912v14.336h-38.912zM186.368 101.888c-10.24 0-22.528 0-36.864 0h-40.96v120.832h-18.432v-135.168c47.104 0 77.824 0 90.112 0s22.528 2.048 30.72 4.096l-2.048 14.336c-6.144-4.096-12.288-4.096-22.528-4.096zM378.88 75.264c-34.816 0-63.488-2.048-81.92-2.048l2.048-14.336c18.432 0 45.056 0 81.92 2.048 34.816 0 59.392 2.048 71.68 2.048l-2.048 14.336c-12.288-2.048-36.864-2.048-71.68-2.048zM329.728 206.336c-10.24-10.24-16.384-22.528-16.384-36.864s6.144-28.672 16.384-36.864c10.24-10.24 24.576-14.336 40.96-14.336s30.72 4.096 40.96 14.336c10.24 10.24 16.384 22.528 16.384 36.864s-6.144 26.624-16.384 36.864c-10.24 10.24-24.576 14.336-40.96 14.336-16.384 2.048-28.672-4.096-40.96-14.336zM411.648 169.472c0-10.24-4.096-20.48-12.288-26.624s-18.432-10.24-28.672-10.24c-10.24 0-20.48 4.096-28.672 10.24s-12.288 16.384-12.288 26.624c0 10.24 4.096 20.48 12.288 26.624s16.384 10.24 28.672 10.24c12.288 0 20.48-4.096 28.672-10.24s12.288-16.384 12.288-26.624zM464.896 239.104h16.384v-219.136h-16.384v219.136zM702.464 112.128v126.976h-18.432v-49.152h-51.2v-16.384h51.2v-61.44zM688.128 95.744c-12.288 8.192-30.72 12.288-53.248 12.288s-40.96-4.096-53.248-12.288c-12.288-8.192-18.432-18.432-18.432-30.72s6.144-22.528 18.432-30.72c12.288-8.192 30.72-12.288 53.248-12.288s40.96 4.096 53.248 12.288c12.288 8.192 18.432 18.432 18.432 30.72s-6.144 22.528-18.432 30.72zM673.792 44.544c-10.24-6.144-22.528-8.192-38.912-8.192s-30.72 2.048-38.912 8.192c-10.24 6.144-14.336 12.288-14.336 20.48s4.096 14.336 14.336 20.48c8.192 6.144 22.528 8.192 38.912 8.192s30.72-2.048 38.912-8.192c8.192-6.144 14.336-12.288 14.336-20.48s-4.096-16.384-14.336-20.48zM585.728 173.568c4.096-8.192 10.24-18.432 20.48-26.624s20.48-16.384 30.72-22.528l12.288 12.288c-14.336 6.144-26.624 16.384-38.912 28.672-10.24 14.336-16.384 26.624-16.384 43.008v6.144h49.152v14.336h-112.64v-14.336h49.152v-6.144c0-16.384-6.144-30.72-16.384-45.056s-24.576-24.576-38.912-32.768l12.288-12.288c10.24 6.144 20.48 14.336 30.72 24.576 8.192 12.288 14.336 22.528 18.432 30.72zM851.968 67.072v47.104h59.392v106.496h-16.384v-38.912h-104.448v38.912h-16.384v-106.496h61.44v-47.104h-94.208v-14.336h204.8v14.336h-94.208zM790.528 130.56v36.864h104.448v-36.864h-104.448z" />
<glyph unicode="&#xe918;" glyph-name="icon_alert" d="M524.288 364.032c24.576 0 45.056 16.384 53.248 36.864-16.384-2.048-34.816-2.048-53.248-2.048s-36.864 0-53.248 2.048c8.192-22.528 28.672-36.864 53.248-36.864zM733.184 503.296h-8.192l-51.2 61.44-26.624 143.36c-8.192 51.2-47.104 90.112-96.256 100.352l8.192 22.528c4.096 10.24-2.048 18.432-14.336 18.432h-40.96c-10.24 0-18.432-8.192-14.336-18.432l8.192-22.528c-49.152-10.24-88.064-51.2-96.256-100.352l-26.624-143.36-51.2-61.44h-8.192c-10.24 0-20.48-10.24-20.48-20.48s8.192-24.576 18.432-28.672c0 0 88.064-32.768 210.944-32.768s210.944 32.768 210.944 32.768c10.24 4.096 18.432 16.384 18.432 28.672s-8.192 20.48-20.48 20.48zM374.784 60.928h118.784v51.2h-135.168v-14.336h118.784v-22.528h-118.784v-55.296h141.312v16.384h-124.928zM493.568 241.152h-16.384v-116.736h16.384v47.104h34.816v14.336h-34.816zM423.936 146.944c10.24 10.24 16.384 22.528 16.384 36.864s-6.144 26.624-16.384 36.864c-10.24 10.24-24.576 14.336-40.96 14.336s-30.72-4.096-40.96-14.336c-10.24-10.24-16.384-22.528-16.384-36.864s6.144-26.624 16.384-36.864c10.24-10.24 24.576-14.336 40.96-14.336s30.72 4.096 40.96 14.336zM344.064 185.856c0 10.24 4.096 20.48 10.24 26.624 8.192 6.144 16.384 10.24 28.672 10.24s22.528-4.096 28.672-10.24c8.192-6.144 10.24-16.384 10.24-26.624 0-12.288-4.096-20.48-10.24-26.624-8.192-6.144-16.384-10.24-28.672-10.24s-22.528 4.096-28.672 10.24c-8.192 6.144-10.24 14.336-10.24 26.624zM690.176 126.464l-2.048 14.336c-8.192-2.048-18.432-2.048-30.72-4.096-10.24 0-34.816 0-73.728 0v34.816h83.968v59.392h-100.352v-14.336h83.968v-28.672h-83.968v-65.536c47.104 0 77.824 0 88.064 0 12.288 0 22.528 2.048 34.816 4.096zM714.752 241.152h18.432v-131.072h-18.432v131.072zM593.92 19.968h139.264v77.824h-139.264v-77.824zM610.304 83.456h104.448v-47.104h-104.448v47.104z" />
<glyph unicode="&#xe919;" glyph-name="icon_question" d="M677.888 503.296v81.92c0 6.144-2.048 8.192-6.144 8.192h-45.056c-6.144 0-8.192-4.096-8.192-8.192 0 0-8.192-26.624-8.192-69.632 0-16.384 4.096-36.864 6.144-51.2 30.72 6.144 47.104 22.528 61.44 38.912zM520.192 849.408c-112.64 0-212.992-100.352-212.992-212.992v-106.496c0-6.144 4.096-8.192 8.192-8.192h18.432c6.144 0 8.192 4.096 8.192 8.192v106.496c0 92.16 83.968 159.744 176.128 159.744s176.128-67.584 176.128-159.744v-147.456c-4.096-8.192-24.576-57.344-131.072-69.632-6.144 10.24-16.384 16.384-28.672 16.384h-18.432c-18.432 0-34.816-16.384-34.816-34.816s16.384-34.816 34.816-34.816h18.432c14.336 0 26.624 8.192 32.768 20.48 143.36 14.336 161.792 96.256 161.792 98.304v153.6c2.048 110.592-98.304 210.944-208.896 210.944zM411.648 433.664c6.144 0 8.192 4.096 8.192 8.192 0 0 8.192 26.624 8.192 69.632 0 45.056-8.192 69.632-8.192 69.632 0 6.144-6.144 8.192-8.192 8.192h-43.008c-6.144 0-6.144-4.096-6.144-8.192v-141.312c0-6.144 2.048-8.192 6.144-8.192h43.008zM262.144 230.912h-135.168v-77.824h135.168v77.824zM245.76 167.424h-102.4v49.152h102.4v-49.152zM92.16 112.128h96.256v-45.056h16.384v45.056h92.16v14.336h-204.8zM141.312 91.648h-16.384v-65.536h143.36v14.336h-126.976zM483.328 239.104h16.384v-219.136h-16.384v219.136zM348.16 132.608c10.24-10.24 24.576-14.336 40.96-14.336s30.72 4.096 40.96 14.336 16.384 22.528 16.384 36.864c0 14.336-6.144 26.624-16.384 36.864s-24.576 16.384-40.96 16.384c-16.384 0-30.72-4.096-40.96-14.336s-16.384-22.528-16.384-36.864c0-16.384 6.144-28.672 16.384-38.912zM360.448 196.096c8.192 6.144 18.432 10.24 28.672 10.24 12.288 0 20.48-4.096 28.672-10.24s12.288-16.384 12.288-26.624-4.096-20.48-12.288-26.624c-8.192-6.144-18.432-10.24-28.672-10.24s-20.48 4.096-28.672 10.24c-8.192 6.144-12.288 16.384-12.288 26.624s4.096 20.48 12.288 26.624zM397.312 75.264c-34.816 0-63.488-2.048-81.92-2.048l2.048-14.336c18.432 0 45.056 0 81.92 2.048 34.816 0 59.392 2.048 71.68 2.048l-2.048 14.336c-12.288-2.048-36.864-2.048-71.68-2.048zM571.392 95.744v124.928h-16.384v-139.264c51.2 0 81.92 2.048 94.208 4.096l-4.096 14.336c-16.384-2.048-40.96-4.096-73.728-4.096zM706.56 142.848h-28.672v92.16h-18.432v-208.896h18.432v102.4h28.672v-110.592h16.384v221.184h-16.384zM798.72 87.552h124.928v-67.584h18.432v81.92h-143.36zM923.648 239.104v-28.672h-45.056c-10.24 16.384-26.624 22.528-47.104 22.528-16.384 0-30.72-6.144-40.96-16.384s-16.384-24.576-16.384-40.96c0-16.384 6.144-30.72 16.384-40.96s24.576-16.384 40.96-16.384c20.48 0 34.816 6.144 47.104 20.48h47.104v-28.672h16.384v124.928h-18.432zM860.16 146.944c-8.192-8.192-16.384-10.24-28.672-10.24s-20.48 4.096-28.672 10.24c-8.192 8.192-10.24 16.384-10.24 30.72s4.096 22.528 10.24 30.72c8.192 8.192 16.384 10.24 28.672 10.24s20.48-4.096 28.672-10.24c8.192-8.192 10.24-18.432 10.24-30.72s-2.048-22.528-10.24-30.72zM923.648 157.184h-38.912c2.048 6.144 4.096 12.288 4.096 20.48 0 6.144 0 12.288-2.048 18.432h38.912v-38.912z" />
<glyph unicode="&#xe91a;" glyph-name="icon_myfolder" d="M364.544 706.048h317.44v61.44c0 10.24-10.24 20.48-20.48 20.48h-190.464l-6.144 22.528c-4.096 10.24-16.384 18.432-26.624 18.432h-102.4c-10.24 0-22.528-8.192-26.624-18.432l-6.144-22.528h-26.624c-10.24 0-20.48-10.24-20.48-20.48v-305.152c0 0 88.064 217.088 92.16 229.376 6.144 12.288 14.336 14.336 16.384 14.336zM753.664 398.848l108.544 268.288c4.096 10.24-2.048 18.432-12.288 18.432h-450.56c-10.24 0-24.576-8.192-28.672-18.432l-108.544-268.288c-4.096-10.24 2.048-18.432 12.288-18.432h450.56c10.24 0 24.576 8.192 28.672 18.432zM196.608 81.408c-10.24 0-22.528 0-36.864 0h-40.96v120.832h-16.384v-135.168c47.104 0 77.824 0 90.112 0s22.528 2.048 30.72 4.096l-2.048 14.336c-6.144-4.096-14.336-4.096-24.576-4.096zM258.048 218.624h-18.432v-221.184h18.432v116.736h36.864v14.336h-36.864zM475.136 218.624h16.384v-219.136h-16.384v219.136zM391.168 54.784c-34.816 0-63.488-2.048-81.92-2.048l2.048-14.336c18.432 0 45.056 0 81.92 2.048 34.816 0 59.392 2.048 71.68 2.048l-2.048 14.336c-14.336-2.048-36.864-2.048-71.68-2.048zM423.936 112.128c10.24 10.24 16.384 22.528 16.384 36.864s-6.144 26.624-16.384 36.864c-10.24 10.24-24.576 14.336-40.96 14.336s-30.72-4.096-40.96-14.336-16.384-22.528-16.384-36.864c0-14.336 6.144-28.672 16.384-36.864s24.576-14.336 40.96-14.336c16.384-2.048 30.72 4.096 40.96 14.336zM342.016 148.992c0 10.24 4.096 20.48 12.288 26.624s18.432 10.24 28.672 10.24c12.288 0 20.48-4.096 28.672-10.24s12.288-16.384 12.288-26.624c0-10.24-4.096-20.48-12.288-26.624s-18.432-10.24-28.672-10.24c-10.24 0-20.48 4.096-28.672 10.24s-12.288 16.384-12.288 26.624zM641.024 140.8h69.632v14.336h-30.72l2.048 34.816h-16.384l-4.096-34.816h-59.392l-4.096 34.816h-16.384l2.048-34.816h-32.768v-14.336h71.68v-22.528h-92.16v-14.336h202.752v14.336h-92.16zM555.008 212.48h153.6v-14.336h-153.6v14.336zM579.584 36.352h120.832v49.152h-137.216v-14.336h120.832v-20.48h-120.832v-49.152h143.36v16.384h-126.976zM915.456 218.624v-79.872h-65.536v-16.384h65.536v-124.928h16.384v221.184zM788.48 73.216v112.64h90.112v16.384h-106.496v-143.36c40.96 0 67.584 0 79.872 0s26.624 2.048 36.864 2.048l-2.048 14.336c-10.24-2.048-45.056-2.048-98.304-2.048z" />
<glyph unicode="&#xe91b;" glyph-name="alert_s" d="M409.6 60.343c14.629-43.886 51.2-65.829 102.4-65.829s87.771 29.257 102.4 65.829c-29.257-7.314-65.829-7.314-102.4-7.314s-65.829 7.314-102.4 7.314zM899.657 257.829h-14.629l-95.086 117.029-51.2 270.629c-14.629 87.771-87.771 160.914-175.543 182.857l14.629 43.886c7.314 14.629-7.314 29.257-29.257 29.257h-73.143c-21.943 0-36.571-14.629-29.257-36.571l14.629-43.886c-87.771-14.629-160.914-95.086-175.543-182.857l-51.2-270.629-95.086-109.714h-14.629c-21.943 0-36.571-21.943-36.571-36.571s14.629-43.886 36.571-51.2c0 0 160.914-58.514 394.971-58.514s394.971 58.514 394.971 58.514c21.943 7.314 36.571 29.257 36.571 51.2s-29.257 36.571-51.2 36.571z" />
<glyph unicode="&#xe91c;" glyph-name="history_s" d="M950.857 374.857c7.314 36.571 7.314 51.2 7.314 73.143 0 241.371-204.8 438.857-438.857 438.857-241.371 0-453.486-190.171-453.486-438.857s182.857-438.857 438.857-438.857c73.143 0 168.229 21.943 234.057 73.143h7.314l58.514-73.143c7.314-7.314 14.629-7.314 14.629 7.314l80.457 234.057c0 0-7.314 7.314-14.629 7.314h-241.371c-14.629 0-14.629-7.314-7.314-14.629l58.514-73.143c-58.514-36.571-109.714-43.886-182.857-43.886-182.857 0-336.457 146.286-336.457 336.457s146.286 336.457 336.457 336.457 329.143-153.6 329.143-343.771c0-29.257-7.314-36.571-7.314-73.143h117.029zM702.171 608.914l-29.257 21.943c-7.314 7.314-14.629 7.314-21.943 0l-124.343-117.029c-7.314 7.314-14.629 7.314-14.629 7.314-29.257 0-51.2-21.943-65.829-36.571h-102.4c-14.629 0-21.943-7.314-21.943-21.943v-36.571c0-14.629 7.314-21.943 21.943-21.943h102.4c14.629-14.629 43.886-29.257 65.829-29.257 43.886 0 73.143 29.257 73.143 73.143 0 0-7.314 7.314-7.314 14.629l124.343 117.029c7.314 7.314 7.314 29.257 0 29.257z" />
<glyph unicode="&#xe91d;" glyph-name="myinfo_s" d="M65.829 1.829h892.343c14.629 0 21.943 7.314 21.943 21.943 0 0 0 80.457 0 95.086 0 43.886-7.314 58.514-43.886 80.457-21.943 14.629-197.486 117.029-285.257 153.6v146.286c29.257 21.943 43.886 51.2 43.886 87.771v124.343c0 102.4-58.514 182.857-182.857 182.857s-182.857-80.457-182.857-182.857c0 0 0-21.943 0-124.343 0-43.886 14.629-73.143 43.886-87.771v-153.6c-80.457-36.571-263.314-138.971-285.257-146.286-29.257-21.943-43.886-36.571-43.886-80.457 0-14.629 0-95.086 0-95.086 0-14.629 7.314-21.943 21.943-21.943z" />
<glyph unicode="&#xe91e;" d="M671.744 800.256c0 0 0 0 0 0v0 0z" />
<glyph unicode="&#xe91f;" glyph-name="book" d="M896 832v-832h-672c-53.026 0-96 42.98-96 96s42.974 96 96 96h608v768h-640c-70.398 0-128-57.6-128-128v-768c0-70.4 57.602-128 128-128h768v896h-64zM224.056 128v0c-0.018-0.002-0.038 0-0.056 0-17.672 0-32-14.326-32-32s14.328-32 32-32c0.018 0 0.038 0.002 0.056 0.002v-0.002h607.89v64h-607.89z" />
<glyph unicode="&#xe920;" d="M335.872 349.696c0 0 22.528-251.904 229.376-167.936 190.464 77.824 73.728 272.384 73.728 272.384l-303.104-104.448z" />
<glyph unicode="&#xe921;" d="M708.608 480.768c0 0 40.96-198.656 172.032-151.552 159.744 57.344 71.68 249.856 71.68 249.856l-243.712-98.304z" />
<glyph unicode="&#xe922;" d="M299.008 284.16l-243.712 186.368-55.296 129.024 36.864-129.024 272.384-219.136v24.576z" />
<glyph unicode="&#xe923;" d="M878.592 591.36l-45.056 24.576-106.496 57.344-53.248 126.976h-2.048l36.864-126.976 106.496-65.536 63.488-40.96z" />
<glyph unicode="&#xe924;" glyph-name="icon_memo" d="M976.896 355.84l-284.672-284.672c-6.144-6.144-16.384-4.096-22.528 4.096l-51.2 51.2 231.424 231.424c16.384 16.384 16.384 28.672 0 45.056l-430.080 430.080h96.256c10.24 0 28.672-4.096 34.816-6.144 6.144-4.096 12.288-10.24 18.432-16.384l407.552-407.552c10.24-12.288 12.288-34.816 0-47.104zM368.64 816.64c-6.144 6.144-18.432 12.288-28.672 12.288h-284.672c-10.24 0-16.384-6.144-16.384-16.384v-282.624c0-10.24 6.144-22.528 12.288-28.672l430.080-430.080c6.144-6.144 16.384-6.144 22.528 0l294.912 294.912c6.144 6.144 6.144 16.384 0 22.528l-430.080 428.032zM243.712 624.128c-26.624-26.624-63.488-26.624-90.112 0s-26.624 63.488 0 90.112 63.488 26.624 90.112 0c24.576-24.576 24.576-63.488 0-90.112z" />
<glyph unicode="&#xe925;" glyph-name="pencil" d="M864 960c88.364 0 160-71.634 160-160 0-36.020-11.91-69.258-32-96l-64-64-224 224 64 64c26.742 20.090 59.978 32 96 32zM64 224l-64-288 288 64 592 592-224 224-592-592zM715.578 596.422l-448-448-55.156 55.156 448 448 55.156-55.156z" />
<glyph unicode="&#xe926;" glyph-name="file-text2" d="M917.806 730.924c-22.212 30.292-53.174 65.7-87.178 99.704s-69.412 64.964-99.704 87.178c-51.574 37.82-76.592 42.194-90.924 42.194h-496c-44.112 0-80-35.888-80-80v-864c0-44.112 35.888-80 80-80h736c44.112 0 80 35.888 80 80v624c0 14.332-4.372 39.35-42.194 90.924zM785.374 785.374c30.7-30.7 54.8-58.398 72.58-81.374h-153.954v153.946c22.984-17.78 50.678-41.878 81.374-72.572zM896 16c0-8.672-7.328-16-16-16h-736c-8.672 0-16 7.328-16 16v864c0 8.672 7.328 16 16 16 0 0 495.956 0.002 496 0v-224c0-17.672 14.326-32 32-32h224v-624zM736 128h-448c-17.672 0-32 14.326-32 32s14.328 32 32 32h448c17.674 0 32-14.326 32-32s-14.326-32-32-32zM736 256h-448c-17.672 0-32 14.326-32 32s14.328 32 32 32h448c17.674 0 32-14.326 32-32s-14.326-32-32-32zM736 384h-448c-17.672 0-32 14.326-32 32s14.328 32 32 32h448c17.674 0 32-14.326 32-32s-14.326-32-32-32z" />
<glyph unicode="&#xe927;" glyph-name="icon_etc" d="M687.543 960h-497.371c-51.2 0-87.771-43.886-87.771-87.771v-841.143c0-51.2 43.886-87.771 95.086-87.771h665.6c51.2 0 95.086 36.571 95.086 87.771v658.286l-270.629 270.629zM672.914 901.486v0 0l197.486-212.114h-197.486v212.114zM892.343 23.771c0-14.629-14.629-29.257-29.257-29.257h-672.914c-14.629 0-29.257 14.629-29.257 29.257v848.457c0 14.629 14.629 29.257 29.257 29.257h416.914v-204.8c0-7.314 0-29.257 14.629-43.886 7.314-7.314 21.943-21.943 51.2-21.943h219.429v-607.086zM270.629 272.457c0-65.829 36.571-87.771 80.457-87.771 29.257 0 51.2 7.314 65.829 14.629l7.314-36.571c-14.629-7.314-43.886-14.629-80.457-14.629-73.143 0-117.029 51.2-117.029 131.657s43.886 138.971 117.029 138.971c80.457 0 102.4-73.143 102.4-124.343 0-7.314 0-14.629 0-21.943h-175.543zM402.286 309.029c0 29.257-14.629 80.457-58.514 80.457s-65.829-43.886-65.829-80.457h124.343zM555.886 477.257v-65.829h65.829v-36.571h-65.829v-138.971c0-29.257 7.314-51.2 36.571-51.2 14.629 0 21.943 0 29.257 0v-36.571c-7.314-7.314-21.943-7.314-36.571-7.314-21.943 0-36.571 7.314-51.2 21.943s-21.943 36.571-21.943 73.143v138.971h-36.571v36.571h36.571v51.2l43.886 14.629zM841.143 162.743c-14.629-7.314-36.571-14.629-73.143-14.629-73.143 0-124.343 51.2-124.343 131.657s51.2 138.971 131.657 138.971c29.257 0 51.2-7.314 58.514-14.629l-7.314-36.571c-7.314 7.314-21.943 14.629-43.886 14.629-58.514 0-87.771-43.886-87.771-102.4s36.571-95.086 87.771-95.086c21.943 0 43.886 7.314 51.2 14.629l7.314-36.571z" />
<glyph unicode="&#xe928;" glyph-name="icon_naver" d="M292.571 499.2c0-16.158-13.099-29.257-29.257-29.257s-29.257 13.099-29.257 29.257c0 16.158 13.099 29.257 29.257 29.257s29.257-13.099 29.257-29.257zM607.086 499.2c0-20.198-16.374-36.571-36.571-36.571s-36.571 16.374-36.571 36.571c0 20.198 16.374 36.571 36.571 36.571s36.571-16.374 36.571-36.571zM848.457 842.971h-658.286c-65.829 0-124.343-51.2-124.343-124.343v-394.971c0-65.829 51.2-124.343 124.343-124.343h234.057l80.457-190.171c0 0 7.314-14.629 21.943-14.629 0 0 0 0 0 0 14.629 0 21.943 14.629 21.943 14.629l80.457 190.171h234.057c65.829 0 124.343 51.2 124.343 124.343v394.971c-14.629 65.829-73.143 124.343-138.971 124.343zM351.086 491.886c0-73.143-73.143-73.143-73.143-73.143-29.257 0-43.886 21.943-43.886 21.943v-14.629h-58.514v226.743c0 0 0 0 0 0v0c0 0 51.2 0 51.2 0v-87.771c14.629 21.943 51.2 21.943 51.2 21.943 80.457-7.314 73.143-95.086 73.143-95.086zM446.171 579.657v-153.6h-51.2v153.6c0 21.943-29.257 21.943-29.257 21.943v58.514c87.771-7.314 80.457-80.457 80.457-80.457zM570.514 418.743c-51.2 0-87.771 36.571-87.771 80.457s36.571 80.457 87.771 80.457c51.2 7.314 87.771-29.257 87.771-80.457s-36.571-80.457-87.771-80.457zM863.086 418.743c0 0 0-80.457-80.457-80.457h-21.943v51.2h14.629c0 0 36.571 0 29.257 51.2 0 0-7.314-21.943-51.2-21.943 0 0-65.829 7.314-65.829 65.829v29.257c0 0 0 65.829 73.143 73.143 0 0 29.257 0 43.886-21.943v14.629h51.2v-160.914zM804.571 499.2c0-16.158-13.099-29.257-29.257-29.257s-29.257 13.099-29.257 29.257c0 16.158 13.099 29.257 29.257 29.257s29.257-13.099 29.257-29.257z" />
<glyph unicode="&#xe929;" glyph-name="icon_kstory" d="M768 908.8h-453.486c-36.571 0-58.514-21.943-58.514-43.886v-394.971c0-29.257 21.943-51.2 58.514-51.2h212.114c0-43.886-21.943-95.086-58.514-146.286s-117.029-109.714-117.029-109.714c-7.314-7.314-7.314-14.629-7.314-21.943s7.314-14.629 7.314-14.629l146.286-146.286c0 0 7.314-7.314 14.629-7.314s14.629 0 21.943 0c256 168.229 292.571 380.343 299.886 497.371 0 0 0 380.343 0 380.343-14.629 36.571-36.571 58.514-65.829 58.514z" />
<glyph unicode="&#xe92a;" glyph-name="icon_login" d="M833.829 477.257h-36.571v175.543c0 124.343-102.4 219.429-219.429 219.429h-131.657c-124.343 0-219.429-102.4-219.429-219.429v-175.543h-43.886c-36.571 0-73.143-29.257-73.143-73.143v-336.457c0-43.886 36.571-73.143 73.143-73.143h658.286c36.571 0 73.143 36.571 65.829 73.143v336.457c0 43.886-29.257 73.143-73.143 73.143zM336.457 747.886h358.4v-270.629h-358.4v270.629z" />
<glyph unicode="&#xe92b;" glyph-name="icon_compare" d="M87.771 872.229v-848.457h863.086v848.457h-863.086zM870.4 104.229h-709.486v621.714h709.486v-621.714zM226.743 448h51.2v-80.457h-51.2v80.457zM424.229 448h51.2v-80.457h-51.2v80.457zM285.257 594.286h43.886v51.2h-102.4v-131.657h58.514zM424.229 513.829h58.514v131.657h-102.4v-51.2h43.886zM329.143 206.629h-43.886v87.771h-58.514v-131.657h102.4zM482.743 206.629v87.771h-58.514v-87.771h-43.886v-43.886h102.4zM555.886 448h51.2v-80.457h-51.2v80.457zM753.371 448h51.2v-80.457h-51.2v80.457zM607.086 594.286h43.886v51.2h-95.086v-131.657h51.2zM753.371 513.829h51.2v131.657h-95.086v-51.2h43.886zM650.971 206.629h-43.886v87.771h-51.2v-131.657h95.086zM804.571 206.629v87.771h-51.2v-87.771h-43.886v-43.886h95.086z" />
<glyph unicode="&#xe92c;" glyph-name="icon_menu" d="M87.771 769.829h841.143v-117.029h-841.143v117.029zM87.771 462.629h841.143v-117.029h-841.143v117.029zM87.771 170.057h841.143v-117.029h-841.143v117.029z" />
<glyph unicode="&#xe92d;" glyph-name="icon_filter" d="M921.6 908.8l-292.571-504.686v-285.257l-168.229-160.914v438.857l-307.2 512h768zM833.829 755.2h-592.457l29.257-43.886h533.943l29.257 43.886z" />
<glyph unicode="&#xe92e;" glyph-name="home2" d="M512 928l-512-512 96-96 96 96v-416h256v192h128v-192h256v416l96-96 96 96-512 512zM512 512c-35.346 0-64 28.654-64 64s28.654 64 64 64c35.346 0 64-28.654 64-64s-28.654-64-64-64z" />
<glyph unicode="&#xe92f;" glyph-name="icon_top" d="M965.486 484.571l-431.543 365.714-438.857-365.714 51.2-73.143 351.086 299.886v-672.914h73.143v672.914l343.771-299.886z" />
<glyph unicode="&#xe930;" glyph-name="folder-open" d="M832 0l192 512h-832l-192-512zM128 576l-128-576v832h288l128-128h416v-128z" />
<glyph unicode="&#xe931;" glyph-name="icon_more" d="M314.514 448c0-40.396-32.747-73.143-73.143-73.143s-73.143 32.747-73.143 73.143c0 40.396 32.747 73.143 73.143 73.143s73.143-32.747 73.143-73.143zM899.657 448c0-40.396-32.747-73.143-73.143-73.143s-73.143 32.747-73.143 73.143c0 40.396 32.747 73.143 73.143 73.143s73.143-32.747 73.143-73.143zM607.086 448c0-40.396-32.747-73.143-73.143-73.143s-73.143 32.747-73.143 73.143c0 40.396 32.747 73.143 73.143 73.143s73.143-32.747 73.143-73.143z" />
<glyph unicode="&#xe932;" glyph-name="icon_help" d="M277.943 118.857c343.771 0 519.314 0 519.314 0v51.2h-519.314c0 7.314-36.571-7.314 0-51.2zM855.771 777.143v-709.486h-585.143c0 0-65.829 7.314-65.829 87.771s73.143 80.457 73.143 80.457h526.629v650.971h-570.514c0-7.314-87.771 0-87.771-109.714s0-672.914 0-672.914 29.257-95.086 87.771-95.086c51.2 0 687.543 0 687.543 0v768h-65.829zM504.686 316.343c-21.943 0-36.571 14.629-36.571 43.886 0 21.943 14.629 43.886 43.886 43.886 21.943 0 36.571-14.629 36.571-43.886s-14.629-43.886-43.886-43.886zM519.314 784.457c80.457 0 109.714-51.2 109.714-102.4 0-43.886-29.257-80.457-58.514-117.029-29.257-29.257-36.571-65.829-36.571-95.086v-14.629h-51.2v14.629c-7.314 36.571 7.314 73.143 43.886 117.029 29.257 36.571 43.886 65.829 43.886 95.086 0 36.571-21.943 58.514-65.829 58.514-21.943-7.314-51.2-14.629-65.829-29.257l-14.629 43.886c21.943 14.629 58.514 29.257 95.086 29.257z" />
<glyph unicode="&#xe954;" glyph-name="printer" d="M256 896h512v-128h-512v128zM960 704h-896c-35.2 0-64-28.8-64-64v-320c0-35.2 28.794-64 64-64h192v-256h512v256h192c35.2 0 64 28.8 64 64v320c0 35.2-28.8 64-64 64zM128 512c-35.346 0-64 28.654-64 64s28.654 64 64 64 64-28.654 64-64-28.652-64-64-64zM704 64h-384v320h384v-320z" />
<glyph unicode="&#xe962;" glyph-name="floppy-disk" d="M896 960h-896v-1024h1024v896l-128 128zM512 832h128v-256h-128v256zM896 64h-768v768h64v-320h576v320h74.978l53.022-53.018v-714.982z" />
<glyph unicode="&#xe9ac;" glyph-name="bin" d="M128 640v-640c0-35.2 28.8-64 64-64h576c35.2 0 64 28.8 64 64v640h-704zM320 64h-64v448h64v-448zM448 64h-64v448h64v-448zM576 64h-64v448h64v-448zM704 64h-64v448h64v-448zM848 832h-208v80c0 26.4-21.6 48-48 48h-224c-26.4 0-48-21.6-48-48v-80h-208c-26.4 0-48-21.6-48-48v-80h832v80c0 26.4-21.6 48-48 48zM576 832h-192v63.198h192v-63.198z" />
<glyph unicode="&#xe9c7;" glyph-name="download3" d="M736 512l-256-256-256 256h160v384h192v-384zM480 256h-480v-256h960v256h-480zM896 128h-128v64h128v-64z" />
<glyph unicode="&#xe9d7;" glyph-name="star-empty" d="M1024 562.95l-353.78 51.408-158.22 320.582-158.216-320.582-353.784-51.408 256-249.538-60.432-352.352 316.432 166.358 316.432-166.358-60.434 352.352 256.002 249.538zM512 206.502l-223.462-117.48 42.676 248.83-180.786 176.222 249.84 36.304 111.732 226.396 111.736-226.396 249.836-36.304-180.788-176.222 42.678-248.83-223.462 117.48z" />
<glyph unicode="&#xe9d9;" glyph-name="star-full" d="M1024 562.95l-353.78 51.408-158.22 320.582-158.216-320.582-353.784-51.408 256-249.538-60.432-352.352 316.432 166.358 316.432-166.358-60.434 352.352 256.002 249.538z" />
<glyph unicode="&#xea07;" glyph-name="warning" d="M512 867.226l429.102-855.226h-858.206l429.104 855.226zM512 960c-22.070 0-44.14-14.882-60.884-44.648l-437.074-871.112c-33.486-59.532-5-108.24 63.304-108.24h869.308c68.3 0 96.792 48.708 63.3 108.24h0.002l-437.074 871.112c-16.742 29.766-38.812 44.648-60.882 44.648v0zM576 128c0-35.346-28.654-64-64-64s-64 28.654-64 64c0 35.346 28.654 64 64 64s64-28.654 64-64zM512 256c-35.346 0-64 28.654-64 64v192c0 35.346 28.654 64 64 64s64-28.654 64-64v-192c0-35.346-28.654-64-64-64z" />
<glyph unicode="&#xea0a;" glyph-name="plus" d="M992 576h-352v352c0 17.672-14.328 32-32 32h-192c-17.672 0-32-14.328-32-32v-352h-352c-17.672 0-32-14.328-32-32v-192c0-17.672 14.328-32 32-32h352v-352c0-17.672 14.328-32 32-32h192c17.672 0 32 14.328 32 32v352h352c17.672 0 32 14.328 32 32v192c0 17.672-14.328 32-32 32z" />
<glyph unicode="&#xea0b;" glyph-name="minus" d="M0 544v-192c0-17.672 14.328-32 32-32h960c17.672 0 32 14.328 32 32v192c0 17.672-14.328 32-32 32h-960c-17.672 0-32-14.328-32-32z" />
<glyph unicode="&#xea10;" glyph-name="checkmark" d="M864 832l-480-480-224 224-160-160 384-384 640 640z" />
<glyph unicode="&#xea1f;" glyph-name="backward2" d="M576 800v-320l320 320v-704l-320 320v-320l-352 352z" />
<glyph unicode="&#xea20;" glyph-name="forward3" d="M512 96v320l-320-320v704l320-320v320l352-352z" />
<glyph unicode="&#xea3a;" glyph-name="arrow-up2" d="M877.254 557.254l-320 320c-24.992 24.994-65.514 24.994-90.508 0l-320-320c-24.994-24.994-24.994-65.516 0-90.51 24.994-24.996 65.516-24.996 90.51 0l210.744 210.746v-613.49c0-35.346 28.654-64 64-64s64 28.654 64 64v613.49l210.746-210.746c12.496-12.496 28.876-18.744 45.254-18.744s32.758 6.248 45.254 18.746c24.994 24.994 24.994 65.514 0 90.508z" />
<glyph unicode="&#xea3e;" glyph-name="arrow-down2" d="M877.254 338.746l-320-320c-24.992-24.994-65.514-24.994-90.508 0l-320 320c-24.994 24.994-24.994 65.516 0 90.51 24.994 24.996 65.516 24.996 90.51 0l210.744-210.746v613.49c0 35.346 28.654 64 64 64s64-28.654 64-64v-613.49l210.746 210.746c12.496 12.496 28.876 18.744 45.254 18.744s32.758-6.248 45.254-18.746c24.994-24.994 24.994-65.514 0-90.508z" />
<glyph unicode="&#xea48;" glyph-name="sort-alpha-asc" d="M320 192v768h-128v-768h-160l224-224 224 224h-160zM928-64h-256c-11.8 0-22.644 6.496-28.214 16.9-5.566 10.404-4.958 23.030 1.59 32.85l222.832 334.25h-196.208c-17.672 0-32 14.328-32 32s14.328 32 32 32h256c11.8 0 22.644-6.496 28.214-16.9 5.566-10.404 4.958-23.030-1.59-32.85l-222.83-334.25h196.206c17.672 0 32-14.328 32-32s-14.328-32-32-32zM1020.622 558.314l-192.002 384c-5.42 10.842-16.502 17.69-28.622 17.69-12.122 0-23.202-6.848-28.624-17.69l-191.996-384c-7.904-15.806-1.496-35.030 14.31-42.932 4.594-2.296 9.476-3.386 14.288-3.386 11.736 0 23.040 6.484 28.644 17.698l55.156 110.31h216.446l55.156-110.31c7.902-15.806 27.124-22.21 42.932-14.31 15.808 7.902 22.216 27.124 14.312 42.93zM723.778 704.004l76.22 152.446 76.224-152.446h-152.444z" />
<glyph unicode="&#xea49;" glyph-name="sort-alpha-desc" d="M320 192v768h-128v-768h-160l224-224 224 224h-160zM928 512h-256c-11.8 0-22.644 6.496-28.214 16.9-5.566 10.406-4.958 23.030 1.59 32.85l222.832 334.25h-196.208c-17.672 0-32 14.328-32 32s14.328 32 32 32h256c11.8 0 22.644-6.496 28.214-16.9 5.566-10.406 4.958-23.030-1.59-32.85l-222.83-334.25h196.206c17.672 0 32-14.328 32-32s-14.328-32-32-32zM1020.622-17.69l-192.002 384c-5.42 10.842-16.502 17.69-28.622 17.69-12.122 0-23.202-6.848-28.624-17.69l-191.996-384c-7.904-15.806-1.496-35.030 14.31-42.932 4.594-2.296 9.476-3.386 14.288-3.386 11.736 0 23.040 6.484 28.644 17.698l55.158 110.31h216.446l55.156-110.31c7.902-15.806 27.124-22.21 42.932-14.31 15.806 7.902 22.214 27.124 14.31 42.93zM723.778 128l76.22 152.446 76.226-152.446h-152.446z" />
<glyph unicode="&#xea4a;" glyph-name="sort-numeric-asc" d="M320 192v768h-128v-768h-160l224-224 224 224h-160zM864 512c-17.674 0-32 14.328-32 32v352h-32c-17.674 0-32 14.328-32 32s14.326 32 32 32h64c17.674 0 32-14.328 32-32v-384c0-17.672-14.326-32-32-32zM928 384h-192c-17.674 0-32-14.326-32-32v-192c0-17.674 14.326-32 32-32h160v-128h-160c-17.674 0-32-14.326-32-32s14.326-32 32-32h192c17.674 0 32 14.326 32 32v384c0 17.674-14.326 32-32 32zM768 320h128v-128h-128v128z" />
<glyph unicode="&#xea4b;" glyph-name="sort-numberic-desc" d="M320 192v768h-128v-768h-160l224-224 224 224h-160zM864-64c-17.674 0-32 14.328-32 32v352h-32c-17.674 0-32 14.328-32 32s14.326 32 32 32h64c17.674 0 32-14.328 32-32v-384c0-17.672-14.326-32-32-32zM928 960h-192c-17.674 0-32-14.326-32-32v-192c0-17.674 14.326-32 32-32h160v-128h-160c-17.674 0-32-14.326-32-32s14.326-32 32-32h192c17.674 0 32 14.326 32 32v384c0 17.674-14.326 32-32 32zM768 896h128v-128h-128v128z" />
<glyph unicode="&#xea52;" glyph-name="checkbox-checked" d="M896 960h-768c-70.4 0-128-57.6-128-128v-768c0-70.4 57.6-128 128-128h768c70.4 0 128 57.6 128 128v768c0 70.4-57.6 128-128 128zM448 165.49l-237.254 237.256 90.51 90.508 146.744-146.744 306.746 306.746 90.508-90.51-397.254-397.256z" />
<glyph unicode="&#xea53;" glyph-name="checkbox-unchecked" d="M896 960h-768c-70.4 0-128-57.6-128-128v-768c0-70.4 57.6-128 128-128h768c70.4 0 128 57.6 128 128v768c0 70.4-57.6 128-128 128zM896 64h-768v768h768v-768z" />
<glyph unicode="&#xea71;" glyph-name="table2" d="M0 896v-896h1024v896h-1024zM384 320v192h256v-192h-256zM640 256v-192h-256v192h256zM640 768v-192h-256v192h256zM320 768v-192h-256v192h256zM64 512h256v-192h-256v192zM704 512h256v-192h-256v192zM704 576v192h256v-192h-256zM64 256h256v-192h-256v192zM704 64v192h256v-192h-256z" />
<glyph unicode="&#xea7e;" glyph-name="new-tab" d="M192 896v-768h768v768h-768zM896 192h-640v640h640v-640zM128 64v672l-64 64v-800h800l-64 64h-672zM352 704l160-160-192-192 96-96 192 192 160-160v416z" />
<glyph unicode="&#xea82;" glyph-name="share2" d="M864 256c-45.16 0-85.92-18.738-115.012-48.83l-431.004 215.502c1.314 8.252 2.016 16.706 2.016 25.328s-0.702 17.076-2.016 25.326l431.004 215.502c29.092-30.090 69.852-48.828 115.012-48.828 88.366 0 160 71.634 160 160s-71.634 160-160 160-160-71.634-160-160c0-8.622 0.704-17.076 2.016-25.326l-431.004-215.504c-29.092 30.090-69.852 48.83-115.012 48.83-88.366 0-160-71.636-160-160 0-88.368 71.634-160 160-160 45.16 0 85.92 18.738 115.012 48.828l431.004-215.502c-1.312-8.25-2.016-16.704-2.016-25.326 0-88.368 71.634-160 160-160s160 71.632 160 160c0 88.364-71.634 160-160 160z" />
<glyph unicode="&#xea8b;" glyph-name="google-plus" d="M325.8 502.6v-111.8h184.8c-7.4-48-55.8-140.6-184.8-140.6-111.2 0-202 92.2-202 205.8s90.8 205.8 202 205.8c63.4 0 105.6-27 129.8-50.2l88.4 85.2c-56.8 53-130.4 85.2-218.2 85.2-180.2-0.2-325.8-145.8-325.8-326s145.6-325.8 325.8-325.8c188 0 312.8 132.2 312.8 318.4 0 21.4-2.4 37.8-5.2 54h-307.6zM1024 512h-96v96h-96v-96h-96v-96h96v-96h96v96h96z" />
<glyph unicode="&#xea90;" glyph-name="facebook" d="M608 768h160v192h-160c-123.514 0-224-100.486-224-224v-96h-128v-192h128v-512h192v512h160l32 192h-192v96c0 17.346 14.654 32 32 32z" />
<glyph unicode="&#xea96;" glyph-name="twitter" d="M1024 733.6c-37.6-16.8-78.2-28-120.6-33 43.4 26 76.6 67.2 92.4 116.2-40.6-24-85.6-41.6-133.4-51-38.4 40.8-93 66.2-153.4 66.2-116 0-210-94-210-210 0-16.4 1.8-32.4 5.4-47.8-174.6 8.8-329.4 92.4-433 219.6-18-31-28.4-67.2-28.4-105.6 0-72.8 37-137.2 93.4-174.8-34.4 1-66.8 10.6-95.2 26.2 0-0.8 0-1.8 0-2.6 0-101.8 72.4-186.8 168.6-206-17.6-4.8-36.2-7.4-55.4-7.4-13.6 0-26.6 1.4-39.6 3.8 26.8-83.4 104.4-144.2 196.2-146-72-56.4-162.4-90-261-90-17 0-33.6 1-50.2 3 93.2-59.8 203.6-94.4 322.2-94.4 386.4 0 597.8 320.2 597.8 597.8 0 9.2-0.2 18.2-0.6 27.2 41 29.4 76.6 66.4 104.8 108.6z" />
<glyph unicode="&#xeadf;" glyph-name="file-pdf" d="M842.012 370.52c-13.648 13.446-43.914 20.566-89.972 21.172-31.178 0.344-68.702-2.402-108.17-7.928-17.674 10.198-35.892 21.294-50.188 34.658-38.462 35.916-70.568 85.772-90.576 140.594 1.304 5.12 2.414 9.62 3.448 14.212 0 0 21.666 123.060 15.932 164.666-0.792 5.706-1.276 7.362-2.808 11.796l-1.882 4.834c-5.894 13.592-17.448 27.994-35.564 27.208l-10.916 0.344c-20.202 0-36.664-10.332-40.986-25.774-13.138-48.434 0.418-120.892 24.98-214.738l-6.288-15.286c-17.588-42.876-39.63-86.060-59.078-124.158l-2.528-4.954c-20.46-40.040-39.026-74.028-55.856-102.822l-17.376-9.188c-1.264-0.668-31.044-16.418-38.028-20.644-59.256-35.38-98.524-75.542-105.038-107.416-2.072-10.17-0.53-23.186 10.014-29.212l16.806-8.458c7.292-3.652 14.978-5.502 22.854-5.502 42.206 0 91.202 52.572 158.698 170.366 77.93 25.37 166.652 46.458 244.412 58.090 59.258-33.368 132.142-56.544 178.142-56.544 8.168 0 15.212 0.78 20.932 2.294 8.822 2.336 16.258 7.368 20.792 14.194 8.926 13.432 10.734 31.932 8.312 50.876-0.72 5.622-5.21 12.574-10.068 17.32zM211.646 145.952c7.698 21.042 38.16 62.644 83.206 99.556 2.832 2.296 9.808 8.832 16.194 14.902-47.104-75.124-78.648-105.066-99.4-114.458zM478.434 760.314c13.566 0 21.284-34.194 21.924-66.254s-6.858-54.56-16.158-71.208c-7.702 24.648-11.426 63.5-11.426 88.904 0 0-0.566 48.558 5.66 48.558v0zM398.852 322.506c9.45 16.916 19.282 34.756 29.33 53.678 24.492 46.316 39.958 82.556 51.478 112.346 22.91-41.684 51.444-77.12 84.984-105.512 4.186-3.542 8.62-7.102 13.276-10.65-68.21-13.496-127.164-29.91-179.068-49.862v0zM828.902 326.348c-4.152-2.598-16.052-4.1-23.708-4.1-24.708 0-55.272 11.294-98.126 29.666 16.468 1.218 31.562 1.838 45.102 1.838 24.782 0 32.12 0.108 56.35-6.072 24.228-6.18 24.538-18.734 20.382-21.332v0zM917.806 730.924c-22.21 30.292-53.174 65.7-87.178 99.704s-69.412 64.964-99.704 87.178c-51.574 37.82-76.592 42.194-90.924 42.194h-496c-44.112 0-80-35.888-80-80v-864c0-44.112 35.886-80 80-80h736c44.112 0 80 35.888 80 80v624c0 14.332-4.372 39.35-42.194 90.924v0zM785.374 785.374c30.7-30.7 54.8-58.398 72.58-81.374h-153.954v153.946c22.982-17.78 50.678-41.878 81.374-72.572v0zM896 16c0-8.672-7.328-16-16-16h-736c-8.672 0-16 7.328-16 16v864c0 8.672 7.328 16 16 16 0 0 495.956 0.002 496 0v-224c0-17.672 14.324-32 32-32h224v-624z" />
<glyph unicode="&#xeae1;" glyph-name="file-word" d="M639.778 484.108h44.21l-51.012-226.178-66.324 318.010h-106.55l-77.114-318.010-57.816 318.010h-111.394l113.092-511.88h108.838l76.294 302.708 68.256-302.708h100.336l129.628 511.88h-170.446v-91.832zM917.806 730.924c-22.21 30.292-53.174 65.7-87.178 99.704s-69.412 64.964-99.704 87.178c-51.574 37.82-76.592 42.194-90.924 42.194h-496c-44.112 0-80-35.888-80-80v-864c0-44.112 35.886-80 80-80h736c44.112 0 80 35.888 80 80v624c0 14.332-4.372 39.35-42.194 90.924v0zM785.374 785.374c30.7-30.7 54.8-58.398 72.58-81.374h-153.954v153.946c22.982-17.78 50.678-41.878 81.374-72.572v0zM896 16c0-8.672-7.328-16-16-16h-736c-8.672 0-16 7.328-16 16v864c0 8.672 7.328 16 16 16 0 0 495.956 0.002 496 0v-224c0-17.672 14.324-32 32-32h224v-624z" />
<glyph unicode="&#xeae2;" glyph-name="file-excel" d="M743.028 576h-135.292l-95.732-141.032-95.742 141.032h-135.29l162.162-242.464-182.972-269.536h251.838v91.576h-50.156l50.156 74.994 111.396-166.57h140.444l-182.976 269.536 162.164 242.464zM917.806 730.924c-22.21 30.292-53.174 65.7-87.178 99.704s-69.412 64.964-99.704 87.178c-51.574 37.82-76.592 42.194-90.924 42.194h-496c-44.112 0-80-35.888-80-80v-864c0-44.112 35.886-80 80-80h736c44.112 0 80 35.888 80 80v624c0 14.332-4.372 39.35-42.194 90.924v0zM785.374 785.374c30.7-30.7 54.8-58.398 72.58-81.374h-153.954v153.946c22.982-17.78 50.678-41.878 81.374-72.572v0zM896 16c0-8.672-7.328-16-16-16h-736c-8.672 0-16 7.328-16 16v864c0 8.672 7.328 16 16 16 0 0 495.956 0.002 496 0v-224c0-17.672 14.324-32 32-32h224v-624z" />
</font>
</defs>
</svg>
