<svg xmlns="http://www.w3.org/2000/svg" viewBox="0 0 50.4 50.4"><switch><g><path fill="#fa6400" d="M20 16.3h-4.4c-.8-.1-1.4-.8-1.3-1.6.1-.7.6-1.2 1.3-1.3H20c.8.1 1.4.8 1.3 1.6 0 .6-.6 1.2-1.3 1.3zM20.2 23.1h-7.3c-.8-.1-1.4-.8-1.3-1.6.1-.7.6-1.2 1.3-1.3h7.3c.8.1 1.4.8 1.3 1.6-.1.7-.6 1.2-1.3 1.3zM20 30h-7.3c-.8-.1-1.4-.8-1.3-1.6.1-.7.6-1.2 1.3-1.3H20c.8.1 1.4.8 1.3 1.6 0 .7-.5 1.2-1.3 1.3zM30.4 27h4.4c.8.1 1.4.8 1.3 1.6-.1.7-.6 1.2-1.3 1.3h-4.4c-.8-.1-1.4-.8-1.3-1.6.1-.6.6-1.2 1.3-1.3zM30.5 20.2h7.2c.8.1 1.4.8 1.3 1.6-.1.7-.6 1.2-1.3 1.3h-7.3c-.8-.1-1.4-.8-1.3-1.6.2-.7.7-1.2 1.4-1.3zM30.4 13.3h7.3c.8.1 1.4.8 1.3 1.6-.1.7-.6 1.2-1.3 1.3h-7.3c-.8-.1-1.4-.8-1.3-1.6.1-.7.6-1.2 1.3-1.3z"/><path fill="#404040" d="M44.3 10V7.1H30.5c-2.3 0-4.6.3-5.3 2.4-.8-1.9-2.8-2.4-5.1-2.4h-14V10H1.2v31.4h19.1c.1 1.1 1 1.9 2.1 2h5.8c1.1-.1 2-.9 2.1-2h18.9V10h-4.9zm-17.6 1.9c0-1.5 2-1.8 3.5-1.8h11.2v23.5h-11c-1.4-.1-2.7.4-3.7 1.3v-23zM9 10h11.4c2.2 0 3.3.5 3.3 1.8v23.1c-1-1.5-2.9-1.3-4.9-1.3H9V10zM4.1 38.4V13h2v23.5h13.2c2.4 0 3.7 1 4 2l-19.2-.1zm42.2 0H27.2c.3-1 1.6-2 4-2h13.2V13h2l-.1 25.4z"/></g></switch></svg>