<svg xmlns="http://www.w3.org/2000/svg" viewBox="0 0 50.4 50.4"><switch><g fill="#fa6400"><path d="M43 26.6c-1.1 0-2.2.4-3 1.2l-10.8-5.4v-.3-.3L40 16.3c1.9 1.7 4.8 1.4 6.5-.5 1.7-1.9 1.4-4.8-.5-6.5-1.9-1.7-4.8-1.4-6.5.5-.7.8-1.1 1.9-1.1 3v.3l-10.8 5.4c-1.9-1.7-4.8-1.5-6.5.4-1.7 1.9-1.5 4.8.4 6.5 1.7 1.5 4.4 1.5 6.1 0l10.8 5.4v.3c0 2.5 2.1 4.6 4.6 4.6 2.5 0 4.6-2.1 4.6-4.6 0-2.4-2.1-4.5-4.6-4.5z"/><path d="M38.8 45.4H7.2c-.8 0-1.5-.7-1.5-1.5s.7-1.5 1.5-1.5h32.5V38c-2.1-1-3.7-3-4.2-5.3l-7.8-3.9c-1 .5-2.1.7-3.2.7-4.2 0-7.6-3.4-7.6-7.6 0-4.2 3.4-7.6 7.6-7.6 1.1 0 2.2.2 3.2.7l7.8-3.9c.5-2.3 2-4.3 4.2-5.3V1.2h-33C4.6 1.2 2.8 2.9 2.8 5v6l2.5-3v8.1l-2.5 3v26c0 2.3 1.9 4.2 4.2 4.2h31.1c1.1-.1 1.9-1.1 1.8-2.2 0-.8-.5-1.4-1.1-1.7z"/><path d="M39.7 24.3v-4.5L35.1 22z"/></g></switch></svg>