<svg xmlns="http://www.w3.org/2000/svg" viewBox="0 0 50.4 50.4"><switch><g fill="#fa6400"><path d="M13.2 17.3c-.1-3.4 2.6-6.2 5.9-6.4h15V7.1h-23c-.8 0-1.3-.7-1.3-1.4v-.1c-.1-.8.5-1.4 1.3-1.5h21.5c.8 0 1.5-.7 1.5-1.5s-.7-1.5-1.5-1.5H10.5c-1.7 0-2.9 1.7-2.9 3.4v4.8l1.5 2v6l-1.5-2v18.4c0 1.5 1.2 2.8 2.7 2.8h3l-.1-19.2z"/><path d="M18.6 18.2c-.1-.8.5-1.4 1.3-1.5h21.5c.8 0 1.5-.7 1.5-1.5s-.7-1.5-1.5-1.5H19.2c-1.7 0-2.9 1.7-2.9 3.4v4.3l1.5 2v6l-1.5-2v18.9c0 1.5 1.2 2.8 2.7 2.8h23.9V19.6h-23c-.8-.1-1.4-.7-1.3-1.4zm4.3 6h16v8h-16v-8z"/></g></switch></svg>