<svg xmlns="http://www.w3.org/2000/svg" viewBox="0 0 50.4 50.4"><switch><g><path fill="#fa6400" d="M43.8 45.2H12.1c-1-.1-1.8-.9-1.8-2-.1-1 .7-1.9 1.7-2h31.8v-40l-33.6.2c-1.9-.2-3.5 1.2-3.6 3.1v8.3l2-2.8v8.1l-2 2.8v23.6c.1 2.5 2 4.5 4.5 4.7h32.7v-4zm-26.2-38h21v10h-21v-10z"/><path fill="#fff" d="M17.5 21.3h9.4c1 0 1.8.8 1.8 1.8v.4c0 1-.8 1.8-1.8 1.8h-9.4c-1 0-1.8-.8-1.8-1.8V23c0-.9.8-1.7 1.8-1.7zM33.5 21.3h2.4c1 0 1.8.8 1.8 1.8v.4c0 1-.8 1.8-1.8 1.8h-2.4c-1 0-1.8-.8-1.8-1.8V23c0-.9.8-1.7 1.8-1.7z"/></g></switch></svg>