<svg xmlns="http://www.w3.org/2000/svg" viewBox="0 0 50.4 50.4"><switch><g><path fill="#fa6400" d="M49.1 39l-6.4-6.5-.4.4-3.3-3.2c3.8-5 3.3-12.1-1.1-16.6-4.8-4.9-12.7-5-17.6-.1l-.1.1c-4.9 5-4.9 13 0 17.9 2.3 2.4 5.5 3.7 8.9 3.7 2.9 0 5.7-1 7.9-2.9l3.2 3.2-.4.4 6.4 6.5c.8.8 2 .8 2.8.1l.1-.1c.8-.8.8-2.1 0-2.9zm-14-10.8c-3.3 3.3-8.7 3.4-12 .1l-.1-.1c-3.4-3.4-3.4-8.9 0-12.3 3.3-3.3 8.7-3.4 12-.1l.1.1c3.3 3.4 3.3 8.9 0 12.3z"/><path fill="#404040" d="M36.7 45.5H5.1c-.8 0-1.5-.7-1.5-1.5s.7-1.5 1.5-1.5h32.5v-4l-.5-.5-1.2-1.2c-6.2 2.9-13.5 1.6-18.4-3.3-6.3-6.4-6.3-16.7 0-23.1 5.3-5.4 13.6-6.3 20-2.3V1.2h-33C2.4 1.2.7 2.9.7 5v5.9l2.8-3V16L.7 19v26c0 2.3 1.9 4.2 4.2 4.2H36c1.1-.1 1.9-1.1 1.8-2.2-.1-.7-.5-1.3-1.1-1.5z"/></g></switch></svg>