<svg xmlns="http://www.w3.org/2000/svg" viewBox="0 0 50.4 50.4"><switch><g fill="#fa6400"><path d="M28.7 32l-1 1h-5.4v-5.4l.9-.9 5.5 5.3zm9.6-20.3L25.1 24.9l5.4 5.4L43.7 17l-5.4-5.3zm7.1 3.6l2.4-2.4c.7-.7.7-1.9 0-2.7l-2.7-2.7c-.7-.7-1.9-.7-2.7 0l-2.3 2.4 5.3 5.4z"/><path d="M37.9 45.4H6.4c-.8 0-1.5-.7-1.5-1.5s.7-1.5 1.5-1.5h32.5V27l-5 5-4.6 4.6H18.7V26.1L38.9 5.9V1.2h-33C3.8 1.2 2 2.9 2 5v6l2.5-3v8.1l-2.5 3v26c0 2.3 1.9 4.2 4.2 4.2h31.1c1.1-.1 1.9-1.1 1.8-2.2 0-.8-.5-1.4-1.2-1.7z"/></g></switch></svg>