<svg xmlns="http://www.w3.org/2000/svg" viewBox="0 0 50.4 50.4"><switch><g><path fill="#fa6400" d="M34.7 1.3v21.1l-6.3-4.7-6.3 4.7V1.3h12.6z"/><path fill="#404040" d="M42.6 45.4H11c-.8 0-1.5-.7-1.5-1.5s.7-1.5 1.5-1.5h32.5V1.3h-5.9c0 .2.1-.2.1 0v21.1c0 1.7-1.3 3-3 3-.6 0-1.3-.2-1.8-.6l-4.5-3.4-4.5 3.4c-1.3 1-3.2.7-4.2-.6-.4-.6-.7-1.2-.7-1.9v-21c0-.2 0 .2.1 0h-8.6C8.4 1.3 6.7 3 6.7 5.1V11l2.5-3v8.1l-2.5 3v26c0 2.3 1.9 4.1 4.1 4.1h31.1c1.1-.1 1.9-1.1 1.8-2.2 0-.7-.5-1.3-1.1-1.6z"/></g></switch></svg>