<svg xmlns="http://www.w3.org/2000/svg" viewBox="0 0 50.4 50.4"><switch><g><g fill="#fa6400"><path d="M7.2 31.2h17v4h2v-4h17v4h2v-6h-19v-4h-2v4h-19v6h2zM18.2 1.2v22h6v-3h2v3h6v-22h-14zm4 16h-2v-2h2v2zm0-4h-2v-2h2v2zm0-4h-2v-2h2v2zm0-4h-2v-2h2v2zm4 12h-2v-2h2v2zm0-4h-2v-2h2v2zm0-4h-2v-2h2v2zm0-4h-2v-2h2v2zm4 12h-2v-2h2v2zm0-4h-2v-2h2v2zm0-4h-2v-2h2v2zm0-4h-2v-2h2v2zM1.2 37.2v12h4v-2h2v2h4v-12h-10zm4 8h-2v-2h2v2zm0-4h-2v-2h2v2zm4 4h-2v-2h2v2zm0-4h-2v-2h2v2zM20.2 37.2v12h4v-2h2v2h4v-12h-10zm4 8h-2v-2h2v2zm0-4h-2v-2h2v2zm4 4h-2v-2h2v2zm0-4h-2v-2h2v2zM39.2 37.2v12h4v-2h2v2h4v-12h-10zm4 8h-2v-2h2v2zm0-4h-2v-2h2v2zm4 4h-2v-2h2v2zm0-4h-2v-2h2v2z"/></g></g></switch></svg>