<svg xmlns="http://www.w3.org/2000/svg" viewBox="0 0 50.4 50.4"><switch><g fill="#fa6400"><path d="M39.2 22.2c-3.1 0-6.1 1.5-8 4l-5.1-2.8c1-2.4 1.3-5.1.8-7.7l6.6-1.8c1.2 3.4 4.9 5.2 8.3 4 3.4-1.2 5.2-4.9 4-8.3s-4.9-5.2-8.3-4c-2.3.8-4 2.8-4.3 5.3l-7.3 2C23 6.3 15.3 3.4 8.8 6.4c-6.5 3-9.4 10.7-6.4 17.2 2.5 5.4 8.4 8.5 14.3 7.4l.6 3c-2.9 1.6-3.9 5.3-2.2 8.2 1.6 2.9 5.3 3.9 8.2 2.2 2.9-1.6 3.9-5.3 2.2-8.2-1.1-1.9-3-3-5.2-3h-.1l-.6-3.1c2-.9 3.8-2.3 5.1-4.1l5.2 2.9c-1.9 5.2.8 10.9 6 12.8 5.2 1.9 10.9-.8 12.8-6 1.9-5.2-.8-10.9-6-12.8-1.2-.5-2.3-.7-3.5-.7zm.5-14c1.9 0 3.5 1.6 3.5 3.5s-1.6 3.5-3.5 3.5-3.5-1.6-3.5-3.5 1.6-3.5 3.5-3.5zm-16.5 31c0 1.7-1.3 3-3 3s-3-1.3-3-3 1.3-3 3-3 3 1.3 3 3zm-9-12c-5 0-9-4-9-9s4-9 9-9 9 4 9 9c0 4.9-4 9-9 9zm25 11c-3.3 0-6-2.7-6-6s2.7-6 6-6 6 2.7 6 6-2.7 6-6 6z"/><path d="M16.2 12.2h-4v2h-2v10h8v-10h-2zM21.2 38.7h-.5v-.5h-1v.5h-.5v1.5h2z"/><circle cx="39.2" cy="30.2" r="2"/><path d="M40.2 32.2h-2c-1.1 0-2 .9-2 2v1h6v-1c0-1.1-.9-2-2-2z"/><circle cx="39.7" cy="10.2" r="1"/><path d="M41.2 12.2c0-.6-.4-1-1-1h-1c-.6 0-1 .4-1 1v1h3v-1z"/></g></switch></svg>