<svg xmlns="http://www.w3.org/2000/svg" viewBox="0 0 50.4 50.4"><switch><g fill="#fa6400"><path d="M11.4 50V40c0-2.8-2.2-5-5-5s-5 2.2-5 5v10M24 50V32.5c0-2.8-2.2-5-5-5s-5 2.2-5 5V50M36.5 50V35c0-2.8-2.2-5-5-5s-5 2.2-5 5v15M49 50V25c0-2.8-2.2-5-5-5s-5 2.2-5 5v25"/><path d="M47.7.5l-8.3 3.1c-.8.5-.5 1.7.5 2.2l1.5 1.1-10.6 13.6-10.6-6.4c-.9-.5-2.1-.5-2.9.2l-15 12.5c-1.1.9-1.2 2.5-.3 3.5.9 1.1 2.5 1.2 3.5.3l13.6-11.4 11 6.6c1.1.6 2.5.4 3.3-.6l12-15.6 1.4 1c1 .5 2.1.1 2.1-.8V1.2c0-.5-.5-.9-1-.8 0 0-.1 0-.2.1z"/></g></switch></svg>