<svg xmlns="http://www.w3.org/2000/svg" viewBox="0 0 50.4 50.4"><switch><g fill="#fa6400"><path d="M2.7 9.2h44c1.1 0 2 .9 2 2s-.9 2-2 2h-44c-1.1 0-2-.9-2-2s.9-2 2-2zM2.7 37.2h44c1.1 0 2 .9 2 2s-.9 2-2 2h-44c-1.1 0-2-.9-2-2s.9-2 2-2z"/><circle cx="14.7" cy="39.2" r="5"/><path d="M22.7 25.2c0-.7.1-1.3.3-2H2.7c-1.1 0-2 .9-2 2s.9 2 2 2H23c-.2-.7-.3-1.3-.3-2zM46.7 23.2h-8.3c.4 1.3.4 2.7 0 4h8.3c1.1 0 2-.9 2-2s-.9-2-2-2z"/><circle cx="24.7" cy="11.2" r="5"/><circle cx="30.7" cy="25.2" r="5"/></g></switch></svg>