<svg xmlns="http://www.w3.org/2000/svg" viewBox="0 0 50.4 50.4"><switch><g fill="#fa6400"><path d="M19.2 7.2h26c2.2 0 4 1.8 4 4s-1.8 4-4 4h-26c-2.2 0-4-1.8-4-4s1.8-4 4-4zM19.2 21.2h26c2.2 0 4 1.8 4 4s-1.8 4-4 4h-26c-2.2 0-4-1.8-4-4s1.8-4 4-4zM19.2 35.2h26c2.2 0 4 1.8 4 4s-1.8 4-4 4h-26c-2.2 0-4-1.8-4-4s1.8-4 4-4zM5.2 7.2c2.2 0 4 1.8 4 4s-1.8 4-4 4-4-1.8-4-4 1.8-4 4-4zM5.2 21.2c2.2 0 4 1.8 4 4s-1.8 4-4 4-4-1.8-4-4 1.8-4 4-4zM5.2 35.2c2.2 0 4 1.8 4 4s-1.8 4-4 4-4-1.8-4-4 1.8-4 4-4z"/></g></switch></svg>