<svg xmlns="http://www.w3.org/2000/svg" viewBox="0 0 50.4 50.4"><switch><g fill="#fa6400"><path d="M48.4 3.6h-7.7c-.9 0-1.7.7-1.7 1.7 0 .9.7 1.7 1.7 1.7h3.8l-6.4 7-1.5 1.7H26.3c-.4 0-.9.2-1.2.5L20 21.3l-4.4-8c-.3-.6-.9-.9-1.5-.8-.6 0-1.2.4-1.4 1l-4.2 9.2c.3 1.4 1 2.7 1.9 3.8l4-8.6 3.9 7.1c.4.8 1.5 1.1 2.2.6.1-.1.3-.2.4-.3L27 19h10.3c.5 0 .9-.2 1.2-.6l.3-.4 7.8-8.8v3.6c0 .9.7 1.7 1.7 1.7.9 0 1.7-.7 1.7-1.7V5.2c0-.9-.7-1.6-1.6-1.6z"/><path d="M44.6 42.4l-8.7-8.7-.8.8-3.3-3.3c2.1-2.6 3.4-5.6 3.8-8.9h-4.5c-1.2 7.2-8 12.1-15.2 10.8-1.6-.3-3.1-.8-4.5-1.6-1-.6-1.9-1.3-2.7-2.1-5.2-5.1-5.2-13.5-.1-18.7 5.1-5.2 13.5-5.2 18.7-.1.5.5 1 1.1 1.4 1.7h5.1C29.6 3.6 19.1-.1 10.3 4.2 1.5 8.4-2.1 19 2.1 27.7c.9 1.8 2 3.4 3.4 4.8.2.2.4.3.6.5 6.2 5.7 15.6 6.2 22.4 1.2l3.4 3.4-.8.8 8.7 8.7c1.3 1.2 3.4 1.2 4.7-.2 1.2-1.2 1.2-3.2.1-4.5z"/></g></switch></svg>