<svg xmlns="http://www.w3.org/2000/svg" viewBox="0 0 50.4 50.4"><switch><g fill="#fa6400"><path d="M42.5 39.4c2.9-2.8 5-6.5 6-10.4l-8.2 8.2 2.2 2.2zM37.7 34.5L49.1 23c-.1-2-.4-3.9-.9-5.8l-13.9 14 3.4 3.3zM31.7 28.5l15-15c-.7-1.4-1.6-2.8-2.7-4L28.3 25.1l3.4 3.4zM27.2 1.6V9l6.4-6.4c-2.1-.7-4.2-1-6.4-1zM37.3 4.1L27.2 14.3V21L41.4 6.8c-1.3-1-2.6-1.9-4.1-2.7zM1.3 23.6H23V1.9c-12 0-21.7 9.7-21.7 21.7 0-.1 0 0 0 0zM23.2 48.8V26.9H1.3c0 12.1 9.8 21.9 21.9 21.9zM26.3 48.8c5.6 0 11-2.2 15-6.1l-15-15v21.1z"/></g></switch></svg>