<svg xmlns="http://www.w3.org/2000/svg" viewBox="0 0 50.4 50.4"><switch><g fill="#fa6400"><path d="M25.2 45.2c1.1 0 2-.9 2-2v-17h-4v17c0 1.1.9 2 2 2zM25.2 5.2c-1.1 0-2 .9-2 2v5h4v-5c0-1.1-.9-2-2-2zM7.2 45.2c1.1 0 2-.9 2-2v-11h-4v11c0 1.1.9 2 2 2zM43.2 45.2c1.1 0 2-.9 2-2v-5h-4v5c0 1.1.9 2 2 2zM7.2 5.2c-1.1 0-2 .9-2 2v11h4v-11c0-1.1-.9-2-2-2zM43.2 5.2c-1.1 0-2 .9-2 2v17h4v-17c0-1.1-.9-2-2-2zM7.2 21.2c2.2 0 4 1.8 4 4s-1.8 4-4 4-4-1.8-4-4 1.8-4 4-4zM25.2 15.2c2.2 0 4 1.8 4 4s-1.8 4-4 4-4-1.8-4-4 1.8-4 4-4zM43.2 27.2c2.2 0 4 1.8 4 4s-1.8 4-4 4-4-1.8-4-4 1.8-4 4-4z"/></g></switch></svg>