<svg xmlns="http://www.w3.org/2000/svg" viewBox="0 0 50.4 50.4"><switch><g><path fill="#fa6400" d="M3.7 6.2h-1c-.8 0-1.5.7-1.5 1.5v36.5h46.5c.8 0 1.5-.7 1.5-1.5v-1c0-.8-.7-1.5-1.5-1.5H5.2V7.7c0-.8-.7-1.5-1.5-1.5z"/><path fill="#fa6400" d="M15.1 30.1l-2.5-2.7L24.7 16l11.6 2.5L45 8l2.9 2.3-10.2 12.3-11.9-2.5z"/><path fill="#fa6400" d="M39.5 8.7l9.7-2.5-1.6 9.8z"/><path fill="#fff" d="M34.2 20.2c.1-1.3 1.2-2.2 2.5-2.1 1.3.1 2.2 1.2 2.1 2.5-.1 1.3-1.2 2.2-2.5 2.1-1.2-.1-2.2-1.2-2.1-2.5z"/><path fill="#fa6400" d="M36.6 18.6h.2c1 0 1.8.9 1.8 1.9 0 1-.9 1.8-1.9 1.8h-.2c-1 0-1.8-.9-1.8-1.9 0-1.1.8-1.9 1.9-1.8m0-2.8c-2.4 0-4.4 1.8-4.6 4.2-.2 2.5 1.7 4.8 4.2 5h.4c2.4 0 4.4-1.8 4.6-4.2.2-2.5-1.7-4.8-4.2-5h-.4z"/><path fill="#fff" d="M22.8 17.9c.1-1.3 1.2-2.2 2.5-2.1 1.3.1 2.2 1.2 2.1 2.5s-1.2 2.2-2.5 2.1c-1.2-.1-2.2-1.2-2.1-2.5z"/><path fill="#fa6400" d="M25.2 16.2h.2c1 0 1.8.9 1.8 1.9 0 1-.9 1.8-1.9 1.8H25c-1 0-1.8-.9-1.8-1.9.1-1 .9-1.8 2-1.8m-.1-2.7c-2.6-.1-4.7 1.9-4.8 4.4-.1 2.6 1.9 4.7 4.4 4.8h.4c2.6.1 4.7-1.9 4.8-4.4.1-2.6-1.9-4.7-4.4-4.8h-.4z"/><path fill="#fff" d="M11.8 28.3c.1-1.3 1.2-2.2 2.5-2.1 1.3.1 2.2 1.2 2.1 2.5-.1 1.3-1.2 2.2-2.5 2.1-1.2-.1-2.2-1.3-2.1-2.5z"/><path fill="#fa6400" d="M14.1 26.6h.2c1 0 1.8.9 1.8 1.9 0 1-.9 1.8-1.9 1.8H14c-1 0-1.8-.9-1.8-1.9.1-1 .9-1.8 1.9-1.8m.1-2.8c-2.4 0-4.4 1.8-4.6 4.2-.2 2.5 1.7 4.8 4.2 5h.4c2.4 0 4.4-1.8 4.6-4.2.2-2.5-1.7-4.8-4.2-5h-.4z"/></g></switch></svg>