<svg xmlns="http://www.w3.org/2000/svg" viewBox="0 0 50.4 50.4"><switch><g fill="#fa6400"><path d="M12.5 1.5C6.3 1.6 1.3 6.7 1.3 13c.1 6.3 5.2 11.3 11.5 11.2C19 24.1 24 19 24 12.8c0-6.3-5.2-11.3-11.5-11.3zm7.3 13.4h-5.2V20c0 .6-.4 1-1 1h-2.1c-.6 0-1-.4-1-1v-5.2H5.3c-.6 0-1-.4-1-1v-2.1c0-.6.4-1 1-1h5.2V5.6c0-.6.4-1 1-1h2.1c.6 0 1 .4 1 1v5.2h5.2c.6 0 1 .4 1 1v2.1c.1.5-.4 1-1 1 .1 0 .1 0 0 0zM37.6 1.5c-6.3.1-11.3 5.2-11.2 11.5.1 6.3 5.2 11.3 11.5 11.2 6.2-.1 11.2-5.1 11.2-11.3C49 6.5 43.9 1.5 37.6 1.5zm7.3 13.4H30.3c-.6 0-1-.4-1-1v-2.1c0-.6.4-1 1-1h14.6c.6 0 1 .4 1 1v2.1c0 .5-.4 1-1 1zM37.6 26.2c-6.3.1-11.3 5.2-11.2 11.5.1 6.3 5.2 11.3 11.5 11.2 6.2-.1 11.2-5.1 11.2-11.3-.1-6.3-5.2-11.4-11.5-11.4zm0 3.1c1.1 0 2 1 2 2.1s-1 2-2.1 2-2-.9-2-2.1c0-1.1.9-2 2.1-2zm0 16.5c-1.1 0-2-1-2-2.1s1-2 2.1-2 2 .9 2 2.1c0 1.1-1 2-2.1 2zm7.3-6.2H30.3c-.6 0-1-.4-1-1v-2.1c0-.6.4-1 1-1h14.6c.6 0 1 .4 1 1v2.1c0 .6-.5 1-1 1zM12.5 26.2c-6.2.1-11.2 5.2-11.2 11.5C1.4 44 6.6 49 12.8 48.9 19 48.8 24 43.8 24 37.6c0-6.3-5.2-11.4-11.5-11.4zM19 41c.4.4.4 1 0 1.4l-1.5 1.5c-.4.4-1.1.4-1.5 0l-3.5-3.5L9 43.9c-.4.4-1.1.4-1.5 0L6 42.4c-.4-.4-.4-1 0-1.4l3.5-3.5L6 34c-.4-.4-.4-1 0-1.4l1.5-1.5c.4-.4 1.1-.4 1.5 0l3.5 3.5 3.5-3.5c.4-.4 1.1-.4 1.5 0l1.5 1.5c.4.4.4 1 0 1.4l-3.5 3.5L19 41z"/></g></switch></svg>