<svg xmlns="http://www.w3.org/2000/svg" viewBox="0 0 50.4 50.4"><switch><g fill="#fa6400"><path d="M25.2 44.4c-5.6 0-10.8-2.4-14.5-6.6l5.5-3.7-15-8v18l5.5-3.7c8.5 10.2 23.6 11.6 33.8 3.2 3-2.5 5.4-5.8 6.9-9.4.4-1.1-.1-2.5-1.2-3-1.2-.6-2.6-.1-3.2 1.1 0 .1-.1.1-.1.2-2.8 7.2-9.9 11.9-17.7 11.9zM43.7 9.9C35.2-.3 20.1-1.7 9.9 6.7c-3 2.5-5.4 5.7-6.9 9.4-.4 1.1.1 2.5 1.2 3 1.2.6 2.6.1 3.2-1.1 0-.1.1-.1.1-.2 4-9.8 15.2-14.6 25-10.6 2.8 1.1 5.3 2.9 7.3 5.2l-5.5 3.7 15 8v-18l-5.6 3.8z"/></g></switch></svg>