<svg xmlns="http://www.w3.org/2000/svg" viewBox="0 0 50.4 50.4"><switch><g><path fill="#fa6400" d="M39.8 25.2c0 1.8-1.4 3.2-3.2 3.2h-8.2v8.2c0 1.8-1.4 3.2-3.2 3.2-1.8 0-3.2-1.4-3.2-3.2v-8.2h-8.2c-1.8 0-3.2-1.4-3.2-3.2 0-1.8 1.4-3.2 3.2-3.2H22v-8.2c0-1.8 1.4-3.2 3.2-3.2 1.8 0 3.2 1.4 3.2 3.2V22h8.2c1.7 0 3.2 1.4 3.2 3.2z"/><path fill="#404040" d="M11.1 11.1c7.8-7.8 20.5-7.8 28.3 0 7.8 7.8 7.8 20.5 0 28.3-7.8 7.8-20.5 7.8-28.3 0-7.8-7.9-7.8-20.5 0-28.3M8.2 8.2c-9.4 9.4-9.4 24.6 0 33.9 9.4 9.4 24.6 9.4 33.9 0 9.4-9.4 9.4-24.6 0-33.9-9.3-9.3-24.5-9.3-33.9 0z"/></g></switch></svg>