<svg xmlns="http://www.w3.org/2000/svg" viewBox="0 0 50.4 50.4"><switch><g><path fill="#404040" d="M41 41.8c7.4-8.7 6.3-21.8-2.4-29.2-2.9-2.5-6.4-4.1-10.2-4.7v-.2c0-1.8-1.5-3.3-3.3-3.3-1.8 0-3.3 1.5-3.3 3.3V8C10.6 9.8 2.9 20.4 4.7 31.7c.6 3.7 2.2 7.3 4.7 10.2l-1.8 1.8c-1.3 1.3-1.3 3.4 0 4.6 1.3 1.3 3.4 1.3 4.6 0l2.1-2.1c6.6 4.1 15 4.1 21.7 0l2.1 2.1c1.3 1.3 3.4 1.3 4.6 0 1.3-1.3 1.3-3.4 0-4.6L41 41.8zm-15.8 3.3c-9.2 0-16.6-7.4-16.6-16.6 0-9.2 7.4-16.6 16.6-16.6 9.2 0 16.6 7.5 16.6 16.6 0 9.1-7.4 16.6-16.6 16.6zM6.9 3.6c-5 3.5-5.9 6.8-2.8 11.3l14.3-10C15.3.4 11.9.1 6.9 3.6z"/><path fill="#fa6400" d="M25.2 14.3c-1.2 0-2.2 1-2.2 2.2v11.1l-4.8 4.8c-.9.9-.9 2.2 0 3.1.9.9 2.2.9 3.1 0l6-6 .1-.1v-13c0-1.2-1-2.1-2.2-2.1z"/><path fill="#404040" d="M43.5 3.6C38.5.1 35.1.4 32 4.8l14.3 10c3.1-4.4 2.2-7.7-2.8-11.2z"/></g></switch></svg>