<svg xmlns="http://www.w3.org/2000/svg" viewBox="0 0 50.4 50.4"><switch><g fill="#fa6400"><path d="M28.2 1.4C19.6.3 11.1 4 5.9 10.9L1.2 6.2v14h14l-5.9-5.9c6-8.7 18-11 26.7-4.9 8.7 6 11 18 4.9 26.7-6 8.7-18 11-26.7 4.9-3.8-2.6-6.6-6.6-7.7-11.1-.3-1.1-1.2-1.8-2.3-1.8-1.3 0-2.4 1.1-2.4 2.4 0 .2 0 .4.1.6C5.3 44 18.3 51.8 31.2 48.4 44 45.1 51.7 32 48.4 19.2 46 9.7 37.9 2.6 28.2 1.4z"/><path d="M33.9 32.9c.8-.8.8-2 0-2.8l-6.7-6.7V11.2c0-1.1-.9-2-2-2s-2 .9-2 2v14l7.8 7.7c.8.7 2.1.7 2.9 0z"/></g></switch></svg>