<svg xmlns="http://www.w3.org/2000/svg" viewBox="0 0 50.4 50.4"><switch><g fill="#fa6400"><circle cx="25.2" cy="25.2" r="10"/><path d="M49.2 27.5v-4.6c0-1.5-1.2-2.7-2.7-2.7-1.1 0-2.2-.7-2.5-1.8-.2-.6-.4-1.1-.7-1.7-.5-1-.3-2.3.5-3.1 1-1.1 1-2.7 0-3.8l-3.3-3.3c-1-1-2.8-1-3.8 0-.8.8-2 1-3.1.5-.5-.3-1.1-.5-1.7-.7-1-.3-1.7-1.3-1.7-2.4 0-1.5-1.2-2.7-2.7-2.7h-4.6c-1.5 0-2.7 1.2-2.7 2.7 0 1.1-.7 2.2-1.8 2.5-.6.2-1.1.4-1.7.7-1 .5-2.3.3-3.1-.5-1.1-1-2.8-1-3.8 0L6.6 9.9c-1 1.1-1 2.8 0 3.8.8.8 1 2 .5 3.1-.3.5-.5 1.1-.7 1.7-.4 1-1.4 1.7-2.5 1.7-1.5 0-2.7 1.2-2.7 2.7v4.6c0 1.5 1.2 2.7 2.7 2.7 1.1 0 2.1.7 2.5 1.8.2.6.4 1.1.7 1.7.5 1 .3 2.3-.5 3.1-1 1-1 2.7 0 3.8l3.3 3.3c1.1 1 2.8 1 3.8 0 .8-.8 2-1 3.1-.5.5.3 1.1.5 1.7.7 1.1.4 1.8 1.4 1.8 2.5 0 1.5 1.2 2.7 2.7 2.7h4.6c1.5 0 2.7-1.2 2.7-2.7 0-1.1.7-2.2 1.8-2.5.6-.2 1.1-.4 1.7-.7 1-.5 2.3-.3 3.1.5 1 1 2.8 1 3.8 0l3.3-3.3c1-1.1 1-2.8 0-3.8-.8-.8-1-2-.5-3.1.3-.5.5-1.1.7-1.7.4-1.1 1.4-1.8 2.5-1.8 1.3 0 2.5-1.2 2.5-2.7zm-10.1-4.1c1 7.7-4.4 14.7-12.1 15.7-7.7 1-14.7-4.4-15.7-12.1s4.4-14.7 12.1-15.7c1.2-.2 2.4-.2 3.6 0 6.3.9 11.3 5.8 12.1 12.1z"/></g></switch></svg>