<svg xmlns="http://www.w3.org/2000/svg" viewBox="0 0 50.4 50.4"><switch><g><path fill="#404040" d="M43.7 9.9C35.2-.3 20.1-1.7 9.9 6.8c-3.6 3-6.3 7-7.6 11.5l4.3 2.2C9.2 10.1 19.7 3.9 30 6.6c3.8 1 7.1 3.1 9.7 6l-5.5 3.7 15 8v-18l-5.5 3.6zM25.2 44.5c-5.6 0-10.8-2.4-14.5-6.6l5.5-3.7-15-8v18l5.5-3.7c8.5 10.2 23.6 11.6 33.8 3.1 3.6-3 6.2-6.9 7.6-11.4L43.8 30c-2.2 8.5-9.8 14.4-18.6 14.5z"/><path fill="#fa6400" d="M33.1 23.4h-1.9c-.2-.7-.4-1.3-.8-1.9l1.4-1.4c.7-.7.7-1.8 0-2.4-.3-.3-.8-.5-1.2-.5-.5 0-.9.2-1.2.5L28 19.1c-.5-.3-1-.5-1.6-.7v-2c0-.9-.8-1.7-1.7-1.7-.9 0-1.7.8-1.7 1.7v1.9c-.7.2-1.3.4-1.9.8l-1.4-1.4c-.3-.3-.8-.5-1.2-.5-.9 0-1.7.8-1.7 1.7 0 .5.2.9.5 1.2l1.4 1.4c-.3.6-.6 1.2-.8 1.9H16c-.9 0-1.7.8-1.7 1.7 0 1 .8 1.7 1.7 1.7h2c.2.6.4 1.1.7 1.6l-1.4 1.4c-.6.7-.6 1.8.1 2.4.7.6 1.7.6 2.3 0l1.4-1.4c.6.3 1.2.6 1.9.8v2c0 1 .8 1.7 1.7 1.7s1.7-.8 1.7-1.7v-2c.6-.2 1.1-.4 1.6-.7l1.4 1.4c.6.7 1.7.8 2.4.1.7-.6.8-1.7.1-2.4l-.1-.1-1.4-1.4c.3-.5.5-1.1.7-1.6h2c.9 0 1.7-.8 1.7-1.7.1-1-.7-1.8-1.7-1.8zm-8.6 5c-1.9 0-3.4-1.5-3.4-3.4s1.5-3.4 3.4-3.4 3.4 1.5 3.4 3.4c.1 1.9-1.5 3.4-3.4 3.4z"/></g></switch></svg>