<svg xmlns="http://www.w3.org/2000/svg" viewBox="0 0 50.4 50.4"><switch><g fill="#fa6400"><circle cx="33.2" cy="33.2" r="5"/><path d="M49.2 34.3v-2.1c0-1.1-.9-1.9-1.9-1.9-.8 0-1.6-.5-1.8-1.3-.2-.4-.3-.9-.5-1.3-.4-.7-.2-1.6.4-2.2.8-.8.8-2 0-2.7l-1.5-1.5c-.8-.8-2-.8-2.7 0-.6.6-1.5.7-2.2.4-.4-.2-.9-.4-1.3-.5-.8-.3-1.3-1-1.3-1.8 0-1.1-.9-1.9-1.9-1.9h-2.1c-1.1 0-1.9.9-1.9 1.9 0 .8-.5 1.6-1.3 1.8-.4.2-.9.3-1.3.5-.7.4-1.6.2-2.2-.4-.8-.8-2-.8-2.7 0l-1.5 1.5c-.8.8-.8 2 0 2.7.6.6.7 1.5.4 2.2-.2.4-.4.9-.5 1.3-.3.8-1 1.3-1.8 1.3-1.1 0-1.9.9-1.9 1.9v2.1c0 1.1.9 1.9 1.9 1.9.8 0 1.6.5 1.8 1.3.2.4.3.9.5 1.3.4.7.2 1.6-.4 2.2-.8.8-.8 2 0 2.7l1.5 1.5c.8.8 2 .8 2.7 0 .6-.6 1.5-.7 2.2-.4.4.2.9.4 1.3.5.8.3 1.3 1 1.3 1.8 0 1.1.9 1.9 1.9 1.9h2.1c1.1 0 1.9-.9 1.9-1.9 0-.8.5-1.6 1.3-1.8.4-.2.9-.3 1.3-.5.7-.4 1.6-.2 2.2.4.8.8 2 .8 2.7 0l1.5-1.5c.8-.8.8-2 0-2.7-.6-.6-.7-1.5-.4-2.2.2-.4.4-.9.5-1.3.3-.8 1-1.3 1.8-1.3 1 0 1.8-.9 1.9-1.9zm-16 7.9c-5 0-9-4-9-9s4-9 9-9 9 4 9 9c-.1 4.9-4.1 9-9 9zM23.2 12.9v-1.4c0-.7-.6-1.3-1.3-1.3-.5 0-1-.3-1.2-.8-.1-.4-.3-.8-.5-1.2-.2-.5-.1-1.1.2-1.4.5-.5.5-1.3 0-1.8l-1-1c-.5-.5-1.3-.5-1.8 0-.4.4-1 .5-1.4.2-.4-.2-.8-.4-1.2-.5-.5-.2-.8-.7-.8-1.2 0-.7-.6-1.3-1.3-1.3h-1.4c-.7 0-1.3.6-1.3 1.3 0 .5-.3 1-.8 1.2-.4.1-.8.3-1.2.5-.5.2-1.1.1-1.5-.3-.5-.5-1.3-.5-1.8 0l-1 1c-.5.5-.5 1.3 0 1.8.4.4.5 1 .2 1.4-.1.4-.3.8-.4 1.3-.2.5-.7.8-1.2.8-.7 0-1.3.6-1.3 1.3v1.4c0 .7.6 1.3 1.3 1.3.5 0 1 .3 1.2.8.1.4.3.8.5 1.2.2.5.1 1.1-.2 1.4-.5.5-.5 1.3 0 1.8l1 1c.5.5 1.3.5 1.8 0 .4-.4 1-.5 1.4-.2.4.2.8.4 1.2.5.5.2.8.7.8 1.2 0 .7.6 1.3 1.3 1.3h1.4c.7 0 1.3-.6 1.3-1.3 0-.5.3-1 .8-1.2.4-.1.8-.3 1.2-.5.5-.2 1.1-.1 1.4.2.5.5 1.3.5 1.8 0l1-1c.5-.5.5-1.3 0-1.8-.4-.4-.5-1-.2-1.4.2-.4.4-.8.5-1.2.2-.5.7-.8 1.2-.8.7 0 1.3-.6 1.3-1.3zm-11 3.3c-2.2 0-4-1.8-4-4s1.8-4 4-4 4 1.8 4 4-1.8 4-4 4z"/></g></switch></svg>