<svg xmlns="http://www.w3.org/2000/svg" viewBox="0 0 50.4 50.4"><switch><g><g fill="#fa6400"><path d="M7.3 30.2c.4 3.3 1.7 6.5 3.7 9.1l1.8-1.8c-1.8-2-3.1-4.5-3.5-7.3h-2zM7.3 26.2h2c.4-2.8 1.6-5.4 3.6-7.5L11.1 17c-2.1 2.6-3.4 5.8-3.8 9.2zM35.9 13.8c-2.5-1.9-5.6-3.1-8.7-3.5v4.5c1.6.5 3 1.2 4.4 2.2l4.3-3.2zM37 26.2h6c-.4-3.2-1.5-6.2-3.5-8.7l-3.7 5c.7 1.2 1 2.4 1.2 3.7zM23.2 10.3c-3.4.4-6.6 1.7-9.2 3.8l2.1 2.1c2.2-1.3 4.6-2 7.2-2v-3.9zM35.3 35.3l4.1 4.1c2.1-2.6 3.4-5.8 3.8-9.1h-6c-.4 1.7-1 3.4-1.9 5zM38.2 15.2l-12.4 9.1c-2.2-.4-4.2 1.1-4.6 3.3-.4 2.2 1.1 4.2 3.3 4.6 2.2.4 4.2-1.1 4.6-3.3 0-.2.1-.4.1-.6 0-.2 0-.4-.1-.6l9.1-12.5z"/><path d="M25.2 4.2c-13.3 0-24 10.8-24 24 0 6.9 3 13.4 8.1 18H41c9.9-8.8 10.9-23.9 2.1-33.9-4.5-5.1-11-8.1-17.9-8.1zm14.6 38H10.6c-7.8-8.1-7.5-20.9.5-28.6 8.1-7.8 20.9-7.6 28.7.5 7.5 7.8 7.5 20.3 0 28.1z"/></g></g></switch></svg>