<svg xmlns="http://www.w3.org/2000/svg" viewBox="0 0 50.4 50.4"><switch><g fill="#fa6400"><path d="M33.5 7.9c0 .7.4 1.4 1 1.7 9.2 5.1 12.5 16.7 7.3 25.9-5.1 9.2-16.7 12.5-25.9 7.3-8.4-4.6-12-14.9-8.3-23.8.2-.6.2-1.3-.2-1.9-.7-.9-1.9-1-2.8-.4-.4.3-.6.6-.7.8-4.8 11.8.8 25.2 12.6 30 11.8 4.8 25.2-.8 30-12.6 4.4-10.8.1-23.1-10.1-28.8-1-.5-2.2-.2-2.7.8-.1.4-.2.7-.2 1z"/><circle cx="25.1" cy="5.3" r="4.2"/><path d="M21.7 28.5c0 .1.1.1.2.2l.1.1c1.4 1.8 4.1 2.1 5.8.7s2.1-4.1.7-5.8c-.2-.2-.4-.5-.7-.7L9.6 8.7c-.6-.4-1.5-.3-1.9.3-.4.5-.4 1.2 0 1.6l14 17.9z"/></g></switch></svg>