<svg xmlns="http://www.w3.org/2000/svg" viewBox="0 0 50.4 50.4"><switch><g fill="#fa6400"><path d="M26.2 25.8V15.3c0-.6-.5-1-1-1-.6 0-1 .5-1 1v10.5c-1.6.6-2.4 2.3-1.9 3.9.6 1.6 2.3 2.4 3.9 1.9 1.6-.6 2.4-2.3 1.9-3.9-.3-.9-1-1.6-1.9-1.9z"/><path d="M41.7 16.6l3-3L40.1 9l-3 3c-2.8-2-6.2-3.4-9.9-3.7v-3h2.1V1.2h-8.2v4.1h2v2.9C12.8 9.3 4.7 18 4.7 28.7c0 11.3 9.2 20.5 20.5 20.5S45.7 40 45.7 28.7c0-4.6-1.5-8.7-4-12.1zM25.2 45.3c-9.2 0-16.7-7.5-16.7-16.7S16 12 25.2 12s16.7 7.5 16.7 16.7-7.5 16.6-16.7 16.6z"/></g></switch></svg>