<svg xmlns="http://www.w3.org/2000/svg" viewBox="0 0 50.4 50.4"><switch><g fill="#fa6400"><path d="M35.5 35.5c-1.2 1.2-3.3 1.2-4.5 0l-5.8-5.8-5.8 5.8c-1.2 1.2-3.3 1.2-4.5 0-1.2-1.2-1.2-3.3 0-4.5l5.8-5.8-5.8-5.8c-1.2-1.2-1.2-3.3 0-4.5 1.2-1.2 3.3-1.2 4.5 0l5.8 5.8 5.8-5.8c1.2-1.2 3.3-1.2 4.5 0 1.2 1.2 1.2 3.3 0 4.5l-5.8 5.8 5.8 5.8c1.3 1.2 1.3 3.2 0 4.5z"/><path d="M25.2 5.2c11 0 20 9 20 20s-9 20-20 20-20-9-20-20 9-20 20-20m0-4c-13.3 0-24 10.7-24 24s10.7 24 24 24 24-10.7 24-24-10.7-24-24-24z"/></g></switch></svg>