<svg xmlns="http://www.w3.org/2000/svg" viewBox="0 0 50.4 50.4"><switch><g fill="#fa6400"><path d="M25.2 5.2c11 0 20 9 20 20s-9 20-20 20-20-9-20-20 9-20 20-20m0-4c-13.3 0-24 10.7-24 24s10.7 24 24 24 24-10.7 24-24-10.7-24-24-24z"/><path d="M21.8 28.8c0-.7.1-1.5.3-2.2.2-.6.4-1.2.7-1.7.3-.5.7-1 1.1-1.4.5-.5 1-.9 1.5-1.3l1.5-1.1c.4-.3.8-.6 1.1-.9.3-.3.5-.6.7-.9.2-.3.2-.7.2-1.1.1-.8-.4-1.5-1.1-1.8-.8-.3-1.7-.5-2.6-.4-1.1 0-2.2.2-3.2.5s-2 .6-3 1l-1-4.4c1.1-.6 2.3-1 3.5-1.3 1.5-.4 2.9-.6 4.5-.5 2.2-.1 4.5.4 6.4 1.6 1.6 1.1 2.5 3 2.4 5 0 .8-.1 1.6-.4 2.3-.2.7-.6 1.3-1 1.9-.5.6-1 1.2-1.6 1.7-.6.6-1.3 1.1-2.1 1.7-.4.4-.8.7-1.1.9l-.9.9c-.3.3-.5.6-.6 1-.1.4-.2.8-.2 1.3v1h-5.2l.1-1.8zM21 36c0-.9.3-1.8.9-2.4 1.4-1.2 3.5-1.2 4.9 0 1.3 1.4 1.3 3.5 0 4.9-1.4 1.2-3.5 1.2-4.9 0-.6-.7-.9-1.6-.9-2.5z"/></g></switch></svg>