<svg xmlns="http://www.w3.org/2000/svg" viewBox="0 0 50.4 50.4"><switch><g fill="#fa6400"><path d="M25.5 27.2h-2v-1c0-.6-.4-1-1-1s-1 .4-1 1v1h-14v-1c0-.6-.4-1-1-1s-1 .4-1 1v1h-2c-1.1 0-2 .9-2 2v18c0 1.1.9 2 2 2h22c1.1 0 2-.9 2-2v-18c0-1.1-.9-2-2-2zm-4 2h2v2h-2v-2zm-16 0h2v2h-2v-2zm19.1 17.1H4.4V33.2h20.2v13.1zM27.5 8.7v13.6l6.4 6.4c.6.6 1.5.6 2.1 0 .6-.6.6-1.5 0-2.1l-5.5-5.5V8.7c0-.8-.7-1.5-1.5-1.5s-1.5.7-1.5 1.5z"/><path d="M29.5 1.2c-11-.1-19.9 8.8-20 19.7 0 1.1.1 2.2.2 3.2h4C12.1 15.4 17.8 7 26.5 5.4c8.7-1.6 17.1 4.1 18.7 12.8 1.6 8.7-4.1 17.1-12.8 18.7-.7.1-1.3.2-2 .2v4c11-.9 19.2-10.5 18.4-21.5C48 9.5 39.7 1.5 29.5 1.2zM10.3 37.3l-1.8.3-.2-1.6 2.3-.5h1.6v8.8h-1.9v-7zM18.2 37.1h-4v-1.5h5.9v1.6l-3.3 7.2h-2l3.4-7.3z"/></g></switch></svg>