<svg xmlns="http://www.w3.org/2000/svg" viewBox="0 0 50.4 50.4"><switch><g><g fill="#fa6400"><path d="M45.1 26.5c.2-.7.3-1.4.3-2.1 0-4.9-3.9-8.8-8.8-8.8-.4 0-.8 0-1.1.1C34.1 11.1 29.9 8 25.2 8c-4.7 0-8.9 3.1-10.2 7.7-.4-.1-.8-.1-1.2-.1-4.9 0-8.8 3.9-8.8 8.8 0 .7.1 1.4.3 2.1-2.5 1.6-4.1 4.4-4.1 7.4 0 4.7 3.8 8.6 8.6 8.6H40.4c4.7.1 8.7-3.6 8.8-8.4v-.2c0-3-1.5-5.8-4.1-7.4zm-11.6 3.8h-1.9c-.2.6-.4 1.1-.7 1.6l1.3 1.3c.1.1.2.1.2.2.6.7.5 1.8-.2 2.3-.7.6-1.8.5-2.3-.2l-1.3-1.3c-.5.3-1 .5-1.6.7V37.1c-.1.9-.9 1.6-1.8 1.5s-1.6-.9-1.5-1.8V35c-.6-.2-1.2-.4-1.8-.7l-1.3 1.3c-.6.5-1.5.5-2.1 0-.7-.6-.8-1.6-.2-2.3l1.3-1.3c-.3-.5-.5-1-.7-1.6H16.7c-.9-.1-1.6-.9-1.5-1.8.1-.9.9-1.6 1.8-1.5h1.8c.2-.7.4-1.3.7-1.8L18.2 24c-.3-.3-.5-.7-.5-1.2 0-.9.8-1.7 1.7-1.6.4 0 .9.2 1.2.5l1.3 1.4c.6-.3 1.2-.6 1.8-.7v-1.9c0-.9.7-1.7 1.7-1.7.9 0 1.7.7 1.7 1.7v1.9c.6.2 1.1.4 1.6.7l1.3-1.3c.3-.3.7-.5 1.2-.5.4 0 .9.2 1.2.5.6.7.6 1.7 0 2.3L31 25.4c.3.6.6 1.2.7 1.8h1.9c.8.1 1.5.7 1.5 1.5s-.7 1.6-1.6 1.6z"/><path d="M25.2 25.2c-1.8 0-3.3 1.5-3.3 3.3s1.5 3.3 3.3 3.3 3.3-1.5 3.3-3.3-1.5-3.3-3.3-3.3z"/></g></g></switch></svg>