<svg xmlns="http://www.w3.org/2000/svg" viewBox="0 0 50.4 50.4"><switch><g fill="#fa6400"><path d="M38.3 36.3v-4H35c-.2-.9-.5-1.8-1-2.6l2.5-2.5-3.1-3.2-2.5 2.5c-.8-.5-1.7-.8-2.6-1v-3.2h-4v3.2c-.9.2-1.8.5-2.6 1L19.2 24 16 27.2l2.5 2.5c-.5.8-.8 1.7-1 2.6h-3.2v4h3.2c.2.9.5 1.8 1 2.6L16 41.3l3.2 3.2 2.5-2.5c.8.5 1.7.8 2.6 1v3.2h4V43c.9-.2 1.8-.5 2.6-1l2.5 2.5 3.2-3.2-2.6-2.5c.5-.8.8-1.7 1-2.6l3.3.1zm-12 2.2c-2.3 0-4.2-1.9-4.2-4.2 0-2.3 1.9-4.2 4.2-4.2 2.3 0 4.2 1.9 4.2 4.2 0 2.3-1.9 4.2-4.2 4.2z"/><path d="M44.8 22.3c.2-.7.3-1.4.2-2.1 0-4.8-3.9-8.6-8.6-8.6-.4 0-.8 0-1.1.1-1.6-5.5-7.4-8.7-13-7.1-3.4 1-6.1 3.7-7.1 7.1-.4-.1-.8-.1-1.1-.1-4.8 0-8.6 3.9-8.6 8.6 0 .7.1 1.4.2 2.1-2.5 1.6-4 4.3-4 7.2 0 4.4 3.3 8 7.7 8.3V34c-2.3-.3-4-2.3-4-4.6 0-1.9 1.1-3.6 2.8-4.4l1.3-.6c.4-.2.6-.7.5-1.2l-.5-1.4c-1-2.5.3-5.3 2.8-6.3 1-.4 2-.4 3-.1l1.7.5h.2c.5 0 .8-.3.9-.8l.3-1.8c.6-3.7 4.1-6.1 7.8-5.5 2.8.5 5 2.7 5.5 5.5l.3 1.8c.1.4.5.8.9.8h.2l1.7-.5c2.6-.7 5.3.8 6 3.4.3 1 .2 2.1-.1 3l-.5 1.4c-.2.4 0 .9.5 1.2l1.3.6c1.7.8 2.8 2.5 2.8 4.4 0 2-1.4 3.8-3.3 4.4v3.8c4.1-.6 7.1-4.1 7.1-8.2.1-2.8-1.4-5.5-3.8-7.1z"/></g></switch></svg>