<svg xmlns="http://www.w3.org/2000/svg" viewBox="0 0 50.4 50.4"><switch><g><path fill="#fa6400" d="M31.5 35.4l7.2 6.3V29.1zM24.5 36.8c.7.6 1.6.6 2.3 0l11.4-10c-.4-.4-.9-.6-1.4-.7H14.4c-.5 0-1.1.2-1.4.7l11.5 10z"/><path fill="#fa6400" d="M29.9 36.8l-1.7 1.5c-1.5 1.3-3.6 1.3-5.1 0l-1.7-1.5-8.4 7.3c.4.4.9.6 1.4.7h22.4c.5 0 1-.2 1.4-.7l-8.3-7.3zM19.7 35.4l-7.2-6.3v12.6z"/><path fill="#404040" d="M44.8 23.7c.2-.7.3-1.4.2-2.1 0-4.8-3.9-8.6-8.6-8.6-.4 0-.8 0-1.1.1-1.6-5.5-7.4-8.7-13-7.1-3.4 1-6.1 3.7-7.1 7.1-.4-.1-.8-.1-1.1-.1-4.8 0-8.6 3.9-8.6 8.6 0 .7.1 1.4.2 2.1-2.5 1.6-4 4.3-4 7.2 0 4.4 3.3 8 7.7 8.3v-3.8c-2.3-.3-4-2.3-4-4.6 0-1.9 1.1-3.6 2.8-4.4l1.3-.4c.4-.2.6-.7.5-1.2l-.5-1.4c-1-2.5.3-5.3 2.8-6.3 1-.4 2-.4 3-.1l1.7.5h.2c.5 0 .8-.3.9-.8l.3-1.8c.6-3.7 4.1-6.1 7.8-5.5 2.8.5 5 2.7 5.5 5.5l.3 1.8c.1.4.5.8.9.8h.2L35 17c2.6-.7 5.3.8 6 3.4.3 1 .2 2.1-.1 3l-.5 1.4c-.2.4 0 .9.5 1.2l1.3.6c1.7.8 2.8 2.5 2.8 4.4 0 2-1.4 3.8-3.3 4.4v3.8c4.1-.6 7.1-4.1 7.1-8.2-.1-2.9-1.6-5.7-4-7.3z"/></g></switch></svg>