<svg xmlns="http://www.w3.org/2000/svg" viewBox="0 0 50.4 50.4"><switch><g><path fill="#404040" d="M25.2 11.8c3.4 0 6.2 2.4 6.8 5.7l.3 1.8c.1.5.5.8.9.8h.3l1.8-.5c2.7-.7 5.4.9 6.1 3.5.3 1 .2 2.1-.1 3l-.5 1.4c-.2.5 0 1 .5 1.2l1.4.7c1.7.8 2.8 2.6 2.8 4.5 0 2.7-2.2 4.8-4.8 4.8H10c-2.6.1-4.9-1.9-5-4.6v-.2c0-1.9 1.1-3.7 2.8-4.5l1.4-.7c.4-.2.6-.7.5-1.2l-.5-1.4c-1-2.6.4-5.5 3-6.4 1-.4 2-.4 3-.1l1.8.5h.3c.5 0 .9-.3.9-.8l.4-1.8c.4-3.3 3.3-5.7 6.6-5.7m0-3.8c-4.7 0-8.9 3.1-10.2 7.7-.4-.1-.8-.1-1.2-.1-4.9 0-8.8 3.9-8.8 8.8 0 .7.1 1.4.3 2.1-2.5 1.6-4.1 4.4-4.1 7.4 0 4.7 3.9 8.6 8.6 8.6H40.4c4.7.1 8.7-3.6 8.8-8.4v-.2c0-3-1.5-5.8-4.1-7.4.2-.7.3-1.4.3-2.1 0-4.9-3.9-8.8-8.8-8.8-.4 0-.8 0-1.2.1C34.1 11.1 30 8 25.2 8z"/></g></switch></svg>