<svg xmlns="http://www.w3.org/2000/svg" viewBox="0 0 50.4 50.4"><switch><g fill="#fa6400"><path d="M32.3 28.6h-9.5c-.8-.1-1.3-.7-1.3-1.5.1-.7.6-1.2 1.3-1.3h9.5c.8.1 1.3.7 1.3 1.5-.1.7-.7 1.2-1.3 1.3zM32.3 34H19.4c-.8-.1-1.3-.7-1.3-1.5.1-.7.6-1.2 1.3-1.3h12.8c.8.1 1.3.7 1.3 1.5 0 .7-.6 1.2-1.2 1.3zM32.3 38.7H19.4c-.8-.1-1.3-.7-1.3-1.5.1-.7.6-1.2 1.3-1.3h12.8c.8.1 1.3.7 1.3 1.5 0 .7-.6 1.3-1.2 1.3z"/><path d="M13.3 19.4v29.8h18.6l5.8-6V19.4H13.3zm2.7 2.7h19v19.6h-3c-.9-.1-1.7.6-1.8 1.5v3.2H16V22.1z"/><path d="M26.8 44.2h-7.4c-.8 0-1.4-.6-1.4-1.4 0-.8.6-1.4 1.4-1.4h7.4c.8.1 1.3.7 1.3 1.5-.1.6-.6 1.2-1.3 1.3zM44.7 19.3c.2-.7.3-1.4.2-2.1 0-4.8-3.9-8.6-8.6-8.6-.4 0-.8 0-1.1.1-1.6-5.5-7.4-8.7-13-7.1-3.4 1-6.1 3.7-7.1 7.1-.4-.1-.8-.1-1.1-.1-4.7 0-8.5 3.9-8.6 8.6 0 .7.1 1.4.2 2.1-2.5 1.6-4 4.3-4 7.2 0 4.4 3.3 8 7.7 8.3V31c-2.3-.3-4-2.3-4-4.6 0-1.9 1.1-3.6 2.8-4.4l1.3-.6c.4-.2.6-.7.5-1.2L9.4 19c-1-2.5.3-5.3 2.8-6.3 1-.4 2-.4 3-.1l1.7.5h.2c.5 0 .8-.3.9-.8l.3-1.8c.6-3.7 4.1-6.1 7.8-5.5 2.8.5 5 2.7 5.5 5.5l.3 1.8c.1.4.5.8.9.8h.2l1.7-.5c2.6-.7 5.3.8 6 3.4.3 1 .2 2.1-.1 3l-.5 1.4c-.2.4 0 .9.5 1.2l1.3.7c1.7.8 2.8 2.5 2.8 4.4 0 2-1.4 3.8-3.3 4.4v3.8c4.1-.6 7.1-4.1 7.1-8.2.2-3.1-1.3-5.8-3.8-7.4z"/></g></switch></svg>