<svg xmlns="http://www.w3.org/2000/svg" viewBox="0 0 50.4 50.4"><switch><g><path fill="#fa6400" d="M24.9 19.9s-3.6 3.4-11 3v7.8c0 11.9 11 17.2 11 17.2h.1s11-5.4 11-17.2v-7.8c-7.5.4-11.1-3-11.1-3zm0 25.8c-2.4-1.5-9-6.3-9-15v-5.8c3.2-.1 6.3-.9 9-2.6v23.4z"/><path fill="#404040" d="M44.7 20.6c.2-.7.3-1.4.2-2.1 0-4.8-3.9-8.6-8.6-8.6-.4 0-.8 0-1.1.1-1.6-5.5-7.4-8.7-13-7.1-3.4 1-6.1 3.7-7.1 7.1-.4-.1-.8-.1-1.1-.1-4.8 0-8.6 3.9-8.6 8.6 0 .7.1 1.4.2 2.1-2.5 1.6-4 4.3-4 7.2 0 4.4 3.3 8 7.7 8.3v-3.8c-2.3-.3-4-2.3-4-4.6 0-1.9 1.1-3.6 2.8-4.4l1.3-.6c.4-.2.6-.7.5-1.2l-.5-1.4c-1-2.5.3-5.3 2.8-6.3 1-.4 2-.4 3-.1l1.7.5h.2c.5.1.9-.3 1-.7l.3-1.8c.6-3.7 4.1-6.1 7.8-5.5 2.8.5 5 2.7 5.5 5.5l.3 1.8c.1.4.5.8.9.8h.2l1.7-.5c2.6-.7 5.3.8 6 3.4.3 1 .2 2.1-.1 3l-.5 1.4c-.2.4 0 .9.5 1.2l1.3.6c1.7.8 2.8 2.5 2.8 4.4 0 2-1.4 3.8-3.3 4.4V36c4.1-.6 7.1-4.1 7.1-8.2.1-2.9-1.4-5.7-3.9-7.2z"/></g></switch></svg>