<svg xmlns="http://www.w3.org/2000/svg" viewBox="0 0 50.4 50.4"><switch><g><path fill="#404040" d="M25.2 8c-4.7 0-8.9 3.1-10.2 7.7-.4-.1-.8-.1-1.2-.1-4.9 0-8.8 3.9-8.8 8.8 0 .7.1 1.4.3 2.1-2.5 1.6-4.1 4.4-4.1 7.4 0 4.7 3.8 8.6 8.6 8.6H40.4c4.7.1 8.7-3.6 8.8-8.4v-.2c0-3-1.5-5.8-4.1-7.4.2-.7.3-1.4.3-2.1 0-4.9-3.9-8.8-8.8-8.8-.4 0-.8 0-1.2.1C34.1 11.1 29.9 8 25.2 8z"/><path fill="#fa6400" d="M33.5 27h-1.9c-.2-.7-.4-1.3-.7-1.8l1.4-1.3c.7-.6.7-1.7 0-2.3-.3-.4-.8-.6-1.2-.6-.4 0-.9.2-1.2.5l-1.3 1.3c-.5-.3-1-.5-1.6-.7v-1.9c0-.9-.7-1.7-1.7-1.7-.9 0-1.7.7-1.7 1.7v1.9c-.6.2-1.3.4-1.8.7l-1.3-1.4c-.3-.3-.7-.5-1.2-.5-.9 0-1.7.7-1.7 1.6 0 .4.2.9.5 1.2l1.3 1.3c-.3.6-.6 1.2-.7 1.8h-1.8c-.9-.1-1.7.6-1.8 1.5-.1.9.6 1.7 1.5 1.8H18.8c.2.6.4 1.1.7 1.6L18.2 33c-.6.7-.5 1.8.2 2.3.6.5 1.5.5 2.1 0l1.3-1.3c.6.3 1.2.6 1.8.7v1.9c-.1.9.6 1.7 1.5 1.8s1.7-.6 1.8-1.5V35c.6-.2 1.1-.4 1.6-.7l1.3 1.3c.6.7 1.6.8 2.3.2.7-.6.8-1.6.2-2.3-.1-.1-.1-.2-.2-.2L30.8 32c.3-.5.5-1 .7-1.6h1.9c.9-.1 1.6-.9 1.5-1.8.1-.9-.6-1.5-1.4-1.6zm-8.3 4.9c-1.8 0-3.3-1.5-3.3-3.3s1.5-3.3 3.3-3.3 3.3 1.5 3.3 3.3-1.5 3.3-3.3 3.3z"/></g></switch></svg>