<svg xmlns="http://www.w3.org/2000/svg" viewBox="0 0 50.4 50.4"><switch><g><path fill="#fa6400" d="M25.2 1.2c-1.1 0-2 .9-2 2s.9 2 2 2c11 0 20 9 20 20 0 1.1.9 2 2 2s2-.9 2-2c0-13.3-10.7-24-24-24z"/><path fill="#fa6400" d="M25.2 13.2c6.6 0 12 5.4 12 12 0 1.1.9 2 2 2s2-.9 2-2c0-8.8-7.2-16-16-16-1.1 0-2 .9-2 2s.9 2 2 2z"/><path fill="#fa6400" d="M25.2 21.2c2.2 0 4 1.8 4 4 0 1.1.9 2 2 2s2-.9 2-2c0-4.4-3.6-8-8-8-1.1 0-2 .9-2 2s.9 2 2 2z"/><path fill="#404040" d="M27.2 38.5c-2.1 0-6.9-4.2-9-6.2-2.1-2.1-6.3-6.9-6.3-9 0-2.1 5.3-4.4 5.3-5.4L12.7 5.2H8.5c-2.1 0-7.3 6.3-7.3 10.5s2.1 12.6 11.5 22 17.8 11.5 22 11.5 10.5-5.2 10.5-7.3v-4.2l-12.6-4.5c-1 0-3.3 5.3-5.4 5.3z"/></g></switch></svg>