<svg xmlns="http://www.w3.org/2000/svg" viewBox="0 0 50.4 50.4"><switch><g><path fill="#404040" d="M43.7 11.7l-4.7.2v-.6c-.1-2.6-2.3-4.7-4.9-4.6l-9.5.3c-2.6.2-4.7 2.4-4.6 5v.6l-14.2.5c-2.6.1-4.7 2.3-4.6 4.9l.7 19c.1 2.6 2.3 4.7 4.9 4.6L21 41c5.8 3.7 13.3 3.5 18.9-.7l4.7-.2c2.6-.1 4.7-2.3 4.6-4.9l-.7-19c0-2.5-2.2-4.5-4.8-4.5zm-29.9 8.8l-5.9.2C6.9 20.7 6 20 6 19s.7-1.8 1.7-1.8l5.9-.2c1 0 1.8.7 1.8 1.7.1.9-.7 1.8-1.6 1.8zm16.6 18.4c-6.5.2-12-4.9-12.3-11.4-.2-6.5 4.9-12 11.4-12.3 6.5-.2 12 4.9 12.3 11.4.2 6.6-4.9 12-11.4 12.3z"/><path fill="#fa6400" d="M29.7 18.8c4.6-.2 8.4 3.4 8.6 8 .2 4.6-3.4 8.4-8 8.6-4.6.2-8.4-3.4-8.6-8-.2-4.6 3.4-8.5 8-8.6z"/></g></switch></svg>