<svg xmlns="http://www.w3.org/2000/svg" viewBox="0 0 50.4 50.4"><switch><g fill="#fa6400"><path d="M29.6 37.5c-2.3 0-7.5-4.5-9.8-6.8S13 23.2 13 20.9s5.7-4.8 5.7-5.9L13.8 1.2H9.2c-2.3 0-8 6.9-8 11.4 0 4.6 2.3 13.7 12.6 24s19.4 12.6 24 12.6 11.4-5.7 11.4-8v-4.6l-13.7-4.9c-1.2 0-3.7 5.8-5.9 5.8zM35 9.6c0-2.4 2-4.4 4.4-4.4 2.4 0 4.4 2 4.4 4.4v5.2H47v-4.4c0-4.2-3.4-7.6-7.6-7.6-4.2 0-7.6 3.4-7.6 7.6v4.4H35V9.6z"/><path d="M47 14.3H31.7c-1.2 0-2.2 1-2.2 2.2v8.7c0 1.2 1 2.2 2.2 2.2H47c1.2 0 2.2-1 2.2-2.2v-8.7c0-1.2-1-2.2-2.2-2.2zm-6.5 7.3V23c0 .6-.5 1.1-1.1 1.1-.6 0-1.1-.5-1.1-1.1v-1.4c-1-.6-1.4-1.9-.8-3 .6-1 1.9-1.4 3-.8 1 .6 1.4 1.9.8 3-.2.4-.5.6-.8.8z"/></g></switch></svg>