<svg xmlns="http://www.w3.org/2000/svg" viewBox="0 0 50.4 50.4"><switch><g><path fill="#404040" d="M20 43.2l-5.9 4.2.1 2 24-.8-.1-2-6.1-3.8zM33 2.6l-.4.6c-3.3 4.5-9.7 5.5-14.2 2.1-.6-.5-1.2-1-1.7-1.6l-.5-.5c-9.9 5-13.8 17-8.8 26.9 5 9.9 17 13.8 26.9 8.8 9.9-5 13.8-17 8.8-26.9-2.2-4.2-5.8-7.6-10.1-9.4zm-7.4 30.9c-6.9.2-12.7-5.2-12.9-12.1-.2-6.9 5.2-12.7 12.1-12.9 6.9-.2 12.7 5.2 12.9 12.1.2 6.9-5.2 12.7-12.1 12.9z"/><path fill="#404040" d="M24.6 5c2.4-.1 4.6-1.3 6.1-3.2-4.1-1.2-8.4-1-12.4.4C19.9 4 22.2 5.1 24.6 5zM24.9 11c-5.5.2-9.8 4.8-9.6 10.3.2 5.5 4.8 9.8 10.3 9.6 5.5-.2 9.8-4.8 9.7-10.3-.3-5.4-4.9-9.8-10.4-9.6zm.5 14.5c-2.5.1-4.6-1.9-4.7-4.3-.1-2.5 1.9-4.6 4.3-4.7 2.5-.1 4.6 1.9 4.7 4.3.1 2.5-1.9 4.6-4.3 4.7z"/><path fill="#fa6400" d="M25 16.1c2.8-.1 5.1 2.1 5.2 4.8.1 2.8-2.1 5.1-4.8 5.2-2.8.1-5.1-2.1-5.2-4.8-.1-2.8 2-5.1 4.8-5.2z"/></g></switch></svg>