<svg xmlns="http://www.w3.org/2000/svg" viewBox="0 0 50.4 50.4"><switch><g><path fill="#404040" d="M29.6 37.5c-2.3 0-7.5-4.5-9.8-6.8S13 23.2 13 20.9s5.7-4.8 5.7-5.9L13.8 1.2H9.2c-2.3 0-8 6.9-8 11.4s2.3 13.7 12.6 24 19.4 12.6 24 12.6 11.4-5.7 11.4-8v-4.6l-13.7-4.9c-1.2 0-3.7 5.8-5.9 5.8z"/><path fill="#fa6400" d="M48.1 15.1v-1.6c0-.8-.6-1.4-1.4-1.4-.6 0-1.1-.4-1.3-.9-.1-.4-.3-.9-.5-1.3-.3-.5-.1-1.2.3-1.6.5-.5.5-1.4 0-2l-1.1-1.1c-.5-.5-1.4-.5-2 0-.4.4-1 .5-1.6.3-.4-.2-.9-.4-1.3-.5-.5-.2-.9-.7-.9-1.3 0-.8-.6-1.4-1.4-1.4h-1.6c-.8 0-1.4.6-1.4 1.4 0 .6-.4 1.1-.9 1.3-.4.1-.9.3-1.3.5-.5.3-1.2.1-1.6-.3-.5-.5-1.4-.5-2 0L27 6.3c-.5.5-.5 1.4 0 2 .4.4.5 1 .3 1.6-.2.4-.4.9-.5 1.3-.2.5-.7.9-1.3.9-.8 0-1.4.6-1.4 1.4v1.6c0 .8.6 1.4 1.4 1.4.6 0 1.1.4 1.3.9.1.4.3.9.5 1.3.3.5.1 1.2-.3 1.6-.5.5-.5 1.4 0 2l1.1 1.1c.5.5 1.4.5 2 0 .4-.4 1-.5 1.6-.3.4.2.9.4 1.3.5.5.2.9.7.9 1.3 0 .8.6 1.4 1.4 1.4h1.6c.8 0 1.4-.6 1.4-1.4 0-.6.4-1.1.9-1.3.4-.1.9-.3 1.3-.5.5-.3 1.2-.1 1.6.3.5.5 1.4.5 2 0l1.1-1.1c.5-.5.5-1.4 0-2-.4-.4-.5-1-.3-1.6.2-.4.4-.9.5-1.3.2-.5.7-.9 1.3-.9.7 0 1.4-.6 1.4-1.4zm-12 3.5c-2.4 0-4.4-2-4.4-4.4 0-2.4 2-4.4 4.4-4.4s4.4 2 4.4 4.4c0 2.5-2 4.4-4.4 4.4 0 .1 0 .1 0 0z"/></g></switch></svg>