<svg xmlns="http://www.w3.org/2000/svg" viewBox="0 0 50.4 50.4"><switch><g fill="#fa6400"><path d="M9.4 5.8H17c1 0 1.9.8 1.9 1.9v28.2c0 1-.8 1.9-1.9 1.9H9.4c-1 0-1.9-.8-1.9-1.9V7.7c.1-1 .9-1.9 1.9-1.9z"/><path d="M45.2 8.6h-24v28c0 2.6-1.3 4-4 4h-8c-2.7 0-4-1.2-4-4v-28c-2.2 0-4 1.8-4 4v28c0 2.2 1.8 4 4 4h40c2.2 0 4-1.8 4-4v-28c0-2.2-1.8-4-4-4zm-20 4h20v4h-20v-4zm2 24.2c-1.2 0-2.2-1-2.2-2.2s1-2.2 2.2-2.2c1.2 0 2.2 1 2.2 2.2.1 1.2-1 2.2-2.2 2.2zm0-6c-1.2 0-2.2-1-2.2-2.2 0-1.2 1-2.2 2.2-2.2 1.2 0 2.2 1 2.2 2.2.1 1.2-1 2.2-2.2 2.2zm0-6c-1.2 0-2.2-1-2.2-2.2 0-1.2 1-2.2 2.2-2.2 1.2 0 2.2 1 2.2 2.2.1 1.2-1 2.2-2.2 2.2zm8 12c-1.2 0-2.2-1-2.2-2.2s1-2.2 2.2-2.2c1.2 0 2.2 1 2.2 2.2.1 1.2-1 2.2-2.2 2.2zm0-6c-1.2 0-2.2-1-2.2-2.2 0-1.2 1-2.2 2.2-2.2 1.2 0 2.2 1 2.2 2.2.1 1.2-1 2.2-2.2 2.2zm0-6c-1.2 0-2.2-1-2.2-2.2 0-1.2 1-2.2 2.2-2.2 1.2 0 2.2 1 2.2 2.2.1 1.2-1 2.2-2.2 2.2zm8 12c-1.2 0-2.2-1-2.2-2.2s1-2.2 2.2-2.2c1.2 0 2.2 1 2.2 2.2.1 1.2-1 2.2-2.2 2.2zm0-6c-1.2 0-2.2-1-2.2-2.2 0-1.2 1-2.2 2.2-2.2 1.2 0 2.2 1 2.2 2.2.1 1.2-1 2.2-2.2 2.2zm0-6c-1.2 0-2.2-1-2.2-2.2 0-1.2 1-2.2 2.2-2.2 1.2 0 2.2 1 2.2 2.2.1 1.2-1 2.2-2.2 2.2z"/></g></switch></svg>