<svg xmlns="http://www.w3.org/2000/svg" viewBox="0 0 50.4 50.4"><switch><g><g fill="#fa6400"><path d="M8 15.4c0-3.9 1.3-7.8 3.8-10.8.8-.8.8-2 0-2.8-.7-.8-2-.8-2.8 0-.1.1-.2.2-.2.3-6.3 7.8-6.3 18.9 0 26.7.7.8 1.9 1 2.8.3.8-.7 1-1.9.3-2.8C9.4 23.2 8 19.4 8 15.4z"/><path d="M16.3 23.4c1.1 0 2-.9 2-2 0-.4-.1-.8-.3-1.1-2-3-2-6.9 0-9.8.6-.9.4-2.1-.5-2.8-.9-.6-2.1-.4-2.8.5-3 4.3-3 10 0 14.3.4.6 1 .9 1.6.9zM41.6 2.1c-.4-.5-1-.8-1.7-.7-.4 0-.8.2-1.1.4-.8.7-1 1.9-.3 2.8 2.5 3.1 3.9 6.9 3.8 10.8 0 3.9-1.4 7.8-3.8 10.8-.7.8-.6 2.1.3 2.8.8.7 2.1.6 2.8-.3 6.3-7.7 6.3-18.8 0-26.6z"/><path d="M32.9 7.7c-.9.6-1.1 1.8-.5 2.7 2 3 2 6.9 0 9.8-.5 1-.2 2.2.7 2.7.8.5 1.9.3 2.5-.5 3-4.3 3-10 0-14.3-.6-.8-1.8-1-2.7-.4z"/><circle cx="25.2" cy="15.4" r="4.2"/><path d="M27.7 21.7h-5.1l-8.2 27.5h3.9l1.3-4.2h11.3l1.3 4.2H36l-8.3-27.5zm-2.5 4.5l1.8 6.1h-3.7l1.9-6.1zm-4.4 14.6l1.3-4.2h6.2l1.3 4.2h-8.8z"/></g></g></switch></svg>