<svg xmlns="http://www.w3.org/2000/svg" viewBox="0 0 50.4 50.4"><switch><g fill="#fa6400"><path d="M8.2 15.2c-.6 0-1 .4-1 1v18c0 .6.4 1 1 1s1-.4 1-1v-18c0-.6-.4-1-1-1zM39.2 9.2v-6c0-1.1-.9-2-2-2s-2 .9-2 2v6h4zM39.2 11.2h-12v-2c0-1.1-.9-2-2-2s-2 .9-2 2v2h-4v-2c0-1.1-.9-2-2-2s-2 .9-2 2v2c-2.2 0-4 1.8-4 4v30c0 2.2 1.8 4 4 4h24c2.2 0 4-1.8 4-4v-30c0-2.2-1.8-4-4-4zm-21.2 8h18.5c.6 0 1 .5 1 1 0 .6-.5 1-1 1H17.9c-.6 0-1-.5-1-1s.5-1 1.1-1zm9.2 22.3c-1.2 0-2.2-1-2.2-2.2 0-1.2 1-2.2 2.2-2.2 1.2 0 2.2 1 2.2 2.2 0 1.2-1 2.2-2.2 2.2zm9.2-8.2H17.9c-.6 0-1-.5-1-1 0-.6.5-1 1-1h18.5c.6 0 1 .5 1 1s-.5 1-1 1zm2-4H15.9c-.6 0-1-.4-1-1s.4-1 1-1h22.5c.6 0 1 .4 1 1s-.4 1-1 1zm0-4H15.9c-.6 0-1-.4-1-1s.4-1 1-1h22.5c.6 0 1 .4 1 1s-.4 1-1 1z"/></g></switch></svg>