<svg xmlns="http://www.w3.org/2000/svg" viewBox="0 0 50.4 50.4"><switch><g fill="#fa6400"><path d="M45.2 14.1h-40c-2.2 0-4 1.8-4 4v26c0 2.2 1.8 4 4 4h40c2.2 0 4-1.8 4-4v-26c0-2.2-1.8-4-4-4zm-27 30.8c-7.6 0-13.8-6.2-13.8-13.8 0-7.6 6.2-13.8 13.8-13.8 7.6 0 13.8 6.2 13.8 13.8s-6.2 13.8-13.8 13.8zm22-9.6c-1.2 0-2.2-1-2.2-2.2s1-2.2 2.2-2.2c1.2 0 2.2 1 2.2 2.2 0 1.2-1 2.2-2.2 2.2zm0-7c-2.9 0-5.2-2.4-5.2-5.2s2.4-5.2 5.2-5.2c2.9 0 5.2 2.4 5.2 5.2 0 2.8-2.3 5.2-5.2 5.2z"/><circle cx="40.2" cy="23.1" r="2.5"/><path d="M18.2 42.1c2.3 0 4.5-.7 6.3-2H11.9c1.8 1.3 4 2 6.3 2zM9.7 38.1h17c.5-.6.9-1.3 1.3-2H8.4c.4.7.8 1.3 1.3 2zM9.7 24.1c-.5.6-.9 1.3-1.3 2H28c-.4-.7-.8-1.4-1.3-2h-17zM18.2 20.1c-2.3 0-4.5.7-6.3 2h12.6c-1.8-1.3-4-2-6.3-2zM7.2 30.1h21.9c-.1-.7-.2-1.3-.4-2H7.6c-.2.6-.3 1.3-.4 2zM7.6 34.1h21.2c.2-.7.3-1.3.4-2h-22c.1.6.2 1.3.4 2zM16.9 5.3l14.6 6.8h7.2L18.2 2.5c-.7-.4-1.7-.1-2 .6-.4.7-.1 1.7.6 2 0 .1 0 .1.1.2z"/></g></switch></svg>