<svg xmlns="http://www.w3.org/2000/svg" viewBox="0 0 50.4 50.4"><switch><g><path fill="#404040" d="M45.2 29.3h-12v-9c0-1.1-.9-2-2-2s-2 .9-2 2v9h-24c-2.2 0-4 1.8-4 4v10c0 2.2 1.8 4 4 4h40c2.2 0 4-1.8 4-4v-10c0-2.3-1.8-4-4-4zm-34 10.2c-1.2 0-2.2-1-2.2-2.2 0-1.2 1-2.2 2.2-2.2 1.2 0 2.2 1 2.2 2.2 0 1.2-1 2.2-2.2 2.2zm8 0c-1.2 0-2.2-1-2.2-2.2 0-1.2 1-2.2 2.2-2.2 1.2 0 2.2 1 2.2 2.2.1 1.2-1 2.2-2.2 2.2zm8 0c-1.2 0-2.2-1-2.2-2.2 0-1.2 1-2.2 2.2-2.2 1.2 0 2.2 1 2.2 2.2.1 1.2-1 2.2-2.2 2.2zm12 0c-1.2 0-2.2-1-2.2-2.2 0-1.2 1-2.2 2.2-2.2 1.2 0 2.2 1 2.2 2.2.1 1.2-1 2.2-2.2 2.2z"/><circle cx="31.2" cy="13.3" r="2.5" fill="#fa6400"/><path fill="#fa6400" d="M37.5 13.3c0 1.2-.3 2.4-1 3.4-.5.9-.2 2 .7 2.6.8.5 1.9.3 2.4-.5 2.2-3.3 2.2-7.7 0-11-.5-.9-1.7-1.2-2.6-.7-.9.5-1.2 1.7-.7 2.6 0 .1.1.1.1.2.7 1 1.1 2.1 1.1 3.4zM45.5 13.3c0 2.6-.7 5.1-2 7.3-.5.9-.2 2 .7 2.6.9.5 2 .2 2.6-.7 3.4-5.7 3.4-12.7 0-18.4-.5-.9-1.7-1.2-2.6-.7-.9.5-1.2 1.7-.7 2.6 1.3 2.2 2 4.7 2 7.3zM25.5 19.3c.9-.6 1.1-1.7.5-2.6-1.4-2.1-1.4-4.8 0-6.9.5-.9.2-2-.7-2.6-.8-.5-1.9-.3-2.4.5-2.2 3.3-2.2 7.7 0 11 .5.9 1.7 1.2 2.6.6-.1 0-.1 0 0 0zM18.3 23.1c.9-.5 1.2-1.7.7-2.6C16.3 16 16.3 10.4 19 6c.5-.9.2-2-.7-2.6-.9-.5-2-.2-2.6.7-3.4 5.7-3.4 12.7 0 18.4.5.8 1.7 1.1 2.6.6z"/></g></switch></svg>