<svg xmlns="http://www.w3.org/2000/svg" viewBox="0 0 50.4 50.4"><switch><g><g fill="#fa6400"><path d="M24.9 39.4c-1.9 0-6.3-3.8-8.2-5.7-1.9-1.9-5.7-6.3-5.7-8.2s5.5-4 5.5-4.9L11.7 9.2H7.9c-1.9 0-6.7 5.7-6.7 9.5s1.9 11.4 10.5 20 16.2 10.5 20 10.5 9.5-4.8 9.5-6.7v-3.8L29.8 34c-1 0-3.1 5.4-4.9 5.4z"/><path d="M34.2 1.2c-8.3 0-15 5.8-15 13 .1 3.8 1.9 7.4 5 9.6l-3 7.4 7.4-4.9c1.8.6 3.7.9 5.6.9 8.3 0 15-5.8 15-13s-6.7-13-15-13zm-8 15c-1.1 0-2-.9-2-2s.9-2 2-2 2 .9 2 2-.9 2-2 2zm8 0c-1.1 0-2-.9-2-2s.9-2 2-2 2 .9 2 2-.9 2-2 2zm8 0c-1.1 0-2-.9-2-2s.9-2 2-2 2 .9 2 2-.9 2-2 2z"/></g></g></switch></svg>