<svg xmlns="http://www.w3.org/2000/svg" viewBox="0 0 50.4 50.4"><switch><g fill="#fa6400"><path d="M43.2 27.2h-36c-1.1 0-2 .9-2 2v6c0 1.1.9 2 2 2h36c1.1 0 2-.9 2-2v-6c0-1.1-.9-2-2-2zm-4 6.2c-1.2 0-2.2-1-2.2-2.2 0-1.2 1-2.2 2.2-2.2 1.2 0 2.2 1 2.2 2.2.1 1.2-1 2.2-2.2 2.2zM43.2 39.2h-36c-1.1 0-2 .9-2 2v6c0 1.1.9 2 2 2h36c1.1 0 2-.9 2-2v-6c0-1.1-.9-2-2-2zm-4 6.2c-1.2 0-2.2-1-2.2-2.2 0-1.2 1-2.2 2.2-2.2 1.2 0 2.2 1 2.2 2.2.1 1.2-1 2.2-2.2 2.2zM10.1 10.8c8.5-7.9 21.7-7.9 30.2 0 .8.7 1.9.7 2.6-.1.7-.8.7-1.9-.1-2.6-10-9.2-25.3-9.2-35.3 0-.7.8-.6 1.9.1 2.7.7.6 1.8.6 2.5 0z"/><path d="M36.1 17.2c1 0 1.9-.8 1.9-1.9 0-.5-.2-1-.6-1.4-6.9-6.3-17.5-6.3-24.4.1-.8.7-.8 1.9-.1 2.6.7.8 1.9.8 2.6.1 5.5-5 13.9-5 19.3 0 .4.4.9.5 1.3.5z"/><path d="M18.4 19.9c-.8.7-.8 1.9-.1 2.6.7.8 1.9.8 2.6.1 2.4-2.2 6.1-2.2 8.5 0 .8.6 2 .5 2.6-.3.6-.7.5-1.8-.1-2.5-3.8-3.5-9.7-3.5-13.5.1z"/></g></switch></svg>