<svg xmlns="http://www.w3.org/2000/svg" viewBox="0 0 50.4 50.4"><switch><g><path fill="#404040" d="M42.8 28.7l6.4-3.5-6.4-3.5 4.6-5.7-7.3-.8 2.1-7-7 2.1-.8-7.3-5.7 4.6-3.5-6.4-3.5 6.4L16 3l-.8 7.3-7-2.1 2.1 7L3 16l4.6 5.7-6.4 3.5 6.4 3.5L3 34.4l7.3.8-2.1 7 7-2.1.8 7.3 5.7-4.6 3.5 6.4 3.5-6.4 5.7 4.6.8-7.3 7 2.1-2.1-7 7.3-.8-4.6-5.7zM25.2 40.2c-8.3 0-15-6.7-15-15s6.7-15 15-15 15 6.7 15 15-6.7 15-15 15z"/><path fill="#fa6400" d="M25.2 37.2c-6.6 0-12-5.4-12-12s5.4-12 12-12v24z"/></g></switch></svg>