<svg xmlns="http://www.w3.org/2000/svg" viewBox="0 0 50.4 50.4"><switch><g fill="#fa6400"><path d="M19.7 26.7c0-3.2 1.7-4.2 3.8-5.4 1.8-1.1 3-1.7 3-2.9 0-1.1-.8-1.6-2.2-1.6-1.2 0-2.3.3-3.4.9l-.6-2.2c1.3-.7 2.8-1.1 4.3-1.1 2.9 0 4.7 1.2 4.7 3.7s-2.2 3.7-4 4.8c-1.1.7-2.7 1.4-2.7 2.6H29v2.3h-9.3v-1.1zM30.2 22.6l6-7.9h3.1v8.1H41V25h-1.6v3h-2.7v-3h-6.3l-.2-2.4zm6.4.1v-5l-3.7 5h3.7z"/><path d="M24.7 1.2c-3.8 0-7.6.9-11 2.6.1.2 2 3.4 2 3.4 2.8-1.5 5.9-2.2 9-2.1 11.4 0 20.5 9.2 20.6 20.6.1 3.1-.6 6.1-2 8.9l3.4 1.9c5.9-12.1.9-26.7-11.2-32.7-3.3-1.8-7-2.6-10.8-2.6zM12.8 42.8c-2-1.3-3.8-3.1-5.1-5.1-2.7-3-4.9-6.5-6.5-10.3v.3c0 11.9 9.6 21.5 21.5 21.5h.7c-3.8-1.5-7.4-3.7-10.6-6.4zM25.7 38.5c-1.9 0-6.4-3.9-8.4-5.8-2-2-5.8-6.4-5.8-8.4s5.6-4.1 5.6-5L12.3 7.6H8.4c-1.9 0-6.8 5.8-6.8 9.7 0 3.9 2 11.7 10.7 20.5 8.8 8.8 16.6 10.7 20.5 10.7 3.9 0 9.7-4.9 9.7-6.8v-4l-11.7-4.9c-1 .1-3.1 5.7-5.1 5.7z"/></g></switch></svg>