<svg xmlns="http://www.w3.org/2000/svg" viewBox="0 0 50.4 50.4"><switch><g><path fill="#fa6400" d="M41.2 15.3v2c3.3 1.9 5.2 4.3 5.2 7 0 4.4-5.5 8.3-13.2 9.8V39c9.3-1.9 16-7.1 16-13.2 0-4.2-3.1-7.9-8-10.5zM17.2 34.1C9.4 32.5 4 28.7 4 24.2c0-2.7 2-5.1 5.2-7v-2c-4.9 2.6-8 6.3-8 10.4 0 6.1 6.7 11.3 16 13.2v4.8l10-7-10-7v4.5z"/><path fill="#404040" d="M36.2 9.7h-5l-2.1-2.1c-.6-.6-1.3-.9-2.1-.9h-3.5c-.8 0-1.6.3-2.1.9l-2.1 2.1h-5c-1.7 0-3 1.3-3 3v12c0 1.7 1.3 3 3 3h22c1.7 0 3-1.3 3-3v-12c-.1-1.6-1.4-3-3.1-3zM25.2 24c-3.5 0-6.2-2.8-6.2-6.2 0-3.5 2.8-6.2 6.2-6.2 3.5 0 6.2 2.8 6.2 6.2.1 3.4-2.7 6.2-6.2 6.2z"/><circle cx="25.2" cy="17.7" r="4" fill="#404040"/></g></switch></svg>