<svg xmlns="http://www.w3.org/2000/svg" viewBox="0 0 50.4 50.4"><switch><g fill="#fa6400"><path d="M25.2 16c2 0 3 .6 3 1.2l3-.4c0-1.3-1.5-2.2-4-2.5v-1.1h-4v1.1c-3.9.4-4 2.1-4 2.7 0 1 .7 2.3 5.5 3.1 2.2.4 3.7.7 3.7 1.5 0 .6-1.2.9-3.2.9-2.6 0-3-.6-3-1.2l-3 .4c0 .6.1 2.1 4 2.5v1.1h4v-1c3.9-.4 4-2.1 4-2.7 0-1.6-2.2-2.5-5.5-3.1-1.9-.5-3.7-.9-3.7-1.6s1.2-.9 3.2-.9z"/><circle cx="14.2" cy="18.2" r="2"/><circle cx="36.2" cy="18.2" r="2"/><path d="M1.2 32.2h48v2h-48zM1.2 36.2h48v2h-48zM1.2 40.2h48v2h-48zM45.2 8.2h-40l-4 22h48l-4-22zm-1 16c-1.7 0-3 1.3-3 3h-32c0-1.7-1.3-3-3-3-.3 0-.6.1-.9.1l2-10.9c.5.5 1.2.7 1.9.7 1.7 0 3-1.3 3-3h26c0 1.7 1.3 3 3 3 .7 0 1.4-.3 1.9-.7l2 10.9c-.3-.1-.6-.1-.9-.1z"/></g></switch></svg>