<svg xmlns="http://www.w3.org/2000/svg" viewBox="0 0 50.4 50.4"><switch><g><g fill="#fa6400"><path d="M38.4 35.5l-4.8-4.8c5.5-7.3 4.9-17.6-1.6-24.1C25-.5 13.6-.5 6.5 6.4c.1.1.1.1 0 .2-7.1 7.2-7.1 18.7 0 25.9 6.6 6.7 17.2 7.2 24.4 1.1l4.7 4.8 2.8-2.9zM9.3 29.6C3.8 24 3.8 15 9.3 9.4c5.4-5.5 14.3-5.6 19.8-.1l.1.1c5.5 5.6 5.5 14.6 0 20.3-5.4 5.5-14.3 5.6-19.8.1 0-.1 0-.1-.1-.2z"/><path d="M48.3 48.3c-1.2 1.2-3.1 1.2-4.3.1L34.7 39l4.3-4.3 9.3 9.4c1.2 1.1 1.2 3 0 4.2zM14.9 23.3c.7.3 1.4.5 2.1.7.8.2 1.5.3 2.3.3.5 0 1-.1 1.5-.3.6-.4.7-1.1.3-1.7l-.3-.3c-.6-.3-1.2-.6-1.8-.7-.8-.2-1.4-.5-2-.7-.6-.2-1.1-.5-1.6-.9-.4-.3-.8-.8-1-1.3-.3-.6-.4-1.2-.4-1.9 0-.6.1-1.2.3-1.8.2-.5.4-.9.8-1.3.3-.4.7-.7 1.1-.9.5-.2 1-.4 1.5-.5V9.6h3.7V12c.6.1 1.2.2 1.7.4s1.1.4 1.6.6l-.8 2.9c-.7-.3-1.3-.5-2-.7-.8-.2-1.5-.3-2.3-.3-.5 0-1 .1-1.4.3-.3.2-.5.6-.4 1 0 .2.1.4.2.6.1.2.3.3.5.4.3.1.6.3.9.4l1.3.4c.6.2 1.1.4 1.7.6.5.2 1 .5 1.4.9.4.3.8.8 1 1.3.7 1.6.4 3.5-.6 4.9-.7.8-1.7 1.4-2.8 1.6v2.5h-3.7v-2.4c-.6-.1-1.2-.2-1.8-.4-.6-.2-1.2-.4-1.7-.6l.7-3.1z"/></g></g></switch></svg>