<svg xmlns="http://www.w3.org/2000/svg" viewBox="0 0 50.4 50.4"><switch><g fill="#fa6400"><path d="M25.2 1.2L5 21.2h8.2v16c0 6.6 5.4 12 12 12s12-5.4 12-12v-16h8.2l-20.2-20zm0 45c-5 0-9-4-9-9s4-9 9-9 9 4 9 9-4 9-9 9z"/><path d="M21.9 40c.5.2 1 .4 1.5.5.5.2 1.1.2 1.7.2.4 0 .8-.1 1.1-.2.4-.3.5-.8.2-1.2-.1-.1-.1-.2-.2-.2-.4-.2-.9-.4-1.3-.5-.5-.2-1-.3-1.5-.5l-1.2-.6c-.3-.2-.6-.6-.8-.9-.2-.4-.3-.9-.3-1.4 0-.4.1-.9.2-1.3s.3-.7.5-1c.2-.3.5-.5.8-.7.3-.2.7-.3 1.1-.4V30h2.7v1.8c.4 0 .8.1 1.3.3.4.1.8.3 1.1.5l-.6 2.1c-.5-.2-1-.4-1.5-.5-.6-.2-1.1-.2-1.7-.2-.3 0-.7 0-1 .2-.2.2-.3.4-.3.7 0 .2 0 .3.1.4.1.1.2.2.4.3.2.1.4.2.7.3l1 .3c.4.1.8.3 1.2.5.4.2.7.4 1 .6.3.3.5.6.7.9.5 1.2.3 2.5-.5 3.5-.5.6-1.2 1-2 1.1v1.8h-2.7v-1.8c-.4-.1-.9-.2-1.3-.3-.4-.1-.9-.2-1.3-.4l.9-2.1z"/></g></switch></svg>