<svg xmlns="http://www.w3.org/2000/svg" viewBox="0 0 50.4 50.4"><switch><g><path fill="#404040" d="M29.6 1.2l4.9 4.9L31.6 9c-9-3.6-19.1.8-22.7 9.8-1.6 4.1-1.6 8.7 0 12.9l-2.8 2.8-4.9-4.9v19.6h19.6l-4.9-4.9 2.8-2.8c9 3.6 19.1-.8 22.7-9.8 1.6-4.1 1.6-8.7 0-12.9l2.9-2.9 4.9 4.9V1.2H29.6zm-4.4 38.5c-8 0-14.5-6.5-14.5-14.5s6.5-14.5 14.5-14.5 14.5 6.5 14.5 14.4c-.1 8.1-6.5 14.5-14.5 14.6z"/><path fill="#fa6400" d="M20 29.8c.8.4 1.7.6 2.5.9.9.2 1.8.4 2.7.4.6 0 1.2-.1 1.8-.4.7-.4.8-1.3.4-2-.1-.2-.2-.3-.4-.4-.7-.4-1.4-.7-2.2-.9-.9-.3-1.7-.6-2.4-.8-.7-.3-1.3-.6-1.9-1-.5-.4-.9-.9-1.2-1.5-.3-.7-.5-1.5-.4-2.3 0-.7.1-1.4.3-2.1.2-.6.5-1.1.9-1.6.4-.4.9-.8 1.4-1.1.5-.4 1.1-.6 1.8-.6v-2.9h4.4v2.9c.7 0 1.4.2 2.1.4.6.2 1.3.5 1.9.8l-1 3.4c-.8-.3-1.5-.6-2.3-.9-.9-.3-1.8-.4-2.8-.4-.6 0-1.1.1-1.6.3-.3.3-.5.7-.5 1.1 0 .2.1.5.2.7.2.2.4.4.6.5.4.2.7.3 1.1.4l1.6.5c.7.2 1.4.5 2 .8.6.3 1.2.6 1.7 1s.9.9 1.2 1.5c.3.7.5 1.5.4 2.3 0 1.3-.4 2.5-1.2 3.5-.9.9-2 1.6-3.3 1.9v3.1h-4.4v-2.9c-.7-.1-1.5-.2-2.2-.5-.7-.2-1.4-.4-2.1-.7l.9-3.4z"/></g></switch></svg>