<svg xmlns="http://www.w3.org/2000/svg" viewBox="0 0 50.4 50.4"><switch><g><path fill="#fa6400" d="M42.9 42.8c0-10.8-5.1-24.7-13.3-28.3-.4-3 4.6-9.2 4.6-9.2.7-1.3-1-2.7-2.3-1.9l-2.3 1.2c-.8.5-1.9.2-2.3-.7l-1-2c-.5-.8-1.5-1.1-2.3-.7-.3.2-.5.4-.7.7l-1.1 2.3c-.4.8-1.5 1.1-2.3.7l-1.7-1c-1.4-.8-3.1.6-2.3 2 0 0 5.5 5 5.2 8.4-8.5 3.5-13.6 17.6-13.6 28.5 0 0-.9 6.4 17.2 6.4h1c18.1 0 17.2-6.4 17.2-6.4zm-12.4-4.5c-.9.9-2 1.5-3.2 1.8v3H23v-2.9c-.7-.1-1.5-.2-2.2-.5-.7-.2-1.4-.4-2-.7l1-3.4c.8.3 1.6.6 2.5.9.9.2 1.8.4 2.7.4.6 0 1.2-.1 1.8-.4.6-.4.8-1.3.4-2-.1-.2-.2-.3-.4-.4-.7-.4-1.4-.6-2.1-.8-.9-.3-1.7-.5-2.4-.8-.7-.2-1.3-.6-1.9-1-.5-.4-.9-.9-1.2-1.5-.3-.7-.5-1.5-.4-2.2 0-.7.1-1.4.3-2.1.2-.6.5-1.1.9-1.5.4-.4.9-.8 1.4-1 .5-.3 1.1-.5 1.7-.6v-2.9h4.3v2.9c.7 0 1.4.2 2 .4.6.2 1.2.5 1.8.8l-1 3.3c-.8-.3-1.5-.6-2.3-.8-.9-.3-1.8-.4-2.7-.4-.6 0-1.1.1-1.6.3-.3.3-.5.7-.5 1.1 0 .2.1.5.2.7.2.2.4.4.6.5.3.2.7.3 1 .4l1.5.5c.7.2 1.3.5 2 .8.6.3 1.2.6 1.7 1s.9.9 1.1 1.5c.3.7.5 1.5.4 2.2.1 1.2-.3 2.4-1.1 3.4z"/></g></switch></svg>