<svg xmlns="http://www.w3.org/2000/svg" viewBox="0 0 50.4 50.4"><switch><g fill="#fa6400"><path d="M10.1 15.1C15.7 6.7 27 4.4 35.3 10c5.1 3.4 8.1 9.1 8.1 15.2h4.8c0-12.7-10.3-23-23-23-7.3 0-14.2 3.5-18.5 9.4L2.2 7.2v12h12l-4.1-4.1zM40.3 35.3c-5.6 8.4-16.9 10.6-25.3 5-5-3.3-8.1-9-8.1-15.1H2.2c0 12.7 10.3 23 23 23 7.3 0 14.2-3.5 18.5-9.4l4.4 4.4v-12h-12l4.2 4.1z"/><path d="M19.3 30.4c.9.4 1.9.7 2.9 1 1 .3 2.1.4 3.1.4.7 0 1.4-.1 2-.4.7-.5.9-1.5.4-2.2-.1-.2-.3-.3-.4-.4-.8-.4-1.6-.8-2.4-1-1-.3-1.9-.6-2.8-.9-.8-.3-1.5-.7-2.1-1.2-.6-.4-1.1-1-1.4-1.7-.4-.8-.5-1.7-.5-2.5s.1-1.6.4-2.4c.2-.6.6-1.2 1-1.8.4-.5 1-.9 1.6-1.2.6-.4 1.3-.6 2-.7V12H28v3.3c.8.1 1.6.2 2.4.5.7.2 1.4.5 2.1.9l-1.1 3.9c-.9-.4-1.8-.7-2.7-1-1-.3-2.1-.4-3.1-.4-.6 0-1.3.1-1.9.4-.4.3-.6.8-.6 1.3 0 .3.1.5.2.8.2.2.4.4.7.6.4.2.8.4 1.2.5l1.8.6c.8.3 1.5.6 2.3.9.7.3 1.3.7 1.9 1.2.6.5 1 1.1 1.3 1.7.4.8.5 1.7.5 2.6.1 1.4-.4 2.8-1.3 4-1 1-2.3 1.7-3.7 2.1V39h-4.9v-3.3c-.9-.1-1.7-.3-2.5-.5s-1.6-.5-2.3-.8l1-4z"/></g></switch></svg>