<svg xmlns="http://www.w3.org/2000/svg" viewBox="0 0 50.4 50.4"><switch><g fill="#fa6400"><path d="M47.2 24.2H46c-1.9-4.6-6-8-10.8-9 0 1.1-.9 2-2 2h-10c-1.1 0-2-.9-2-2-1.8 0-3.6.2-5.3.7-1.1-1-2.6-1.6-4.1-1.7-3 0-4.7 1.3-3 2 1.1.4 2.1 1 3 1.8-2.3 1.7-4.9 4-5.6 7.2-1 5-5 2-5 5 0 5 1 8 5 8 2 4 8 5 8 5v4c.1 1.1.9 1.9 2 2h3c1.1-.1 1.9-.9 2-2v-2h11v2c.1 1.1.9 1.9 2 2h3c1.1-.1 1.9-.9 2-2v-2c0-4 8-5 8-15 0-.7 0-1.3-.1-2h.1c1.1 0 2-.9 2-2s-.9-2-2-2zm-36 3.3c-1.2 0-2.2-1-2.2-2.2 0-1.2 1-2.2 2.2-2.2 1.2 0 2.2 1 2.2 2.2 0 1.1-1 2.2-2.2 2.2z"/><circle cx="28.2" cy="8.2" r="7"/></g></switch></svg>