<svg xmlns="http://www.w3.org/2000/svg" viewBox="0 0 50.4 50.4"><switch><g><path fill="#fa6400" d="M14.4 15.6l-6-1-5.2 1.5 22.1 29.5-9-29.5-1.9-.5z"/><path fill="#fa6400" d="M34.2 16.1l-9 29.5 22.1-29.5-5-.5h-5l-3.1.5z"/><path fill="#404040" d="M39.6 3.2H10.9L1.2 15.7l24 31.5 24-31.5-9.6-12.5zM25.2 7.4l6.1 6.8H19.1l6.1-6.8zm7.1 9.8l-7.1 22.9-7.1-22.9h14.2zm1.5-4.6l-5.7-6.4H37l-3.2 6.4zm-17.3 0l-3.2-6.4h8.9l-5.7 6.4zM14 14.2H6.2L11 8l3 6.2zm.9 3l6.3 20.1L6.1 17.2h8.8zm20.6 0h8.8L29.2 37.3l6.3-20.1zm.9-3L39.5 8l4.7 6.2h-7.8z"/></g></switch></svg>