<svg xmlns="http://www.w3.org/2000/svg" viewBox="0 0 50.4 50.4"><switch><g fill="#fa6400"><path d="M21.7 20.5c.6.3 1.2.5 1.8.6.7.2 1.3.3 2 .3.5 0 .9-.1 1.3-.3.5-.3.6-.9.4-1.4-.1-.2-.2-.3-.4-.4-.5-.3-1-.5-1.6-.6-.7-.2-1.3-.4-1.8-.6-.5-.2-.9-.4-1.3-.8-.4-.3-.7-.7-.9-1.1-.2-.5-.3-1.1-.3-1.6s.1-1 .2-1.5c.1-.4.3-.8.6-1.1.3-.3.6-.6 1-.8.4-.2.8-.4 1.3-.4V8.7h3.2v2.1l1.5.3c.5.2.9.3 1.4.6l-.7 2.5c-.6-.2-1.1-.4-1.7-.6-.6-.2-1.3-.3-2-.3-.4 0-.8.1-1.2.2-.3.2-.4.5-.4.8 0 .2 0 .4.1.5.1.2.3.3.5.4.3.1.5.2.8.3l1.1.4 1.5.6c.4.2.9.4 1.2.8.3.3.6.7.8 1.1.6 1.4.4 3-.5 4.2-.6.7-1.5 1.2-2.4 1.4v2H24v-2.1c-.5-.1-1.1-.2-1.6-.4-.5-.1-1-.3-1.5-.5l.8-2.5z"/><path d="M26.3 37h-6.7c-1.1 0-1.9-.8-2-1.9 0 0-.1-2-.3-3.7 0-1.4-.7-2.7-1.7-3.6-2.1-2-5.8-6.2-5.8-12.1 0-8.1 6.8-14.4 15.4-14.4v4c-6.4 0-11.4 4.6-11.4 10.4 0 4.5 3.1 7.9 4.5 9.2 1.8 1.6 2.9 3.8 3 6.2.1.7.1 1.4.2 2h4.9V37z"/><path d="M30.8 37h-5.6v-4h3.7c.1-.6.1-1.3.2-2 .1-2.4 1.2-4.6 3-6.2 1.3-1.2 4.5-4.6 4.5-9.2 0-5.8-5-10.4-11.4-10.4v-4c8.7 0 15.4 6.3 15.4 14.4 0 5.9-3.6 10.1-5.8 12.1a4.6 4.6 0 0 0-1.7 3.6c-.2 1.8-.3 3.7-.3 3.7-.1 1.1-.9 1.9-2 2zM20.1 45.3c-.8 0-1.5-.7-1.5-1.5 0-.7.4-1.2 1-1.4L30.2 39c.8-.2 1.6.2 1.9 1 .2.8-.2 1.6-1 1.9l-10.6 3.4c-.1-.1-.2 0-.4 0zM22.7 49.2c-.8 0-1.5-.7-1.5-1.5 0-.7.4-1.2 1-1.4l6-1.9c.8-.3 1.6.1 1.9.9.3.8-.1 1.6-.9 1.9h-.1l-6 1.9c-.1.1-.3.1-.4.1z"/><path d="M19.7 40.5c-.8 0-1.5-.7-1.5-1.5 0-.6.4-1.2 1-1.4l11-3.3c.8-.3 1.6 0 2 .7.3.8 0 1.6-.7 2-.1 0-.2.1-.3.1l-11 3.3c-.1 0-.3 0-.5.1z"/></g></switch></svg>