<svg xmlns="http://www.w3.org/2000/svg" viewBox="0 0 50.4 50.4"><switch><g fill="#fa6400"><path d="M19.5 29.4c.9.4 1.9.7 2.8 1 1 .3 2 .4 3.1.4.7 0 1.4-.1 2-.4.7-.5.9-1.5.4-2.2-.1-.2-.3-.3-.4-.4-.8-.4-1.6-.8-2.4-1-1-.3-1.9-.6-2.7-.9-.7-.3-1.5-.7-2.1-1.1-.6-.4-1.1-1-1.4-1.7-.4-.8-.5-1.7-.5-2.5s.1-1.6.4-2.4c.2-.6.6-1.2 1-1.8.4-.5.9-.9 1.5-1.2.6-.3 1.3-.5 2-.7v-3.3h5v3.2c.8.1 1.6.3 2.3.5.7.2 1.4.5 2.1.9l-1.1 3.8c-.9-.4-1.7-.7-2.6-1-1-.3-2.1-.4-3.1-.4-.6-.1-1.3.1-1.9.4-.4.3-.6.8-.6 1.3 0 .3.1.5.2.8.2.2.4.4.7.5.4.2.8.4 1.2.5l1.8.6c.8.3 1.5.6 2.2.9.7.3 1.3.7 1.9 1.1.6.5 1 1 1.3 1.7.9 2.1.6 4.6-.8 6.5-1 1.1-2.3 1.8-3.7 2.1V38h-5v-3.2c-.8-.1-1.6-.3-2.4-.5-.8-.2-1.5-.5-2.3-.8l1.1-4.1z"/><path d="M24 1.9C18.1 6.3 10.7 6.9 7.2 7c-1.1 0-2 .9-2 2v8.9c0 24 20 31 20 31s20-7 20-31V9c0-1.1-.9-2-2-2-3.5 0-10.9-.7-16.8-5.1-.7-.5-1.7-.5-2.4 0zm17.2 17c0 17-12 23.8-16 25.7-4.1-2-16-8.8-16-25.7v-6.2c0-1 .8-1.9 1.8-2 4.6-.6 9.1-2.1 13.2-4.4.7-.4 1.5-.4 2.1 0 4 2.3 8.5 3.8 13.2 4.4 1 .1 1.8 1 1.8 2v6.2z"/></g></switch></svg>