<svg xmlns="http://www.w3.org/2000/svg" viewBox="0 0 50.4 50.4"><switch><g><path fill="#404040" d="M12.2 35.2c-2.6.2-4.8-1.8-5-4.4V17.2h-3c-1.7 0-3 1.3-3 3v20c0 1.7 1.3 3 3 3h34c1.7 0 3-1.3 3-3v-5h-29zM9 39.6H6c-.8 0-1.5-.7-1.5-1.5s.7-1.5 1.5-1.5h3c.8 0 1.5.7 1.5 1.5s-.6 1.5-1.5 1.5zm15 0h-9c-.8 0-1.5-.7-1.5-1.5s.7-1.5 1.5-1.5h9c.8 0 1.5.7 1.5 1.5s-.6 1.5-1.5 1.5z"/><path fill="#404040" d="M46.2 7.2h-34c-1.7 0-3 1.3-3 3v20c0 1.7 1.3 3 3 3h34c1.7 0 3-1.3 3-3v-20c0-1.7-1.3-3-3-3zm1 23c0 .6-.4 1-1 1h-34c-.6 0-1-.4-1-1v-11h36v11zm0-17h-36v-3c0-.6.4-1 1-1h34c.6 0 1 .4 1 1v3z"/><path fill="#fa6400" d="M16.1 22.2h21c.8 0 1.5.7 1.5 1.5s-.7 1.5-1.5 1.5h-21c-.8 0-1.5-.7-1.5-1.5s.7-1.5 1.5-1.5z"/></g></switch></svg>