<svg xmlns="http://www.w3.org/2000/svg" viewBox="0 0 50.4 50.4"><switch><g><path fill="#404040" d="M49.2 27.2v-4c0-.4-.3-.8-.7-.9L43.8 21c-.3-1.2-.6-2.3-1.1-3.5l3.1-3.8c.3-.3.3-.8 0-1.1l-2.4-3.3c-.3-.3-.7-.5-1.1-.3l-4.5 1.8c-.9-.8-1.9-1.5-2.9-2.1l.3-4.9c.1-.4-.2-.9-.6-1l-3.8-1.2c-.4-.1-.9 0-1.1.4L27 6.2c-.6-.1-1.2-.1-1.8-.1s-1.2 0-1.8.1L20.8 2c-.2-.4-.7-.5-1.1-.4L15.9 3c-.4.1-.7.6-.6 1l.3 4.9c-1 .6-2 1.3-2.9 2.1L8.1 9.2c-.4-.1-.9 0-1.1.3l-2.4 3.3c-.3.3-.3.8 0 1.2l3.1 3.8c-.5 1.1-.9 2.3-1.1 3.5l-4.8 1.2c-.4.1-.7.5-.7.9v4c0 .4.3.8.7.9l4.8 1.2c.3 1.2.6 2.3 1.1 3.5l-3.1 3.8c-.3.3-.3.8 0 1.2L7 41c.3.3.7.5 1.1.3l4.6-1.8c.9.8 1.9 1.5 2.9 2.1l-.3 4.9c-.1.4.2.9.6 1l3.8 1.2c.4.1.9 0 1.1-.4l2.6-4.1c.6.1 1.2.1 1.8.1.6 0 1.2 0 1.8-.1l2.6 4.1c.2.4.7.5 1.1.4l3.8-1.2c.4-.1.7-.6.6-1l-.3-4.9c1-.6 2-1.3 2.9-2.1l4.5 1.8c.4.2.9 0 1.1-.3l2.4-3.3c.3-.3.3-.8 0-1.2l-3.1-3.8c.5-1.1.9-2.3 1.1-3.5l4.8-1.2c.5.1.7-.3.7-.8zm-24 12.6c-8.1 0-14.6-6.5-14.6-14.6s6.5-14.6 14.6-14.6 14.6 6.5 14.6 14.6c0 8-6.5 14.6-14.6 14.6z"/><path fill="#fa6400" d="M32.8 26.2c-1.7-1.3-3.8-2-5.9-2.1 2.7-.8 4.2-3.5 3.5-6.2-.8-2.7-3.5-4.2-6.2-3.5-2.7.8-4.2 3.5-3.5 6.2.5 1.7 1.8 3 3.5 3.5-2.1.1-4.1.9-5.7 2.1-.6.5-1.8 4.9-1.8 6.9h17.9c-.1-2-1.2-6.3-1.8-6.9z"/></g></switch></svg>