<svg xmlns="http://www.w3.org/2000/svg" viewBox="0 0 50.4 50.4"><switch><g fill="#fa6400"><path d="M1.2 7.2v36h48v-36h-48zm45 27c-1.1 0-2 .9-2 2 0 .4.1.8.3 1.1-.1.8-.8 1.3-1.6 1.2-.3 0-.5-.2-.7-.3-1.1 0-2 .9-2 2h-30c-1.7-.5-3.2-1.5-4.3-2.9.6-.9.4-2.2-.5-2.8-.3-.2-.7-.3-1.1-.3v-18c1.1 0 2-.9 2-2 0-.4-.1-.8-.3-1.1.1-.8.8-1.3 1.6-1.2.3 0 .5.2.7.3 1.1 0 2-.9 2-2h30c1.7.5 3.2 1.5 4.3 2.9-.6.9-.4 2.2.5 2.8.3.2.7.3 1.1.3v18z"/><path d="M15.6 21.5v-.3H6.2v8h9.7v-2h3.4c-2.4-1.4-3.7-3.3-3.7-5.7zM34.4 23.2H31c2.5 1.4 3.7 3.3 3.7 5.7v.3h9.6v-8h-9.8l-.1 2z"/><path d="M19.5 29.4c.8.4 1.7.6 2.5.9.9.3 1.8.4 2.8.4.6 0 1.3-.1 1.8-.4.7-.4.8-1.4.4-2-.1-.2-.2-.3-.4-.4-.7-.4-1.4-.7-2.2-.9-.9-.3-1.7-.6-2.5-.8-.7-.2-1.3-.6-1.9-1-.5-.4-1-.9-1.2-1.5-.3-.7-.5-1.5-.4-2.3 0-.7.1-1.4.3-2.1.2-.6.5-1.1.9-1.6.4-.4.9-.8 1.4-1.1.5-.4 1.2-.6 1.8-.6v-3h4.4v3c.7 0 1.4.2 2.1.4.6.2 1.3.5 1.9.8l-1 3.4-2.4-.9c-.9-.3-1.8-.4-2.8-.4-.6 0-1.2.1-1.7.4-.4.3-.6.7-.5 1.1 0 .2.1.5.2.7.2.2.4.4.6.5.3.2.7.3 1.1.4l1.6.5c.7.2 1.4.5 2 .8.6.2 1.2.6 1.7 1s.9.9 1.2 1.5c.3.7.5 1.5.4 2.3 0 1.3-.4 2.5-1.2 3.5-.9.9-2.1 1.6-3.3 1.9V37h-4.4v-3c-.8-.1-1.5-.2-2.2-.5-.7-.2-1.4-.4-2.1-.7l1.1-3.4z"/></g></switch></svg>