<svg xmlns="http://www.w3.org/2000/svg" viewBox="0 0 50.4 50.4"><path fill="#fa6400" d="M21.1 28.2c.6.3 1.2.5 1.9.6.6.2 1.3.3 2 .3.5 0 .9-.1 1.3-.3.5-.3.6-1 .3-1.5l-.3-.3c-.5-.3-1-.5-1.6-.6-.7-.2-1.3-.4-1.8-.6-.5-.2-1-.4-1.4-.8-.4-.3-.7-.7-.9-1.1-.2-.5-.4-1.1-.3-1.7 0-.5.1-1.1.2-1.6.1-.4.4-.8.7-1.2.3-.3.6-.6 1-.8.4-.2.9-.4 1.3-.5v-2.2h3.3V18l1.5.3c.5.1.9.4 1.4.6l-.7 2.5c-.6-.2-1.1-.5-1.8-.6-.7-.2-1.4-.3-2.1-.3-.4 0-.9 0-1.2.2-.3.2-.4.5-.4.9 0 .2 0 .4.1.5.1.2.3.3.5.4.2.1.5.2.8.3l1.2.4 1.5.6c.5.2.9.5 1.3.8.4.3.7.7.9 1.1.6 1.4.4 3.1-.6 4.3-.6.7-1.5 1.2-2.4 1.4v2.2h-3.2v-2.1c-.5-.1-1.1-.2-1.6-.4-.5-.1-1-.3-1.5-.5l.6-2.4z"/><path fill="#404040" d="M45.8 21H43h-.7c-.5-1.9-1.2-3.7-2.2-5.3l.4-.4 1.9-1.9c.8-.7 1.2-1.7 1.2-2.8 0-1.1-.4-2.1-1.2-2.9-1.6-1.5-4.1-1.5-5.7 0l-1.9 1.9-.4.4c-1.6-1-3.4-1.8-5.3-2.2V4.4c0-1-.4-2.1-1.1-2.8C27.2.8 26.2.4 25.1.4c-2.2 0-4 1.8-4 4V7.8c-1.9.5-3.7 1.2-5.3 2.2-.2-.2-.4-.3-.4-.3l-1.9-1.9c-.7-.8-1.7-1.2-2.8-1.2-1-.1-2 .4-2.8 1.1-1.5 1.6-1.5 4.1 0 5.7l1.9 1.9.3.3c-1 1.6-1.8 3.4-2.2 5.4H4.7c-1 0-2.1.4-2.8 1.1-.8.8-1.2 1.8-1.2 2.9 0 2.2 1.8 4 4 4h3.1c.4 2 1.2 3.8 2.2 5.4l-.4.4-1.9 1.9c-.8.7-1.2 1.7-1.2 2.8 0 1.1.4 2.1 1.2 2.9 1.6 1.5 4.1 1.5 5.7 0l1.9-1.9s.2-.1.4-.3c1.7 1 3.5 1.8 5.4 2.3V45.8c0 1 .4 2.1 1.1 2.8.8.8 1.8 1.2 2.9 1.2 2.2 0 4-1.8 4-4v-2.7-.6c2-.5 3.8-1.2 5.5-2.3l.4.4 1.9 1.9c.7.8 1.7 1.2 2.8 1.2 1.1 0 2.1-.4 2.9-1.2 1.5-1.6 1.5-4.1 0-5.7l-1.9-1.9s-.2-.2-.4-.5c1-1.6 1.8-3.4 2.2-5.4H45.8c1 0 2.1-.4 2.8-1.1.8-.8 1.2-1.8 1.2-2.9-.1-2.2-1.9-4-4-4zm-32.7 4.1c0-6.6 5.4-12 12-12s12 5.4 12 12-5.4 12-12 12-12-5.4-12-12z"/></svg>