<svg xmlns="http://www.w3.org/2000/svg" viewBox="0 0 50.4 50.4"><switch><g fill="#fa6400"><path d="M39.9 29.2c0-3.4 2.7-6.2 6.2-6.3.3 0 .7 0 1 .1C46 10.3 34.8 1 22.1 2.2c-.9.1-1.8.2-2.7.4 1.5 3.1.2 6.8-2.9 8.4-3 1.4-6.5.3-8.2-2.5C-1 17.1-1.5 31.7 7.1 41s23.2 9.8 32.5 1.2c2.1-1.9 3.8-4.2 5-6.8-2.7-.7-4.7-3.2-4.7-6.2zM5.5 25.1c0-2.7.6-5.3 1.7-7.8.4.4.8.9 1.1 1.4.2.5.4 1 .6 1.4.7 1 1.7 1.7 2.9 2.1 1.2.3 2.3.8 3.4 1.3.4.2.8.5.8 1s-.6.8-1.1 1c-1.8 1.1-2.3 3.4-1.3 5.1 0 .1.1.1.1.2.6.8 1.5 1.3 1.9 2.2.9 1.8-.7 4.1-.2 6 .1.5.4 1 .6 1.5.1.5.2 1 .3 1.6-6.6-3.1-10.8-9.7-10.8-17zm26 2.6c.9.7 2 1.1 3.2 1.1.5 0 1 .1 1.4.3.6.5.9 1.3.8 2.1-.1.8-.4 1.6-.5 2.4 0 1.2.5 2.4 1.3 3.3l.6.6C33.5 42.9 26 45.1 19 43c0-1.3-.4-2.7.1-4 .3-.7.8-1.4 1.4-1.9.8-.8 1.7-1.5 2.7-2.1.9-.4 1.6-1.1 2-1.9.1-.5.2-1 .4-1.5.4-.7 1.2-1.2 1.1-2-.1-.5-.5-.8-1-.9-.5-.1-1-.1-1.4-.3-.7-.4-1.4-.9-1.9-1.5-1.8-1.7-4.1-2.7-6.2-4.1-.7-.5-1.5-1.2-1.3-2.1.3.4.9-.1.8-.5-.2-.4-.7-.6-1.1-.5-.4.1-.9.2-1.3.2-.9 0-1.6-.7-1.7-1.6-.1-.8.3-1.7 1.1-2.1 1.3-.5 2.7-.1 3.5 1 .4.6.7 1.5 1.5 1.7.3-.9.6-1.8 1.1-2.6.8-1.3 2.1-2.3 3.6-2.5.7-.1 1.4.1 2.2.1.7 0 1.4-.3 1.9-.9.2-.4.3-.9.7-1.1.4-.2 1 .1 1.4-.2s0-1.1-.5-1.5c-.3-.3-.7-.4-1.1-.5-.6 0-1.3.1-1.8.5-.6.3-1.2.5-1.8.5-.6-.1-1.3-.7-1.1-1.3.5-.7 1.5-.7 2.3-.8.8-.1 1.9-.4 2-1.2.1-.3 0-.7.2-.9.1-.1.2-.1.3-.2 2.7.4 5.3 1.4 7.6 2.8l-.1.1c.3 1.1-.5 2.4.2 3.2.3.3.8.6.8 1s-.5.6-.8.8c-.5.4-.7 1.1-.7 1.7 0 .3 0 .5.2.8.4.5 1.1.7 1.7.4.6-.3 1.2-.5 1.8-.7 1.1-.2 2.1.3 2.8 1.2.6.9.9 1.9.8 3-.4 0-.6-.4-.9-.6-1.9-2.2-5.3-2.5-7.5-.6l-.6.6c-.5.6-.9 1.3-1.2 2-.5.8-.8 1.7-.9 2.7-.3 1.2.2 2.3 1.2 3z"/><circle cx="13.8" cy="5.2" r="3.1"/><circle cx="46.2" cy="29.2" r="3.1"/></g></switch></svg>