<svg xmlns="http://www.w3.org/2000/svg" viewBox="0 0 50.4 50.4"><switch><g fill="#fa6400"><path d="M34.5 1.2c-6 0-10.9 4.9-10.9 10.8 0 .9.1 1.7.3 2.6 1.7 5.7 10.5 21.2 10.5 21.2S43.6 19.7 45 14.7c.2-.8.3-1.7.3-2.6.1-6-4.8-10.9-10.8-10.9zm-4.4 4h2.7v3.7h-5.5l2.8-3.7zM42 18H27.4v-7.3h5.5v1.8h3.6v-1.8H42V18zm-5.5-9.2V5.2h2.7L42 8.8h-5.5zM18.3 21.9c-.1-.1-1.2-.1-1.3-.1-.1 0-.1-.1-.2-.1-.4-.4-1-.6-1.5-.6-.3 0-.5 0-.8.1-.7.2-.4 1.1-.2 1.4.7.5 1.4.8 2.2.9h2.1c.1 0 .6-.4.5-.8-.1-.5-.7-.7-.8-.8z"/><path d="M44.4 23.1l-.5.9c-.5.9-.9 1.9-1.4 2.8l-1.1 2c-.8 1.1-1.2 2.4-1.1 3.8.1.4 0 .8-.2 1.2-.2.3-.7.3-1 .5-.5.2-.9.7-1.1 1.2-.2.6.1 1.2-.2 1.7-.2.3-.6.5-.8.9-.1.4 0 .8.3 1 .7.6 1.2.4.5 1.3-.5.6-1 1.1-1.6 1.6-1.1 1-2.4 1.8-3.7 2.5-.8.4-1.6.7-2.5 1C21 48.1 11.5 43 8.8 34c-1.1-3.6-.9-7.5.4-11.1.3.4.6.8.9 1.1.7.5 1.5.8 1.8 1.8 0 .5.1 1 .2 1.4.3.7 1.1 1 1.3 1.8.3 1-.1 2.1.4 3 .5.9 1.6 1.3 2.3 2.1.8 1 .9 2.3 1 3.6.2 1.6.6 3.2 1.2 4.7.2.5.5 1 1 1.3.5.3 1.1.1 1.4-.4v-.1c.3-.9-1.3-1.8-.8-2.6.2-.2.4-.3.6-.4.9-.5 1.6-1.1 2.3-1.8.3-.2.5-.5.7-.9.2-.6.4-1.2.6-1.7.3-.8 1.2-1.2 1.9-1.7 1-.5 1.7-1.5 2-2.5.2-1.1-.5-2.2-1.6-2.5-.3 0-.5 0-.8-.1-.6-.2-.8-1-1.3-1.3-.9-.7-2.5.3-3.3-.6-.2-.3-.3-.5-.4-.8-.5-1-1.7-1.5-2.7-1.1-.9.3-1.8 1.2-2.7 1-.9-.2-1.1-1.2-1.6-1.9-.4-.7-1.2-1.3-1.6-2.1-.4-.8-.3-2 .5-2.3.7-.2 1.4.2 2.1.2.9.1 1.7-.4 2-1.2.2-.4.3-1 .7-1.2.4-.2 1 0 1.5 0s1-.7 1.4-1.1c.4-.4 1.1-.8 1.6-.5l-.5-1.5c-1.3.2-3 .3-3.7-.8.5-.3 1.1-.5 1.7-.7.3 0 .5.1.7.3.3.2.7.6 1 .3v-1.3c0-1 .1-2.1.2-3.1C10.3 11.5 3.3 22.1 5.4 33s12.8 18 23.7 15.8C40 46.6 47.1 36 44.9 25.1c-.1-.6-.3-1.3-.5-2z"/></g></switch></svg>