<svg xmlns="http://www.w3.org/2000/svg" viewBox="0 0 50.4 50.4"><switch><g fill="#fa6400"><circle cx="15.6" cy="13.1" r="3"/><circle cx="39.3" cy="28.6" r="3"/><circle cx="24.7" cy="41.1" r="3"/><path d="M35.4 31.7c-1.4-1.8-1.5-4.3-.1-6-3.9-4.9-9.3-8.5-15.3-10.3-.8 1.7-2.5 2.7-4.4 2.8v1.3c0 6.4 2.4 12.6 6.9 17.2 1.9-1 4.3-.6 5.8.9 2.7-1.5 5.1-3.5 7.1-5.9zM48.3 18.5c-1.2-4-3.4-7.7-6.4-10.6.7 2 1.3 4 1.5 6.1 1.8 1.3 3.4 2.8 4.9 4.5zM24.7 46c-2 0-3.7-1.2-4.5-2.9-4.4.5-8.8-.2-12.9-1.9 7 7.9 18.4 10.3 28 5.8-2.4-.5-4.8-1.3-7-2.4-1 .9-2.2 1.5-3.6 1.4zM39.3 33.6c-.5 0-.9-.1-1.4-.2-2.3 2.8-5.1 5.2-8.3 6.9.1.6.1 1.1 0 1.7 3.1 1.5 6.4 2.4 9.8 2.6 1-.7 1.9-1.5 2.7-2.3-.3-3-1-5.9-2.2-8.7-.1-.1-.4 0-.6 0z"/><path d="M19.8 40.1c.1-.5.3-1 .5-1.4-5-5.2-7.7-12.1-7.7-19.3 0-.8 0-1.5.1-2.3-.2-.2-.5-.3-.7-.5-5.2 3.9-8.7 9.6-9.7 16 .3 1 .7 2 1.2 2.9 4 3.1 8.9 4.7 13.9 4.7.9 0 1.7 0 2.4-.1zM43.5 17.9c-.1 2.3-.4 4.6-1.1 6.9 2.1 1.7 2.4 4.8.7 6.9-.2.2-.3.4-.5.5.9 2.2 1.6 4.5 2.1 6.9 2.9-4.1 4.5-8.9 4.5-13.9-1.4-2.7-3.3-5.2-5.7-7.3zM10.6 14c-2.4 0-4.8.3-7.1.9-1.5 3.2-2.3 6.7-2.3 10.3v.7c2-4.8 5.3-8.9 9.4-11.9zM19.2 9.7c6.9-2 14.3-1.3 20.7 2.1-.6-2.8-1.8-5.5-3.5-7.8-3.4-1.9-7.3-2.8-11.2-2.8-.6 0-1.2 0-1.8.1C21.1 3.4 19.3 6 18 8.8c.5.2.9.6 1.2.9zM20.8 12.4c6.7 2 12.6 6 17 11.5.5-.2 1-.3 1.5-.3h.4c.6-2.1.9-4.3 1-6.5 0-.5 0-1-.1-1.5-5.9-3.8-13.1-5-19.8-3.2zM11.2 11c.7-1.5 2.1-2.5 3.8-2.8.9-2.2 2.1-4.2 3.6-6.1-5.3 1.5-9.9 4.8-13 9.3 1.8-.3 3.6-.4 5.3-.4h.3z"/></g></switch></svg>