<svg xmlns="http://www.w3.org/2000/svg" viewBox="0 0 50.4 50.4"><switch><g><path fill="#404040" d="M45.1 26.7c-.2 2.8-1 5.5-2.3 8H37c.9-2.6 1.4-5.3 1.5-8h-3c-.2 2.7-.7 5.4-1.7 8H25V26c-1.1-.5-2-1.3-2.7-2.3h-7.6c.1-2.6.7-5.2 1.6-7.6H21v-3h-3.4c.9-1.8 2.1-3.5 3.4-5V6.7c0-2.1 1-4.1 2.6-5.5C10.4 2 .4 13.4 1.2 26.6 2 39.9 13.4 49.9 26.6 49.1 39.2 48.4 49 38 49.1 25.4c-1.1.8-2.6 1.3-4 1.3zM18.5 6.3c-1.7 2-3.2 4.3-4.3 6.8h-5c2.4-3.1 5.7-5.5 9.3-6.8zM7.3 16.1H13c-.8 2.5-1.3 5-1.4 7.6H5.2c.2-2.7.9-5.3 2.1-7.6zm.2 18.6c-1.3-2.5-2.1-5.2-2.3-8h6.5c.1 2.7.7 5.4 1.5 8H7.5zm2 3h4.8c1 2.2 2.3 4.3 3.8 6.2-3.3-1.3-6.3-3.4-8.6-6.2zm14.1 7.4h-.4c-2.2-2.2-4.1-4.6-5.5-7.4h5.9v7.4zm0-10.4h-7.2c-1-2.6-1.5-5.3-1.7-8h8.9v8zm3 10.4v-7.4h5.8c-1.4 2.7-3.3 5.2-5.5 7.4h-.3zm5.3-1.1c1.5-1.9 2.8-4 3.8-6.2h4.9c-2.2 2.7-5.2 4.9-8.7 6.2z"/><path fill="#fa6400" d="M45.3 2.5h-17c-2.2 0-4 1.8-4 4v13c0 2.2 1.8 4 4 4v6.2l6.2-6.2h10.8c2.2 0 4-1.8 4-4v-13c0-2.3-1.8-4-4-4zM44.5 9H29.7c-.8 0-1.5-.7-1.5-1.5S28.9 6 29.7 6h14.8c.8 0 1.5.6 1.5 1.5 0 .8-.7 1.5-1.5 1.5zm0 5.5H29.7c-.8 0-1.5-.7-1.5-1.5s.7-1.5 1.5-1.5h14.8c.8 0 1.5.7 1.5 1.5s-.7 1.5-1.5 1.5zm0 5.5H29.7c-.8 0-1.5-.7-1.5-1.5s.7-1.5 1.5-1.5h14.8c.8 0 1.5.7 1.5 1.5s-.7 1.5-1.5 1.5z"/></g></switch></svg>