<svg xmlns="http://www.w3.org/2000/svg" viewBox="0 0 50.4 50.4"><switch><g fill="#fa6400"><path d="M30 48.6c4.8-1 9.3-3.6 12.6-7.2L30 28.8v19.8zM30 1.7v10.9l7.7-7.7c-2.4-1.6-5-2.6-7.7-3.2zM44 10.5c-1.3-1.7-2.8-3.1-4.4-4.4L30 15.7v7.8l.5.5L44 10.5zM37.5 31l10.7-10.7.4.4c-.6-3-1.7-5.8-3.3-8.3L32.1 25.6l5.4 5.4zM48.9 22.9l-9.8 9.8 5.8 5.9c2.6-3.9 4-8.6 4-13.3.1-.9.1-1.7 0-2.4zM26.8 1.2h-1.3c-13.3 0-24 10.7-24 24s10.7 24 24 24h1.3v-48zm-8 5.1c-1.7 2-3.2 4.3-4.3 6.8h-5c2.4-3.2 5.7-5.5 9.3-6.8zM7.7 16h5.7c-.8 2.5-1.3 5-1.4 7.6H5.5c.2-2.6.9-5.2 2.2-7.6zm.2 18.7c-1.3-2.5-2.1-5.2-2.3-8H12c.1 2.7.7 5.4 1.5 8H7.9zm2 3h4.8c1 2.2 2.3 4.3 3.8 6.2-3.4-1.3-6.4-3.4-8.6-6.2zm14 7.4h-.4c-2.2-2.2-4.1-4.6-5.5-7.4h6l-.1 7.4zm0-10.4h-7.2c-1-2.6-1.5-5.3-1.7-8h9l-.1 8zm0-11h-9c.1-2.6.7-5.2 1.6-7.6H24l-.1 7.6zm0-10.6h-6c1.5-2.9 3.5-5.5 6-7.6v7.6z"/></g></switch></svg>