<svg xmlns="http://www.w3.org/2000/svg" viewBox="0 0 50.4 50.4"><switch><g><g fill="#fa6400"><path d="M1.2 11.4v30h8v-3h3v3h8v-30h-19zm6 24h-3v-3h3v3zm0-6h-3v-3h3v3zm0-6h-3v-3h3v3zm0-6h-3v-3h3v3zm5 18h-3v-3h3v3zm0-6h-3v-3h3v3zm0-6h-3v-3h3v3zm0-6h-3v-3h3v3zm5 18h-3v-3h3v3zm0-6h-3v-3h3v3zm0-6h-3v-3h3v3zm0-6h-3v-3h3v3zM25.2 1.2h-1.4v7.6c1-.1.9-.1 1.3-.1.5 0 1.7.1 1.7.2V5.6c3 2.2 4.4 5 5.8 7h-1.8c.1.5.2 1.1.2 1.6s0 .9-.2 1.4h3.1c.4 2 .8 2.7 1 3.9.6-.2 1.3-.3 2-.2.3-.1.7-.1 1-.1-.2-1.2-.5-2.4-.9-3.6h5.8c1.2 2.5 1.9 5.2 2.1 8h-2.3c.1 0 .2 1.1.2 1.7s-.1.3-.1 1.3H45c-.1 2.8-.9 5.6-2.3 8h-5.8c.4-1.1.7-2.2.9-3.4-1 .2-2.1.1-3-.3-.3 1.3-.6 2.5-1.1 3.7h-3c.1.4.2.9.1 1.3 0 .6-.1 1.1-.2 1.7h1.8c-1.3 2.8-3.2 5.3-5.4 7.5-.1 0-.2 0-.2.1v-3.3c0 .1-1.1.2-1.7.2-.6 0-.3-.1-1.3-.1v7.3h1.5c13.3 0 24-10.7 24-24-.1-13.4-10.8-24.1-24.1-24.1zm10.7 11.4c-1.2-2.4-2.7-4.7-4.3-6.8 3.7 1.3 7 3.7 9.4 6.8h-5.1zm-4 31.2c1.5-2 2.7-4.1 3.8-6.2h4.9c-2.2 2.9-5.2 5-8.7 6.2z"/><path d="M26.7 23.6v-3.1c0 .2-1.1.2-1.7.2s-.3-.1-1.3-.2v9.6c1-.1.9-.1 1.3-.1.5 0 1.7.1 1.7.2v-3.7h4.4c-.1-1-.1-.9-.1-1.3 0-.5.1-1.7.2-1.7h-4.5z"/><circle cx="25" cy="14.7" r="3"/><circle cx="37" cy="25.4" r="3"/><circle cx="25" cy="36.1" r="3"/></g></g></switch></svg>