<svg xmlns="http://www.w3.org/2000/svg" viewBox="0 0 50.4 50.4"><switch><g><path fill="#404040" d="M47.1 29.3c-.9.9-1.9 1.8-3 2.6-.3 1-.8 2-1.2 2.9h-4l-.7.2-1.2.4-1.3-.5c-.6-.2-1.1-.4-1.6-.7-.1.2-.1.3-.2.5h-7.1v-6c-1.3-1.5-2.4-3.2-3.3-5h-8.6c.1-2.6.7-5.2 1.6-7.6h4.8c-.1-1-.2-2-.2-3h-3.2c.9-1.7 1.9-3.3 3.2-4.7V6c0-2.1 1.3-4 3.2-4.8-13.5.6-23.7 11.9-23 25.1.6 13.2 11.9 23.5 25.1 22.8 12.2-.6 22-10.2 22.8-22.4-.6 1-1.3 1.8-2.1 2.6zM18.6 6.4c-1.7 2-3.2 4.3-4.3 6.8h-5c2.4-3.2 5.6-5.5 9.3-6.8zM7.4 16.1h5.7c-.8 2.5-1.3 5-1.4 7.6H5.3c.2-2.6.9-5.2 2.1-7.6zm.2 18.7c-1.3-2.5-2.1-5.2-2.3-8h6.5c.1 2.7.7 5.4 1.5 8H7.6zm2 3h4.9c1 2.2 2.3 4.3 3.8 6.2-3.4-1.3-6.4-3.4-8.7-6.2zm14.1 7.4h-.4c-2.2-2.2-4.1-4.6-5.5-7.4h5.9v7.4zm0-10.4h-7.2c-1-2.6-1.5-5.3-1.7-8h8.9v8zm3 10.4v-7.4h5.8c-1.4 2.7-3.3 5.2-5.5 7.4h-.3zM32 44c1.5-1.9 2.8-4 3.8-6.2h4.9c-2.2 2.8-5.2 5-8.7 6.2z"/><path fill="#fa6400" d="M49 14.9c.1-.8.1-1.7.1-2.6V6.1c0-.6-.5-1.2-1.1-1.2-2.2-.2-6.9-1-10.3-3.3-.4-.3-1-.3-1.4 0-3.4 2.3-8.2 3-10.3 3.3-.6.1-1.1.6-1.1 1.2v6c0 15 12.1 19.1 12.1 19.1 2.8-1 5.3-2.6 7.4-4.8 2.8-3.1 4.5-7.2 4.6-11.5zM36.7 28.3c-2.7-1.2-9.5-5.3-9.5-16.1V7.4c3.3.2 6.6-.7 9.5-2.4v23.3z"/></g></switch></svg>