<svg xmlns="http://www.w3.org/2000/svg" viewBox="0 0 50.4 50.4"><switch><g><path fill="#fa6400" d="M34.5 25.2c0-2.6-2.1-4.8-4.8-4.8v9.5c2.7 0 4.8-2.1 4.8-4.7z"/><path fill="#404040" d="M45.8 22h-2.6c-.3-1.4-.9-2.8-1.7-4l1.8-1.8c1.2-1.2 1.2-3.3 0-4.5-1.2-1.2-3.3-1.2-4.5 0L37 13.6c-1.2-.8-2.6-1.3-4-1.7V9.3c0-1.8-1.4-3.2-3.2-3.2h-.1v11.1h.1c4.4 0 7.9 3.6 7.9 7.9 0 4.4-3.6 7.9-7.9 7.9h-.1v11.1h.1c1.8 0 3.2-1.4 3.2-3.2v-2.6c1.4-.3 2.8-.9 4-1.6l1.8 1.8c1.2 1.2 3.3 1.2 4.5 0 1.2-1.2 1.2-3.3 0-4.5l-1.8-1.8c.8-1.2 1.3-2.6 1.6-4h2.6c1.8 0 3.2-1.4 3.2-3.2.1-1.6-1.3-3-3.1-3zM26.7 1.2h-1.3c-13.3 0-24 10.7-24 24s10.7 24 24 24h1.3v-48zm-7.9 5.1c-1.7 2-3.2 4.3-4.3 6.8h-5c2.4-3.2 5.6-5.5 9.3-6.8zM7.6 16h5.7c-.8 2.5-1.3 5-1.4 7.6H5.5c.2-2.6.9-5.2 2.1-7.6zm.2 18.7c-1.3-2.5-2.1-5.2-2.3-8H12c.1 2.7.7 5.4 1.5 8H7.8zm2 3h4.8c1 2.2 2.3 4.3 3.8 6.2-3.3-1.3-6.3-3.4-8.6-6.2zm14.1 7.4h-.4c-2.2-2.2-4.1-4.6-5.5-7.4h5.9v7.4zm0-10.4h-7.2c-1-2.6-1.5-5.3-1.7-8h8.9v8zm0-11H15c.1-2.6.7-5.2 1.6-7.6H24l-.1 7.6zm0-10.6h-6c1.5-2.9 3.5-5.5 6-7.6v7.6z"/></g></switch></svg>