<svg xmlns="http://www.w3.org/2000/svg" viewBox="0 0 50.4 50.4"><switch><g fill="#fa6400"><path d="M40.9 29.3c-.4 1.7-1 3.3-1.8 4.8h-5.4c.5-1.6.9-3.2 1.2-4.9-.9-.2-1.8-.5-2.7-.9-.2 2-.7 4-1.4 5.8h-6.6v-7.5h5.4c-1.1-.8-2-1.7-2.8-2.8h-2.6v-5.7c-.4-2-.4-4 0-5.9V6.9c.5.4.9.9 1.4 1.4.9-1.7 2.2-3.2 3.7-4.4C17.5.2 5 6.8 1.4 18.6s3 24.3 14.8 27.9c11.8 3.6 24.3-3 27.9-14.8.4-1.3.7-2.5.8-3.8-1.2.7-2.6 1.2-4 1.4zM16.6 7.6c-1.6 1.9-3 4-4 6.3H7.9c2.3-2.9 5.3-5.1 8.7-6.3zM6.2 16.7h5.4c-.7 2.3-1.2 4.7-1.3 7.1H4.2c.2-2.5.8-4.9 2-7.1zm.2 17.4c-1.2-2.3-2-4.8-2.2-7.5h6c.1 2.5.6 5 1.4 7.5H6.4zm1.8 2.8h4.5c.9 2.1 2.1 4 3.5 5.8-3.1-1.2-5.9-3.2-8-5.8zm13.1 6.9H21c-2.1-2-3.8-4.3-5.1-6.9h5.5v6.9zm0-9.7h-6.7c-.9-2.4-1.4-4.9-1.6-7.5h8.3v7.5zm0-10.3H13c.1-2.4.6-4.8 1.5-7.1h6.9l-.1 7.1zm0-9.9h-5.6c1.4-2.7 3.3-5.1 5.6-7.1v7.1zm2.8 29.9v-6.9h5.4c-1.3 2.6-3.1 4.9-5.1 6.9h-.3zm5-1.1c1.4-1.8 2.6-3.8 3.6-5.8h4.6c-2.2 2.6-5 4.6-8.2 5.8z"/><path d="M38.4 3.5c-6.4 0-11.6 5.2-11.6 11.6 0 6.4 5.2 11.6 11.6 11.6S50 21.5 50 15.1c0-6.4-5.2-11.6-11.6-11.6zM40.5 23h-4.2v-9.4h4.2V23zm-.3-11.8c-1 1-2.6 1-3.5 0-.9-1-.9-2.5 0-3.4 1-.9 2.6-.9 3.5 0 .8.9.8 2.4 0 3.4z"/></g></switch></svg>