<svg xmlns="http://www.w3.org/2000/svg" viewBox="0 0 50.4 50.4"><switch><g><circle cx="12.9" cy="25" r="3" fill="#fa6400"/><circle cx="24.9" cy="14.4" r="3" fill="#fa6400"/><circle cx="36.9" cy="25" r="3" fill="#fa6400"/><circle cx="24.9" cy="35.7" r="3" fill="#fa6400"/><path fill="#404040" d="M25.2 1.2c-13.3 0-24 10.7-24 24s10.7 24 24 24 24-10.7 24-24-10.7-24-24-24zm15.9 12.4H36c-1-2.5-2.5-4.8-4.3-6.8 3.7 1.3 6.9 3.6 9.4 6.8zM18.6 6.8c-1.9 1.9-3.3 4.2-4.3 6.8h-5c2.4-3.1 5.6-5.5 9.3-6.8zm-9 30.7h4.8c1 3 2.3 4.3 3.8 6.2-3.4-1.1-6.4-3.3-8.6-6.2zM32 43.8c1.5-2 2.8-3.2 3.8-6.2h4.9c-2.2 2.8-5.2 5-8.7 6.2zm10.8-9.3H37c.4-1.2.8-2.4 1-3.7-1 .2-2.1.1-3-.3-.2 1.4-.6 2.7-1.2 4h-2.9c0 1 .1.6.1 1 0 .7-.1 2-.4 2h1.8C31 40.3 29 42.9 26.6 45c-.1 0 .4.1-.6.1v-3.7c0 .2-1.1.2-1.7.2-.6 0-.3-.1-1.3-.2V45s0-.1-.1-.1c-2.2-2.1-4-4.7-5.2-7.5h1.6c-.2 0-.4-1.3-.4-2 0-.3 0 0 .1-1h-2.6c-.5-1.3-.9-2.6-1.2-4-.9.5-2 .6-3 .4.2 1.3.6 2.5 1 3.7H7.6c-1.4-2.4-2.2-5.2-2.3-8h2c-.2 0-.2-1.1-.2-1.7 0-.6.1-.3.2-1.3h-2c.3-2.4 1-4.8 2.1-7h5.7c-.3.9-.6 1.8-.8 2.7.2-.1.4-.1.7-.2.8.1 1.6.3 2.3.6.2-1.1.6-2.2 1-3.2h3c-.1-.6-.2-1.1-.3-1.7 0-.4 0-.9.1-1.3h-1.5c1.5-2.9 3.3-5.7 5.5-8.1v3.1c1-.1.9-.1 1.3-.1.5 0 1.7.1 1.7.2V5.6c2.8 2.1 5 4.8 6.5 8h-1.8c.1.4.2.8.1 1.3 0 .6-.1 1.2-.3 1.7h3.1c.4 1 .8 2 1 3.1.7-.3 1.4-.5 2.1-.5.3.1.6.1.9.2-.2-1-.5-1.9-.8-2.8H43c1.2 2.2 1.9 4.6 2.1 7h-2.2c.1 1 .1.9.1 1.3 0 .5-.1 1.7-.2 1.7h2.3c-.1 2.8-.9 5.5-2.3 7.9z"/><path fill="#4d4d4d" d="M31 24.9c0-.5.1-.3.1-1.3h-5v-3.4c0 .2-1.1.2-1.7.2-.6 0-.3-.1-1.3-.2v3.3h-4.3c.1 1 .2.9.2 1.3 0 .5-.1 1.7-.2 1.7h4.4v3.3c1-.1.9-.2 1.3-.2.5 0 1.7.1 1.7.2v-3.4h5.1c-.2.1-.3-.9-.3-1.5z"/></g></switch></svg>