<svg xmlns="http://www.w3.org/2000/svg" viewBox="0 0 50.4 50.4"><switch><g><path fill="#404040" d="M46.4 20.3c-.8 0-1.5-.2-2.2-.4.3 1.2.6 2.5.7 3.8h-6.6c-.1-2.6-.6-5.1-1.4-7.6h3.8c-.3-1-.3-2-.1-3h-4.8c-1.1-2.5-2.6-4.7-4.3-6.8 3.6 1.3 6.9 3.5 9.2 6.6.4-1.4 1.2-2.6 2.4-3.4-8.7-10-23.9-11-33.9-2.3C-.8 15.8-1.8 31 6.9 41c8.7 10 23.9 11 33.9 2.3 6.6-5.8 9.6-14.7 7.7-23.3-.7.2-1.4.3-2.1.3zm-20-14.8c2.4 2.1 4.5 4.7 5.9 7.6h-5.9V5.5zm17 30.9c0 3.3-2.7 6-6 6-.6 0-1.2-.1-1.8-.3-1.2.8-2.5 1.4-3.8 1.9.7-.9 1.4-1.9 2-2.9-.9-.7-1.6-1.6-1.9-2.7-1.4 2.5-3.1 4.7-5.1 6.7h-.3v-7.4h5.2c-.2-1-.2-2 .1-3h-5.2v-3.4c-1.1 0-2.1-.3-3-.8v4.2h-2.2c.3 1 .3 2 .1 3h2.2v7.4h-.4c-1.3-1.3-2.5-2.7-3.6-4.3-.8.7-1.7 1.2-2.7 1.4.4.6.8 1.2 1.2 1.7-1.2-.4-2.3-1-3.3-1.6-2.3-.3-4.3-2-4.9-4.2l-.3-.4h.2c-.2-1-.2-2 .1-3H7.4c-1.3-2.5-2.1-5.2-2.3-8h6.4c.1 1.6.3 3.1.6 4.7.9-.6 1.8-.9 2.9-1-.2-1.2-.4-2.5-.5-3.7h6.1c-.2-1-.2-2 .1-3h-6.2c.1-1.1.2-2.3.4-3.4-1-.1-2-.4-2.9-1-.3 1.4-.5 2.9-.6 4.4H5c.2-2.7.9-5.2 2.1-7.6h2.5c-.3-1-.3-2-.1-3H9c.3-.4.6-.7.8-1 .7-1.7 2.2-3 4-3.5 1.4-.9 2.9-1.7 4.5-2.2-.6.7-1.1 1.4-1.6 2.2 1 .2 1.9.7 2.7 1.4 1.2-1.6 2.5-3.1 4-4.4v7.6h-2.1c.2 1 .2 2-.1 3h2.3v4.1c.9-.5 1.9-.8 3-.8v-3.3h7.3c.9 2.4 1.4 5 1.6 7.6h-3.1c.3 1 .3 2 .1 3h3c-.1 1.5-.3 2.9-.6 4.4.9-.4 1.8-.7 2.8-.7h.4c.2-1.2.4-2.5.4-3.7H45c-.2 2.5-.9 5-2 7.2.2.7.4 1.5.4 2.4z"/><circle cx="15.4" cy="14.3" r="3" fill="#fa6400"/><circle cx="37.4" cy="36.3" r="3" fill="#fa6400"/><circle cx="46.4" cy="14.3" r="3" fill="#fa6400"/><circle cx="15.4" cy="36.3" r="3" fill="#fa6400"/><circle cx="26.4" cy="25.3" r="3" fill="#fa6400"/></g></switch></svg>