<svg xmlns="http://www.w3.org/2000/svg" viewBox="0 0 50.4 50.4"><switch><g fill="#fa6400"><path d="M31 2.7v33h9v-14h7.9zM31 38.6h9v3h-9zM31 44.6h9v3h-9zM27.8 1.2h-1.3c-13.3 0-24 10.7-24 24s10.7 24 24 24h1.3v-48zm-7.9 5.1c-1.7 2-3.2 4.3-4.3 6.8h-5c2.4-3.2 5.6-5.5 9.3-6.8zM8.7 16h5.7c-.8 2.5-1.3 5-1.4 7.6H6.5c.2-2.6 1-5.2 2.2-7.6zm.2 18.7c-1.3-2.5-2.1-5.2-2.3-8H13c.1 2.7.7 5.4 1.5 8H8.9zm2 3h4.8c1 2.2 2.3 4.3 3.8 6.2-3.4-1.3-6.3-3.4-8.6-6.2zM25 45.1h-.4c-2.2-2.2-4.1-4.6-5.5-7.4H25v7.4zm0-10.4h-7.2c-1-2.6-1.5-5.3-1.7-8H25v8zm0-11h-9c.1-2.6.7-5.2 1.6-7.6H25v7.6zm0-10.6h-6c1.5-2.9 3.5-5.5 6-7.6v7.6z"/></g></switch></svg>