<svg xmlns="http://www.w3.org/2000/svg" viewBox="0 0 50.4 50.4"><switch><g><g fill="#fa6400"><path d="M4.3 18.5H12v2.9H4.3zM14.9 14.6h7.7v6.7h-7.7zM25.5 10.8h7.7v10.6h-7.7zM36.6 21.2h7.7V8.7h3.9L40.5 1l-7.8 7.7h3.9zM44.3 24.4H2.1v1.4C1.8 38.6 12 49.2 24.7 49.4c12.8.3 23.3-9.9 23.6-22.6v-1-1.4h-4zM8.2 35c-1.3-2.4-2.1-5-2.2-7.7h6.2c.1 2.6.6 5.2 1.5 7.7H8.2zm2 2.9h4.7c1 2.1 2.2 4.1 3.6 6-3.3-1.2-6.2-3.3-8.3-6zM23.7 45h-.4c-2.1-2.1-3.9-4.5-5.3-7.1h5.7V45zm0-10h-7c-.9-2.5-1.5-5.1-1.6-7.7h8.6V35zm2.9-7.7h8.5c-.1 2.7-.7 5.3-1.6 7.7h-6.9v-7.7zm0 17.8V38h5.6c-1.4 2.6-3.2 5-5.3 7.1h-.3zm5.1-1.2c1.5-1.9 2.7-3.9 3.7-6h4.8c-2.3 2.8-5.2 4.8-8.5 6zM42.1 35h-5.6c.8-2.5 1.3-5.1 1.5-7.7h6.3c-.1 2.7-.9 5.3-2.2 7.7z"/></g></g></switch></svg>