<svg xmlns="http://www.w3.org/2000/svg" viewBox="0 0 50.4 50.4"><switch><g><path fill="#404040" d="M10.1 32h.4c-.7-1.6-1.2-3.4-1.3-5.2h4.2c.1 1.6.4 3.1.8 4.6 1.1-.3 2.2-.6 3.2-1.1-.3-1.2-.6-2.3-.7-3.5h8l1.1-.6c1.4-.8 2.7-1.7 4-2.7h-1.6V18h5.9l-1.6-1c-.9-.5-1.3-1.5-1.2-2.4h-3V9.8c1.3 1 2.5 2.1 3.6 3.4.3-.3.7-.6 1.1-.8l2.1-.8c-.8-1-1.6-1.8-2.5-2.7 1.4.5 2.8 1.2 4 2.1l5.5-2C33.2.4 19 .7 10.4 9.5c-4.7 4.9-7 11.5-6.2 18.2.9 3 2.8 4.3 5.9 4.3zm14.7-8.6h-8.1c.2-1.9.7-3.8 1.5-5.5h6.6v5.5zm0-13.6v4.7h-4.6c1.3-1.8 2.9-3.4 4.6-4.7zm-4-1.1c-1.9 1.7-3.4 3.6-4.7 5.8h-3.4c2.1-2.7 4.9-4.7 8.1-5.8zm-10.2 9.2h3.9c-.6 1.8-1 3.6-1.2 5.5H9.1c.2-1.9.8-3.7 1.5-5.5zM47.4 28.2l-2.6-2.6-1.2 1.2h.2C43.6 29 43 31.1 42 33h-3.5c.3-.8.6-1.6.8-2.5-2.5 2-5.2 3.7-8.1 5.1-.5.3-1.1.5-1.8.8h3.3c-1.3 1.7-2.8 3.2-4.4 4.5v-4.1c-1.1.4-2.2.8-3.4 1.2v2.8c-.8-.7-1.6-1.4-2.4-2.2-1.3.3-2.5.6-3.8.8.6.7 1.2 1.3 1.7 1.9-1.2-.4-2.3-1-3.3-1.6-1.4.2-2.7.3-4.1.3-1.2 0-2.4-.1-3.6-.3 8.1 9.4 22.2 10.5 31.6 2.5 4-3.4 6.7-8.2 7.6-13.4-.4 0-.8-.3-1.2-.6zM33 41.2c1.5-1.5 2.7-3.1 3.8-4.8h2.9c-1.8 2.1-4.1 3.8-6.7 4.8z"/><path fill="#fa6400" d="M33.8 14.8l5.4 3.2s-5.5 6.7-12 10.4c-5.7 3.3-23.1 12.9-26-1.7 0 15.9 20.3 10.5 28.8 6.6 7.9-3.7 14.7-11.3 14.7-11.4l4.5 4.4V9.2l-15.4 5.6z"/></g></switch></svg>