<svg xmlns="http://www.w3.org/2000/svg" viewBox="0 0 50.4 50.4"><switch><g fill="#fa6400"><path d="M33.4 43.9c-2.4 0-4.7-.7-6.7-1.9-.6.7-1.3 1.5-2 2.1h-.3v-3.9l-.1-.1c-1.6-1.6-2.7-3.7-3.3-5.9h-6.3c-.9-2.4-1.5-5-1.6-7.6h8.4c.6-1.7 1.6-3.3 2.9-4.6l.1-.1v-5.4h7l.6 1.8c1-.1 2-.1 3 0-.2-.6-.3-1.3-.5-1.9h5.5c.8 1.5 1.4 3.2 1.7 4.9.2.2.5.4.7.6 1.6 1.7 2.8 3.7 3.3 6C47.4 15.6 38.5 4.2 26 2.6 13.5 1 2.1 9.9.5 22.4-1 34.8 7.8 46.2 20.3 47.8c.9.1 1.9.2 2.9.2 5 0 9.8-1.6 13.7-4.6-1.1.3-2.3.5-3.5.5zm4.8-30.1h-4.8c-1.1-2.3-2.4-4.5-4.1-6.5 3.6 1.2 6.7 3.5 8.9 6.5zM24.6 6.6c2.3 2 4.2 4.5 5.7 7.2h-5.7V6.6zm-2.9 17.3h-8.5c.1-2.5.6-4.9 1.5-7.2h7v7.2zm0-17.4v7.3H16c1.4-2.8 3.4-5.2 5.7-7.3zm-4.8.9c-1.6 1.9-3 4.1-4.1 6.4H8c2.3-3 5.4-5.2 8.9-6.4zM6.2 16.6h5.5c-.8 2.3-1.2 4.8-1.3 7.2H4.2c.2-2.5.9-4.9 2-7.2zm.2 17.7c-1.3-2.3-2-4.9-2.2-7.6h6.1c.1 2.6.6 5.1 1.5 7.6H6.4zm1.9 2.9h4.6c1 2.1 2.2 4.1 3.6 5.9-3.2-1.2-6-3.3-8.2-5.9zm13.4 7h-.4c-2.1-2-3.9-4.4-5.2-7h5.6v7z"/><path d="M49.6 44.5l-5-5.1-.3.3-2.5-2.5c3-4 2.6-9.5-.9-13-3.8-3.8-10-3.9-13.8-.1l-.1.1c-3.8 3.9-3.8 10.2 0 14.1 1.8 1.9 4.3 2.9 7 2.9 2.3 0 4.5-.8 6.2-2.3l2.5 2.5-.3.3 5 5.1c.6.6 1.6.6 2.3 0 .5-.6.5-1.6-.1-2.3zm-11-8.5c-2.6 2.6-6.8 2.7-9.4.1l-.1-.1c-2.6-2.7-2.6-7 0-9.6 2.6-2.6 6.8-2.7 9.4-.1l.1.1c2.6 2.7 2.6 7 0 9.6z"/></g></switch></svg>