<svg xmlns="http://www.w3.org/2000/svg" viewBox="0 0 50.4 50.4"><switch><g><path fill="#404040" d="M45.2 26.8c-.2 2.8-1 5.5-2.3 8h-2.4l-.7 1.3-1 1.7h2.1c-2.3 2.8-5.3 5-8.7 6.2 1.4-1.8 2.6-3.8 3.6-5.8l-1.2-2.1-.7-1.3h-7v-8h2.6l-1.5-3h-1.1v-2.3c-1.1-2.1-2-4.4-2.8-6.6-.2-.6-.3-1.1-.3-1.7h-5.9c1.5-2.9 3.5-5.5 6-7.6v3.6c.5-3 2-5.7 4.3-7.7C14.8-.1 2.9 9.4 1.4 22.5-.1 35.7 9.3 47.6 22.5 49.1c13.2 1.5 25.1-7.9 26.6-21.1.3-2.9.1-5.9-.6-8.8-1 2.4-2 5-3.3 7.6zM18.7 6.4c-1.7 2-3.2 4.3-4.3 6.8h-5c2.4-3.1 5.7-5.5 9.3-6.8zM7.6 16.2h5.7c-.8 2.5-1.3 5-1.4 7.6H5.4c.2-2.7.9-5.3 2.2-7.6zm.2 18.6c-1.3-2.5-2.1-5.2-2.3-8H12c.1 2.7.7 5.4 1.5 8H7.8zm2 3h4.8c1 2.2 2.3 4.3 3.8 6.2-3.4-1.2-6.4-3.4-8.6-6.2zm14 7.4h-.4c-2.2-2.2-4.1-4.6-5.5-7.4h5.9v7.4zm0-10.4h-7.2c-1-2.6-1.5-5.3-1.7-8h8.9v8zm0-11h-8.9c.1-2.6.7-5.2 1.6-7.6h7.4l-.1 7.6zm3 21.4v-7.4h5.8c-1.4 2.7-3.3 5.2-5.5 7.4h-.3z"/><path fill="#fa6400" d="M37.2 1.1c-5.8 0-10.6 4.7-10.6 10.6 0 .9.1 1.7.3 2.5 1.6 5.5 10.3 20.6 10.3 20.6S46.1 19 47.5 14.2c.2-.8.3-1.7.3-2.5 0-5.9-4.8-10.6-10.6-10.6zm0 15.8c-2.8 0-5-2.2-5-5s2.2-5 5-5 5 2.2 5 5-2.2 5-5 5z"/></g></switch></svg>