<svg xmlns="http://www.w3.org/2000/svg" viewBox="0 0 50.4 50.4"><switch><g><path fill="#fa6400" d="M20.3 12.2l6 6c.9.9 2.4.9 3.2 0l9.9-9.9 3.2 3.2L44.3 1 33.8 2.7l3.1 3.1-8.5 8.5c-.3.3-.7.3-1 0l-5.7-5.7c-1.1-1.1-2.9-1.1-4 0l-8.9 8.9c-.7.7-.7 1.8 0 2.5s1.8.7 2.5 0l7.8-7.8c.4-.2.9-.2 1.2 0z"/><path fill="#404040" d="M44.8 23.8H1.6c0 .5-.1 1-.1 1.5-.2 13.1 10.1 23.9 23.2 24.1 13.1.3 23.9-10.1 24.1-23.2v-1-1.5h-4zm-37 10.9c-1.3-2.4-2.1-5.1-2.3-7.9h6.4c.1 2.7.6 5.4 1.5 7.9H7.8zm2 3h4.8c1 2.2 2.2 4.2 3.7 6.1-3.3-1.3-6.2-3.4-8.5-6.1zM23.7 45h-.4c-2.2-2.1-4-4.6-5.4-7.3h5.8V45zm0-10.3h-7.1c-1-2.5-1.5-5.2-1.7-7.9h8.8v7.9zm3-7.9h8.7c-.2 2.7-.7 5.4-1.7 7.9h-7v-7.9zm0 18.2v-7.3h5.7C31 40.4 29.2 42.8 27 45h-.3zm5.3-1.2c1.5-1.9 2.7-4 3.8-6.2h4.9c-2.4 2.9-5.4 5-8.7 6.2zm10.6-9.1h-5.7c.9-2.6 1.4-5.2 1.5-7.9h6.5c-.2 2.8-1 5.5-2.3 7.9z"/></g></switch></svg>