<svg xmlns="http://www.w3.org/2000/svg" viewBox="0 0 50.4 50.4"><switch><g><g fill="#fa6400"><path d="M17.6 16.7c-.2-.1-1.4-.1-1.6-.1-.3-.2-.5-.4-.7-.6-.7-.3-1.4-.3-2.2-.2-.8.3-.4 1.3-.2 1.6.8.5 1.7.9 2.6 1.1.8 0 1.6 0 2.4-.1.1 0 .7-.5.6-1-.1-.4-.9-.6-.9-.7zM27.9 8.1c-.2 0-1.1.9-.9 1.3.6.6 1.3 1.1 2.1 1.5 1.1.1 1.6-.4 1.7-.8.2-.5.1-1-.2-1.5-.9-.3-1.8-.4-2.7-.5z"/><path d="M25.2 1.2c-13.3 0-24 10.7-24 24s10.7 24 24 24 24-10.7 24-24-10.7-24-24-24zm0 44.1c-11.1 0-20.1-9-20.1-20.1 0-2.7.5-5.4 1.6-7.9.2.7.5 1.3.9 1.9.3.2.6.3 1 .3.3 0 1.3 1 1.4 1.6s0 1.8.2 2.1c.4.5 1.7 1.3 1.7 1.7v3c0 1 2.4 2.8 2.4 2.8s1.3.7 1.4 1.2c.2.5 0 2.8.3 3.4s.8 1.3.8 1.7v2c0 1.1 1.5 3.1 1.7 3.3.6.1 1.1.1 1.7 0 .4-.1.2-1 .2-1.2 0-.2-.8-.6-.9-.8-.2-.5-.2-1-.2-1.5s1.6-.4 2-.7c.7-.6 1-1.4 1.4-1.6.8-.4 1.2-.4 1.4-1.2.2-.7-.3-1.3 0-1.9.3-.6.7-1.1 1.2-1.5.9-.6 1.9-.6 2.6-1.8.6-.8.9-1.8.9-2.8-.2-.7-.5-1.9-1.3-1.9-.6.1-1.2 0-1.8-.2-.3-.1-.8-1.3-1-1.4-.8-.6-3.2-.1-4-.5-.3-.1-.7-2-1.6-2.5-.8-.1-1.6-.1-2.3-.1-.4 0-1 .9-1.6 1-.6.1-1.8.3-2.2-.2-.5-.7-.9-1.5-1.2-2.3-.3-.5-.7-1-1.3-1.3-.4-.2-.7-.5-.8-1v-1.4s.9-1.3 1.6-1.3c.7-.1 1.1.5 1.4.5.3 0 1.3 0 1.6-.2.4-.4.8-.7 1.2-1.1.4-.4 0-1.1.7-1.6.7-.4 1.8.4 2.7-.3.4-.3.6-1.3.9-1.5.9-.2 1.8-.2 2.7-.2.7 0 .6-.5.6-.9s-.9-.9-2.8-.8c-1 .1-1.9.1-2.9 0-.2 0-.5-.6-.8-1.2.8-.4 1.5-.7 2.3-.9.3.4.7.7 1.1 1 .5 0 .9-.1 1.2-.4 0-.4 0-.8-.1-1.2 1-.2 2.1-.3 3.1-.4-.1.4-.2.9-.2 1.3.2.4.5.7 1.2.7s1.1 0 1.3-.2c.2-.2 0-.6.4-.9.4-.2 1 .1 1.3 0 .1 0 .3-.3.5-.7 1.8.3 3.6.9 5.2 1.7v1.2c0 .6-1 1.3-1.1 2-.1.4 0 .9.1 1.3s1.3.4 1.6.4c.3-.1.9 0 1-.5.1-.5-.1-.9 0-1.3s.8-.3 1.4-.2c.6 0 .3.8 1 1h1.3c1.1 1.1 2 2.2 2.8 3.5-.9-.3-1.9-.5-2.9-.6-1.4 0-5.4.7-5.4 2.4 0 .6 0 1.2.1 1.8.1 1 1.8 1.8 2.1 2.3.3.5.4 2.4.7 2.8.3.5 1.7.4 1.9.2.2-.1.7-.8 1-.9.6-.1 1.1-.2 1.7-.2.5.1.9.2 1 1.1.2 1.6-.2 1.5-.8 1.9-.3.2-.1 1.5-.1 1.7.2.4 1.9.9 2 1.4.1.9 0 1.7-.3 2.6-.3.3-1.4.2-1.9.8-.4.5-.6 1-.8 1.6-.1.4.3 1.3.1 1.6-.2.3-1 .6-1 .8 0 .4 0 .9.1 1.3.4.3.9.5 1.4.7-3.7 4.8-9.5 7.7-15.7 7.7z"/></g></g></switch></svg>