<svg xmlns="http://www.w3.org/2000/svg" viewBox="0 0 50.4 50.4"><switch><g><path fill="#fa6400" d="M25.2 1.2c-13.3 0-24 10.7-24 24s10.7 24 24 24 24-10.7 24-24-10.7-24-24-24zM27 45.1h-.3v-7.4h5.8c-1.4 2.8-3.3 5.3-5.5 7.4zm-9.2-7.4h5.9v7.4h-.4c-2.2-2.1-4.1-4.6-5.5-7.4zm-12.5-11h6.5c.1 2.7.7 5.4 1.5 8H7.6c-1.3-2.5-2.1-5.2-2.3-8zm21.4-13.6V5.6c2.4 2.1 4.5 4.7 6 7.6h-6zm7.3 3c.9 2.4 1.4 5 1.6 7.6h-8.8v-7.6H34zM23.7 5.5v7.6h-6c1.5-2.9 3.5-5.5 6-7.6zm0 10.6v7.6h-8.9c.1-2.6.7-5.2 1.6-7.6h7.3zm-11.9 7.6H5.3c.2-2.7.9-5.2 2.1-7.6h5.7c-.7 2.5-1.2 5-1.3 7.6zm3 3h8.9v8h-7.2c-1-2.6-1.6-5.3-1.7-8zm11.9 8v-8h8.8c-.2 2.7-.7 5.4-1.7 8h-7.1zm11.9-8h6.6c-.2 2.8-1 5.5-2.3 8H37c.9-2.6 1.4-5.3 1.6-8zm0-3c-.1-2.6-.6-5.1-1.4-7.6H43c1.2 2.4 1.9 4.9 2.1 7.6h-6.5zm2.5-10.6H36c-1.1-2.5-2.6-4.7-4.3-6.8 3.7 1.3 7 3.7 9.4 6.8zM18.6 6.4c-1.7 2-3.2 4.3-4.3 6.8h-5c2.4-3.2 5.6-5.6 9.3-6.8zm-9 31.4h4.8c1 2.2 2.3 4.3 3.8 6.2-3.4-1.3-6.3-3.5-8.6-6.2zM32 44c1.5-1.9 2.8-4 3.8-6.2h4.9c-2.2 2.8-5.2 4.9-8.7 6.2z"/></g></switch></svg>