<svg xmlns="http://www.w3.org/2000/svg" viewBox="0 0 50.4 50.4"><switch><g><path fill="#404040" d="M46.9 15c-.7.6-1.6.9-2.5.9h-1.1l-.3.2c1.2 2.4 1.9 4.9 2.1 7.6h-1.7v3h1.7c-.2 2.8-1 5.5-2.3 8h-.6c-.7.7-1.7 1.1-2.8 1.2h-1.2l-1.4 1.4-.4.4h4.4c-2.3 2.8-5.3 5-8.7 6.2 1.3-1.7 2.4-3.4 3.3-5.3L34 37.2l-1.4-1.4h-1.2c-1 0-2-.4-2.8-1.2h-1.9v-8h.7v-2.8-.2h-.7V16H34c.5 1.2.8 2.5 1.1 3.8h3c-.2-1.3-.6-2.5-1-3.8h.7l-.2-.2h-1.2c-1.7 0-3.3-1.1-3.8-2.8h-5.9V5.5c2.4 2.1 4.4 4.6 5.9 7.5-.1-.4-.2-.7-.2-1.1V7.2c-.2-.3-.5-.6-.8-.9.2.1.5.2.8.3V3.9c0-.5.1-1 .3-1.5-7.9-2.6-16.7-.9-23 4.5h6.7c.2 0 .5 0 .7.1l1.5-.6c-.2.3-.4.6-.7.8 1 .4 1.7 1.2 2.2 2.1 1.1-1.4 2.3-2.7 3.6-3.8v7.6h-3.3v3h3.3v7.6h-8.9v-.4l-1 1-1.4 1.4-1.4-1.4-.6-.6h-5c.1-.7.1-1.4.3-2.1-.7-.7-1.1-1.7-1.1-2.8v-5.6C-2.2 24.7 1.7 39.4 13.2 46c11.5 6.6 26.2 2.7 32.8-8.8 3.9-6.8 4.3-15.1.9-22.2zM7.6 34.7c-1.3-2.5-2.1-5.2-2.3-8h6.5c.1 2.7.7 5.4 1.5 8H7.6zm2 3h4.8c1 2.2 2.3 4.3 3.8 6.2-3.3-1.2-6.3-3.4-8.6-6.2zm14.1 7.4h-.4c-2.2-2.2-4.1-4.6-5.5-7.4h5.9v7.4zm0-10.4h-7.2c-1-2.6-1.5-5.3-1.7-8h8.9v8zm3 10.4v-7.4h5.8c-1.4 2.7-3.3 5.2-5.5 7.4h-.3z"/><path fill="#fa6400" d="M16.4 8.9h-8c-1.1 0-2 .9-2 2v8c0 1.1.9 2 2 2h2l2 2 2-2h2c1.1 0 2-.9 2-2v-8c0-1.1-.9-2-2-2zm-5 9.5l-3-3 1.6-1.6 1.5 1.4 3.5-3.4 1.6 1.6-5.2 5zM44.4 1.9h-8c-1.1 0-2 .9-2 2v8c0 1.1.9 2 2 2h2l2 2 2-2h2c1.1 0 2-.9 2-2v-8c0-1.1-.9-2-2-2zm-5 9.5l-3-3L38 6.9l1.5 1.4L43 4.9l1.6 1.6-5.2 4.9zM39.4 21.9h-8c-1.1 0-2 .9-2 2v8c0 1.1.9 2 2 2h2l2 2 2-2h2c1.1 0 2-.9 2-2v-8c0-1.1-.9-2-2-2zm-5 9.5l-3-3 1.6-1.6 1.5 1.4 3.5-3.4 1.6 1.6-5.2 5z"/></g></switch></svg>