<svg xmlns="http://www.w3.org/2000/svg" viewBox="0 0 50.4 50.4"><switch><g><path fill="#404040" d="M18.1 24.2h-3.9v4h6.2zM43.2 24.2h-3l-1.3 4h5.3zM30 28.2h6.3l1.3-4h-5.3zM46.7 38.2l-2-8h-6.4l-2.5 8zM35.7 30.2h-6.8l-1.7 3.1c-.4.7-1.2 1.2-2 1.2s-1.6-.4-2-1.2l-1.6-3.1h-7.3v8h19l2.4-8zM14.2 42.2v6h9.3l-2.3-6zM6.2 28.2h5v-4h-4zM47.7 42.2H23.9l2.3 6h23zM1.2 48.2h10v-6H2.7zM3.7 38.2h7.5v-8H5.7z"/><path fill="#fa6400" d="M25.2 2.2c-5.5.1-9.9 4.5-10 10 .1 1.3.5 2.7 1 3.9l9 16.1 9-16.1c.5-1.2.9-2.6 1-3.9 0-5.5-4.5-9.9-10-10zm0 14.3c-2.3 0-4.2-1.9-4.2-4.2S22.9 8 25.2 8s4.2 1.9 4.2 4.2c0 2.4-1.9 4.2-4.2 4.3z"/></g></switch></svg>