<svg xmlns="http://www.w3.org/2000/svg" viewBox="0 0 50.4 50.4"><switch><g><path fill="#404040" d="M27 1.2h-1.3c-13.3 0-24 10.7-24 24s10.7 24 24 24H27v-48zm-7.9 5.1c-1.7 2-3.2 4.3-4.3 6.8h-5c2.4-3.2 5.6-5.5 9.3-6.8zM7.9 16h5.7c-.8 2.5-1.3 5-1.4 7.6H5.8c.1-2.6.9-5.2 2.1-7.6zm.2 18.7c-1.3-2.5-2.1-5.2-2.3-8h6.5c.1 2.7.7 5.4 1.5 8H8.1zm2 3h4.8c1 2.2 2.3 4.3 3.8 6.2-3.4-1.3-6.3-3.4-8.6-6.2zm14.1 7.4h-.4c-2.2-2.2-4.1-4.6-5.5-7.4h5.9v7.4zm0-10.4H17c-1-2.6-1.5-5.3-1.7-8h8.9v8zm0-11h-8.9c.1-2.6.7-5.2 1.6-7.6h7.4l-.1 7.6zm0-10.6h-6c1.5-2.9 3.5-5.5 6-7.6v7.6z"/><path fill="#fa6400" d="M31.7 31c1.1.5 2.3.9 3.5 1.2 1.3.4 2.5.5 3.8.5.9 0 1.7-.1 2.5-.6.9-.6 1.2-1.8.6-2.8-.2-.2-.3-.4-.6-.6-.9-.5-2-.9-3-1.2-1.3-.4-2.4-.8-3.4-1.2-.9-.4-1.8-.8-2.6-1.4-.7-.6-1.3-1.3-1.7-2.1-.4-1-.7-2.1-.6-3.2 0-1 .1-2 .4-3 .3-.8.7-1.5 1.2-2.2.5-.6 1.2-1.1 1.9-1.5.8-.4 1.6-.7 2.5-.9V8.1h6.2v4c1 .1 1.9.3 2.9.6.9.3 1.8.7 2.6 1.1l-1.4 4.8c-1.1-.5-2.2-.9-3.3-1.2-1.3-.4-2.6-.5-3.9-.5-.8-.1-1.6.1-2.3.5-.5.4-.8 1-.7 1.6 0 .4.1.7.3 1 .2.3.5.5.9.7.5.2 1 .5 1.5.6l2.2.7c1 .3 1.9.7 2.8 1.1.9.4 1.7.9 2.4 1.5s1.3 1.3 1.7 2.1c1.1 2.7.7 5.8-1.1 8.1-1.2 1.4-2.8 2.3-4.6 2.6v4.2h-6.2v-4c-1-.2-2-.4-3-.7-1-.3-1.9-.6-2.9-1l1.4-4.9z"/></g></switch></svg>