<svg xmlns="http://www.w3.org/2000/svg" viewBox="0 0 50.4 50.4"><switch><g fill="#fa6400"><path d="M1.9 27.9c.5 2.8 2.6 5 5.4 5.5-1-2.1-1.6-4.4-1.8-6.8h6.3c.1 2.2.5 4.4 1.1 6.5 1-.2 1.9-.5 2.8-.8-.5-1.9-.9-3.8-1-5.7h8.7v2.1l1.6-.9c.5-.3.9-.5 1.3-.8v-.3h.5c1.3-.9 2.6-1.9 3.8-2.9h-4.3v-7.4h.2-.1l5.5-2.4 3-1.3c-1-2.1-2.3-4.1-3.8-5.9 2.7.9 5.2 2.4 7.2 4.4l3.9-1.7C33.7-.1 18.9-.9 9.3 7.8c-4.9 4.5-7.7 10.8-7.7 17.4v.4l.3 2.3zm24.6-22c2.4 2.1 4.4 4.6 5.8 7.4h-5.8V5.9zm-3 17.8h-8.7c.1-2.5.7-5 1.5-7.4h7.2v7.4zm0-17.9v7.5h-5.9c1.5-2.8 3.5-5.4 5.9-7.5zm-5 .9c-1.7 2-3.1 4.2-4.2 6.6H9.4c2.4-3 5.5-5.3 9.1-6.6zM7.6 16.2h5.6c-.8 2.4-1.2 4.9-1.4 7.4H5.5c.2-2.5.9-5 2.1-7.4zM46.8 30.4L44.4 28l-.1.1c-.3 2.2-1 4.4-2.1 6.4h-5.6c-1.6 1.1-3.2 2.1-4.9 2.9h.4c-1.4 2.7-3.2 5.1-5.4 7.2h-.3v-5c-1 .3-2 .7-2.9 1v4h-.4c-1-1-1.9-2.1-2.8-3.2-1.1.2-2.1.5-3.2.6.3.5.7 1 1 1.4-.9-.3-1.8-.7-2.6-1.2-1.1.1-2.2.2-3.3.2-1.1 0-2.3-.1-3.4-.2 9.4 8.9 24.3 8.5 33.2-.9 2.7-2.8 4.6-6.3 5.6-10.1l-.8-.8zM31.6 43.5c1.5-1.9 2.7-3.9 3.7-6.1h4.8c-2.1 2.8-5.1 4.9-8.5 6.1z"/><path d="M33.3 16.5l5.4 3.2s-5.6 6.7-12.1 10.5C20.8 33.6 3.3 43.3.4 28.5c0 16.1 20.6 10.6 29.1 6.6 7.9-3.7 14.9-11.5 14.9-11.5l4.5 4.5L50 9.3l-16.7 7.2z"/></g></switch></svg>