<svg xmlns="http://www.w3.org/2000/svg" viewBox="0 0 50.4 50.4"><switch><g><path fill="#404040" d="M33.1 6.8v13.6h9V6.8h-9zm3.7 10.9H35v-1.8h1.8v1.8zm0-3.7H35v-1.8h1.8V14zm0-3.6H35V8.6h1.8v1.8zm3.6 7.3h-1.8v-1.8h1.8v1.8zm0-3.7h-1.8v-1.8h1.8V14zm0-3.6h-1.8V8.6h1.8v1.8zM7.8 6.8v13.6h9V6.8h-9zm3.6 10.9H9.6v-1.8h1.8v1.8zm0-3.7H9.6v-1.8h1.8V14zm0-3.6H9.6V8.6h1.8v1.8zm3.6 7.3h-1.8v-1.8H15v1.8zm0-3.7h-1.8v-1.8H15V14zm0-3.6h-1.8V8.6H15v1.8z"/><path fill="#fa6400" d="M29.5 3.2V1.4h-9v1.8h-1.9v17.2H24v-1.8h1.8v1.8h5.4V3.2h-1.7zm-7.3 12.6h-1.8V14h1.8v1.8zm0-3.6h-1.8v-1.8h1.8v1.8zm0-3.6h-1.8V6.8h1.8v1.8zm3.7 7.2h-1.8V14h1.8v1.8zm0-3.6h-1.8v-1.8h1.8v1.8zm0-3.6h-1.8V6.8h1.8v1.8zm3.6 7.2h-1.8V14h1.8v1.8zm0-3.6h-1.8v-1.8h1.8v1.8zm0-3.6h-1.8V6.8h1.8v1.8z"/><path fill="#404040" d="M45.1 23.5H1.2V25c0 13.3 10.7 24 24 24s24-10.7 24-24v-1.5h-4.1zm-37.5 11c-1.3-2.5-2.1-5.2-2.3-8h6.5c.1 2.7.7 5.4 1.5 8H7.6zm2 3h4.8c1 2.2 2.3 4.3 3.8 6.2-3.4-1.2-6.3-3.3-8.6-6.2zm14.1 7.4h-.4c-2.2-2.2-4.1-4.6-5.5-7.4h5.9v7.4zm0-10.4h-7.2c-1-2.6-1.5-5.3-1.7-8h8.9v8zm3-8h8.8c-.2 2.7-.7 5.4-1.7 8h-7.1v-8zm0 18.5v-7.4h5.8c-1.4 2.7-3.3 5.2-5.5 7.4h-.3zm5.3-1.2c1.5-1.9 2.8-4 3.8-6.2h4.9c-2.2 2.8-5.3 5-8.7 6.2zm10.7-9.2H37c.9-2.6 1.4-5.3 1.5-8h6.6c-.2 2.8-1 5.5-2.4 8z"/></g></switch></svg>