<svg xmlns="http://www.w3.org/2000/svg" viewBox="0 0 50.4 50.4"><switch><g><path fill="#fa6400" d="M49 23c-.4-1.9-1.9-3.5-3.8-4-.2 0-.4-.2-.5-.4-1.3-3.3-2.5-6.6-3.8-9.9-.4-1.1-1.1-2.1-2.1-2.7-1-.6-2.1-.9-3.3-.9H15.2c-.4 0-.8 0-1.2.1-1.9.1-3.6 1.3-4.4 3.1C9 9.7 8.5 11.1 8 12.5c-.8 2.1-1.6 4.1-2.3 6.1l-.3.3-.9.3c-2.1.9-3.3 3-3.2 5.3v12.8h3.9v3.9c0 .3 0 .7.1 1 .3 1.7 1.7 3 3.5 3 2 0 3.6-1.5 3.6-3.5v-4-.4h25.9v.9c0 1.3 0 2.6.1 3.9.2 1.8 1.6 3.1 3.4 3.1h.2c2 0 3.5-1.6 3.5-3.6v-4-.4h3.9V37 24.5c-.2-.5-.3-1-.4-1.5zM8.8 29.5c-1.8 0-3.3-1.4-3.4-3.3 0-1.8 1.4-3.4 3.3-3.4 1.8 0 3.4 1.4 3.4 3.3s-1.5 3.4-3.3 3.4zm.9-10.7l.9-2.4c.7-2 1.4-3.9 2.2-5.9.2-.4.4-.8.7-1.1.5-.5 1.1-.7 1.7-.6h20.2c1.1-.2 2.1.5 2.4 1.6 1.1 2.7 2.1 5.5 3.1 8.2v.2H9.7zm31.9 10.7c-1.9 0-3.4-1.6-3.4-3.4V26c0-1.9 1.6-3.4 3.5-3.4s3.4 1.6 3.4 3.5c0 2-1.6 3.5-3.5 3.4z"/></g></switch></svg>