<svg xmlns="http://www.w3.org/2000/svg" viewBox="0 0 50.4 50.4"><switch><g><path fill="#fa6400" d="M47.9 43.4l-9.1-9.1-.8.8-3.4-3.4C41.1 23.7 40 12 32 5.4 24.1-1.1 12.3 0 5.8 8S.4 27.7 8.4 34.2c6.6 5.4 16 5.7 22.9.6l3.5 3.5-.8.9 9.1 9.1c1.4 1.3 3.6 1.2 4.9-.2 1.2-1.3 1.2-3.4-.1-4.7zM10.5 29.8c-5.4-5.4-5.4-14.1 0-19.5s14.1-5.4 19.5 0 5.4 14.1 0 19.5c-2.6 2.6-6.1 4-9.7 4-3.6.1-7.2-1.4-9.8-4z"/><path fill="none" d="M14.6 23.5h2.3v2.3h-2.3zM23.8 23.5h2.3v2.3h-2.3zM19.2 14.3h2.3v2.3h-2.3zM19.2 18.9h2.3v2.3h-2.3zM19.2 28.1h2.3v2.3h-2.3zM14.6 14.3h2.3v2.3h-2.3zM19.2 23.5h2.3v2.3h-2.3zM14.6 18.9h2.3v2.3h-2.3zM23.8 28.1v2.3h1.5c.3-.1.5-.3.8-.4v-1.9h-2.3zM16.9 28.1h-2.3V30c.2.1.5.3.8.4h1.5v-2.3zM23.8 14.3h2.3v2.3h-2.3z"/><path fill="none" d="M12.3 21.2V12h16.1v9.2h2.3V25c2.8-5.7.4-12.6-5.3-15.4C19.6 6.9 12.7 9.3 10 15c-1.5 3.2-1.5 6.9 0 10v-3.8h2.3z"/><path fill="none" d="M23.8 18.9h2.3v2.3h-2.3z"/><path fill="#fa6400" d="M14.6 30v-1.9h2.3v2.3h-1.5c3.2 1.5 6.8 1.5 10 0h-1.6v-2.3h2.3V30c.9-.5 1.7-1.1 2.4-1.8.9-.9 1.7-2 2.2-3.1v-3.8h-2.3v-4.6H12.3v4.6H10v3.8c.6 1.2 1.3 2.2 2.2 3.1.7.7 1.5 1.3 2.4 1.8zm9.2-11.1h2.3v2.3h-2.3v-2.3zm0 4.6h2.3v2.3h-2.3v-2.3zm-4.6-4.6h2.3v2.3h-2.3v-2.3zm0 4.6h2.3v2.3h-2.3v-2.3zm0 4.6h2.3v2.3h-2.3v-2.3zm-4.6-9.2h2.3v2.3h-2.3v-2.3zm0 4.6h2.3v2.3h-2.3v-2.3zm9.2-6.9h-6.9v-2.3h6.9v2.3z"/><path fill="#fa6400" d="M20.3 7.4h1.1v8h-1.1z"/></g></switch></svg>