<svg xmlns="http://www.w3.org/2000/svg" viewBox="0 0 50.4 50.4"><switch><g><path fill="#fa6400" d="M31.2 23.3l1.6-1.6c2.8-.1 6.5-2 9.7-5.2l6.7-8.1-.8-.8-8 6.7-1.2-1.2 6.7-8-.8-.8-8 6.7-1.2-1 6.7-8-.8-.8-8.1 6.7c-3.2 3.2-5.1 6.9-5.2 9.7l-1.6 1.6.6.6c1.3 1.2 2.5 2.4 3.7 3.5zM19.3 26.7c-1.8 1.8-3.7 3.5-5.4 5.1-1 .9-1.9 1.8-2.9 2.6S9.2 36 8.4 36.7C5.1 39.5 3 41.3 3 41.3c-.3.2-.5.4-.7.7-1.6 1.8-1.3 4.6.5 6.1 1.8 1.6 4.6 1.3 6.1-.5.1 0 .1-.1.2-.1 0 0 1.8-2.3 4.6-5.4.7-.8 1.5-1.7 2.3-2.6.8-.9 1.7-1.9 2.6-2.9 1.6-1.7 3.3-3.6 5-5.4-1.2-1.3-2.4-2.5-3.6-3.7l-.7-.8z"/><path fill="#404040" d="M47.6 41.3s-2.3-1.8-5.4-4.6c-.8-.7-1.7-1.5-2.6-2.3-.9-.8-1.9-1.7-2.9-2.6-2-1.8-4.1-3.8-6.1-5.7s-4.1-4-6-5.9l-2-2c1.4-3.7 0-8.9-3.8-12.7C14 .7 7.1-.2 3.5 3.4S.9 13.8 5.7 18.6c3.8 3.8 9 5.2 12.7 3.8l2 2c1.9 1.9 3.9 3.9 5.9 6s3.9 4.1 5.7 6.1c.9 1 1.8 1.9 2.6 2.9.8.9 1.6 1.8 2.3 2.6 2.8 3.3 4.6 5.4 4.6 5.4.2.3.4.5.7.7 1.9 1.4 4.7 1.1 6.1-.9 1.4-1.8 1.1-4.4-.7-5.9z"/></g></switch></svg>