<svg xmlns="http://www.w3.org/2000/svg" viewBox="0 0 50.4 50.4"><switch><g fill="#fa6400"><path d="M44.2 49.7h-38c-3 0-5.5-2.5-5.4-5.5 0-1.3.5-2.5 1.3-3.5l15.3-20.5V12c-2.7-.5-4.6-2.8-4.6-5.5 0-2.8 2.2-5.7 6.5-5.7h11.6c3.3-.1 6.1 2.5 6.2 5.8v.1c0 1.5-.6 2.9-1.6 3.9-.7.7-1.6 1.2-2.5 1.4v8l15.5 20.6c2 2.3 1.7 5.7-.6 7.7-1.2.8-2.4 1.3-3.7 1.4zm-25-44.9c-1.8 0-2.5.9-2.5 1.7s.6 1.7 2.5 1.7h2.1v13.3L5.1 43.2c-.5.6-.5 1.5.1 2.1.3.2.6.4 1 .4h38c.8 0 1.5-.7 1.4-1.5 0-.4-.1-.7-.4-1l-.1-.1-16.3-21.8V8.2h2c.6.1 1.3-.1 1.8-.5.3-.3.4-.6.4-1 0-1.1-1-2-2.1-1.9H19.2z"/><path d="M10.8 40l6.1-8.1 16.7.1 5.8 8c1.1 1.4.6 2.8-1 2.8H12.1c-1.6.1-2.4-1.3-1.3-2.8z"/></g></switch></svg>