<svg xmlns="http://www.w3.org/2000/svg" viewBox="0 0 50.4 50.4"><switch><g><path fill="#404040" d="M9.2 49.2c-2.1.1-4.1-.7-5.6-2.1-5.9-6 1.9-20.6 12.4-31.2C24.8 7 34.7 1.2 41.2 1.2c2.1-.1 4.1.7 5.6 2.1 5.9 6-1.9 20.6-12.4 31.2-8.7 8.9-18.6 14.7-25.2 14.7zm32-44c-4.5 0-13.2 4.2-22.3 13.5C8.1 29.6 3.5 41.2 6.5 44.3c.7.6 1.7 1 2.7.9 4.5 0 13.2-4.2 22.3-13.5C42.3 20.8 47 9.2 44 6.2c-.8-.7-1.8-1-2.8-1z"/><path fill="#404040" d="M41.2 49.2c-6.6 0-16.4-5.8-25.2-14.7C5.6 23.9-2.3 9.3 3.7 3.3c1.5-1.4 3.5-2.2 5.6-2.1 6.6 0 16.4 5.8 25.2 14.7 10.4 10.6 18.3 25.2 12.4 31.2-1.6 1.4-3.6 2.2-5.7 2.1zm-32-44c-1-.1-2 .2-2.7.9-3 3.1 1.6 14.7 12.4 25.6C28 41 36.7 45.2 41.2 45.2c1 .1 2-.2 2.7-.9 3-3.1-1.6-14.7-12.4-25.6C22.4 9.4 13.8 5.2 9.2 5.2z"/><circle cx="25.2" cy="25.2" r="6" fill="#fa6400"/></g></switch></svg>