<svg xmlns="http://www.w3.org/2000/svg" viewBox="0 0 50.4 50.4"><switch><g><path fill="#fa6400" d="M23.2 16.5v4.7h4v-4.7c1.1-.9 2-2.6 2-5.3 0-4-4-10-4-10s-4 6-4 10c0 2.6.8 4.4 2 5.3z"/><path fill="#404040" d="M44.6 36.6c-.8-1-1-1.2-1.4-1.2-.4 0-.6.2-1.4 1.2-.8 1-2.1 2.8-4.6 2.8-2.5 0-3.8-1.7-4.6-2.8-.8-1.1-1-1.2-1.4-1.2s-.6.2-1.4 1.2c-.8 1-2.1 2.8-4.6 2.8-2.5 0-3.8-1.7-4.6-2.8s-1-1.2-1.4-1.2-.6.2-1.4 1.2c-.8 1-2.1 2.8-4.6 2.8-2.5 0-3.8-1.7-4.6-2.8s-1-1.2-1.4-1.2-.6.2-1.4 1.2c-.7 1-1.6 1.8-2.6 2.4v10.2h44V39c-1.1-.5-2-1.3-2.6-2.4z"/><path fill="#404040" d="M45.2 23.2h-40c-2.2 0-4 1.8-4 4v7c-.1 1 .6 1.9 1.6 2h.1c.3-.3.6-.7.9-1.1.8-1 1.7-2.2 3.4-2.2s2.6 1.2 3.4 2.2c.8 1 1.4 1.8 2.6 1.8 1.3 0 1.9-.8 2.6-1.8.7-1 1.7-2.2 3.4-2.2s2.6 1.2 3.4 2.2c.8 1 1.4 1.8 2.6 1.8 1.3 0 1.9-.8 2.6-1.8.7-1 1.7-2.2 3.4-2.2s2.6 1.2 3.4 2.2c.8 1 1.4 1.8 2.6 1.8 1.3 0 1.9-.8 2.6-1.8.7-1 1.7-2.2 3.4-2.2s2.6 1.2 3.4 2.2c.3.4.6.7.9 1.1 1 0 1.8-.8 1.8-1.8v-7.2c-.1-2.2-1.9-4-4.1-4z"/></g></switch></svg>