<svg xmlns="http://www.w3.org/2000/svg" viewBox="0 0 50.4 50.4"><switch><g fill="#fa6400"><path d="M3.4 44.8H47c.8 0 1.5.7 1.5 1.5v1.5c0 .8-.7 1.5-1.5 1.5H3.4c-.8 0-1.5-.7-1.5-1.5v-1.5c0-.9.7-1.5 1.5-1.5zM11.6 21.4h-1.5c-.8 0-1.5.7-1.5 1.5v14.3H6.8c-.8 0-1.5.7-1.5 1.5v1.5c0 .8.7 1.5 1.5 1.5h36.8c.8 0 1.5-.7 1.5-1.5v-1.5c0-.8-.7-1.5-1.5-1.5h-1.9V22.9c0-.8-.7-1.5-1.5-1.5h-1.5c-.8 0-1.5.7-1.5 1.5v14.3h-5.1V22.9c0-.8-.7-1.5-1.5-1.5h-1.5c-.8 0-1.5.7-1.5 1.5v14.3h-5.1V22.9c0-.8-.7-1.5-1.5-1.5h-1.5c-.8 0-1.5.7-1.5 1.5v14.3h-5.1V22.9c.2-.8-.5-1.5-1.3-1.5zM47.8 16L25.9 1.4c-.4-.3-.9-.3-1.3 0L2.6 16c-.5.3-.7 1.1-.3 1.6.2.4.6.5 1.1.5h43.9c.6 0 1.2-.5 1.2-1.1-.1-.4-.3-.7-.7-1zm-22.6-1.2c-2.1 0-3.8-1.7-3.8-3.8s1.7-3.8 3.8-3.8S29 9 29 11.1s-1.7 3.7-3.8 3.7z"/></g></switch></svg>