<svg xmlns="http://www.w3.org/2000/svg" viewBox="0 0 50.4 50.4"><switch><g><path fill="#fa6400" d="M18.7 1.2h30.6v4.4H18.7z"/><path fill="#404040" d="M18.7 7.7V23H1.2v26.2h28.4v-8.7h8.7v8.7h10.9V7.7H18.7zm-11 35H5.6v-2.2h2.2v2.2zm0-4.4H5.6v-2.2h2.2v2.2zm0-4.4H5.6v-2.2h2.2v2.2zm0-4.3H5.6v-2.2h2.2v2.2zm4.4 13.1H9.9v-2.2h2.2v2.2zm0-4.4H9.9v-2.2h2.2v2.2zm0-4.4H9.9v-2.2h2.2v2.2zm0-4.3H9.9v-2.2h2.2v2.2zm4.4 13.1h-2.2v-2.2h2.2v2.2zm0-4.4h-2.2v-2.2h2.2v2.2zm0-4.4h-2.2v-2.2h2.2v2.2zm0-4.3h-2.2v-2.2h2.2v2.2zm10.9 4.3H23v-4.4h4.4v4.4zm0-8.7H23v-4.4h4.4v4.4zm0-8.7H23v-4.4h4.4v4.4zm8.7 17.4h-4.4v-4.4h4.4v4.4zm0-8.7h-4.4v-4.4h4.4v4.4zm0-8.7h-4.4v-4.4h4.4v4.4zm8.7 17.4h-4.4v-4.4h4.4v4.4zm0-8.7h-4.4v-4.4h4.4v4.4zm0-8.7h-4.4v-4.4h4.4v4.4z"/></g></switch></svg>