<svg xmlns="http://www.w3.org/2000/svg" viewBox="0 0 50.4 50.4"><switch><g><path fill="#404040" d="M26.3 36.9h-6.7c-1.1 0-1.9-.8-2-1.9 0 0-.1-2-.3-3.7 0-1.4-.7-2.7-1.7-3.6-2.1-2-5.8-6.2-5.8-12.1 0-8.1 6.8-14.4 15.4-14.4v4c-6.4 0-11.4 4.6-11.4 10.4 0 4.5 3.1 7.9 4.5 9.2 1.8 1.6 2.9 3.8 3 6.2.1.7.1 1.4.2 2h4.9l-.1 3.9z"/><path fill="#404040" d="M30.8 36.9h-5.6v-4H29c0-.6.1-1.3.2-2 .1-2.4 1.2-4.6 3-6.2 1.3-1.2 4.5-4.6 4.5-9.2 0-5.8-5-10.4-11.4-10.4v-4c8.7 0 15.4 6.3 15.4 14.4 0 5.9-3.6 10.1-5.8 12.1a4.6 4.6 0 0 0-1.7 3.6c-.2 1.8-.3 3.7-.3 3.7-.2 1.2-1 2-2.1 2z"/><path fill="#fa6400" d="M27.9 26.1c-.8 0-1.5-.7-1.5-1.5 0-.2 0-.3.1-.5l2.4-6.8h-7.1l2.3 6.8c.3.8-.1 1.6-.9 1.9-.8.3-1.6-.1-1.9-.9l-3-8.8c-.3-.8.1-1.6.9-1.9.2-.1.3-.1.5-.1H31c.8 0 1.5.7 1.5 1.5 0 .2 0 .3-.1.5l-3.1 8.8c-.2.7-.8 1-1.4 1z"/><path fill="#404040" d="M20.1 45.3c-.8 0-1.5-.7-1.5-1.5 0-.7.4-1.2 1-1.4L30.2 39c.8-.3 1.6.2 1.9 1 .3.8-.2 1.6-1 1.9l-10.6 3.4c-.1-.1-.2 0-.4 0zM22.7 49.2c-.8 0-1.5-.7-1.5-1.5 0-.7.4-1.2 1-1.4l6-1.9c.8-.3 1.6.1 1.9.9.3.8-.1 1.6-.9 1.9h-.1l-6 1.9c-.1.1-.3.1-.4.1zM19.7 40.5c-.8 0-1.5-.7-1.5-1.5 0-.6.4-1.2 1-1.4l11-3.4c.8-.2 1.6.2 1.9 1 .2.8-.2 1.6-1 1.9l-11 3.4c-.1-.1-.2 0-.4 0z"/></g></switch></svg>