<svg xmlns="http://www.w3.org/2000/svg" viewBox="0 0 50.4 50.4"><switch><g fill="#fa6400"><path d="M29.2 10.2h8v8h-8zM19.2 14.2h8v4h-8zM39.2 14.2h4v4h-4zM1.2 38.2c1.6 0 2.4 1.1 3.2 2.1.8 1 1.4 1.9 2.8 1.9s2.1-.9 2.8-1.9c.7-1 1.6-2.1 3.2-2.1s2.4 1.1 3.2 2.1c.8 1 1.4 1.9 2.8 1.9s2.1-.9 2.8-1.9c.7-1 1.6-2.1 3.2-2.1s2.4 1.1 3.2 2.1c.8 1 1.4 1.9 2.8 1.9s2.1-.9 2.8-1.9c.7-1 1.6-2.1 3.2-2.1s2.4 1.1 3.2 2.1c.8 1 1.4 1.9 2.8 1.9s2.1-.9 2.8-1.9c.7-1 1.6-2.1 3.2-2.1 0-1.1-.9-2-2-2h-44c-1.1 0-2 .9-2 2zM13.2 8.2h-4c-1.1 0-2 .9-2 2h8c0-1.1-.9-2-2-2z"/><path d="M17.2 20.2v-8h-10v8h-6l5 14h37l6-14h-32zm-6-4h-2v-2h2v2zm4 0h-2v-2h2v2zm6 8h-2v-2h2v2zm4 0h-2v-2h2v2zm4 0h-2v-2h2v2zm4 0h-2v-2h2v2z"/></g></switch></svg>