<svg xmlns="http://www.w3.org/2000/svg" viewBox="0 0 50.4 50.4"><switch><g fill="#fa6400"><path d="M2.2 26.8c-1.1 0-2-.9-2-2 0-.6.3-1.1.7-1.5l23-20c.8-.7 1.9-.7 2.6 0l22.8 19.8c.9.6 1.1 1.9.4 2.8s-1.9 1.1-2.8.4c-.1-.1-.2-.2-.3-.2L26.5 8.5c-.7-.6-1.8-.6-2.6 0L3.6 26.2c-.4.4-.9.6-1.4.6zM16 7c-.7-1.8-2.6-2.8-4.5-2.4-1.8.4-3.2 2.1-3.2 4v5L16 7z"/><circle cx="25.3" cy="35.9" r="4"/><path d="M40.5 24.7L26.6 12.6c-.7-.6-1.8-.6-2.6 0L9.8 24.8c-.5.4-.8.9-.8 1.5v17.6c0 2.2 2.1 3.7 4.3 3.7h24c1.9.1 3.6-1.3 3.7-3.3V26.2c0-.6-.1-1.1-.5-1.5zM25.3 42.9c-3.9 0-7-3.1-7-7s3.1-7 7-7 7 3.1 7 7-3.1 7-7 7z"/></g></switch></svg>