<svg xmlns="http://www.w3.org/2000/svg" viewBox="0 0 50.4 50.4"><switch><g><path fill="#404040" d="M3.3 18.1h43.9c.6 0 1.2-.5 1.2-1.1 0-.4-.2-.8-.5-1l-22-14.6c-.4-.3-.9-.3-1.3 0L2.6 16c-.5.3-.7 1.1-.3 1.6.2.4.6.6 1 .5zM3.4 44.8H47c.8 0 1.5.7 1.5 1.5v1.5c0 .8-.7 1.5-1.5 1.5H3.4c-.8 0-1.5-.7-1.5-1.5v-1.5c0-.9.7-1.5 1.5-1.5zM11.6 21.4h-1.5c-.8 0-1.5.7-1.5 1.5v14.3H6.8c-.8 0-1.5.7-1.5 1.5v1.5c0 .8.7 1.5 1.5 1.5h36.8c.8 0 1.5-.7 1.5-1.5v-1.5c0-.8-.7-1.5-1.5-1.5h-1.9V22.9c0-.8-.7-1.5-1.5-1.5h-1.5c-.8 0-1.5.7-1.5 1.5v14.3h-5.1V22.9c0-.8-.7-1.5-1.5-1.5h-1.5c-.8 0-1.5.7-1.5 1.5v14.3h-5.1V22.9c0-.8-.7-1.5-1.5-1.5h-1.5c-.8 0-1.5.7-1.5 1.5v14.3h-5.1V22.9c.2-.8-.5-1.5-1.3-1.5z"/><circle cx="25.2" cy="11.1" r="3.8" fill="#fa6400"/></g></switch></svg>