<svg xmlns="http://www.w3.org/2000/svg" viewBox="0 0 50.4 50.4"><switch><g><path fill="#404040" d="M5.1 37.3H1.2V37 24.5c-.1-2.3 1.2-4.3 3.3-5.3l.9-.3.3-.3c.8-2 1.6-4 2.3-6.1.5-1.4 1-2.8 1.7-4.2.7-1.8 2.4-3 4.4-3.1.4 0 .8-.1 1.2-.1h20.2c1.1 0 2.3.3 3.3.9 1 .6 1.7 1.6 2.1 2.7 1.3 3.3 2.6 6.6 3.8 9.9.1.2.3.4.5.4 1.9.5 3.4 2.1 3.8 4 .1.5.2 1.1.2 1.6v12.8h-3.9v4.4c0 2-1.6 3.5-3.5 3.6h-.2c-1.8 0-3.3-1.4-3.4-3.1-.1-1.3-.1-2.6-.1-3.9v-.9H12.2v4.4c0 2-1.6 3.5-3.6 3.5-1.7 0-3.2-1.3-3.5-3 0-.3-.1-.7-.1-1 .1-1.5.1-2.8.1-4.1zm35.7-18.5v-.1c-1-2.7-2-5.5-3.1-8.2-.3-1.1-1.3-1.8-2.4-1.6H15.1c-.6-.1-1.3.1-1.7.6-.3.3-.5.7-.7 1.1-.8 2-1.5 3.9-2.2 5.9l-.9 2.4h31.2z"/><path fill="#fa6400" d="M41.6 29.5c1.9 0 3.5-1.5 3.5-3.4s-1.5-3.5-3.4-3.5-3.5 1.5-3.5 3.4v.1c.1 1.9 1.6 3.4 3.4 3.4zM12.1 26.1c0-1.8-1.6-3.3-3.4-3.3-1.8 0-3.3 1.6-3.3 3.4 0 1.8 1.5 3.3 3.4 3.3 1.8 0 3.3-1.5 3.3-3.4z"/></g></switch></svg>