<svg xmlns="http://www.w3.org/2000/svg" viewBox="0 0 50.4 50.4"><switch><g><path fill="#404040" d="M36.4 2h-9.6v4.8h16zM18.3 2H8.7L2.3 6.8h16zM22.5 34.8c0-2.3 1.4-4.4 3.5-5.3V27c0-6.3 5.2-11.4 11.5-11.4 2.3 0 4.6.7 6.5 2.1l-.1-7.6H26.8v6.5h-8.5v-6.5H1.2V40h21.3v-5.2zM14 36.7H8c-1.2 0-2.1-1-2.1-2.1 0-1.2 1-2.1 2.1-2.1h6c1.2 0 2.1 1 2.1 2.1s-1 2.1-2.1 2.1zm2.1-7.5H8c-1.2 0-2.1-1-2.1-2.1 0-1.2 1-2.1 2.1-2.1h8.2c1.2 0 2.1 1 2.1 2.1s-.9 2.1-2.2 2.1z"/><path fill="#fa6400" d="M46.7 32.3h-1V27c0-4.6-3.7-8.3-8.3-8.3-4.6 0-8.3 3.7-8.3 8.3v5.2h-1c-1.4 0-2.5 1.1-2.5 2.5v11c0 1.4 1.1 2.5 2.5 2.5h18.5c1.4 0 2.5-1.1 2.5-2.5v-11c.1-1.3-1-2.4-2.4-2.4zM33.4 27c0-2.2 1.8-4 4-4s4 1.8 4 4v5.2h-8V27z"/></g></switch></svg>