<svg xmlns="http://www.w3.org/2000/svg" viewBox="0 0 50.4 50.4"><switch><g><g fill="#fa6400"><path d="M16.8 35.1v6.8c0 .7.4 1.4 1 1.7L22 46c.2 1.5 1 3.1 3.1 3.1s2.9-1.6 3.1-3.1l4.2-2.4c.6-.4 1-1 1-1.7v-6.8c1.3-1.2 2.1-2.9 2.1-4.7H14.7c0 1.8.8 3.5 2.1 4.7zM12.4 9c.2 0 .3 0 .4-.1L30 4.8c1-.3 1.5-1.3 1.2-2.3-.2-.9-1.1-1.5-2-1.3L11.9 5.4c-1 .2-1.6 1.2-1.3 2.2.2.8.9 1.4 1.8 1.4zM12.4 16.6c.2 0 .3 0 .4-.1l25.6-6.3c1-.2 1.6-1.2 1.4-2.1-.2-1-1.2-1.6-2.1-1.4h-.2L11.9 13c-1 .2-1.6 1.2-1.3 2.2.2.8.9 1.4 1.8 1.4zM37.5 13.8l-25.6 6.5c-1 .2-1.6 1.2-1.3 2.2.2.6.6 1.1 1.2 1.3l7.6 2.7v1.8h3.7v-3.1c0-.8-.5-1.5-1.2-1.7l-3-1.1 19.5-5c1-.2 1.6-1.2 1.4-2.1-.2-1-1.2-1.6-2.1-1.4-.1-.2-.1-.2-.2-.1z"/><path d="M33.5 22.1l-4.8 1.3c-.9.2-1.5.9-1.5 1.8v3.1h3.7v-1.6l3.3-1c1-.2 1.7-1.1 1.5-2.1-.2-1.1-1.1-1.7-2.2-1.5.1-.1 0-.1 0 0z"/></g></g></switch></svg>