<svg xmlns="http://www.w3.org/2000/svg" viewBox="0 0 50.4 50.4"><switch><g><path fill="#404040" d="M25.2 6.5c1.2 0 2.2 1 2.2 2.2v32.8c0 1.2-1 2.2-2.2 2.2-1.2 0-2.2-1-2.2-2.2V8.7c0-1.2 1-2.2 2.2-2.2z"/><path fill="#404040" d="M22.2 39.5h5.9c2.4 0 4.3 2 4.3 4.4H17.9c0-2.4 1.9-4.4 4.3-4.4zM11 10.9h28.4c1.2 0 2.2 1 2.2 2.2 0 1.2-1 2.2-2.2 2.2H11c-1.2 0-2.2-1-2.2-2.2 0-1.3 1-2.2 2.2-2.2z"/><path fill="#404040" d="M11.4 14.6L4.2 26.8c-.4.7-1.4 1-2.1.6-.7-.4-1-1.4-.6-2.1l7.1-12.2c.4-.7 1.4-1 2.1-.6.9.5 1.1 1.4.7 2.1z"/><path fill="#404040" d="M16.4 26.8L9.2 14.3c-.4-.7-.2-1.7.6-2.1.7-.4 1.7-.2 2.1.6l7.2 12.5c.4.7.2 1.7-.6 2.1-.7.4-1.6.2-2.1-.6zM41.2 14.6L34 26.8c-.4.7-1.4 1-2.1.6-.7-.4-1-1.4-.6-2.1l7.1-12.2c.4-.7 1.4-1 2.1-.6.8.5 1.1 1.4.7 2.1z"/><path fill="#404040" d="M46.2 26.8L39 14.3c-.4-.7-.2-1.7.6-2.1.7-.4 1.7-.2 2.1.6l7.2 12.5c.4.7.2 1.7-.6 2.1-.7.4-1.7.2-2.1-.6z"/><path fill="#fa6400" d="M1.2 25.2h18.2c0 3.8-3.1 6.9-6.9 6.9H8.1c-3.8 0-6.9-3.1-6.9-6.9zM31 25.2h18.2c0 3.8-3.1 6.9-6.9 6.9h-4.4c-3.8 0-6.9-3.1-6.9-6.9z"/></g></switch></svg>