<svg xmlns="http://www.w3.org/2000/svg" viewBox="0 0 50.4 50.4"><switch><g><g fill="#fa6400"><path d="M25.2 9.8c.8 0 1.4-.6 1.4-1.4V2.6c0-.8-.6-1.4-1.4-1.4-.8 0-1.4.6-1.4 1.4v5.8c0 .8.6 1.4 1.4 1.4M39.6 24.2c0 .8.6 1.4 1.4 1.4h5.8c.8 0 1.4-.6 1.4-1.4 0-.8-.6-1.4-1.4-1.4H41c-.7 0-1.4.6-1.4 1.4M3.6 25.7h5.8c.8 0 1.4-.6 1.4-1.4s-.6-1.4-1.4-1.4H3.6c-.8 0-1.4.6-1.4 1.4s.6 1.4 1.4 1.4M35.4 34.4c-.6.6-.6 1.5 0 2l4.1 4.1c.6.6 1.5.6 2 0 .6-.6.6-1.5 0-2l-4.1-4.1c-.5-.5-1.4-.5-2 0M13 14.1c.6.6 1.5.6 2 0 .6-.6.6-1.5 0-2L10.9 8c-.6-.6-1.5-.6-2 0-.6.6-.6 1.5 0 2l4.1 4.1zM37.4 14.1l4.1-4.1c.6-.6.6-1.5 0-2-.6-.6-1.5-.6-2 0l-4.1 4c-.6.6-.6 1.5 0 2 .6.6 1.5.6 2 .1M13 34.4l-4.1 4.1c-.6.6-.6 1.5 0 2 .6.6 1.5.6 2 0l4.1-4.1c.6-.6.6-1.5 0-2-.5-.5-1.5-.5-2 0"/><path d="M30.5 31.7c-1.9 1.9-2.3 3.8-2.4 5.3 0 .4-.1.5-.1 1.5h-5c0-1-.1-1-.1-1.5-.2-1.5-.5-3.4-2.4-5.3-1-1-3.3-3.7-3.3-7.2 0-4.6 3.6-8.1 8.4-8.1 4.8 0 8.4 3.5 8.4 8.1-.2 3.5-2.5 6.2-3.5 7.2m-4.8-19.2c-6.8 0-12.4 5.3-12.4 12 0 4.9 2.8 8.3 4.5 10 .9.9 1.1 1.5 1.2 2.8.1 1.4.2 3 .2 3 .1.9.7 1.6 1.5 1.8-.7.3-1.1 1.1-.8 1.8.2.5.6.8 1 1-.6.3-.9 1.1-.7 1.8.2.6.8 1 1.4 1 .2 0 .3 0 .5-.1V48.3c0 .1.1.3.2.4l.3.3c.1.1.2.1.4.2 0 0 0 .1.1.1s.2.1.4.1h.3v-.1.1h-.2l4.6-.2c.8 0 1.4-.7 1.4-1.5v-.2l.2-.1c.8-.2 1.2-1.1.9-1.9-.1-.2-.2-.4-.4-.6.7-.3 1.1-1.1.9-1.8-.1-.4-.4-.7-.8-.9.8-.2 1.3-.9 1.4-1.7 0 0 .1-1.6.2-3 .1-1.2.3-1.9 1.2-2.8 1.7-1.6 4.6-5.1 4.6-10 0-6.9-5.3-12.2-12.1-12.2"/></g></g></switch></svg>