<svg xmlns="http://www.w3.org/2000/svg" viewBox="0 0 50.4 50.4"><switch><g><path fill="#fa6400" d="M1.8 6.8h27v23.1h-27z"/><path fill="#404040" d="M1.2 34.9c0 1.1.9 1.9 1.9 1.9h2c.4-1.6 1.5-3 3-3.8H3.2c-1.1-.1-2 .8-2 1.9zM11.7 33.9c-2.7 0-4.8 2.2-4.8 4.8s2.2 4.8 4.8 4.8 4.8-2.2 4.8-4.8-2.2-4.8-4.8-4.8zm0 7c-1.2 0-2.2-1-2.2-2.2 0-1.2 1-2.2 2.2-2.2 1.2 0 2.2 1 2.2 2.2-.1 1.3-1 2.2-2.2 2.2zM41.1 13.7h-9.2V33H15.4c1.4.9 2.4 2.2 2.7 3.9h16c1.1-3.6 4.8-5.6 8.4-4.5 2.2.6 3.9 2.4 4.5 4.5h2.1V26.7l-8-13zm-5.9 13V17h4.3l6.2 9.7H35.2z"/><path fill="#404040" d="M40.6 33.9c-2.7 0-4.8 2.2-4.8 4.8s2.2 4.8 4.8 4.8c2.7 0 4.8-2.2 4.8-4.8s-2.2-4.8-4.8-4.8zm0 7c-1.2 0-2.2-1-2.2-2.2 0-1.2 1-2.2 2.2-2.2 1.2 0 2.2 1 2.2 2.2-.1 1.3-1 2.2-2.2 2.2z"/></g></switch></svg>