<svg xmlns="http://www.w3.org/2000/svg" viewBox="0 0 50.4 50.4"><switch><g><path fill="#fa6400" d="M22.2 43.7h26.2v5.4H22.2zM26.9 39.9c-1.4 0-2.5 1.1-2.5 2.5v1.3h21.8v-1.3c0-1.4-1.1-2.5-2.5-2.5H26.9z"/><path fill="#404040" d="M32.6 25.2l7.1-7.1L28.4 6.8l-7.1 7.1 3.7 3.7L2.8 39.8c-1 1-1 2.6 0 3.7 1 1 2.6 1 3.7 0l22.2-22.2 3.9 3.9z"/><path fill="#404040" d="M18.8 15.3c.8 0 1.7-.3 2.3-.9l7.8-7.8c1.2-1.3 1.1-3.3-.2-4.5-1.2-1.1-3.1-1.1-4.3 0l-7.8 7.8c-1.2 1.3-1.2 3.3 0 4.5.6.6 1.4.9 2.2.9zM31.8 29.7c1.2 1.2 3.3 1.2 4.5 0l7.8-7.8c1.2-1.3 1.1-3.3-.2-4.5-1.2-1.1-3.1-1.1-4.3 0l-7.8 7.8c-1.2 1.2-1.2 3.2 0 4.5z"/></g></switch></svg>