<svg xmlns="http://www.w3.org/2000/svg" viewBox="0 0 50.4 50.4"><switch><g><path fill="#fa6400" d="M27.3 26.7h20v21.9h-20zM3.2 26.7h20v21.9h-20z"/><g fill="#fa6400"><path d="M11.7 20.3H5.9l7.5-7.2H1.2v11.6h10.5zM12.9 24.7h10.2v-9.8z"/></g><g fill="#fa6400"><path d="M27.3 14.9v9.8h10.3zM37.1 13.1l7.4 7.2h-5.8v4.4h10.5V13.1z"/></g><path fill="#fff" d="M22.1 14.2h6v34.4h-6z"/><path fill="#fff" d="M37 13h4.1c1.4 0 2.6-1.2 2.6-2.6 0-.3-.1-.7-.2-1l-2.6-6.5c-.4-.9-1.4-1.4-2.4-1-.1.1-.3.1-.4.2L27.7 9.6c-.4-.6-1-.9-1.7-.9h-1.5c-.7 0-1.3.3-1.7.9L12.4 2.1c-.8-.6-2-.4-2.6.4-.1.1-.1.3-.2.4L7 9.4c-.5 1.3.1 2.9 1.5 3.4.3.1.6.2 1 .2h4.1L6 20.4h5.8v5.5l11.7-11.2c.3.2.7.3 1.1.3H26c.4 0 .8-.1 1.1-.3l11.7 11.2v-5.5h5.8L37 13z"/><path fill="#fa6400" d="M34.7 12H38c1.2 0 2.1-.9 2.1-2.1 0-.3-.1-.5-.2-.8l-2.1-5.2c-.3-.8-1.2-1.1-1.9-.8-.1 0-.2.1-.3.2l-8.4 6.1c-.3-.5-.8-.7-1.4-.7h-1.2c-.6 0-1.1.3-1.4.7l-8.4-6.1c-.7-.5-1.6-.3-2.1.3-.1.1-.1.2-.2.3l-2.1 5.2c-.4 1.1.1 2.3 1.2 2.7.2.1.5.2.8.2h3.3l-6.1 5.9h4.7v4.4l9.5-9c.3.2.6.3.9.3h1.1c.3 0 .6-.1.9-.2l9.4 9V18h4.7l-6.1-6z"/></g></switch></svg>