<svg xmlns="http://www.w3.org/2000/svg" viewBox="0 0 50.4 50.4"><switch><g><path fill="#404040" d="M27.3 13.1h21.9v11.6H27.3zM27.3 26.7h20v21.9h-20zM1.2 13.1h21.9v11.6H1.2zM3.2 26.7h20v21.9h-20z"/><path fill="#fa6400" d="M37 13h4.1c1.4 0 2.6-1.2 2.6-2.6 0-.3-.1-.7-.2-1l-2.6-6.5c-.4-.9-1.4-1.4-2.4-1-.1.1-.3.1-.4.2L27.7 9.6c-.4-.6-1-.9-1.7-.9h-1.5c-.7 0-1.3.3-1.7.9L12.4 2.1c-.8-.6-2-.4-2.6.4-.1.1-.1.3-.2.4L7 9.4c-.5 1.3.1 2.9 1.5 3.4.3.1.6.2 1 .2h4.1L6 20.4h5.8v5.5l11.7-11.2c.3.2.7.3 1.1.3H26c.4 0 .8-.1 1.1-.3l11.7 11.2v-5.5h5.8L37 13z"/><path fill="#fa6400" d="M22.1 14.2h6v34.4h-6z"/></g></switch></svg>