<svg xmlns="http://www.w3.org/2000/svg" viewBox="0 0 50.4 50.4"><switch><g><path fill="#404040" d="M44.7 45.2h-1.9v-.5c0-6.6-4-12.8-10.4-16.2-1.7-.9-2.6-1.8-2.7-2.5 0-.7 1.1-1.9 3.1-3.1C39.3 19 43 12.7 42.8 6.1v-.9h1.9c1.1 0 2-.9 2-2s-.9-2-2-2H5.8c-1.1 0-2 .9-2 2s.9 2 2 2h1.8v.9c-.2 6.7 3.5 12.9 10 16.8 1.9 1.2 3 2.4 3 3.2s-1 1.6-2.7 2.5C11.5 32 7.5 38 7.5 44.7v.5H5.7c-1.1 0-2 .9-2 2s.9 2 2 2h38.9c1.1 0 2-.9 2-2s-.8-2-1.9-2zm-34.2-.5c0-5.5 3.5-10.7 8.8-13.6 2.8-1.5 4.2-3.1 4.2-5s-1.4-3.9-4.5-5.7c-5.6-3.3-8.7-8.6-8.6-14.2v-.9h29.3v1c.2 5.6-3 10.8-8.6 14.1-3.1 1.8-4.6 3.8-4.5 5.8.1 2 1.4 3.6 4.2 5.1 5.4 2.9 8.8 8 8.8 13.5v.5H10.5v-.6z"/><path fill="#fa6400" d="M37.2 43.2H13.3s4.3-6.8 12.1-6.8 11.8 6.8 11.8 6.8zM32 16.7c-2.3-.3-4.7-.4-7.1-.4-2.4 0-4.7.1-7.1.4 0 1.2 5.8 3.9 7.1 5.5.1.1.4.2.5 0 1.2-1.6 6.6-4.4 6.6-5.5z"/></g></switch></svg>