<svg xmlns="http://www.w3.org/2000/svg" viewBox="0 0 50.4 50.4"><switch><g><g fill="#fa6400"><path d="M25.2 11.2c-13.3 0-24 14-24 14s10.8 14 24 14 24-14 24-14-10.7-14-24-14zm0 24.2c-8 0-15.2-6.6-18.7-10.2C10.4 21.1 17.7 15 25.2 15c8 0 15.2 6.6 18.7 10.2-3.9 4.1-11.2 10.2-18.7 10.2z"/><path d="M25.2 15.2c5.5 0 10 4.5 10 10s-4.5 10-10 10-10-4.5-10-10 4.5-10 10-10m0-4c-7.7 0-14 6.3-14 14s6.3 14 14 14 14-6.3 14-14-6.3-14-14-14z"/><circle cx="28.2" cy="22.2" r="2"/><path d="M28.2 27.2c-2.8 0-5-2.2-5-5 0-1.6.7-3.1 2-4-3.9 0-7 3.1-7 7s3.1 7 7 7 7-3.1 7-7c-.9 1.3-2.4 2-4 2z"/></g></g></switch></svg>