<svg xmlns="http://www.w3.org/2000/svg" viewBox="0 0 50.4 50.4"><switch><g><g fill="#fa6400"><path d="M25.2 19.6c-1.1 0-2.1.4-2.8 1.1 0 0 0 .1-.1.1l-.1.1c-.7.7-1.1 1.7-1.1 2.8 0 1.1.5 2.1 1.2 2.9.7.7 1.8 1.2 2.9 1.2 1.1 0 2.1-.4 2.8-1.1l.1-.1c.7-.7 1.2-1.7 1.2-2.8 0-2.4-1.8-4.2-4.1-4.2zM25.2 1.2z"/><path d="M40.6 5.8c-5.6 0-9-1.7-13.5-4.1-.6-.3-1.2-.5-1.9-.5s-1.3.2-1.9.5c-4.5 2.5-7.9 4.1-13.5 4.1-2.2 0-4 1.8-4 4v8.6c0 8.5 2.2 15.8 6.7 21.7 2.9 3.9 6.8 7 11.3 8.9.9.4 2 .4 2.9 0 4.5-2 8.4-5 11.3-8.9 4.4-5.8 6.6-13.1 6.6-21.7V9.8c0-2.2-1.8-4-4-4zm-5.1 20.1h-2.4c-.2.7-.5 1.3-.8 1.9l1.6 1.6c.8.8.8 2.1 0 2.9-.2.2-.4.4-.7.5-.7.3-1.6.2-2.3-.4l-1.6-1.6c-.6.4-1.2.6-1.9.8V34c0 1.1-.9 2.1-2.1 2.1s-2.1-.9-2.1-2.1v-2.3c-.8-.2-1.6-.5-2.3-.9l-1.6 1.6c-.8.8-2.1.8-2.9 0-.8-.8-.8-2.1 0-2.9l1.6-1.6c-.4-.6-.6-1.3-.8-2H15c-1.1 0-2.1-.9-2.1-2.1 0-1.1.9-2.1 2.1-2.1h2.3c.2-.8.5-1.6.9-2.3l-1.6-1.6c-.4-.4-.6-.9-.6-1.5 0-1.1.9-2 2.1-2 .5 0 1.1.2 1.5.6l1.6 1.6c.7-.4 1.5-.7 2.3-.9v-2.3c0-1.1.9-2 2.1-2 1.1 0 2 .9 2 2v2.4c.7.2 1.3.5 1.9.8L31 15c.4-.4.9-.6 1.5-.6.5 0 1.1.2 1.5.6.8.8.8 2.1 0 2.9l-1.6 1.6c.4.7.7 1.5.9 2.3h2.3c1.1 0 2.1.9 2.1 2.1-.2 1.1-1.1 2-2.2 2z"/></g></g></switch></svg>