<svg xmlns="http://www.w3.org/2000/svg" viewBox="0 0 50.4 50.4"><switch><g><g fill="#fa6400"><path d="M14 25.1c-4.1 0-4.1-1-4.1-2.9v-3.8c1.1 0 1.9-.9 1.9-1.9 0-1.1-.9-1.9-1.9-1.9H7.1c-1.1 0-1.9.9-1.9 1.9 0 1.1.9 1.9 1.9 1.9v3.8c0 3.8 1 5.7 6.9 5.7v-2.8zM43.4 14.6h-2.9c-1.1 0-1.9.9-1.9 1.9 0 1.1.9 1.9 1.9 1.9v3.8c0 1.9 0 2.9-4.3 2.9V28c6.2 0 7.2-1.9 7.2-5.7v-3.8c1.1 0 1.9-.9 1.9-1.9 0-1.2-.9-2-1.9-2zM19.5 22.2H31c3.1.1 5.7-2.4 5.7-5.5v-.3c0-8.7-1.9-15.3-5.7-15.3H19.5c-3.8 0-5.7 6.6-5.7 15.3-.1 3.1 2.4 5.7 5.5 5.7 0 .1.1.1.2.1z"/><path d="M27.1 35.6v-3.8c6.7-.3 9.5-2.7 9.5-3.8v-2c.1-1-.6-1.8-1.6-1.9H15.7c-1-.1-1.8.6-1.9 1.6V27.9c0 1.1 2.9 3.5 9.5 3.8v3.8c-7.5.7-10.5 4.4-11.9 7.2l3.7 1.5s1.7-4.9 8.2-4.9V44h3.8v-4.6c5.4-.3 8.3 4.4 8.3 4.4l3.7-1.5c-1.6-2.6-4.5-6-12-6.7z"/><circle cx="25.2" cy="47.3" r="1.9"/><circle cx="12.6" cy="46.3" r="1.9"/><circle cx="37.5" cy="46.3" r="1.9"/><path d="M23.4 21.5h3.3v7.6h-3.3z"/></g></g></switch></svg>