<svg xmlns="http://www.w3.org/2000/svg" viewBox="0 0 50.4 50.4"><switch><g><path fill="#404040" d="M42.8 6.8c-3.5-.4-10.9-1.5-16.4-5.2-.4-.2-.8-.4-1.3-.4-.4 0-.9.1-1.3.4C18.5 5.3 11 6.4 7.6 6.8c-1 .1-1.7 1-1.6 2v9.7c0 24.1 19.2 30.7 19.2 30.7s19.2-6.6 19.2-30.7V8.8c.1-1-.6-1.9-1.6-2zM41 18.7C41 36 30.3 43.2 25.2 45.1 20.1 43.2 9.3 36 9.3 18.7v-8.4c6.7 0 10.8-1.9 15.9-4.6 5 2.6 9.1 4.5 15.9 4.6v8.4z"/><path fill="#fa6400" d="M27.4 9.2L11.8 24.8c.4 2 1.1 4 2 5.9L33 11.5c-2-.6-3.8-1.4-5.6-2.3zM11.1 12.6V20l9.5-9.5c-3 1.3-6.2 2-9.5 2.1zM15.6 34c1.1 1.5 2.3 2.9 3.7 4.1l19.9-19.9v-5.6c-.6 0-1.3-.1-2-.2L15.6 34zM25.2 42.1c7.2-3.4 12.2-10.2 13.6-18L22.3 40.5c1 .6 1.9 1.1 2.9 1.6z"/></g></switch></svg>