<svg xmlns="http://www.w3.org/2000/svg" viewBox="0 0 50.4 50.4"><switch><g><path fill="#404040" d="M3.2 45.2h44v4h-44z"/><path fill="#fa6400" d="M25.2 5.2l20 10.5 2-3-22-11.5-22 11.5 2 3z"/><path fill="#404040" d="M41.2 27.2h-.3l-2.8-9.3c-.1-.4-.5-.7-1-.7h-24c-.4 0-.8.3-.9.7l-2.8 9.3h-.2c-1.1 0-2 .9-2 2v8c0 1.1.9 2 2 2v2c0 1.1.9 2 2 2s2-.9 2-2v-2h24v2c0 1.1.9 2 2 2s2-.9 2-2v-2c1.1 0 2-.9 2-2v-8c0-1.1-.9-2-2-2zm-26.5-7h21l2.1 7H12.6l2.1-7zm-2.5 14.3c-1.2 0-2.2-1-2.2-2.2 0-1.2 1-2.2 2.2-2.2 1.2 0 2.2 1 2.2 2.2 0 1.1-1 2.2-2.2 2.2zm26 0c-1.2 0-2.2-1-2.2-2.2 0-1.2 1-2.2 2.2-2.2 1.2 0 2.2 1 2.2 2.2.1 1.1-1 2.2-2.2 2.2z"/></g></switch></svg>