<svg xmlns="http://www.w3.org/2000/svg" viewBox="0 0 50.4 50.4"><switch><g fill="#fa6400"><path d="M4.6 5.3l5.3 40.6c.1.9.8 1.6 1.7 1.6h27.6c.9 0 1.6-.7 1.7-1.6l5.2-40.6H4.6zM28.8 43H22l-.7-.7 3.8-4 4.1 4.3-.4.4zm9.5-10.2l-.5.6-4.1-4.3 4-4.3 1.4 1.5-.8 6.5zm-9-17l-4 4.3-4.1-4.4 4-4.3 4.1 4.4zm-6.2 6.6l-4.2 4.5-4.1-4.4L19 18l4.1 4.4zm2.2 2.4l4 4.3-4.2 4.5-4-4.3 4.2-4.5zm2.2-2.4l4-4.3 4 4.3-4 4.3-4-4.3zM37.7 20l-4-4.3 4-4.3 2.9 3.1-.3 2.7-2.6 2.8zm-6.2-6.6l-3.4-3.7H35l-3.5 3.7zM19 13.3l-3.4-3.6h6.7L19 13.3zm-2.2 2.4l-4.2 4.5-2.3-2.4-.3-3.2 2.9-3.2 3.9 4.3zm-5.3 10.5l1.2-1.3 4.1 4.4-3.8 4-.6-.7-.9-6.4zm7.4 5.4l4 4.3-3.8 4-4-4.3 3.8-4zm8.4 4.3l4.2-4.5 4.1 4.3-4.2 4.5-4.1-4.3zm13.9-25.5l-.6-.7h.7l-.1.7zm-31-.7l-.7.8-.2-.8h.9zm2.9 28.4l4.6 4.9h-3.9l-.7-4.9zM34 43l-.4-.4 4-4.3L37 43h-3z"/><path d="M4.4 2.9H46c1.8 0 3.2 1.4 3.2 3.2v.2c0 1.8-1.4 3.2-3.2 3.2H4.4c-1.8 0-3.2-1.4-3.2-3.2v-.2c0-1.7 1.4-3.2 3.2-3.2z"/></g></switch></svg>