<svg xmlns="http://www.w3.org/2000/svg" viewBox="0 0 50.4 50.4"><switch><g><path fill="#fa6400" d="M46.5 11.6c-1.4-2.8-4.3-4.6-7.4-4.8h-.4c0-1.1.1-2.3.1-3.5 0-1.2-1-2.2-2.2-2.2H13.8c-1.2 0-2.2 1-2.2 2.2 0 1.2 0 2.4.1 3.6h-.4c-3.2.1-6 1.9-7.4 4.8-1.1 2.3-1 5 .3 7.2 2.2 4.1 7.6 7.4 12.5 9.3 1.5 2.6 3.2 4.5 5.2 5.5v5.4h-1.5c-1.7.1-3.1 1.5-3.2 3.2v.2h-2.1c-1.7.1-3.1 1.5-3.2 3.2-.1 1.9 1.3 3.4 3.2 3.5h19.4c1.7-.1 3.1-1.5 3.2-3.2.1-1.9-1.3-3.4-3.2-3.5h-2.1c0-1.8-1.4-3.3-3.2-3.4h-.7v-5.3c2.1-1 4-2.9 5.6-5.8 4.8-1.9 9.9-5.2 12.1-9.2 1.3-2.2 1.4-4.9.3-7.2zM8.1 16.7c-.6-.9-.7-2.1-.2-3.1.7-1.3 2.1-2.2 3.6-2.2h.5c.4 4 1.1 7.5 2.1 10.6-2.6-1.5-4.9-3.3-6-5.3zm17.1 3.2c-3.1 0-5.6-2.5-5.6-5.6 0-3.1 2.5-5.6 5.6-5.6 3.1 0 5.6 2.5 5.6 5.6 0 3.1-2.5 5.6-5.6 5.6zm17.1-3.2c-1 1.9-3.2 3.7-5.7 5.1.9-3 1.5-6.5 1.8-10.5h.4c1.5 0 2.9.9 3.6 2.2.6 1.1.5 2.3-.1 3.2z"/></g></switch></svg>