<svg xmlns="http://www.w3.org/2000/svg" viewBox="0 0 50.4 50.4"><switch><g><path fill="#404040" d="M25.2 5.6c5.1 3.1 11.3 4.4 15.5 5V19c0 1.2 0 2.4-.2 3.8v.2c0 7.4-4.3 13.8-6.3 15.5l-.1.1-.1.1c-2.6 2.6-5.6 4.7-8.9 6.2-3.9-1.8-15.5-8.8-15.5-26.4v-7.9c4.3-.6 10.5-1.9 15.6-5m0-4.4c-.4 0-.8.1-1.1.3-5.5 3.8-13.2 4.9-16.6 5.3-1 .1-1.8 1-1.8 2v9.7c0 24.1 19.4 30.7 19.4 30.7 4.5-1.6 8.5-4.3 11.8-7.7 3-2.7 7.6-10.2 7.6-18.5.1-1.3.2-2.7.2-4.1V8.8c0-1-.8-1.9-1.8-2-3.5-.4-11.2-1.6-16.6-5.2-.3-.3-.7-.4-1.1-.4z"/><g fill="none" stroke="#fa6400" stroke-linecap="round" stroke-miterlimit="10" stroke-width="6"><path d="M18 15l14.4 14.4M32.4 15L18 29.4"/></g></g></switch></svg>