<svg xmlns="http://www.w3.org/2000/svg" viewBox="0 0 50.4 50.4"><switch><g><path fill="#fa6400" d="M15.2 24.2c-1.1 0-2 .9-2 2v4h24v-4c0-1.1-.9-2-2-2h-20z"/><path fill="#404040" d="M44.2 14.2c-2.8 0-5 2.2-5 5v14h-28v-14c0-2.8-2.2-5-5-5s-5 2.2-5 5c0 2.4 1.7 4.4 4 4.9v21.1c0 1.1.9 2 2 2h2c1.1 0 2-.9 2-2h28c0 1.1.9 2 2 2h2c1.1 0 2-.9 2-2V24.1c2.7-.5 4.5-3.2 3.9-5.9-.5-2.3-2.5-4-4.9-4z"/><path fill="#404040" d="M36.2 21.2v-2c0-4.5 4-8 7-8.2V7.2c0-2.2-1.8-4-4-4h-28c-2.2 0-4 1.8-4 4V11c3 .2 7 3.7 7 8.2v2h22z"/></g></switch></svg>