<svg xmlns="http://www.w3.org/2000/svg" viewBox="0 0 50.4 50.4"><switch><g><path fill="#404040" d="M3.4 18.8c-1.1 0-2 .9-2 2v8.5c0 1.1.9 2 2 2s2-.9 2-2v-8.5c0-1.1-.9-2-2-2zM47 6.4c-1.1 0-2 .9-2 2V42c0 1.1.9 2 2 2s2-.9 2-2V8.4c0-1.1-.9-2-2-2z"/><path fill="#404040" d="M5.1 21.1v8l6.9 2.1-.7 2.4c-.7 2.3.6 4.7 2.9 5.4l9.6 2.9c.4.1.7.2 1.1.2h.2c1.9 0 3.6-1.3 4.2-3.1l.7-2.4 15.1 4.6v-32l-40 11.9zm21.5 17.1c-.2.7-.9 1.2-1.6 1.2-.1 0-.3 0-.4-.1L15 36.4c-.8-.3-1.3-1.1-1.1-2l.7-2.4 12.7 3.8-.7 2.4z"/><path fill="#fa6400" d="M43.6 14.5c0 .6-.4 1.2-1 1.4l-22.2 6.6c-.8.2-1.6-.2-1.8-1 0-.1-.1-.3-.1-.4 0-.6.4-1.2 1-1.4l22.2-6.6c.8-.2 1.6.2 1.8 1 .1.1.1.3.1.4z"/><circle cx="15.5" cy="22.4" r="1.5" fill="#fa6400"/></g></switch></svg>