<svg xmlns="http://www.w3.org/2000/svg" viewBox="0 0 50.4 50.4"><switch><g fill="#fa6400"><path d="M25.1 5.9l15.4 6.2v9c0 2.5-.1 5-.1 7.7 0 5.7-9.4 12.3-15.3 15.5-6-3.2-15.3-9.8-15.3-15.5v-7.7c0-3.3-.1-6.3 0-9.1l15.4-6.1m0-4.7L5.5 9c-.2 5.6 0 12.1 0 19.8 0 11.3 19.7 20.4 19.7 20.4s19.7-9.1 19.7-20.4c0-7.7.3-14.2 0-19.7L25.2 1.2z"/><path d="M31.5 16.4l-9.3 9.3-3.1-3.1c-.9-.9-2.3-.9-3.1 0-.9.9-.9 2.3 0 3.1l3.1 3.1 1.6 1.6c.9.9 2.3.9 3.1 0l1.6-1.6 9.3-9.3c.9-.9.9-2.3 0-3.1-.9-.8-2.3-.8-3.2 0z"/></g></switch></svg>