<svg xmlns="http://www.w3.org/2000/svg" viewBox="0 0 50.4 50.4"><switch><g><circle cx="38.2" cy="13.8" r="3.2" fill="#fa6400"/><path fill="#404040" d="M35.2 2.4c-7.7 0-14 6.3-14 14 0 .5 0 .9.1 1.4 0 .4.1.8.2 1.1v.2c.1.8.2 1.7.5 2.5L1.3 42v3.5L4 48h5.4l.5-1.4v-2.9h3.8l.5-1.5v-2.9H18l.5-1.5v-3.2l2.7-1.7h4.3l3.6-3.8h.2c.3.2.6.2 1 .4l.4.1c.4.1.7.2 1.1.3l.2.1c.4.1.9.2 1.3.2 3.7.5 7.4-.5 10.4-2.7.2-.2.5-.4.7-.6.5-.4.9-.9 1.3-1.3.2-.2.3-.4.5-.6l.2-.3c.1-.2.3-.4.4-.6l.3-.6c.1-.2.3-.5.4-.8.1-.3.2-.4.3-.6l.2-.5c.1-.2.2-.5.3-.8.1-.3.1-.2.1-.3l.3-1.2c0-.1 0-.2.1-.3.1-.3.1-.6.1-.9v-.4c0-.4.1-.9.1-1.3.2-7.6-6-13.9-13.8-14zm2.7 16.7c-3 0-5.4-2.4-5.4-5.4 0-3 2.4-5.4 5.4-5.4 3 0 5.4 2.4 5.4 5.4 0 3-2.4 5.4-5.4 5.4z"/></g></switch></svg>