<svg xmlns="http://www.w3.org/2000/svg" viewBox="0 0 50.4 50.4"><switch><g><path fill="#404040" d="M19.4 1.2h-12C5.8 1.2 4.2 1.9 3 3 1.8 4.2 1.2 5.8 1.2 7.4v12c0 1.4.5 2.7 1.5 3.7l26.2 26.1 20.4-20.3L23.1 2.7c-1-1-2.3-1.5-3.7-1.5zM5.9 9.5c0-2 1.6-3.6 3.7-3.6 2 0 3.6 1.6 3.6 3.7 0 2-1.6 3.6-3.7 3.6-2 0-3.6-1.6-3.6-3.7zm1.6 13l15.1-15L44 28.9 28.9 44 7.5 22.5z"/><path fill="#fa6400" d="M14.7 20.9c.8-.8 2.1-.8 3 0l12.9 12.9c.8.8.8 2.1 0 3-.8.8-2.1.8-3 0L14.7 23.9c-.8-.9-.8-2.2 0-3zM20.9 14.6c.8-.8 2.1-.8 3 0l12.9 12.9c.8.8.8 2.1 0 3-.8.8-2.1.8-3 0L20.9 17.6c-.8-.8-.8-2.1 0-3z"/></g></switch></svg>