<svg xmlns="http://www.w3.org/2000/svg" viewBox="0 0 50.4 50.4"><switch><g><path fill="#404040" d="M25.2 1.2c-.7 0-1.3.2-1.9.5-4.5 2.5-7.9 4.1-13.5 4.1-2.2 0-4 1.8-4 4v8.6c0 8.5 2.2 15.8 6.7 21.7 2.9 3.9 6.8 7 11.3 8.9.9.4 2 .4 2.9 0 4.5-2 8.4-5 11.3-8.9 4.4-5.8 6.6-13.1 6.6-21.7V9.8c0-2.2-1.8-4-4-4-5.6 0-9-1.7-13.5-4.1-.6-.3-1.3-.5-1.9-.5z"/><path fill="#fa6400" d="M35.5 21.8h-2.3c-.2-.8-.5-1.6-.9-2.3l1.6-1.6c.8-.8.8-2.1 0-2.9-.4-.4-.9-.6-1.5-.6-.5 0-1.1.2-1.5.6l-1.6 1.6c-.6-.4-1.2-.6-1.9-.8v-2.4c0-1.1-.9-2-2-2s-2 .9-2.1 2v2.3c-.8.2-1.6.5-2.3.9L19.5 15c-.4-.4-.9-.6-1.5-.6-1.1 0-2.1.9-2.1 2 0 .5.2 1.1.6 1.5l1.6 1.6c-.4.7-.7 1.5-.9 2.3H15c-1.1 0-2.1.9-2.1 2.1 0 1.1.9 2.1 2.1 2.1h2.4c.2.7.5 1.3.8 2l-1.6 1.6c-.8.8-.8 2.1 0 2.9.8.8 2.1.8 2.9 0l1.6-1.6c.7.4 1.5.7 2.3.9v2.3c0 1.1.9 2.1 2.1 2.1s2.1-.9 2.1-2.1v-2.4c.7-.2 1.3-.5 1.9-.8l1.6 1.6c.6.6 1.5.7 2.3.4.2-.1.5-.3.7-.5.8-.8.8-2.1 0-2.9l-1.6-1.6c.3-.6.6-1.2.8-1.9h2.4c1.1 0 2.1-.9 2.1-2.1-.3-1.2-1.2-2.1-2.3-2.1zm-10.3 6c-1.1 0-2.1-.4-2.9-1.2-.7-.7-1.2-1.8-1.2-2.9 0-1.1.4-2.1 1.1-2.8l.1-.1s0-.1.1-.1c.7-.7 1.7-1.1 2.8-1.1 2.3 0 4.1 1.8 4.1 4.1 0 1.1-.4 2.1-1.2 2.8l-.1.1c-.7.7-1.7 1.2-2.8 1.2z"/></g></switch></svg>