<svg xmlns="http://www.w3.org/2000/svg" viewBox="0 0 50.4 50.4"><switch><g><path fill="#fa6400" d="M23.3 20.9v19.6c.2 2.2-1.5 4.2-3.8 4.3H19c-1.1 0-2.2-.4-3-1.1-.9-1-1.4-2.3-1.4-3.6.1-1.2-.8-2.2-2-2.3-1.2-.1-2.2.8-2.3 2v.3c-.1 2.5.9 5 2.7 6.7 1.6 1.5 3.7 2.3 5.9 2.3 4.6.1 8.4-3.5 8.5-8V20.9h-4.1z"/><path fill="#404040" d="M26.8 4.4h-3.2C13 4.9 4.3 12.2 2.4 21.9c-.1.5.2.9.7 1 .2 0 .5 0 .7-.2 1-.8 2.3-1.3 3.6-1.3 1.8 0 3.4.9 4.2 2.5.2.4.7.5 1.1.3.1-.1.2-.1.3-.2 1.5-1.6 3.5-2.5 5.7-2.6 2.2 0 4.4.9 5.8 2.6.3.4.8.4 1.2.1.1 0 .1-.1.1-.1 1.4-1.7 3.6-2.7 5.8-2.6 2.2 0 4.2 1 5.7 2.6.3.4.8.4 1.2.2.1-.1.2-.2.2-.3.8-1.6 2.5-2.5 4.2-2.5 1.3 0 2.6.5 3.6 1.3.4.3.9.2 1.2-.1.2-.2.2-.4.2-.7-1.8-9.7-10.5-17-21.1-17.5z"/><path fill="#404040" d="M27.4 4.6V3.3c-.1-1.2-1.1-2.1-2.3-2-1.1.1-1.9.9-2 2v1.3h4.3z"/></g></switch></svg>