<svg xmlns="http://www.w3.org/2000/svg" viewBox="0 0 50.4 50.4"><switch><g><g fill="#fa6400"><path d="M48.2 20.3h-7l-3 3h-15c-1.1 0-2 .9-2 2s.9 2 2 2h15l3 3h7l-4-5 4-5z"/><path d="M22.2 18.3c1.8 0 3.6.7 4.9 2H32c-2.8-5.4-9.4-7.6-14.8-4.8s-7.6 9.4-4.8 14.8 9.4 7.6 14.8 4.8c2.1-1.1 3.7-2.7 4.8-4.8h-4.9c-2.8 2.7-7.2 2.7-9.9-.1-2.7-2.8-2.7-7.2.1-9.9 1.3-1.3 3.1-2 4.9-2z"/><path d="M22.2 41.3c-8.8 0-16-7.1-16-16 0-8.8 7.1-16 16-16 6.2 0 11.8 3.5 14.5 9.1l3-3C34.2 5.7 22 2.4 12.3 7.8 2.7 13.2-.7 25.4 4.8 35c5.4 9.6 17.6 13 27.3 7.6 2.9-1.6 5.3-4 7.1-6.8l-2.9-2.9c-2.8 5.1-8.2 8.4-14.1 8.4z"/></g></g></switch></svg>