<svg xmlns="http://www.w3.org/2000/svg" viewBox="0 0 50.4 50.4"><switch><g><g fill="#fa6400"><path d="M17.2 9.8c0-.6.4-1 1-1h14c.6 0 1 .4 1 1v3h3v-5c0-1.1-.9-2-2-2h-18c-1.1 0-2 .9-2 2v5h3v-3zM25 24.1c.8 0 1.5.7 1.5 1.5v4.1c0 .8-.7 1.5-1.5 1.5s-1.5-.7-1.5-1.5v-4.1c0-.9.7-1.5 1.5-1.5z"/><path d="M28.8 28.6v1.2c0 2.1-1.7 3.8-3.8 3.8-2.1 0-3.8-1.7-3.8-3.8v-1.2H9c-1.1 0-2.3-.4-3.2-1l-4.5-3v18c0 1.1.9 2 2 2h44c1.1 0 2-.9 2-2v-18l-4.5 3c-.9.6-2.1 1-3.2 1H28.8z"/><path d="M47.2 12.6h-44c-1.1 0-2 .9-2 2v7.2l4.7 3.6c1 .8 2.2 1.2 3.5 1.2h11.8v-1.1c0-2.1 1.7-3.8 3.8-3.8 2.1 0 3.8 1.7 3.8 3.8v1.1H41c1.3 0 2.5-.4 3.5-1.2l4.7-3.6v-7.2c0-1.1-.9-2-2-2z"/></g></g></switch></svg>