<svg xmlns="http://www.w3.org/2000/svg" viewBox="0 0 50.4 50.4"><switch><g fill="#fa6400"><path d="M3.2 28.2c0 3.6 1.9 6.9 5 8.7l-2.5 2.5c-.6.7-.5 1.7.2 2.3.6.5 1.5.5 2.1 0l3.7-3.7c.5.1 1 .1 1.6.1h24c.5 0 1.1 0 1.6-.1l3.7 3.7c.6.7 1.6.7 2.3.2.7-.6.7-1.6.2-2.3 0-.1-.1-.1-.2-.2l-2.6-2.5c3.1-1.8 5-5.1 5-8.7v-3h-44l-.1 3zM47.2 19.2h-39v-5c-.1-1.7 1.1-3.1 2.7-3.2h.3c1.4 0 2.7.9 3.1 2.3.2.6.7.9 1.3.9.8 0 1.4-.6 1.4-1.4 0-.1 0-.3-.1-.4-.8-2.6-3.2-4.3-5.9-4.3-3.3.2-5.9 2.9-5.8 6.2v4.8h-2c-1.1 0-2 .9-2 2v1h48v-1c0-1-.9-1.9-2-1.9z"/></g></switch></svg>