<svg xmlns="http://www.w3.org/2000/svg" viewBox="0 0 50.4 50.4"><switch><g fill="#fa6400"><path d="M43.7 1.2h-37c-1.8 0-3.3 1.5-3.3 3.3V46c0 1.8 1.5 3.3 3.3 3.3h37.1c1.8 0 3.3-1.5 3.3-3.3V4.5c-.1-1.8-1.5-3.3-3.4-3.3zm-.7 44H7.3V5.3H43v39.9z"/><path d="M10.3 8.3v10h29.9v-10H10.3zm18.1 5H22c-1.1-.1-2-1.1-2-2.2h10.5c-.1 1.1-.9 2-2.1 2.2zM10.3 20.2v10h29.9v-10H10.3zm18.1 5H22c-1.1-.1-2-1.1-2-2.2h10.5c-.1 1.1-.9 2.1-2.1 2.2zM10.3 32.2v10h29.9v-10H10.3zm18.1 5H22c-1.1-.1-2-1.1-2-2.2h10.5c-.1 1.1-.9 2-2.1 2.2z"/></g></switch></svg>