<svg xmlns="http://www.w3.org/2000/svg" viewBox="0 0 50.4 50.4"><switch><g fill="#fa6400"><path d="M44.8 3.4H5.6c-2.4 0-4.4 2-4.4 4.4v34.9c0 2.4 2 4.4 4.4 4.4h39.3c2.4 0 4.4-2 4.4-4.4v-35c-.1-2.4-2-4.3-4.5-4.3zm1.1 5.4h-2.2v3.3h1.1c.6 0 1.1.5 1.1 1.1v6.5c0 .6-.5 1.1-1.1 1.1h-1.1v8.7h1.1c.6 0 1.1.5 1.1 1.1v6.5c0 .6-.5 1.1-1.1 1.1h-1.1v3.3h2.2v1.1c0 .6-.5 1.1-1.1 1.1H5.6c-.6 0-1.1-.5-1.1-1.1V7.7c0-.6.5-1.1 1.1-1.1h39.3c.6 0 1.1.5 1.1 1.1v1.1z"/><path d="M39.4 12.1h2.2V8.8h-35v32.7h34.9v-3.3h-2.2c-.6 0-1.1-.5-1.1-1.1v-6.5c0-.6.5-1.1 1.1-1.1h2.2v-8.7h-2.2c-.6 0-1.1-.5-1.1-1.1v-6.5c.1-.6.6-1.1 1.2-1.1zM19.7 34.2c-5 0-9-4-9-9s4-9 9-9 9 4 9 9-4 9-9 9z"/><path d="M40.5 14.3h3.3v4.4h-3.3zM40.5 31.7h3.3v4.4h-3.3zM20.8 18.8v3.1c1.9.6 2.9 2.6 2.3 4.5-.6 1.9-2.6 2.9-4.5 2.3-1.9-.6-2.9-2.6-2.3-4.5.4-1.1 1.2-1.9 2.3-2.3v-3.1c-3.6.6-6 4-5.4 7.5.6 3.6 4 6 7.5 5.4 3.6-.6 6-4 5.4-7.5-.4-2.8-2.5-5-5.3-5.4z"/></g></switch></svg>