<svg xmlns="http://www.w3.org/2000/svg" viewBox="0 0 50.4 50.4"><switch><g fill="#fa6400"><path d="M10.2 16.1v25.5l30 1V16.1h-30zm5.1 3.3h18.9c.8 0 1.5.7 1.5 1.5s-.7 1.5-1.5 1.5H15.3c-.8 0-1.5-.7-1.5-1.5s.7-1.5 1.5-1.5zm18.9 8.9H15.3c-.8 0-1.5-.7-1.5-1.5s.7-1.5 1.5-1.5h18.9c.8 0 1.5.7 1.5 1.5s-.7 1.5-1.5 1.5z"/><path d="M27.5 37.1c-.7.4-1.5.7-2.3.7-.8 0-1.6-.2-2.3-.7L1.2 20.3v26.3c0 1.1.9 2 2 2h44c1.1 0 2-.9 2-2V20.3L27.5 37.1z"/><path d="M8.2 13.8h34v8l6.1-4.8c-.1-.5-.3-.9-.7-1.3L26.8 2.3c-.5-.3-1-.5-1.6-.5-.6 0-1.1.2-1.6.5L2.8 15.7c-.3.4-.6.8-.7 1.3l6.1 4.8v-8z"/></g></switch></svg>