<svg xmlns="http://www.w3.org/2000/svg" viewBox="0 0 50.4 50.4"><switch><g fill="#fa6400"><path d="M7.2 5.2c-1.1 0-2 .9-2 2v34c0 1.1.9 2 2 2h5v-34h23v-2c0-1.1-.9-2-2-2h-26z"/><path d="M22.7 20.2h15c.8 0 1.5.7 1.5 1.5s-.7 1.5-1.5 1.5h-15c-.8 0-1.5-.7-1.5-1.5s.7-1.5 1.5-1.5zM22.7 26.2h8c.8 0 1.5.7 1.5 1.5s-.7 1.5-1.5 1.5h-8c-.8 0-1.5-.7-1.5-1.5s.7-1.5 1.5-1.5zM34.7 26.2h3c.8 0 1.5.7 1.5 1.5s-.7 1.5-1.5 1.5h-3c-.8 0-1.5-.7-1.5-1.5s.7-1.5 1.5-1.5zM22.7 32.2h15c.8 0 1.5.7 1.5 1.5s-.7 1.5-1.5 1.5h-15c-.8 0-1.5-.7-1.5-1.5s.7-1.5 1.5-1.5zM22.7 38.2h7c.8 0 1.5.7 1.5 1.5s-.7 1.5-1.5 1.5h-7c-.8 0-1.5-.7-1.5-1.5s.7-1.5 1.5-1.5z"/><path d="M45.2 49.2v-37h-30v37m4-33h22v29h-22v-29z"/><circle cx="33.7" cy="39.7" r="1.5"/><path d="M20.2 4.2c.6 0 1 .4 1 1h3c0-2.2-1.8-4-4-4s-4 1.8-4 4h3c0-.6.4-1 1-1"/></g></switch></svg>