<svg xmlns="http://www.w3.org/2000/svg" viewBox="0 0 50.4 50.4"><switch><g fill="#fa6400"><path d="M4.9 43.2l6.4-6.3-.4-.4 3.2-3.1c4.9 3.7 11.9 3.3 16.2-1.1 4.8-4.7 4.9-12.4.2-17.2l-.2-.2c-4.9-4.8-12.7-4.8-17.5 0-2.3 2.3-3.6 5.4-3.6 8.7 0 2.8 1 5.6 2.8 7.8l-3.1 3.1-.5-.5L2 40.3c-.8.8-.8 2 0 2.8.8.8 2.1.9 2.9.1zm10.6-13.8c-3.3-3.2-3.3-8.5-.1-11.7l.1-.1c3.3-3.3 8.7-3.3 12 0 3.3 3.2 3.3 8.5.1 11.7l-.1.1c-3.3 3.3-8.7 3.3-12 0z"/><path d="M9.6 1.2v12.2c.2-.3.5-.6.8-.8 1.1-1 2.3-1.9 3.6-2.6V5.6h30.6v31.1h-5.3c-1.6 0-2.8 1.3-2.9 2.8v5.3H14v-6.1l-.4.4L9.7 43v6.1h29.5l9.8-10v-38l-39.4.1z"/></g></switch></svg>