<svg xmlns="http://www.w3.org/2000/svg" viewBox="0 0 50.4 50.4"><switch><g><path fill="#404040" d="M26.3 10.8H37c.9 0 1.6.7 1.6 1.6 0 .9-.7 1.6-1.6 1.6H26.3c-.9 0-1.6-.7-1.6-1.6 0-.9.7-1.6 1.6-1.6zM26.3 17.2h8.5c.9 0 1.6.7 1.6 1.6 0 .9-.7 1.6-1.6 1.6h-8.5c-.9 0-1.6-.7-1.6-1.6 0-.9.7-1.6 1.6-1.6zM26.3 23.6H37c.9 0 1.6.7 1.6 1.6 0 .9-.7 1.6-1.6 1.6H26.3c-.9 0-1.6-.7-1.6-1.6 0-.9.7-1.6 1.6-1.6zM26.3 30h7.5c.9 0 1.6.7 1.6 1.6 0 .9-.7 1.6-1.6 1.6h-7.5c-.9 0-1.6-.7-1.6-1.6 0-.9.7-1.6 1.6-1.6z"/><path fill="#404040" d="M11.9 1.2v5.3H4.4v42.7h34.1v-5.3H46V1.2H11.9zm22.4 43.7H8.7V10.8h3.2v33.1h22.4v1zm7.4-5.3H16.1V5.5h25.6v34.1z"/><circle cx="20.9" cy="12.4" r="1.6" fill="#fa6400"/><circle cx="20.9" cy="18.8" r="1.6" fill="#fa6400"/><circle cx="20.9" cy="25.2" r="1.6" fill="#fa6400"/><circle cx="20.9" cy="31.6" r="1.6" fill="#fa6400"/></g></switch></svg>