<svg xmlns="http://www.w3.org/2000/svg" viewBox="0 0 50.4 50.4"><switch><g><path fill="#404040" d="M11.3 3.1v5.1c1.3-.5 2.6-.8 4-.9v-.2h28.2v28.7h-4.9c-1.5 0-2.6 1.2-2.6 2.6v4.9H15.3V41c-1.4-.1-2.7-.5-4-.9v7.3h27.2l9-9.2v-35l-36.2-.1z"/><path fill="#fa6400" d="M17 38.2c7 0 12.8-5.1 13.8-12H26c-1.1 5-6 8.1-11 7-1.7-.4-3.3-1.2-4.5-2.5l4.5-4.5H3v12l4.1-4.1c2.6 2.7 6.2 4.1 9.9 4.1zM31 22.2v-12l-4.1 4.2c-5.5-5.5-14.3-5.4-19.8 0-2.1 2.1-3.5 4.9-3.9 7.8H8c1.1-5 6-8.1 11-7 1.7.4 3.3 1.2 4.5 2.5L19 22.3l12-.1z"/></g></switch></svg>