<svg xmlns="http://www.w3.org/2000/svg" viewBox="0 0 50.4 50.4"><switch><g><path fill="#404040" d="M43.5 22.9h-4.6v-6.8H11.5v6.8H6.9V11.5h36.6zM41.2 9.2h-4.6V5.8H13.8v3.4H9.2v-8h32z"/><path fill="#fa6400" d="M32.3 18.3H17.4c-.9 0-1.7.8-1.7 1.7 0 .9.8 1.7 1.7 1.7h14.9c.9 0 1.7-.8 1.7-1.7 0-.9-.7-1.7-1.7-1.7zM27.7 24.1H22c-.9 0-1.7.8-1.7 1.7 0 .9.8 1.7 1.7 1.7h5.7c.9 0 1.7-.8 1.7-1.7.1-1-.7-1.7-1.7-1.7z"/><path fill="#404040" d="M34.3 25.2v2.3c0 1.3-1 2.3-2.3 2.3H18.3c-1.3 0-2.3-1-2.3-2.3v-2.3H2.3v21.7c0 1.3 1 2.3 2.3 2.3h41.2c1.3 0 2.3-1 2.3-2.3V25.2H34.3zm-2.8 17.1H18.9c-1.6 0-2.9-1.3-2.9-2.9 0-1.6 1.3-2.9 2.9-2.9h12.6c1.6 0 2.9 1.3 2.9 2.9-.1 1.7-1.3 2.9-2.9 2.9z"/></g></switch></svg>