<svg xmlns="http://www.w3.org/2000/svg" viewBox="0 0 50.4 50.4"><switch><g fill="#fa6400"><path d="M29.2 5.2c0-2.2-1.8-4-4-4s-4 1.8-4 4h-4v4c0 1.1.9 2 2 2h12c1.1 0 2-.9 2-2v-4h-4zm-4 2.2c-1.2 0-2.2-1-2.2-2.2C23 4 24 3 25.2 3c1.2 0 2.2 1 2.2 2.2.1 1.2-1 2.2-2.2 2.2z"/><path d="M42.2 5.2h-7v4h5v26h-6.1c-2.1 0-3.9 1.7-3.9 3.9v6.1h-20v-36h5v-4h-7c-1.1 0-2 .9-2 2v40c0 1.1.9 2 2 2h34c1.1 0 2-.9 2-2v-40c0-1.1-.9-2-2-2z"/><path d="M16.2 26.8c-.9.9-.9 2.4 0 3.3l4.2 4.2c.8.8 2.1.8 2.9 0l11.2-11.2c.9-.9.9-2.4 0-3.3-.9-.9-2.4-.9-3.3 0L22 29.1l-2.4-2.4c-.9-.9-2.4-.9-3.4.1z"/></g></switch></svg>