<svg xmlns="http://www.w3.org/2000/svg" viewBox="0 0 50.4 50.4"><switch><g fill="#fa6400"><path d="M9.7 1.2v17.4l4.3-4.3V5.5h30.6v31.2h-5.3c-1.6 0-2.9 1.3-2.9 2.9v5.3H14.1v-.1c-1.4.6-2.8 1-4.3 1v3.5h29.5l9.8-10v-38L9.7 1.2z"/><path d="M15 40.2l12.8-12.5-1.6-1.6-12.8 12.5c-2.2 2.2-5.8 2.2-8.1 0-2.2-2.1-2.2-5.7-.1-7.8l.1-.1 17.8-17.5c1.5-1.4 3.8-1.4 5.3 0 1.4 1.4 1.5 3.7.1 5.1l-.1.1-16.1 15.8c-.7.7-1.8.7-2.5 0s-.7-1.8 0-2.5l11.1-10.9-1.6-1.6-11.1 11c-1.6 1.5-1.6 4-.1 5.6l.1.1c1.6 1.6 4.2 1.6 5.8 0L30 20c2.3-2.3 2.4-6 .1-8.3l-.1-.1c-2.4-2.3-6.2-2.3-8.5 0L3.7 29.1c-3.1 3-3.1 7.9-.1 11l.1.1c3.1 3.1 8.2 3.1 11.3 0z"/></g></switch></svg>