<svg xmlns="http://www.w3.org/2000/svg" viewBox="0 0 50.4 50.4"><switch><g><path fill="#fa6400" d="M18.2 14.9h8c.9 0 1.6.7 1.6 1.6V22c0 .9-.7 1.6-1.6 1.6h-8c-.9 0-1.6-.7-1.6-1.6v-5.5c-.1-.9.7-1.6 1.6-1.6z"/><path fill="#404040" d="M8.9 7.2v5.4H1.2v24c0 3.6 2.9 6.5 6.6 6.5h41.5v-36l-40.4.1zm-.1 30c-.1.9-.9 1.6-1.8 1.5-.8-.1-1.4-.7-1.5-1.5V17h3.4l-.1 20.2zm36 1.6H13.2V11.6h31.7l-.1 27.2z"/><path fill="#404040" d="M32.7 18.1H40c.9.1 1.7-.6 1.8-1.5.1-.9-.6-1.7-1.5-1.8h-7.6c-.9-.1-1.7.6-1.8 1.5-.1.9.6 1.7 1.5 1.8h.3zM32.7 23.6H40c.9.1 1.7-.6 1.8-1.5.1-.9-.6-1.7-1.5-1.8h-7.6c-.9-.1-1.7.6-1.8 1.5-.1.9.6 1.7 1.5 1.8h.3zM18.1 29H40c.9.1 1.7-.6 1.8-1.5.1-.9-.6-1.7-1.5-1.8H18.1c-.9-.1-1.7.6-1.8 1.5 0 1 .7 1.8 1.6 1.8h.2zM18.1 34.5H40c.9.1 1.7-.6 1.8-1.5.1-.9-.6-1.7-1.5-1.8H18.1c-.9-.1-1.7.6-1.8 1.5-.1.9.6 1.7 1.5 1.8h.3z"/></g></switch></svg>