<svg xmlns="http://www.w3.org/2000/svg" viewBox="0 0 50.4 50.4"><switch><g fill="#fa6400"><path d="M11.3 39.2c0-.8.1-1.7.3-2.5.2-.6.5-1.2.9-1.8.4-.5.9-1 1.5-1.4.6-.4 1.2-.9 2-1.3.6-.4 1.1-.7 1.6-.9.4-.2.8-.5 1.2-.8.3-.2.6-.5.8-.8.2-.3.3-.6.3-1 0-1.2-.8-1.7-2.4-1.7-.7 0-1.5.1-2.2.3-.7.2-1.4.5-2 .9l-1-3c.8-.5 1.7-.9 2.7-1.1 1-.2 2-.4 3.1-.4.8 0 1.7.1 2.5.3.7.2 1.4.5 1.9.9s1 .9 1.2 1.5c.3.7.5 1.5.5 2.2 0 .8-.2 1.6-.5 2.3-.3.6-.8 1.2-1.3 1.7s-1.1.9-1.7 1.2c-.6.4-1.2.7-1.8 1.1l-1.1.7c-.3.2-.7.4-1 .6-.2.2-.5.4-.7.6-.2.2-.2.4-.2.7h7.9V41H11.4l-.1-1.8zM25.4 33.9l7.2-10h4.6v10.2h2v3.2h-2V41h-4.1v-3.7h-7.7v-3.4zm7.8.2v-5.9l-4 5.9h4z"/><path d="M45.3 7.1h-6.1V3.2c0-1.1-.9-2-2-2s-2 .9-2 2v3.9h-20V3.3c.1-1-.6-1.9-1.6-2.1h-.3c-1.1 0-2.1.9-2.1 2.1v4H5.3c-2.2 0-4.1 1.8-4.1 4v34c0 2.2 1.9 4 4.1 4h40c2.2 0 3.9-1.8 3.9-4v-34c.1-2.2-1.6-4-3.8-4.1 0-.1-.1-.1-.1-.1zM35.2 9.6v3.2c0 1.1.9 2 2 2s2-.9 2-2V9.6c1 .8 2.3 2.1 2.3 3.7 0 2.4-1.9 4.3-4.3 4.3s-4.3-1.9-4.3-4.3c.2-1.5 1-2.9 2.3-3.7zm-24 0v3.2c0 1.1.9 2 2 2s2-.9 2-2V9.6c1.3.8 2.1 2.2 2.3 3.7.1 2.4-1.7 4.4-4.1 4.5-2.4.1-4.4-1.7-4.5-4.1v-.4c.2-1.5 1-2.9 2.3-3.7zm34 35.5h-40v-25h40v25z"/></g></switch></svg>