<svg xmlns="http://www.w3.org/2000/svg" viewBox="0 0 50.4 50.4"><switch><g><g fill="#fa6400"><path d="M9 21.4h12.1v9.8H9zM34.4 17.2H9.9c-.8 0-1.5-.7-1.5-1.5s.7-1.5 1.5-1.5h24.5c.8 0 1.5.7 1.5 1.5s-.7 1.5-1.5 1.5zM33.6 24.4h-7.9c-.8 0-1.4-.6-1.4-1.4 0-.8.6-1.4 1.4-1.4h7.9c.8 0 1.4.6 1.4 1.4 0 .8-.6 1.4-1.4 1.4zM25.7 27.6h7.9c.8 0 1.4.6 1.4 1.4 0 .8-.6 1.4-1.4 1.4h-7.9c-.8 0-1.4-.6-1.4-1.4 0-.7.6-1.4 1.4-1.4zM25.7 34.1h7.9c.8 0 1.4.6 1.4 1.4 0 .8-.6 1.4-1.4 1.4h-7.9c-.8 0-1.4-.6-1.4-1.4 0-.7.6-1.4 1.4-1.4zM10.4 34.1h9.7c.8 0 1.4.6 1.4 1.4 0 .8-.6 1.4-1.4 1.4h-9.7c-.7.1-1.4-.6-1.4-1.4 0-.7.7-1.4 1.4-1.4z"/><path d="M42.9 43.8H8.1c-3.8 0-6.9-3.1-6.9-6.9V6.6h41.7v37.2zM5.2 10.6v26.2c0 1.6 1.3 2.9 2.9 2.9h30.8V10.6H5.2z"/><path d="M42.4 43.7c-1.1 0-2-.9-2-2s.9-2 2-2c2.6 0 2.8-1.1 2.8-2.3V12.1c0-1.1.9-2 2-2s2 .9 2 2v25.4c0 3.9-2.5 6.2-6.8 6.2z"/></g></g></switch></svg>