<svg xmlns="http://www.w3.org/2000/svg" viewBox="0 0 50.4 50.4"><switch><g><circle cx="16.1" cy="29" r="2.2" fill="#fa6400"/><circle cx="16.1" cy="21.4" r="2.2" fill="#fa6400"/><circle cx="16.1" cy="13.7" r="2.2" fill="#fa6400"/><path fill="#404040" d="M35.8 15.1H22.3c-.9 0-1.6-.7-1.6-1.6 0-.9.7-1.6 1.6-1.6h13.5c.9 0 1.6.7 1.6 1.6 0 .9-.7 1.6-1.6 1.6zM35.8 22.9H22.3c-.9 0-1.6-.7-1.6-1.6 0-.9.7-1.6 1.6-1.6h13.5c.9 0 1.6.7 1.6 1.6 0 .9-.7 1.6-1.6 1.6zM35.8 30.6H22.3c-.9 0-1.6-.7-1.6-1.6 0-.9.7-1.6 1.6-1.6h13.5c.9 0 1.6.7 1.6 1.6 0 .9-.7 1.6-1.6 1.6z"/><path fill="#404040" d="M40.5 1.2h-35v48H35l9.8-10v-38h-4.3zM9.9 5.5h30.6v31.2h-5.3c-1.6 0-2.9 1.3-2.9 2.9v5.3H9.9V5.5z"/></g></switch></svg>