<svg xmlns="http://www.w3.org/2000/svg" viewBox="0 0 50.4 50.4"><switch><g fill="#fa6400"><path d="M47 8.8H18.7V6.6c0-1.2-1-2.2-2.2-2.2H3.4c-1.2 0-2.2 1-2.2 2.2v6.5h48V11c0-1.2-1-2.2-2.2-2.2zM24.9 27.2c-2 0-3.6 1.6-3.6 3.6 0 .9.4 1.8 1 2.4l.1.1.1.1c.6.6 1.5 1 2.5 1s1.9-.4 2.5-1l.1-.1c.6-.7 1-1.6 1-2.5-.1-2-1.7-3.6-3.7-3.6z"/><path d="M47 15.4H3.4c-1.2 0-2.2 1-2.2 2.2v26.2c0 1.2 1 2.2 2.2 2.2H47c1.2 0 2.2-1 2.2-2.2V17.6c0-1.2-1-2.2-2.2-2.2zM33.9 32.8h-2.1c-.2.6-.4 1.2-.7 1.7l1.4 1.4.3.3c.6.8.5 1.9-.3 2.6-.8.6-1.9.5-2.6-.3L28.5 37c-.5.3-1.1.6-1.7.7v2.1c-.1.9-.8 1.6-1.7 1.7-1 .1-1.9-.7-2-1.7v-2c-.7-.2-1.4-.5-2-.8l-1.4 1.4c-.7.5-1.6.5-2.3 0-.8-.6-.9-1.8-.3-2.6l1.4-1.4c-.3-.5-.6-1.1-.7-1.7h-2.1c-.9-.1-1.6-.8-1.7-1.7-.1-1 .7-1.9 1.7-2h2c.2-.7.4-1.4.8-2l-1.7-1.7c-.3-.3-.5-.8-.5-1.3 0-1 .8-1.8 1.8-1.8.5 0 .9.2 1.3.5l1.7 1.7c.6-.4 1.3-.7 2.1-.8v-2c0-1 .8-1.8 1.8-1.8s1.8.8 1.8 1.8v2.1c.6.2 1.2.4 1.7.7l1.5-1.5c.3-.3.8-.5 1.3-.5s1 .2 1.3.5c.7.7.7 1.9 0 2.6L31.1 27c.4.6.6 1.3.8 2h2c.9.1 1.6.8 1.7 1.7.1 1.1-.7 2-1.7 2.1z"/></g></switch></svg>