<svg xmlns="http://www.w3.org/2000/svg" viewBox="0 0 50.4 50.4"><switch><g><path fill="#404040" d="M7.6 1.2v9.3c1.4-.6 3-.6 4.3 0v-5h30.6v31.1h-5.3c-1.6 0-2.9 1.3-2.9 2.9v5.3H11.9v-5.4c-1.4.6-3 .6-4.3 0v9.8h29.5l9.8-10v-38H7.6z"/><path fill="#fa6400" d="M33.5 23.1c-.5-.5-1.1-.8-1.8-.7h-2.5c-.3-1-.7-2-1.2-2.9l1.8-1.8c1-1 1-2.6 0-3.6s-2.6-1-3.6 0l-1.8 1.8c-.9-.5-1.9-1-2.9-1.2v-2.5c0-1.4-1.2-2.6-2.6-2.6-1.4 0-2.5 1.1-2.6 2.6v2.5c-1 .3-2 .7-2.9 1.2l-1.8-1.8c-1-1-2.6-1-3.6 0s-1 2.6 0 3.6l1.8 1.8c-.5.9-1 1.9-1.2 2.9H6.1c-1.4 0-2.6 1.1-2.6 2.6 0 1.4 1.1 2.6 2.6 2.6h2.5c.3 1 .7 2 1.2 2.9L8 32.2c-1 1-1 2.7 0 3.7s2.7 1 3.7 0l1.8-1.8c.9.5 1.9 1 2.9 1.2v2.5c0 1.4 1.2 2.6 2.6 2.6 1.4 0 2.5-1.1 2.6-2.6v-2.5c1-.3 2-.7 2.9-1.2l1.8 1.8c1 1 2.6 1 3.6 0s1-2.6 0-3.6L28 30.4c.5-.9 1-1.9 1.2-2.9h2.5c1.4 0 2.5-1.2 2.5-2.6 0-.6-.2-1.3-.7-1.8zm-14.6 7c-2.8 0-5.1-2.3-5.1-5.1s2.3-5.1 5.1-5.1S24 22.1 24 25c0 2.8-2.3 5.1-5.1 5.1z"/></g></switch></svg>