<svg xmlns="http://www.w3.org/2000/svg" viewBox="0 0 50.4 50.4"><switch><g><path fill="#fa6400" d="M16.5 8.9h11.2M27.8 10.7H16.2c-.7 0-1.3-.6-1.3-1.3 0-.7.6-1.3 1.3-1.3h11.5c.7 0 1.3.6 1.3 1.3.1.7-.5 1.3-1.2 1.3zM11.3 15.8h16.4M27.8 16.7H11.6c-.7 0-1.3-.6-1.3-1.3 0-.7.6-1.3 1.3-1.3h16.2c.7 0 1.3.6 1.3 1.3 0 .7-.6 1.3-1.3 1.3zM11.3 21.9h16.4M27.8 23.5H11.6c-.7 0-1.3-.6-1.3-1.3 0-.7.6-1.3 1.3-1.3h16.2c.7 0 1.3.6 1.3 1.3 0 .8-.6 1.3-1.3 1.3z"/><path fill="#404040" d="M4.4 1.2v37.9h23.1l7.9-8V1.2h-31zm3.5 3.4H32v24.1h-4.3c-1.4.1-2.4 1.2-2.6 2.6v4.3H7.9v-31z"/><path fill="#fa6400" d="M11.3 28.7h10.4M21.4 29.6h-9.9c-.7 0-1.3-.6-1.3-1.3 0-.7.6-1.3 1.3-1.3h9.9c.7 0 1.3.6 1.3 1.3 0 .7-.6 1.3-1.3 1.3z"/><path fill="#404040" d="M38 4.8v36.6H9v2.9h32.1V4.8z"/><path fill="#404040" d="M42.9 9.6v36.7h-29v2.9H46V9.6z"/></g></switch></svg>