<svg xmlns="http://www.w3.org/2000/svg" viewBox="0 0 50.4 50.4"><switch><g><path fill="#fa6400" d="M35.1 32.9H14.6c-.9-.1-1.6-.9-1.5-1.8.1-.8.7-1.4 1.5-1.5h20.5c.9.1 1.6.9 1.5 1.8-.1.8-.7 1.5-1.5 1.5z"/><path fill="#404040" d="M5.6 1.2v48h29.3l10-10.2V1.2H5.6zm4 4h31.2v30.9H35c-1.7.2-3 1.6-3.2 3.3v5.8H9.6v-40z"/><path fill="#fa6400" d="M27.1 39.6H14.6c-.9-.1-1.6-.9-1.5-1.8.1-.8.7-1.4 1.5-1.5h12.5c.9.1 1.6.9 1.5 1.8-.1.8-.7 1.5-1.5 1.5zM32.3 21.4c-1.7-1.3-3.8-2.1-6-2.3.8-.3 1.5-.7 2.1-1.3 1.9-2 1.9-5.1 0-7.1s-5-2-7-.1-2 5-.1 7c.6.6 1.4 1.1 2.2 1.3-2.2.2-4.2 1.1-5.8 2.5-1.1 1.3-1.7 2.9-1.8 4.6h18.3c-.1-1.7-.8-3.3-1.9-4.6z"/></g></switch></svg>