<svg xmlns="http://www.w3.org/2000/svg" viewBox="0 0 50.4 50.4"><switch><g><path fill="#404040" d="M47 8.8H18.7V6.6c0-1.2-1-2.2-2.2-2.2H3.4c-1.2 0-2.2 1-2.2 2.2v6.5h48V11c0-1.2-1-2.2-2.2-2.2zM47 15.4H3.4c-1.2 0-2.2 1-2.2 2.2v26.2c0 1.2 1 2.2 2.2 2.2H47c1.2 0 2.2-1 2.2-2.2V17.6c0-1.2-1-2.2-2.2-2.2z"/><path fill="#fa6400" d="M24.9 27.2c2 0 3.6 1.6 3.6 3.6s-1.6 3.6-3.6 3.6-3.6-1.6-3.6-3.6c-.1-2 1.5-3.6 3.6-3.6m0-3.7c-4 0-7.3 3.3-7.3 7.3s3.3 7.3 7.3 7.3 7.3-3.3 7.3-7.3c-.1-4-3.3-7.3-7.3-7.3z"/><path fill="#fa6400" d="M25 19.9c-1 0-1.8.8-1.8 1.8v3.6c.1 1 1 1.8 2 1.7.9-.1 1.6-.8 1.7-1.7v-3.6c-.1-1-.9-1.8-1.9-1.8zM25 34.4c-1 0-1.8.8-1.8 1.8v3.6c.1 1 1 1.8 2 1.7.9-.1 1.6-.8 1.7-1.7v-3.6c-.1-1-.9-1.8-1.9-1.8zM19.4 29.1h-3.6c-1 .1-1.8 1-1.7 2 .1.9.8 1.6 1.7 1.7h3.6c1-.1 1.8-1 1.7-2-.1-.9-.8-1.6-1.7-1.7zM33.9 29.1h-3.6c-1 .1-1.8 1-1.7 2 .1.9.8 1.6 1.7 1.7h3.6c1-.1 1.8-1 1.7-2-.1-.9-.8-1.6-1.7-1.7zM31.3 22.5c-.5 0-.9.2-1.3.5l-2.6 2.6c-.6.8-.5 1.9.3 2.6.7.5 1.6.5 2.3 0l2.6-2.6c.7-.7.7-1.9 0-2.6-.4-.3-.8-.5-1.3-.5zM21 32.8c-.5 0-.9.2-1.3.5l-2.6 2.5c-.6.8-.5 1.9.3 2.6.7.5 1.6.5 2.3 0l2.6-2.6c.7-.7.7-1.9 0-2.6-.4-.2-.8-.4-1.3-.4zM18.2 22.4c-1 0-1.8.8-1.8 1.8 0 .5.2 1 .5 1.3l2.6 2.6c.6.8 1.8.9 2.6.3.8-.6.9-1.8.3-2.6l-.3-.3-2.6-2.6c-.4-.3-.9-.5-1.3-.5zM28.7 32.8c-1 0-1.8.8-1.8 1.8 0 .5.2 1 .5 1.3l2.6 2.6c.6.8 1.8.9 2.6.3.8-.6.9-1.8.3-2.6l-.3-.3-2.6-2.5c-.4-.4-.8-.6-1.3-.6z"/></g></switch></svg>