<svg xmlns="http://www.w3.org/2000/svg" viewBox="0 0 50.4 50.4"><switch><g><path fill="#404040" d="M7.3 1.2v8.6c1.6.1 3.2.7 4.3 1.9V5.6h30.6v31.2H37c-1.6 0-2.9 1.3-2.9 2.9V45H11.6v-8.6c-1.2 1.1-2.7 1.8-4.3 1.9v11.1h29.5l9.8-10v-38L7.3 1.2z"/><path fill="#fa6400" d="M4.8 34c1.3 1.3 3.3 1.3 4.6 0l5.4-5.4 5.4 5.4c1.3 1.3 3.3 1.3 4.6 0 1.3-1.3 1.3-3.3 0-4.6L19.4 24l5.4-5.4c1.3-1.3 1.3-3.3 0-4.6-1.3-1.3-3.3-1.3-4.6 0l-5.4 5.4L9.4 14c-1.3-1.3-3.3-1.3-4.6 0-1.3 1.3-1.3 3.3 0 4.6l5.4 5.4-5.4 5.4c-1.3 1.2-1.3 3.3 0 4.6z"/></g></switch></svg>