<svg xmlns="http://www.w3.org/2000/svg" viewBox="0 0 50.4 50.4"><switch><g><path fill="#fa6400" d="M8.8 19.7v22.9h32.7V19.7H8.8zm7.7 20.8H11v-3.3h5.5v3.3zm0-5.5H11v-3.3h5.5V35zm0-5.4H11v-3.3h5.5v3.3zm0-5.5H11v-2.2h5.5v2.2zm7.6 16.4h-5.5v-3.3h5.5v3.3zm0-5.5h-5.5v-3.3h5.5V35zm0-5.4h-5.5v-3.3h5.5v3.3zm0-5.5h-5.5v-2.2h5.5v2.2zm7.6 16.4h-5.5v-3.3h5.5v3.3zm0-5.5h-5.5v-3.3h5.5V35zm0-10.9h-5.5v-2.2h5.5v2.2zm7.7 16.4h-5.5v-3.3h5.5v3.3zm0-5.5h-5.5v-3.3h5.5V35zm0-5.4h-5.5v-3.3h5.5v3.3zm0-5.5h-5.5v-2.2h5.5v2.2z"/><path fill="#404040" d="M45.9 5.6h-7.6V2.8c0-.9-.7-1.6-1.6-1.6S35 1.9 35 2.8v2.7H15.4V2.8c0-.9-.7-1.6-1.6-1.6s-1.6.7-1.6 1.6v2.7H4.5C2.7 5.6 1.2 7 1.2 8.8v37.1c0 1.8 1.5 3.3 3.3 3.3H46c1.8 0 3.3-1.5 3.3-3.3V8.8a3.4 3.4 0 0 0-3.4-3.2zM35 8v1.4c0 .9.7 1.6 1.6 1.6s1.6-.7 1.6-1.6V8c1.4.9 1.8 2.8.9 4.2s-2.7 1.7-4.1.8-1.8-2.8-.9-4.2c.3-.3.6-.6.9-.8zM12.1 8v1.4c0 .9.7 1.6 1.6 1.6s1.6-.7 1.6-1.6V8c1.4.9 1.8 2.8.9 4.2-.9 1.4-2.8 1.8-4.2.9s-1.8-2.8-.9-4.2c.4-.4.7-.7 1-.9zm33.8 37.9H4.5V16.5H46v29.4z"/></g></switch></svg>