<svg xmlns="http://www.w3.org/2000/svg" viewBox="0 0 50.4 50.4"><switch><g><path fill="none" d="M25.2 27.3c1.6 0 3.2-.6 4.5-1.6l15.5-13.3v-.2h-40v.2l15.5 13.3c1.3 1.1 2.9 1.6 4.5 1.6z"/><path fill="none" d="M25.2 31.3c-2.6 0-5.1-.9-7.1-2.6L5.2 17.6v20.6h40V17.6L32.3 28.7c-2 1.7-4.5 2.6-7.1 2.6z"/><path fill="#404040" d="M1.2 8.2v34h48v-34h-48zm44 30h-40V17.6l12.9 11.1c4.1 3.5 10.1 3.5 14.1 0l12.9-11.1.1 20.6z"/><path fill="#fa6400" d="M29.7 25.7c-2.6 2.2-6.4 2.2-8.9 0L5.2 12.4v-.2h40v.2L29.7 25.7z"/></g></switch></svg>