<svg xmlns="http://www.w3.org/2000/svg" viewBox="0 0 50.4 50.4"><switch><g><path fill="#fa6400" d="M26.2 20.2c-1.6-1.2-3.6-1.9-5.6-2 2.5-.7 3.9-3.3 3.2-5.7-.7-2.5-3.3-4-5.8-3.2-2.5.7-3.9 3.3-3.2 5.7.4 1.5 1.6 2.7 3.2 3.2-2 .1-3.9.8-5.5 2-.6.5-1.7 4.4-1.7 6.5h17.1c0-2.1-1.1-6-1.7-6.5z"/><path fill="#404040" d="M19.2 37.5c-9.9 0-18-8.1-18-18s8.1-18 18-18 18 8.1 18 18c0 4.7-1.8 9.2-5.1 12.6-3.4 3.5-8.1 5.4-12.9 5.4zm0-31.8H19C11.4 5.8 5.4 12 5.4 19.5c.1 7.6 6.2 13.6 13.8 13.6 7.6-.1 13.6-6.2 13.6-13.8-.1-7.5-6.1-13.5-13.6-13.6zM48.3 47.9c-1.2 1.3-3.2 1.3-4.5.1L31.9 36.2l4.4-4.6 11.9 11.7c1.3 1.3 1.3 3.3.1 4.6z"/><path fill="#404040" d="M30.8 33.1l2.2-2.3 4 3.8c.6.6.6 1.6 0 2.2-.6.6-1.6.6-2.2 0l-4-3.7z"/></g></switch></svg>