<svg xmlns="http://www.w3.org/2000/svg" viewBox="0 0 50.4 50.4"><switch><g fill="#fa6400"><path d="M5.7 9.7l-4.5 17 4.5 1 4.5-17zM44.7 9.7l-4.5 1 4.5 17 4.5-1zM12.4 28.3l-1-.7c-.6-.4-.8-1.1-.6-1.7L14 14.4l5.6-.2.9-2.4-6.9-.1c-.8 0-1.5.6-1.7 1.3L8.4 26.4c-.2.6.1 1.3.6 1.7l2 1.3c.4-.4.9-.8 1.4-1.1zM41.2 29.5l-.5-.5c-.4.3-.8.5-1.2.7l.7.7c.6.7.6 1.7 0 2.3-.5.5-1.4.5-1.9-.1l-.1-.1-3.7-3.7c-.3-.3-.8-.3-1.1 0-.3.3-.3.8 0 1.1l2.7 2.7c.5.5.6 1.3.2 2-.6.8-1.5.6-2.1 0l-3.7-3.7c-.3-.3-.8-.3-1.1 0s-.3.8 0 1.1l2.7 2.7c.5.5.6 1.3.2 1.9-.4.6-1.2.7-1.8.3l-.3-.3-3.7-3.7c-.3-.3-.8-.3-1.1 0-.3.3-.3.8 0 1.1l2.7 2.7c.6.6.5 1.6-.1 2.1s-1.5.5-2 0l-1-1c-.1.6-.3 1.1-.6 1.6l.3.3c1 1.1 2.6 1.3 3.9.5.6-.4 1-1 1.2-1.7 1.5.6 3.3-.1 3.9-1.7 0-.1.1-.2.1-.3 1.5.6 3.3-.1 3.9-1.7 0-.1.1-.2.1-.3 1.2.5 2.6.1 3.5-.9 1-1.3 1-3-.1-4.1z"/><path d="M24.6 39.4c.3-.5.5-1 .5-1.6 0-.6-.2-1.1-.6-1.5-.5-.4-1.1-.6-1.8-.5l-.7-.5c-.1-.4-.2-.7-.5-.9-.4-.4-1-.6-1.6-.6l-.9-.6c.1-.7-.1-1.3-.5-1.8-.7-.6-1.7-.7-2.5-.4v-.2c.4-.9.3-1.9-.3-2.6-1-.7-2.3-.7-3.3 0-.5.3-1 .7-1.3 1.2-.9 1.2-1.1 2.9-.3 3.7.8.6 1.8.8 2.7.3-.5.9-.4 1.9.3 2.7.8.8 2.3.7 3.5-.2-.3.8-.1 1.6.5 2.2.7.6 1.6.7 2.4.4-.1.6.1 1.2.6 1.6 1.1.9 2.6.7 3.5-.3.1-.1.2-.3.3-.4zM39.6 29.7c.4-.2.8-.5 1.2-.7l.8-.8c.4-.4.6-1 .4-1.6l-3.4-13.5c-.2-.8-.9-1.4-1.7-1.3H20.4l-4.2 11c.1 1.1.9 1.9 2 2 1.2 0 2.3-.6 3-1.5l3-4.5H29l10.6 10.9z"/><path d="M39.9 30.1L28.8 18.7h2.1l9.9 10.4z"/></g></switch></svg>