<svg xmlns="http://www.w3.org/2000/svg" viewBox="0 0 50.4 50.4"><switch><g><path fill="#fa6400" d="M39.3 15.3c.6-.2 1.3-.3 1.9-.3.4 0 .8 0 1.2.1-2.4-4.2-6.4-7.4-11-8.9-.2.9-.5 1.8-.9 2.6 3.5 1.2 6.6 3.4 8.8 6.5zM11.1 15.3c2.2-3.1 5.3-5.3 8.8-6.5-.4-.8-.8-1.7-.9-2.6-4.6 1.5-8.6 4.7-11.1 8.9.5-.1.9-.1 1.3-.1.7 0 1.3.1 1.9.3zM19.9 41.7c-3.4-1.1-6.5-3.3-8.6-6.2H8.1c2.1 3.5 5.1 6.2 8.8 7.9.5-.5 1.2-.9 1.9-1.2l1.1-.5zM39.1 35.5c-2.1 2.9-5.2 5.1-8.6 6.2l1.2.5c.7.3 1.4.7 1.9 1.2 3.7-1.7 6.7-4.5 8.8-7.9h-3.3z"/><path fill="#404040" d="M17.2 33.2c.1-1.5-.3-3-1.2-4.2-.3-.4-.8-.6-1.2-.8-1.4-.6-1.8-.8-2.7-1.1s-.9-.5-.9-.9v-.8c1.2-1.1 1.9-2.6 2-4.3 0-2.2-1.8-4-4-4s-4 1.8-4 4c.1 1.6.8 3.2 2 4.3v.8c0 .3 0 .5-.9.9s-1.3.6-2.7 1.1c-.5.1-.9.4-1.2.8-.9 1.2-1.3 2.7-1.2 4.2h16zM49.2 33.2c.1-1.5-.3-3-1.2-4.2-.3-.4-.8-.6-1.2-.8-1.4-.6-1.8-.8-2.7-1.1s-.9-.5-.9-.9v-.8c1.2-1.1 1.9-2.6 2-4.3 0-2.2-1.8-4-4-4s-4 1.8-4 4c.1 1.6.8 3.2 2 4.3v.8c0 .3 0 .5-.9.9-.9.3-1.3.6-2.7 1.1-.5.1-.9.4-1.2.8-.9 1.2-1.3 2.7-1.2 4.2h16zM33.2 17.2c.1-1.5-.3-3-1.2-4.2-.3-.4-.8-.6-1.2-.8-1.4-.6-1.8-.8-2.7-1.1-.9-.3-.9-.5-.9-.9v-.8c1.2-1.1 1.9-2.6 2-4.3 0-2.2-1.8-4-4-4s-4 1.8-4 4c.1 1.6.8 3.2 2 4.3v.8c0 .3 0 .5-.9.9-.9.3-1.3.6-2.7 1.1-.5.1-.9.4-1.2.8-.9 1.2-1.3 2.7-1.2 4.2h16zM33.2 49.2c.1-1.5-.3-3-1.2-4.2-.3-.4-.8-.6-1.2-.8-1.4-.6-1.8-.8-2.7-1.2-.9-.3-.9-.5-.9-.8v-.8c1.2-1.1 1.9-2.6 2-4.3 0-2.2-1.8-4-4-4s-4 1.8-4 4c.1 1.6.8 3.2 2 4.3v.8c0 .3 0 .5-.9.8-.9.3-1.3.6-2.7 1.2-.5.1-.9.4-1.2.8-.9 1.2-1.3 2.7-1.2 4.2h16z"/></g></switch></svg>