<svg xmlns="http://www.w3.org/2000/svg" viewBox="0 0 50.4 50.4"><switch><g fill="#fa6400"><path d="M42.2 33.3c-3.5-3.1-9.2-4.3-13.9-4.7 1.8-.5 3.5-1.5 4.8-2.8.9-.9 1.6-1.9 2.2-3l-4 .7c-.4.6-1 1.1-1.7 1.3-.5.2-1 .3-1.5.3-.6 0-1.1-.1-1.7-.4-1.7-.8-2.6-2.7-2.1-4.6.6-2 2.6-3.3 4.6-2.8.5.1.9.3 1.3.6l6.2-1.2c-.6-6.3-6.2-11-12.5-10.4s-11 6.2-10.4 12.5c.4 4.7 3.7 8.7 8.3 10-4.8.5-10.2 1.6-13.5 4.6-1.5 1.3-4.2 10.3-4.2 15.9h42.3c0-5.7-2.8-14.7-4.2-16z"/><path d="M40.5 15v-.2c0-7.2-7-13.6-15.7-13.6-9 0-15.5 6.4-15.5 13.6v.2c-1.4.7-2.3 2.2-2.2 3.8 0 2.2 1.5 4 3.4 4 .6 0 1.1-.4 1.1-1v-7c0-6.1 6.5-11.2 13.2-11.2 6.8 0 13.4 5.1 13.4 11.2v4l-9.5 1.8c.2.6.4 1.3.5 1.9l9-1.5c.1.5.6 1.8 1.1 1.8 1.8 0 3.3-1.8 3.3-4 .2-1.6-.7-3.1-2.1-3.8z"/><circle cx="28" cy="21.3" r="2.2"/></g></switch></svg>