<svg xmlns="http://www.w3.org/2000/svg" viewBox="0 0 50.4 50.4"><switch><g fill="#fa6400"><path d="M25.2 1.2c-8.3 0-15 6.7-15 15 0 1.2.1 2.4.4 3.6 2.4 7.9 14.6 29.4 14.6 29.4s12.7-22.5 14.6-29.4c.3-1.2.5-2.4.4-3.6 0-8.3-6.7-15-15-15zm0 26.7c-6.2 0-11.3-5.1-11.3-11.3 0-6.2 5.1-11.3 11.3-11.3 6.2 0 11.3 5.1 11.3 11.3-.1 6.2-5.1 11.2-11.3 11.3z"/><path d="M30.7 16.9c-1.3-1-2.9-1.5-4.6-1.5.6-.2 1.2-.5 1.6-.9 1.4-1.5 1.4-3.9-.1-5.3s-3.9-1.4-5.3.1-1.4 3.9.1 5.3c.4.4 1 .7 1.6.9-1.6 0-3.2.5-4.5 1.5-.5.4-1.4 4.2-1.4 5.2H32c.1-1.1-.8-4.9-1.3-5.3z"/></g></switch></svg>