<svg xmlns="http://www.w3.org/2000/svg" viewBox="0 0 50.4 50.4"><switch><g><g fill="#fa6400"><path d="M20.9 5.6c1-3.2 4.3-4.9 7.5-4 3.2 1 4.9 4.3 4 7.5-1 3.2-4.3 4.9-7.5 4-3.2-1.1-5-4.4-4-7.5z"/><path d="M17.5 11.8c-.4-.1-.7-.1-1.1 0l-7.3 1.9c-.8.2-1.4.8-1.6 1.5L4.9 26.6c-.3 1 .2 2 1.1 2.5 1 .5 2.3.1 2.8-.9 0-.1.1-.1.1-.2l3.4-8.9 3.1-.7-6.8 27.1c-.3 1.6.7 3.2 2.4 3.5 1.4.3 2.7-.5 3.3-1.8L19 34.6l7.1-.1-2.7 6.8c-.5 1.6.3 3.3 1.9 3.8 1.3.5 2.8-.1 3.5-1.3l6-10.5c1-1.6.4-3.7-1.2-4.7-.1-.1-.3-.2-.4-.2-.3-.1-.5-.2-.8-.2l-8.1-.9 3-6.2 5.1 4.5c.7.4 1.5.4 2.2 0l9.9-6c.9-.5 1.3-1.6 1-2.5-.4-1.1-1.6-1.7-2.7-1.4-.1 0-.1.1-.2.1L34 19.9l-2.4-3.3c-.2-.3-.6-.6-1-.7l-13.1-4.1z"/></g></g></switch></svg>