<svg xmlns="http://www.w3.org/2000/svg" viewBox="0 0 50.4 50.4"><switch><g fill="#fa6400"><path d="M46.1 36.8c-2.6-2.3-6.9-3.1-10.4-3.4 1.4-.4 2.6-1 3.6-2 3.2-3.4 3.1-8.7-.2-12-3.4-3.2-8.7-3.1-12 .2-3.2 3.4-3.1 8.7.2 12 1 1 2.2 1.7 3.6 2-3.6.3-7.6 1-10.1 3.2-1.1 1-3.1 7.6-3.1 11.7h31.5c0-4.1-2-10.7-3.1-11.7z"/><path d="M22.7 28.3c-5.8 3.1-13 .9-16.1-4.9-3.1-5.8-.9-13 4.9-16.1 5.8-3.1 13-.9 16.1 4.9.5 1 .9 2 1.1 3.1 1.2-.6 2.6-.9 3.9-.9-1.9-8.6-10.4-14-19-12.1s-14 10.4-12.1 19c1.9 8.6 10.4 14 19 12.1 1.4-.3 2.7-.8 3.9-1.5-.7-1.1-1.3-2.3-1.7-3.6z"/><path d="M13.5 20.9l1.8.6c.6.2 1.3.3 1.9.3.4 0 .9-.1 1.2-.3.5-.3.6-.9.3-1.4l-.3-.3c-.5-.3-1-.5-1.5-.6-.6-.2-1.2-.4-1.7-.6-.5-.2-.9-.4-1.3-.7-.4-.3-.7-.6-.9-1-.2-.5-.3-1-.3-1.6 0-.5.1-1 .2-1.5.1-.4.3-.8.6-1.1.3-.3.6-.6 1-.8.4-.2.8-.3 1.2-.4v-2h3.1v2.1c.5.1 1 .2 1.4.3.4.1.9.3 1.3.5l-.7 2.3c-.5-.2-1.1-.4-1.6-.6-.6-.2-1.3-.3-1.9-.3-.4 0-.8.1-1.2.2-.2.2-.4.5-.4.8 0 .2 0 .3.1.5.1.1.3.3.4.3.2.1.5.2.8.3l1.1.4c.5.2 1 .3 1.4.5.4.2.8.4 1.2.7.3.3.6.7.8 1.1.5 1.3.3 2.9-.5 4-.6.7-1.4 1.1-2.3 1.3v2.2h-3.1V24l-1.5-.3c-.5-.1-1-.3-1.4-.5l.8-2.3z"/></g></switch></svg>