<svg xmlns="http://www.w3.org/2000/svg" viewBox="0 0 50.4 50.4"><switch><g><path fill="#fa6400" d="M22.3 25.9c0-4 2.2-7.7 5.7-9.6.1-.9.1-1.8.1-2.8v-7c0-.7-.5-1.3-1.2-1.4-2.4-.2-7.7-1.1-11.5-3.6-.5-.3-1.1-.3-1.5 0C10.1 4 4.8 4.9 2.5 5.1c-.8.1-1.3.7-1.3 1.4v6.7c0 16.6 13.4 21.2 13.4 21.2 3.1-1.1 5.9-2.9 8.2-5.3-.3-1-.5-2.1-.5-3.2zm-8.4 5c-3-1.3-10.1-5.7-10.1-17.6V7.9c6-.4 7.1-.6 10.1-2.7v25.7z"/><path fill="#404040" d="M46.1 37.4c-2.6-2.3-6.8-3.1-10.4-3.4 1.4-.4 2.6-1 3.6-2 3.2-3.4 3.1-8.7-.2-11.9-3.4-3.2-8.7-3.1-11.9.2-3.2 3.4-3.1 8.7.2 11.9 1 1 2.2 1.7 3.6 2-3.6.3-7.6 1-10.1 3.2-1.1 1-3.1 7.6-3.1 11.6h31.5c-.1-4-2.1-10.6-3.2-11.6z"/></g></switch></svg>