<svg xmlns="http://www.w3.org/2000/svg" viewBox="0 0 50.4 50.4"><switch><g><path fill="#404040" d="M33 13.4c-1.6-1.4-4.2-1.9-6.4-2 .8-.2 1.6-.6 2.2-1.2 2-2 2.1-5.3 0-7.4-2.1-2-5.4-2-7.5 0-2 2.1-2 5.4 0 7.5.6.6 1.4 1.1 2.3 1.3-2.2.2-4.6.5-6.2 1.9-.7.6-1.9 4.9-1.9 7h19.4c0-2.2-1.2-6.5-1.9-7.1z"/><path fill="#fa6400" d="M42.8 23.8h-35L1.2 45v4.1h3.5c.4-2.2 1.2-5 1.7-5.4 1.5-1.4 4-1.9 6.2-2.1-2.8-.8-4.4-3.7-3.7-6.5s3.7-4.4 6.5-3.7c2.8.8 4.4 3.7 3.7 6.5-.2.9-.7 1.7-1.3 2.3-.6.6-1.4 1-2.2 1.3 2.2.2 4.8.7 6.4 2.1.5.5 1.4 3.2 1.7 5.4h3.1c.4-2.2 1.2-5 1.7-5.4 1.5-1.4 4-1.9 6.2-2.1-2.8-.8-4.4-3.7-3.7-6.5.8-2.8 3.7-4.4 6.5-3.7 2.8.8 4.4 3.7 3.7 6.5-.2.9-.7 1.7-1.3 2.3-.6.6-1.4 1-2.2 1.3 2.2.2 4.8.7 6.4 2.1.5.5 1.4 3.2 1.7 5.4h3.5v-4.2l-6.5-20.9z"/></g></switch></svg>