<svg xmlns="http://www.w3.org/2000/svg" viewBox="0 0 50.4 50.4"><switch><g><path fill="#404040" d="M36.4 17.9c-2.2-1.9-5.7-2.7-8.6-2.9 1.1-.3 2.2-.9 3-1.7 2.7-2.8 2.7-7.3-.1-10-2.8-2.7-7.3-2.7-10 .1-2.7 2.8-2.7 7.3.1 10 .8.8 1.9 1.4 3 1.7-3 .3-6.3 1-8.4 2.8-.9.8-2.6 6.8-2.6 9.8H39c0-2.9-1.7-9-2.6-9.8zM5.2 37.1h19v4h2v-4h19v4h2v-6h-21v-4h-2v4h-21v6h2z"/><circle cx="46.2" cy="46.1" r="3" fill="#404040"/><circle cx="25.2" cy="46.1" r="3" fill="#fa6400"/><circle cx="4.2" cy="46.1" r="3" fill="#404040"/></g></switch></svg>