<svg xmlns="http://www.w3.org/2000/svg" viewBox="0 0 50.4 50.4"><switch><g fill="#fa6400"><path d="M26.5 33.8c0-2.4.7-4.8 2.1-6.9-2.1-.6-4.2-1-6.4-1.1 1.6-.4 3-1.3 4.2-2.4 3.8-3.9 3.8-10.2-.1-14-3.9-3.8-10.2-3.8-14 .1s-3.8 10.2.1 14c1.2 1.2 2.6 2 4.2 2.5-4.2.4-8.8 1.4-11.7 4-1.3 1-3.7 8.8-3.7 13.7h30c-3-2.4-4.7-6.1-4.7-9.9z"/><path d="M39.1 23.7c-5.6 0-10.1 4.5-10.1 10.1s4.5 10.1 10.1 10.1 10.1-4.5 10.1-10.1-4.5-10.1-10.1-10.1zm6.2 11.6h-4.8v4.8h-2.9v-4.8h-4.8v-2.9h4.8v-4.8h2.9v4.8h4.8v2.9z"/></g></switch></svg>