<svg xmlns="http://www.w3.org/2000/svg" viewBox="0 0 50.4 50.4"><switch><g fill="#fa6400"><path d="M22.9 29.5l-7.1-7.1c-.6-.6-1.5-.6-2.1 0-.6.6-.4 1.8.1 2.6l3 5.2s.6.9-.7.9c-.7 0-1.4-.2-2-.5 0 0-4.2-2.1-5.1-2.7-.9-.4-1.4-1.3-1.3-2.2v-8.6c0-1-.7-1.9-1.7-2.1-1-.2-2 .5-2.2 1.6v11.5c0 1.2.3 2.3 1 3.3l9.1 9.3v6.8c0 1 .8 1.8 1.8 1.8h6.5c1 0 1.8-.8 1.8-1.8V32.1c.1-1-.3-2-1.1-2.6zM44.2 14.9c-1 .2-1.7 1.1-1.7 2.1v8.6c.1.9-.4 1.8-1.3 2.2-.9.6-5.1 2.7-5.1 2.7-.6.3-1.3.5-2 .5-1.3 0-.7-.9-.7-.9l3-5.2c.5-.8.7-2 .1-2.6-.6-.6-1.5-.6-2.1 0l-7 7.1c-.7.7-1.1 1.6-1 2.6v15.4c0 1 .8 1.8 1.8 1.8h6.5c1 0 1.8-.8 1.8-1.8v-6.8l9.1-9.3c.7-.9 1-2.1 1-3.3V16.9c0-1.1-.8-2-1.9-2.1-.2.1-.3.1-.5.1zM23.9 1.5L17.4 5l8 4.2 8-4-6.5-3.6c-1-.6-2.1-.6-3-.1zM17.9 17.6l6.4 3.4v-9.4l-8.1-4.3v7.6c.1 1.1.7 2.1 1.7 2.7zM26.4 20.9l6.4-3.2c1.1-.5 1.7-1.6 1.7-2.8V7.5l-8.1 4v9.4z"/></g></switch></svg>