<svg xmlns="http://www.w3.org/2000/svg" viewBox="0 0 50.4 50.4"><switch><g fill="#fa6400"><path d="M41 22.8h-4c0-6.2-5-11.2-11.2-11.2v-4c8.4 0 15.2 6.8 15.2 15.2z"/><path d="M27 14.6l-4.9-4.9L27 4.9zM24.3 42.4C15.9 42.4 9 35.5 9 27.1h4c0 6.2 5 11.2 11.2 11.2v4.1z"/><path d="M23.1 34.9l5.3 5.3-5.3 5.3zM47 33.2c-1.5-1.3-4-1.7-6-1.9.8-.2 1.5-.6 2.1-1.1 1.9-1.9 2-5 .1-6.9l-.1-.1c-1.9-2-5.1-2-7.1-.1s-2 5.1-.1 7.1c.6.6 1.4 1.1 2.3 1.3-2.1.2-4.4.4-5.9 1.7-.6.6-1.8 4.6-1.8 6.6h18.3c0-2-1.2-6-1.8-6.6zM18 21.1c-1.5-1.3-4-1.8-6-1.9.8-.2 1.5-.6 2.1-1.2 2-1.9 2-5 .1-7s-5-2-7-.1l-.1.1c-1.9 2-1.9 5.1.1 7.1.6.6 1.3 1 2.1 1.2-2.1.2-4.4.5-5.9 1.8-.6.6-1.8 4.7-1.8 6.7h18.3c-.1-2-1.2-6.1-1.9-6.7z"/></g></switch></svg>