<svg xmlns="http://www.w3.org/2000/svg" viewBox="0 0 50.4 50.4"><switch><g fill="#fa6400"><path d="M24.7 2.2h2.4c1.5 0 2.7 1.2 2.7 2.7v8.2c0 1.5-1.2 2.7-2.7 2.7h-2.5c-1.5 0-2.7-1.2-2.7-2.7V5c.1-1.5 1.3-2.8 2.8-2.8z"/><path d="M47.2 12.2H32.8v4.3c0 1.5-1.2 2.7-2.7 2.7h-8.5c-1.5 0-2.7-1.2-2.7-2.7v-4.3H3.2c-1.1 0-2 .9-2 2v32c0 1.1.9 2 2 2h44c1.1 0 2-.9 2-2v-32c0-1.1-.9-2-2-2zM5 41.3c0-3 1-5.8 1.5-6.2 1.4-1.2 3.1-1.9 4.9-2.1-.7-.2-1.3-.6-1.8-1.1C8 30.3 8 27.6 9.6 26c1.6-1.6 4.3-1.6 5.9 0 1.6 1.6 1.6 4.3 0 5.9-.5.5-1.1.9-1.8 1.1 1.8.2 3.6.9 5 2 .5.5 1.5 3.2 1.6 6.2H5zm37.3 2.2H25.2c-1.1 0-2-.9-2-2s.9-2 2-2h17.1c1.1 0 2 .9 2 2s-.9 2-2 2zm0-7.5H25.2c-1.1 0-2-.9-2-2s.9-2 2-2h17.1c1.1 0 2 .9 2 2s-.9 2-2 2zm0-7.5H25.2c-1.1 0-2-.9-2-2s.9-2 2-2h17.1c1.1 0 2 .9 2 2s-.9 2-2 2z"/></g></switch></svg>