<svg xmlns="http://www.w3.org/2000/svg" viewBox="0 0 50.4 50.4"><switch><g><path fill="#fa6400" d="M38.3 20.5c-1.4.2-2.8.6-4 1.2-.3.2-.5.5-.7.8 1.6.6 3.1 1.5 4.4 2.6.5.4 1.2 1.2 2.2 5.5H49c0-2.9-1.2-7-1.8-7.5-1.8-1.4-3.9-2.2-6.2-2.3.8-.3 1.5-.7 2.1-1.4 2-2 2-5.2 0-7.2s-5.2-2-7.2 0-2 5.2 0 7.2c.8.4 1.5.9 2.4 1.1z"/><path fill="#4d4d4d" d="M36.2 27.5c-2.2-2-5.9-3-8.9-3.2 1.2-.4 2.2-1 3.1-1.9 2.9-2.8 2.9-7.5.1-10.4-2.9-2.9-7.5-3-10.4-.1-2.9 2.8-2.9 7.5-.1 10.4.9.9 2 1.5 3.2 1.9-3.1.3-6.1 1.4-8.6 3.4-.9.8-2.7 9.1-2.7 13.1h26.9c0-4.1-1.7-12.4-2.6-13.2z"/><path fill="#fa6400" d="M12.6 25.1c1.2-1.1 2.7-1.9 4.2-2.5-.2-.3-.3-.7-.6-.8-1.3-.6-2.7-1-4.2-1.1.8-.3 1.5-.8 2.1-1.4 2-2 2-5.2 0-7.2s-5.2-2-7.2 0-2 5.2 0 7.2c.6.6 1.3 1 2.2 1.3-2.2.2-4.3 1.1-6 2.5-.6.6-1.9 4.6-1.9 7.5h9.1c1.1-4.3 1.9-5.1 2.3-5.5z"/></g></switch></svg>