<svg xmlns="http://www.w3.org/2000/svg" viewBox="0 0 50.4 50.4"><switch><g fill="#fa6400"><path d="M14 1.2c3.4 0 6.2 2.8 6.2 6.2 0 3.4-2.8 6.2-6.2 6.2-3.4 0-6.2-2.8-6.2-6.2 0-3.4 2.8-6.2 6.2-6.2zM8.8 15.3l-3.8.5c-1.2.2-2.1 1.3-1.9 2.6v.1l2.4 11.9c.2 1 1.1 1.8 2.2 1.8h.1L9.7 47c.1 1.1 1 1.9 2.1 1.9h4.5c1.1 0 2-.8 2.1-1.9l2.4-25.5s0-.1.1-.1l10.7-.7c1.1 0 2-.8 2.2-1.9.2-1.2-.6-2.3-1.8-2.5h-.2l-14.5-.9-8.5-.1z"/><path d="M47.3 28.4l-10.3-4-10.3 4.1c-.1 2.9 0 6.3 0 10.2 0 5.8 10.3 10.6 10.3 10.6s10.3-4.7 10.3-10.6c0-4 .1-7.4 0-10.3zM35.1 42.3l-2.2-2.2-2.9-2.9 2.2-2.2 2.9 2.9 6.6-6.6 2.2 2.2-8.8 8.8z"/></g></switch></svg>