<svg xmlns="http://www.w3.org/2000/svg" viewBox="0 0 50.4 50.4"><switch><g><path fill="#404040" d="M23.3 39.9c-2-1.8-5.3-2.4-8.1-2.6 1.1-.3 2-.8 2.8-1.6 2.7-2.5 2.8-6.7.3-9.4s-6.7-2.8-9.4-.3l-.3.3C6 29 6 33.2 8.6 35.8c.8.8 1.8 1.4 2.9 1.7-2.8.3-5.9.7-7.8 2.4-.9.8-2.4 6-2.4 9h24.5c-.1-3-1.7-8.2-2.5-9z"/><path fill="#404040" d="M49.2 1.5H3.1v6h4.3v16c1.1-.9 2.5-1.5 3.9-1.8V7.5h31.1V30H22.9c.2 1.3.1 2.6-.3 3.9h23.7V7.5h2.9v-6z"/><path fill="#fa6400" d="M25.1 21.4c1.1 0 2 .9 2 2v1.5c0 1.1-.9 2-2 2s-2-.9-2-2v-1.5c0-1.1.9-2 2-2zM31.1 16.7c1.1 0 2 .9 2 2v6.2c0 1.1-.9 2-2 2s-2-.9-2-2v-6.2c0-1.1.9-2 2-2zM37.2 10.6c1.1 0 2 .9 2 2v12.2c0 1.1-.9 2-2 2s-2-.9-2-2V12.6c0-1.1.9-2 2-2z"/></g></switch></svg>