<svg xmlns="http://www.w3.org/2000/svg" viewBox="0 0 50.4 50.4"><switch><g><path fill="#404040" d="M10.5 19.7h12c.9-.1 1.6-.9 1.5-1.8-.1-.8-.7-1.4-1.5-1.5h-12c-.9.1-1.6.9-1.5 1.8.1.8.7 1.5 1.5 1.5zM10.7 14.3h13.7c.9.1 1.7-.5 1.9-1.4.1-.9-.5-1.7-1.4-1.9H10.7c-.9-.1-1.7.5-1.9 1.4-.1.9.5 1.7 1.4 1.9h.5zM10.5 25.2h7.6c.9.1 1.7-.6 1.8-1.5.1-.9-.6-1.7-1.5-1.8H10.5c-.9-.1-1.7.6-1.8 1.5-.1.9.6 1.7 1.5 1.8h.3z"/><circle cx="36.1" cy="25.2" r="8.7" fill="#ff6400"/><path fill="#ff6400" d="M40.5 33.9h-8.7c-4.8 0-8.7 3.9-8.7 8.7V47h26.2v-4.4c-.1-4.8-4-8.6-8.8-8.7z"/><path fill="#404040" d="M23.6 33.9h-18V7.7h34.9V14c1.7.7 3.1 1.7 4.4 3V5.6c0-1.2-1-2.2-2.2-2.2H3.4c-1.2 0-2.2 1-2.2 2.2v30.5c0 1.2 1 2.2 2.2 2.2h17.2c.7-1.7 1.7-3.2 3-4.4z"/></g></switch></svg>