<svg xmlns="http://www.w3.org/2000/svg" viewBox="0 0 50.4 50.4"><switch><g fill="#fa6400"><path d="M12.5 35.7h25v4h-25z"/><path d="M17.8 36.9c-1.7-1.3-3.7-2-5.8-2.1 2.6-.7 4.1-3.5 3.4-6.1-.7-2.6-3.5-4.1-6.1-3.4-2.6.7-4.1 3.5-3.4 6.1.5 1.6 1.7 2.9 3.4 3.4-2.1.1-4 .8-5.7 2.1-.6.5-1.8 3.8-1.8 6.8h17.7c.1-3-1.1-6.3-1.7-6.8zM46.8 36.9c-1.7-1.3-3.7-2-5.8-2.1 2.6-.7 4.1-3.5 3.4-6.1-.7-2.6-3.5-4.1-6.1-3.4-2.6.7-4.1 3.5-3.4 6.1.5 1.6 1.7 2.9 3.4 3.4-2.1.1-4 .8-5.7 2.1-.6.5-1.8 3.8-1.8 6.8h17.7c.1-3-1.1-6.3-1.7-6.8zM23.5 20.7h4v17h-4z"/><path d="M32.1 18c-1.5-1.3-3.9-1.9-5.8-2 2.5-.7 4-3.4 3.2-5.9-.7-2.5-3.4-4-5.9-3.2-2.5.7-4 3.4-3.2 5.9.5 1.5 1.7 2.8 3.2 3.2-2 .1-4 .8-5.7 2-.6.5-1.8 3.7-1.8 6.7h17.7c.1-3-1-6.2-1.7-6.7z"/></g></switch></svg>