<svg xmlns="http://www.w3.org/2000/svg" viewBox="0 0 50.4 50.4"><switch><g><path fill="#404040" d="M31.7 29.7c-2.8-2.5-7.4-3.7-11.2-4 4.9-1.4 7.8-6.5 6.4-11.4-1.4-4.9-6.5-7.8-11.4-6.4-4.9 1.4-7.8 6.5-6.4 11.4.4 1.5 1.2 2.9 2.3 4 1.1 1.1 2.5 1.9 4 2.3-3.9.4-8.1 1.7-10.9 4.1-1.2 1-3.4 8.2-3.4 13.2H35c.1-5-2.1-12.2-3.3-13.2z"/><path fill="#fa6400" d="M34.8 22.6c-2.2.1-4.4.7-6.4 1.7 1.9.7 3.8 1.7 5.3 3.1.4.4 1.6 1.4 3 6.7 0 .2.1.4.1.6h12.4c0-2.9-1.6-8.6-2.5-9.4-2-1.8-5.4-2.5-8.2-2.8 1.1-.3 2-.9 2.8-1.7 2.6-2.6 2.6-6.9-.1-9.5-2.6-2.6-6.9-2.6-9.5.1-2.6 2.6-2.6 6.9.1 9.5.9.9 1.9 1.4 3 1.7z"/></g></switch></svg>