<svg xmlns="http://www.w3.org/2000/svg" viewBox="0 0 50.4 50.4"><switch><g fill="#fa6400"><path d="M46.1 36.8c-2.6-2.3-6.9-3.1-10.4-3.4 1.4-.4 2.6-1 3.6-2 3.2-3.4 3.1-8.7-.2-12-3.4-3.2-8.7-3.1-12 .2s-3.1 8.7.2 12c1 1 2.2 1.7 3.6 2-3.6.3-7.6 1-10.1 3.2-1.1 1-3.1 7.6-3.1 11.7h31.6c-.1-4.1-2.1-10.7-3.2-11.7z"/><path d="M22.7 28.3c-5.8 3.1-13 .9-16.1-4.9-3.1-5.8-.9-13 4.9-16.1 5.8-3.1 13-.9 16.1 4.9.5 1 .9 2 1.1 3.1 1.2-.6 2.6-.9 3.9-.9-1.9-8.6-10.4-14-19-12.1s-14 10.4-12.1 19 10.4 14 19 12.1c1.4-.3 2.7-.8 3.9-1.5-.7-1.1-1.3-2.3-1.7-3.6z"/><path d="M12.7 25.3c-.8 0-1.5-.7-1.5-1.5 0-.4.2-.8.4-1.1l4.2-4.2v-8.2c.1-.8.9-1.4 1.7-1.3.6.1 1.1.6 1.3 1.3v9.5l-5.1 5.1c-.2.3-.6.4-1 .4z"/></g></switch></svg>