<svg xmlns="http://www.w3.org/2000/svg" viewBox="0 0 50.4 50.4"><switch><g><path fill="#404040" d="M27.3 3.3h-1.6v7c.9-.1.8-.1 1.2-.1s1.5.1 1.5.2V7.2c2.3 1.8 4.2 4 5.8 6.4h-1.7c.1.5.2 1 .2 1.5 0 .4 0 .9-.2 1.3h2.8c.4 1.8.7 2.4 1 3.6.6-.2 1.2-.2 1.8-.2.3-.1.6-.1.9-.1-.2-1.1-.5-2.2-.8-3.2h5.3c1.1 2.3 1.8 4.8 2 7.3h-2.1c.1 0 .2 1 .2 1.5s0 .3-.1 1.2h2c-.1 2.6-.8 5.1-2.1 7.3h-5.3c.4-1 .6-2 .8-3.1-.9.2-1.9.1-2.7-.3-.2 1.1-.6 2.3-1 3.4h-2.8c.1.4.2.8.1 1.2 0 .5-.1 1-.2 1.5h1.6c-1.3 2.6-3.1 4.9-5.2 6.8l-.5.1v-3c0 .1-1 .2-1.5.2s-.3 0-1.2-.1v6.6h1.6c12.1 0 21.9-9.8 21.9-21.9S39.4 3.3 27.3 3.3zm10 10.4c-1.1-2.2-2.4-4.3-4-6.2 3.4 1.2 6.4 3.4 8.6 6.2h-4.6zm-3.6 28.5c1.3-1.8 2.5-3.7 3.5-5.7h4.5c-2.1 2.7-4.9 4.6-8 5.7z"/><path fill="#404040" d="M28.4 23.7v-2.8c0 .1-1 .2-1.5.2s-.3 0-1.2-.1v8.8c.9-.1.8-.1 1.2-.1s1.5.1 1.5.2v-3.4h4.5c-.1-.9-.1-.8-.1-1.2s.1-1.5.2-1.5l-4.6-.1zM21.1 26.9c-1.8-.6-3.6-1-5.5-1.2 1.1-.3 2.1-.9 2.9-1.7 2.6-2.7 2.6-7-.1-9.6-2.7-2.6-7-2.6-9.6.1s-2.6 7 .1 9.6c.8.8 1.8 1.4 2.9 1.7-2.9.3-6 .9-8.1 2.7-.9.8-2.5 6.1-2.5 9.4h19.9v-11z"/><path fill="#fa6400" d="M26.9 12.9c1.5 0 2.7 1.2 2.7 2.7 0 1.5-1.2 2.7-2.7 2.7-1.5 0-2.7-1.2-2.7-2.7-.1-1.5 1.2-2.7 2.7-2.7zM37.8 22.6c1.5 0 2.7 1.2 2.7 2.7 0 1.5-1.2 2.7-2.7 2.7-1.5 0-2.7-1.2-2.7-2.7 0-1.4 1.2-2.7 2.7-2.7z"/><circle cx="26.9" cy="35.1" r="2.7" fill="#fa6400"/></g></switch></svg>