<svg xmlns="http://www.w3.org/2000/svg" viewBox="0 0 50.4 50.4"><switch><g><path fill="#404040" d="M47.2 12.2H32.8v4.3c0 1.5-1.2 2.7-2.7 2.7h-8.5c-1.5 0-2.7-1.2-2.7-2.7v-4.3H3.2c-1.1 0-2 .9-2 2v32c0 1.1.9 2 2 2h44c1.1 0 2-.9 2-2v-32c0-1.1-.9-2-2-2zm-4.9 31.3H25.2c-1.1 0-2-.9-2-2s.9-2 2-2h17.1c1.1 0 2 .9 2 2s-.9 2-2 2zm0-7.5H25.2c-1.1 0-2-.9-2-2s.9-2 2-2h17.1c1.1 0 2 .9 2 2s-.9 2-2 2zm0-7.5H25.2c-1.1 0-2-.9-2-2s.9-2 2-2h17.1c1.1 0 2 .9 2 2s-.9 2-2 2z"/><path fill="#404040" d="M24.7 2.2h2.4c1.5 0 2.7 1.2 2.7 2.7v8.2c0 1.5-1.2 2.7-2.7 2.7h-2.5c-1.5 0-2.7-1.2-2.7-2.7V5c.1-1.5 1.3-2.8 2.8-2.8z"/><path fill="#fa6400" d="M18.8 35c-1.4-1.1-3.2-1.8-5-2 .7-.2 1.3-.6 1.8-1.1 1.6-1.6 1.6-4.3 0-5.9-1.6-1.6-4.2-1.7-5.9 0-1.6 1.6-1.6 4.2 0 5.9.5.5 1.1.9 1.8 1.1-1.8.2-3.5 1-4.9 2.2-.6.3-1.6 3.1-1.6 6.1h15.3c0-3-1-5.8-1.5-6.3z"/></g></switch></svg>