<svg xmlns="http://www.w3.org/2000/svg" viewBox="0 0 50.4 50.4"><switch><g fill="#fa6400"><path d="M24.4 30.9c-.1 0-.3 0-.4-.1L18 29c-6.6 2.6-14.1-.6-16.7-7.2-2.6-6.7.6-14.1 7.2-16.7 6.6-2.6 14.1.6 16.7 7.2.4.9.6 1.9.8 2.9.4 2.6-.1 5.2-1.2 7.5-.2.4-.5.9-.7 1.3l1.7 5.2c.2.7-.2 1.5-.9 1.7h-.5zm-6.5-4.8c.1 0 .3 0 .4.1l4 1.2-1-3.3c-.1-.4-.1-.9.2-1.2.3-.5.6-.9.9-1.4 2.5-5 .4-11.1-4.6-13.5S6.6 7.5 4.1 12.5 3.7 23.6 8.7 26c2.7 1.3 5.8 1.4 8.6.2.2 0 .4-.1.6-.1z"/><circle cx="6.9" cy="16.8" r="1.8"/><circle cx="12.6" cy="16.8" r="1.8"/><circle cx="18.2" cy="16.8" r="1.8"/><path d="M47.2 35.6c-2.4-2.1-6.2-2.8-9.5-3.1 1.2-.3 2.4-1 3.3-1.9 3-3.1 2.9-8-.2-10.9-3.1-3-8-2.9-10.9.2-3 3.1-2.9 8 .2 10.9.9.9 2 1.5 3.3 1.9-3.3.3-6.9.9-9.2 2.9-1 .9-2.9 6.9-2.9 10.6H50c0-3.6-1.8-9.7-2.8-10.6z"/></g></switch></svg>