<svg xmlns="http://www.w3.org/2000/svg" viewBox="0 0 50.4 50.4"><switch><g fill="#fa6400"><path d="M44.2 24.8h-42v1.4c0 12.7 10.3 23 23 23s23-10.3 23-23v-1.4h-4zM8.3 35.3c-1.3-2.4-2-5-2.2-7.7h6.2c.1 2.6.6 5.2 1.5 7.7H8.3zm1.9 2.9h4.6c1 2.1 2.2 4.1 3.6 5.9-3.2-1.2-6-3.2-8.2-5.9zm13.5 7.1h-.4c-2.1-2.1-3.9-4.4-5.3-7.1h5.6v7.1zm0-10h-6.9c-.9-2.5-1.5-5.1-1.6-7.7h8.6v7.7zm2.9-7.7H35c-.1 2.6-.7 5.2-1.6 7.7h-6.8v-7.7zm0 17.7v-7.1h5.6c-1.4 2.6-3.1 5-5.3 7.1h-.3zm5.1-1.1c1.4-1.9 2.7-3.9 3.6-6H40c-2.2 2.7-5.1 4.8-8.3 6zM42 35.3h-5.6c.8-2.5 1.3-5.1 1.5-7.7h6.3c-.2 2.7-1 5.3-2.2 7.7zM32.6 13.2c-1.6-1.4-3.7-2.4-5.8-2.7.7-.2 1.4-.5 2-1 1.9-1.9 1.9-5 0-6.9C27 .7 23.9.7 22 2.5s-1.9 4.9-.1 6.8c.6.6 1.3 1 2.2 1.3-2.1.3-4.1 1.2-5.7 2.6-.6.6-1.8 6.5-1.8 7.5h17.7c0-1-1.1-7-1.7-7.5zM46.5 12.9c-1.4-1.2-3.7-1.7-5.5-1.9.7-.2 1.4-.6 1.9-1.1 1.8-1.8 1.8-4.7 0-6.4-1.8-1.8-4.7-1.8-6.4 0-1.8 1.8-1.8 4.7 0 6.4.5.5 1.2.9 1.9 1.1-1.2.1-2.3.3-3.4.7 1.3 2 1.9 6.9 2.2 9.2h11c0-2.2-1.1-7.5-1.7-8zM16 11.7c-1.2-.4-2.4-.7-3.6-.8.7-.2 1.4-.6 1.9-1.1 1.8-1.8 1.7-4.7-.1-6.4-1.8-1.8-4.7-1.7-6.4.1-1.8 1.8-1.7 4.7.1 6.4.5.5 1.2.9 2 1.1-1.9.2-4 .6-5.4 1.8-.6.5-1.7 5.9-1.7 8.1h11c.2-2.3.9-7.2 2.2-9.2z"/></g></switch></svg>