<svg xmlns="http://www.w3.org/2000/svg" viewBox="0 0 50.4 50.4"><switch><g><path fill="#404040" d="M49.2 11.2v-10h-10l3.6 3.6-4.9 4.9c-7.4-6-17.9-6-25.3 0l-5-4.9 3.6-3.6h-10v10l3.6-3.6 4.9 4.9c-6 7.4-6 18 0 25.3l-5 4.9-3.6-3.6v10h10l-3.6-3.6 4.9-4.9c7.4 6 17.9 6 25.3 0l4.9 4.9-3.6 3.6h10v-10l-3.6 3.6-4.9-4.9c6-7.4 6-17.9 0-25.3l4.9-4.9 3.8 3.6zm-7.7 14c0 9-7.3 16.2-16.2 16.2S9 34.2 9 25.2 16.3 9 25.2 9c9-.1 16.3 7.2 16.3 16.2z"/><path fill="#fa6400" d="M34.1 26.7c-1.7-1.5-4.4-2-6.7-2.2.9-.2 1.7-.7 2.3-1.3 2.1-2.2 2-5.6-.1-7.7-2.2-2.1-5.6-2-7.7.1-2.1 2.2-2 5.6.1 7.7.6.6 1.4 1.1 2.3 1.3-2.3.2-4.9.7-6.5 2.1-.7.6-2 4.6-2 7.6h20.3c0-3.1-1.3-7-2-7.6z"/></g></switch></svg>