<svg xmlns="http://www.w3.org/2000/svg" viewBox="0 0 50.4 50.4"><switch><g><path fill="#404040" d="M45.2 7.2v28h-26l-1.1.9-2.9 2.5v-3.4h-10v-28h40m0-4h-40c-2.2 0-4 1.8-4 4v28c0 2.2 1.8 4 4 4h6v8l9.5-8h24.5c2.2 0 4-1.8 4-4v-28c0-2.2-1.8-4-4-4z"/><path fill="#fa6400" d="M36.2 21.9v-1.5c0-.7-.6-1.3-1.3-1.3-.5 0-1-.3-1.2-.8-.1-.4-.3-.8-.5-1.2-.2-.5-.1-1.1.2-1.4.5-.5.5-1.3 0-1.8l-1-1c-.5-.5-1.3-.5-1.8 0-.4.4-1 .5-1.4.2-.4-.2-.8-.4-1.2-.5-.5-.2-.8-.7-.8-1.2 0-.7-.6-1.3-1.3-1.3h-1.5c-.7 0-1.3.6-1.3 1.3 0 .5-.3 1-.8 1.2-.4.1-.8.3-1.2.5-.5.2-1.1.1-1.4-.2-.5-.5-1.3-.5-1.8 0l-1 1c-.5.5-.5 1.3 0 1.8.4.4.5 1 .2 1.4-.2.4-.4.8-.5 1.2-.2.5-.7.8-1.2.8-.7 0-1.3.6-1.3 1.3v1.4c0 .7.6 1.3 1.3 1.3.5 0 1 .3 1.2.8.1.4.3.8.5 1.2.2.5.1 1.1-.2 1.4-.5.5-.5 1.3 0 1.8l1 1c.5.5 1.3.5 1.8 0 .4-.4 1-.5 1.4-.2.4.2.8.4 1.2.5.5.2.8.7.8 1.2 0 .7.6 1.3 1.3 1.3H26c.7 0 1.3-.6 1.3-1.3 0-.5.3-1 .8-1.2.4-.1.8-.3 1.2-.5.5-.2 1.1-.1 1.4.2.5.5 1.3.5 1.8 0l1-1c.5-.5.5-1.3 0-1.8-.4-.4-.5-1-.2-1.4.2-.4.4-.8.5-1.2.2-.5.7-.8 1.2-.8.7.1 1.2-.5 1.2-1.2zm-11 3.3c-2.2 0-4-1.8-4-4s1.8-4 4-4 4 1.8 4 4-1.8 4-4 4z"/></g></switch></svg>