<svg xmlns="http://www.w3.org/2000/svg" viewBox="0 0 50.4 50.4"><switch><g><path fill="#404040" d="M44.8 5.5v30.6H17.5l-1.3 1.2-1.9 1.8v-3H5.6V5.6l39.2-.1m0-4.3H5.6c-2.4 0-4.4 2-4.4 4.4v30.6c0 2.4 2 4.4 4.4 4.4H10v8.7l9.3-8.7h25.6c2.4 0 4.4-2 4.4-4.4V5.6c-.1-2.5-2-4.4-4.5-4.4z"/><path fill="#fa6400" d="M14.3 14.3h21.8c1.2 0 2.2 1 2.2 2.2 0 1.2-1 2.2-2.2 2.2H14.3c-1.2 0-2.2-1-2.2-2.2 0-1.2 1-2.2 2.2-2.2zM14.3 21.9h10.9c1.2 0 2.2 1 2.2 2.2 0 1.2-1 2.2-2.2 2.2H14.3c-1.2 0-2.2-1-2.2-2.2 0-1.2 1-2.2 2.2-2.2zM32.8 21.9c1.2 0 2.2 1 2.2 2.2 0 1.2-1 2.2-2.2 2.2-1.2 0-2.2-1-2.2-2.2 0-1.2 1-2.2 2.2-2.2z"/></g></switch></svg>