<svg xmlns="http://www.w3.org/2000/svg" viewBox="0 0 50.4 50.4"><switch><g><path fill="#404040" d="M45.2 7.2v28h-16L28 36.8l-2.8 3.7-2.8-3.7-1.2-1.6h-16v-28h40m0-4h-40c-2.2 0-4 1.8-4 4v28c0 2.2 1.8 4 4 4h14l6 8 6-8h14c2.2 0 4-1.8 4-4v-28c0-2.2-1.8-4-4-4z"/><path fill="#fa6400" d="M16.7 12.2h23c.8 0 1.5.7 1.5 1.5s-.7 1.5-1.5 1.5h-23c-.8 0-1.5-.7-1.5-1.5s.7-1.5 1.5-1.5zM16.7 19.2h23c.8 0 1.5.7 1.5 1.5s-.7 1.5-1.5 1.5h-23c-.8 0-1.5-.7-1.5-1.5s.7-1.5 1.5-1.5zM16.7 26.2h23c.8 0 1.5.7 1.5 1.5s-.7 1.5-1.5 1.5h-23c-.8 0-1.5-.7-1.5-1.5s.7-1.5 1.5-1.5z"/><circle cx="10.7" cy="13.7" r="1.5" fill="#fa6400"/><circle cx="10.7" cy="20.7" r="1.5" fill="#fa6400"/><circle cx="10.7" cy="27.7" r="1.5" fill="#fa6400"/></g></switch></svg>