<svg xmlns="http://www.w3.org/2000/svg" viewBox="0 0 50.4 50.4"><switch><g fill="#fa6400"><path d="M47 2.8H3.4c-1.2 0-2.2 1-2.2 2.2v28.4c0 1.2 1 2.2 2.2 2.2h17.5v8.1h-6.8c-1.1 0-2 .9-2 2s.9 2 2 2h22.2c1.1 0 2-.9 2-2s-.9-2-2-2h-6.8v-8.1H47c1.2 0 2.2-1 2.2-2.2V5c0-1.2-1-2.2-2.2-2.2zm-2.1 27.3c0 .6-.5 1.1-1.1 1.1H6.6c-.6 0-1.1-.5-1.1-1.1V8.3c0-.6.5-1.1 1.1-1.1h37.1c.6 0 1.1.5 1.1 1.1v21.8z"/><circle cx="13.2" cy="14.8" r="3.3"/><path d="M23.1 26.6h-3.7l4.8-3.1-5.2-3.1-10.4 6.5v1.8h33.2v-6l-6.2-4.4z"/></g></switch></svg>