<svg xmlns="http://www.w3.org/2000/svg" viewBox="0 0 50.4 50.4"><switch><g><path fill="#fa6400" d="M34.9 41.2l6.3-14.7L29.9 37s5-.5 5 4.2z"/><path fill="#404040" d="M18.8 10h15.4c.8 0 1.5.7 1.5 1.5S35 13 34.2 13H18.8c-.8 0-1.5-.7-1.5-1.5S18 10 18.8 10zM15.2 17.5h19c.8 0 1.5.7 1.5 1.5s-.7 1.5-1.5 1.5h-19c-.8 0-1.5-.7-1.5-1.5s.7-1.5 1.5-1.5zM15.2 24.9h19c.8 0 1.5.7 1.5 1.5s-.7 1.5-1.5 1.5h-19c-.8 0-1.5-.7-1.5-1.5s.7-1.5 1.5-1.5z"/><path fill="#404040" d="M41.2 1.2h-32c-2.2 0-4 1.8-4 4v40c0 2.2 1.8 4 4 4h32c2.2 0 4-1.8 4-4v-40c0-2.2-1.8-4-4-4zm-16 46.3c-1.2 0-2.2-1-2.2-2.2 0-1.2 1-2.2 2.2-2.2 1.2 0 2.2 1 2.2 2.2.1 1.1-1 2.2-2.2 2.2zm16-7.3c0 .6-.4 1-1 1h-30c-.6 0-1-.4-1-1v-34c0-.6.4-1 1-1h30c.6 0 1 .4 1 1v34z"/><path fill="#404040" d="M15.2 32.4c-.8 0-1.5.7-1.5 1.5s.7 1.5 1.5 1.5h11.2l3.1-3H15.2z"/></g></switch></svg>