<svg xmlns="http://www.w3.org/2000/svg" viewBox="0 0 50.4 50.4"><switch><g><path fill="#404040" d="M47.2 38.7c1.1 0 2-.9 2-2v-32c0-1.1-.9-2-2-2h-44c-1.1 0-2 .9-2 2v32c0 1.1.9 2 2 2h44zm-2-4h-40v-28h40v28z"/><path fill="#404040" d="M21.2 37.7h8v8h-8z"/><path fill="#404040" d="M16.2 44.7h18c1.7 0 3 1.3 3 3h-24c0-1.7 1.3-3 3-3z"/><path fill="#fa6400" d="M34.2 14.2v10.5l2.3-4.2 3.7 5.7 2-1.2-3.4-5.6 4.4.3z"/><path fill="#404040" d="M8.2 31.7h28l-9.8-11.9c-.7-.9-2-1-2.8-.3-.2.1-.3.3-.4.4l-4.3 6.5c-.6.9-1.9 1.1-2.8.5H16l-2.3-1.7c-.9-.6-2.1-.5-2.8.4-.1.1-.2.2-.2.4l-2.5 5.7z"/><circle cx="14.2" cy="15.7" r="4" fill="#404040"/></g></switch></svg>