<svg xmlns="http://www.w3.org/2000/svg" viewBox="0 0 50.4 50.4"><switch><g><g fill="#fa6400"><path d="M45.2 2.2h-40c-2.2 0-4 1.8-4 4v29c0 2.2 1.8 4 4 4h16v5h-6c-1.1 0-2 .9-2 2s.9 2 2 2h20c1.1 0 2-.9 2-2s-.9-2-2-2h-6v-5h16c2.2 0 4-1.8 4-4v-29c0-2.2-1.8-4-4-4zm-20 35c-1.1 0-2-.9-2-2s.9-2 2-2 2 .9 2 2-.9 2-2 2zm20-7c0 .6-.4 1-1 1h-38c-.6 0-1-.4-1-1v-23c0-.6.4-1 1-1h38c.6 0 1 .4 1 1v23z"/><path d="M38.5 31.3l6.8-15.8-12.2 11.3s5.4-.6 5.4 4.5zM15.2 9.8h24.5c.8 0 1.5.7 1.5 1.5s-.7 1.5-1.5 1.5H15.2c-.8 0-1.5-.7-1.5-1.5s.7-1.5 1.5-1.5zM10.1 22.8c-.8 0-1.5.7-1.5 1.5s.7 1.5 1.5 1.5h19.2l3.1-3H10.1zM10.1 16.5c-.8 0-1.5.7-1.5 1.5s.7 1.5 1.5 1.5h25l3.1-3H10.1z"/></g></g></switch></svg>