<svg xmlns="http://www.w3.org/2000/svg" viewBox="0 0 50.4 50.4"><switch><g fill="#fa6400"><path d="M37.2 1.2h-24c-2.2 0-4 1.8-4 4v40c0 2.2 1.8 4 4 4h24c2.2 0 4-1.8 4-4v-40c0-2.2-1.8-4-4-4zM20.7 3.7h9c.8 0 1.5.7 1.5 1.5s-.7 1.5-1.5 1.5h-9c-.8 0-1.5-.7-1.5-1.5s.7-1.5 1.5-1.5zm4.5 43.8c-1.2 0-2.2-1-2.2-2.2 0-1.2 1-2.2 2.2-2.2 1.2 0 2.2 1 2.2 2.2.1 1.1-1 2.2-2.2 2.2zm12-7.3c0 .6-.4 1-1 1h-22c-.6 0-1-.4-1-1v-30c0-.6.4-1 1-1h22c.6 0 1 .4 1 1v30z"/><circle cx="25.2" cy="24.5" r="5"/></g></switch></svg>