<svg xmlns="http://www.w3.org/2000/svg" viewBox="0 0 50.4 50.4"><switch><g fill="#fa6400"><path d="M29.2 27.2h8v2h-8zM29.2 37.2h8v2h-8zM29.2 41.2h8v2h-8zM18.2 24.2h-2v3h-3v2h3v3h2v-3h3v-2h-3zM19.7 36.2l-2.5 2.6-2.5-2.6-1.5 1.5 2.6 2.5-2.6 2.5 1.5 1.5 2.5-2.6 2.5 2.6 1.5-1.5-2.6-2.5 2.6-2.5z"/><path d="M40.2 1.2h-30c-2.2 0-4 1.8-4 4v40c0 2.2 1.8 4 4 4h30c2.2 0 4-1.8 4-4v-40c0-2.2-1.8-4-4-4zm-16 43c0 .6-.4 1-1 1h-12c-.6 0-1-.4-1-1v-8c0-.6.4-1 1-1h12c.6 0 1 .4 1 1v8zm0-12c0 .6-.4 1-1 1h-12c-.6 0-1-.4-1-1v-8c0-.6.4-1 1-1h12c.6 0 1 .4 1 1v8zm16 12c0 .6-.4 1-1 1h-12c-.6 0-1-.4-1-1v-8c0-.6.4-1 1-1h12c.6 0 1 .4 1 1v8zm0-12c0 .6-.4 1-1 1h-12c-.6 0-1-.4-1-1v-8c0-.6.4-1 1-1h12c.6 0 1 .4 1 1v8zm0-15c0 1.1-.9 2-2 2h-26c-1.1 0-2-.9-2-2v-8c0-1.1.9-2 2-2h26c1.1 0 2 .9 2 2v8z"/></g></switch></svg>