<svg xmlns="http://www.w3.org/2000/svg" viewBox="0 0 50.4 50.4"><switch><g fill="#fa6400"><path d="M30.3 8.2h-26c-2.2 0-4 1.8-4 4v19c0 2.2 1.8 4 4 4h10v3h-6c-1.1 0-2 .9-2 2s.9 2 2 2h18c1.1 0 2-.9 2-2s-.9-2-2-2h-6v-3h10c2.2 0 4-1.8 4-4v-19c0-2.2-1.8-4-4-4zm0 22c0 .6-.4 1-1 1h-24c-.6 0-1-.4-1-1v-17c0-.6.4-1 1-1h24c.6 0 1 .4 1 1v17zM48.1 8.2h-8c-1.1 0-2 .9-2 2v30c0 1.1.9 2 2 2h8c1.1 0 2-.9 2-2v-30c0-1.1-.9-2-2-2zm-4 28.9c-1.2 0-2.2-1-2.2-2.2 0-1.2 1-2.2 2.2-2.2s2.2 1 2.2 2.2c0 1.2-1 2.2-2.2 2.2zm3.1-21.8h-6c-.8 0-1.5-.7-1.5-1.5s.7-1.5 1.5-1.5h6c.8 0 1.5.7 1.5 1.5 0 .9-.7 1.5-1.5 1.5z"/><circle cx="17.3" cy="21.7" r="4.2"/></g></switch></svg>