<svg xmlns="http://www.w3.org/2000/svg" viewBox="0 0 50.4 50.4"><switch><g fill="#fa6400"><path d="M35.7 21.7H31v4.7h1.2v1.2c0 .6-.5 1.2-1.2 1.2h-3.5c-.4 0-.8.1-1.2.2v-7.2h2.3L25.2 17l-3.5 4.7H24v9.5c-.4-.1-.8-.2-1.2-.2h-3.5c-.6 0-1.2-.5-1.2-1.2v-.3c1.1-.6 1.5-2.1.9-3.2s-2.1-1.5-3.2-.9-1.5 2.1-.9 3.2c.2.4.5.6.9.9v.3c0 1.9 1.6 3.5 3.5 3.5h3.5c.6 0 1.2.5 1.2 1.2v1.4c-1.8.6-2.8 2.6-2.1 4.5.6 1.8 2.6 2.8 4.5 2.1 1.8-.6 2.8-2.6 2.1-4.5-.4-1-1.1-1.8-2.1-2.1v-3.7c0-.6.5-1.2 1.2-1.2H31c1.9 0 3.5-1.6 3.5-3.5v-1.2h1.2v-4.6z"/><path d="M41.5 10h-2.3V5.4c0-2.6-2.1-4.7-4.7-4.7H15.9c-2.6 0-4.7 2.1-4.7 4.7V10H8.9c-3.9 0-7 3.1-7 7v25.6c0 3.9 3.1 7 7 7h32.6c3.9 0 7-3.1 7-7V17c0-3.8-3.1-7-7-7zM15.9 5.4h18.7V10H15.9V5.4zm28 37.3c0 1.3-1 2.3-2.3 2.3H8.9c-1.3 0-2.3-1-2.3-2.3V17c0-1.3 1-2.3 2.3-2.3h32.6c1.3 0 2.3 1 2.3 2.3v25.7z"/></g></switch></svg>