<svg xmlns="http://www.w3.org/2000/svg" viewBox="0 0 50.4 50.4"><switch><g><path fill="#fa6400" d="M41.1 6.2v14H9.3v-14"/><path fill="#404040" d="M40.2 1.2h-30c-2.2 0-4 1.8-4 4v40c0 2.2 1.8 4 4 4h30c2.2 0 4-1.8 4-4v-40c0-2.2-1.8-4-4-4zm-24 43c0 .6-.4 1-1 1h-4c-.6 0-1-.4-1-1v-2c0-.6.4-1 1-1h4c.6 0 1 .4 1 1v2zm0-6c0 .6-.4 1-1 1h-4c-.6 0-1-.4-1-1v-2c0-.6.4-1 1-1h4c.6 0 1 .4 1 1v2zm0-6c0 .6-.4 1-1 1h-4c-.6 0-1-.4-1-1v-2c0-.6.4-1 1-1h4c.6 0 1 .4 1 1v2zm0-6c0 .6-.4 1-1 1h-4c-.6 0-1-.4-1-1v-2c0-.6.4-1 1-1h4c.6 0 1 .4 1 1v2zm8 18c0 .6-.4 1-1 1h-4c-.6 0-1-.4-1-1v-2c0-.6.4-1 1-1h4c.6 0 1 .4 1 1v2zm0-6c0 .6-.4 1-1 1h-4c-.6 0-1-.4-1-1v-2c0-.6.4-1 1-1h4c.6 0 1 .4 1 1v2zm0-6c0 .6-.4 1-1 1h-4c-.6 0-1-.4-1-1v-2c0-.6.4-1 1-1h4c.6 0 1 .4 1 1v2zm0-6c0 .6-.4 1-1 1h-4c-.6 0-1-.4-1-1v-2c0-.6.4-1 1-1h4c.6 0 1 .4 1 1v2zm8 18c0 .6-.4 1-1 1h-4c-.6 0-1-.4-1-1v-2c0-.6.4-1 1-1h4c.6 0 1 .4 1 1v2zm0-6c0 .6-.4 1-1 1h-4c-.6 0-1-.4-1-1v-2c0-.6.4-1 1-1h4c.6 0 1 .4 1 1v2zm0-6c0 .6-.4 1-1 1h-4c-.6 0-1-.4-1-1v-2c0-.6.4-1 1-1h4c.6 0 1 .4 1 1v2zm0-6c0 .6-.4 1-1 1h-4c-.6 0-1-.4-1-1v-2c0-.6.4-1 1-1h4c.6 0 1 .4 1 1v2zm8 18c0 .6-.4 1-1 1h-4c-.6 0-1-.4-1-1v-8c0-.6.4-1 1-1h4c.6 0 1 .4 1 1v8zm0-12c0 .6-.4 1-1 1h-4c-.6 0-1-.4-1-1v-2c0-.6.4-1 1-1h4c.6 0 1 .4 1 1v2zm0-6c0 .6-.4 1-1 1h-4c-.6 0-1-.4-1-1v-2c0-.6.4-1 1-1h4c.6 0 1 .4 1 1v2zm0-9c0 1.1-.9 2-2 2h-26c-1.1 0-2-.9-2-2v-8c0-1.1.9-2 2-2h26c1.1 0 2 .9 2 2v8z"/></g></switch></svg>