<svg xmlns="http://www.w3.org/2000/svg" viewBox="0 0 50.4 50.4"><switch><g fill="#fa6400"><circle cx="16" cy="26.1" r="6.5"/><path d="M16.4 39.5c.8 0 1.4.6 1.4 1.4 0 .8-.6 1.4-1.4 1.4-.8 0-1.4-.6-1.4-1.4 0-.8.7-1.4 1.4-1.4z"/><path d="M47.4 34.4H30.7v-1.8h10.2c2.5 0 4.6-2.1 4.6-4.6V7.7c0-2.5-2.1-4.6-4.6-4.6H13.2c-2.5 0-4.6 2.1-4.6 4.6v2.8H6.7c-3.1 0-5.5 2.5-5.5 5.5v25.9c0 3.1 2.5 5.5 5.5 5.5h18.5c3.1 0 5.5-2.5 5.5-5.5v-3.7h16.6c1 0 1.8-.8 1.8-1.8.1-1.1-.7-2-1.7-2zM12.3 7.7c0-.5.4-.9.9-.9h27.7c.5 0 .9.4.9.9V28c0 .5-.4.9-.9.9H30.7V16c0-3.1-2.5-5.5-5.5-5.5H12.3V7.7zM27 38.1v3.7c0 1-.8 1.8-1.8 1.8H6.7c-1 0-1.8-.8-1.8-1.8V16c0-1 .8-1.8 1.8-1.8h18.5c1 0 1.8.8 1.8 1.8v22.1z"/><circle cx="16.4" cy="40.9" r="1.4"/></g></switch></svg>