<svg xmlns="http://www.w3.org/2000/svg" viewBox="0 0 50.4 50.4"><switch><g><path fill="#404040" d="M47.2 5.2h-44c-1.1 0-2 .9-2 2v31c0 1.1.9 2 2 2h18c0 1.1-.9 2-2 2h-4c-1.1 0-2 .9-2 2v1h24v-1c0-1.1-.9-2-2-2h-4c-1.1 0-2-.9-2-2h18c1.1 0 2-.9 2-2v-31c0-1.1-.9-2-2-2zm-2 31h-40v-27h40v27z"/><path fill="#404040" d="M9.7 15.2h11c.8 0 1.5-.7 1.5-1.5s-.7-1.5-1.5-1.5h-11c-.8 0-1.5.7-1.5 1.5s.7 1.5 1.5 1.5zM29.7 33.2h11c.8 0 1.5-.7 1.5-1.5s-.7-1.5-1.5-1.5h-11c-.8 0-1.5.7-1.5 1.5s.7 1.5 1.5 1.5zM9.7 20.2h7c.8 0 1.5-.7 1.5-1.5s-.7-1.5-1.5-1.5h-7c-.8 0-1.5.7-1.5 1.5s.7 1.5 1.5 1.5z"/><path fill="#fa6400" d="M39.7 12.2h-7c-.8 0-1.5.7-1.5 1.5s.7 1.5 1.5 1.5h3.5l-5.6 6.3-1.9-1.9c-.3-.3-.7-.4-1.1-.4-.4 0-.8.2-1.1.5l-6.3 6.9-3.9-3.1c-.6-.5-1.6-.4-2.1.2l-5.8 7.1c-.5.6-.4 1.6.2 2.1.6.5 1.6.4 2.1-.2l4.8-5.9 3.8 3.1c.6.5 1.5.4 2-.2l6.2-6.8 1.9 1.9c.3.3.7.5 1.1.4.4 0 .8-.2 1.1-.5l6.4-7.2v3.2c0 .8.7 1.5 1.5 1.5s1.5-.7 1.5-1.5v-7c.2-.8-.5-1.5-1.3-1.5z"/></g></switch></svg>