<svg xmlns="http://www.w3.org/2000/svg" viewBox="0 0 50.4 50.4"><switch><g fill="#fa6400"><path d="M38.2 49.5H12.3V31.9h4v13.6h17.9V31.9h4zM11.2.9h28v10h-28z"/><path d="M47 12.9H3.5c-1.2 0-2.2 1-2.2 2.2v17.5c0 1.2 1 2.2 2.2 2.2h5.8v-6h32v6H47c1.2 0 2.2-1 2.2-2.2V15.1c0-1.2-1-2.2-2.2-2.2zM33.2 23.1c-1.2 0-2.2-1-2.2-2.2 0-1.2 1-2.2 2.2-2.2 1.2 0 2.2 1 2.2 2.2.1 1.2-1 2.2-2.2 2.2zm8 0c-1.2 0-2.2-1-2.2-2.2 0-1.2 1-2.2 2.2-2.2s2.2 1 2.2 2.2c.1 1.2-1 2.2-2.2 2.2z"/><path d="M20.7 31.9H29c1.1 0 2 .9 2 2s-.9 2-2 2h-8.2c-1.1 0-2-.9-2-2-.1-1.1.8-2 1.9-2zM20.7 38.4h5.1c1.1 0 2 .9 2 2s-.9 2-2 2h-5.1c-1.1 0-2-.9-2-2s.9-2 2-2z"/></g></switch></svg>