<svg xmlns="http://www.w3.org/2000/svg" viewBox="0 0 50.4 50.4"><switch><g fill="#fa6400"><path d="M15.3 38.5c-.7 0-1.3.6-1.3 1.3 0 .7.6 1.3 1.3 1.3.7 0 1.3-.6 1.3-1.3 0-.7-.5-1.3-1.3-1.3z"/><path d="M28.6 33.8v-1.7h14.6V9.8c0-2.8-2.3-5.1-5.1-5.1h-24C11.3 4.7 9 7 9 9.8v1.7H6.3c-2.8 0-5.1 2.3-5.1 5.1v24c0 2.8 2.3 5.1 5.1 5.1h17.1c2.8 0 5.1-2.3 5.1-5.1v-3.4h17.1c1.9 0 3.4-1.5 3.4-3.4H28.6zm-3.4-6.7v13.5c0 .9-.8 1.7-1.7 1.7H6.3c-.9 0-1.7-.8-1.7-1.7v-24c0-.9.8-1.7 1.7-1.7h15.9v-3.4h-9.9V9.8c0-.9.8-1.7 1.7-1.7h24c.9 0 1.7.8 1.7 1.7v18.9H28.6v-4.5l-3.4 2.9z"/><path d="M32.1 17.7l-1.8-1.6-.5-.5h-.1l-4.5-3.9v4c.4-.1.9-.1 1.3-.1-.4 0-.9.1-1.3.2-7 1.4-12 7.5-12 14.6h3.4c-.1-5.2 3.5-9.8 8.6-11.1v4.4l6.9-6zm-2.6 1.5c-.7-.1-1.4-.2-2.1-.2.7 0 1.4.1 2.1.2z"/></g></switch></svg>