<svg xmlns="http://www.w3.org/2000/svg" viewBox="0 0 50.4 50.4"><switch><g><path fill="#404040" d="M41.8 11.3v22.2H8.6V11.3h33.2m0-3.6H8.6c-2 0-3.7 1.7-3.7 3.7v25.9h40.6v-26c0-2-1.6-3.6-3.7-3.6zM28.9 39.1c0 1-.8 1.8-1.8 1.8h-3.7c-1 0-1.8-.8-1.8-1.8H1.2v1.8c0 1 .8 1.8 1.8 1.8h44.3c1 0 1.8-.8 1.8-1.8v-1.8H28.9z"/><path fill="#404040" d="M19.2 17.8c1 0 1.8.8 1.8 1.8v9.2c0 1-.8 1.8-1.8 1.8s-1.8-.8-1.8-1.8v-9.2c0-1 .8-1.8 1.8-1.8zM13.2 23.4c1 0 1.8.8 1.8 1.8v3.7c0 1-.8 1.8-1.8 1.8s-1.8-.8-1.8-1.8v-3.7c-.1-1 .8-1.8 1.8-1.8zM25.2 19.7c1 0 1.8.8 1.8 1.8v7.4c0 1-.8 1.8-1.8 1.8s-1.8-.8-1.8-1.8v-7.4c0-1 .8-1.8 1.8-1.8zM37.2 19.7c1 0 1.8.8 1.8 1.8v7.4c0 1-.8 1.8-1.8 1.8s-1.8-.8-1.8-1.8v-7.4c0-1 .8-1.8 1.8-1.8z"/><path fill="#fa6400" d="M31.2 12.8l-4.2 5h2.3v11.1c0 1 .8 1.8 1.8 1.8s1.8-.8 1.8-1.8V17.8h2.3l-4-5z"/></g></switch></svg>