<svg xmlns="http://www.w3.org/2000/svg" viewBox="0 0 50.4 50.4"><switch><g><path fill="#404040" d="M45 15.3h-3.4v2h-33v-2H5.4c-1.2 0-2.2 1-2.2 2.2v31.9h44V17.5c0-1.2-1-2.2-2.2-2.2zM37.2 21c1.2 0 2.2 1 2.2 2.2 0 1.2-1 2.2-2.2 2.2s-2.2-1-2.2-2.2c0-1.2 1-2.2 2.2-2.2zm6.1 24.5H6.9V29.3h36.3l.1 16.2z"/><path fill="#fa6400" d="M11.7 32.2h3v6.7h-3zM23.7 32.2h3v6.7h-3zM30 32.2h3v9.3h-3zM35.7 32.2h3v6.7h-3zM17.6 32.2h3v9.3h-3zM11.1 1v13.4h4.3v-.2c0-.9.7-1.6 1.6-1.6h16.1c.9 0 1.6.7 1.6 1.6v.2h4.6V1H11.1zm15.8 7.4h-9.6c-.9 0-1.6-.7-1.6-1.6 0-.9.7-1.6 1.6-1.6h9.6c.9 0 1.6.7 1.6 1.6 0 .8-.7 1.6-1.6 1.6z"/></g></switch></svg>