<svg xmlns="http://www.w3.org/2000/svg" viewBox="0 0 50.4 50.4"><switch><g><path fill="#404040" d="M40.2 25.7v-6h-7v3h4v3zM13.2 22.7h4v-3h-7v6h3z"/><path fill="#fa6400" d="M33.2 1.7h-16c-1.1 0-2 .9-2 2v12c0 1.1.9 2 2 2h6v2h-4v3h12v-3h-4v-2h6c1.1 0 2-.9 2-2v-12c0-1.1-.9-2-2-2zm-1 13h-14v-10h14v10z"/><path fill="#404040" d="M19.2 27.7h-16c-1.1 0-2 .9-2 2v12c0 1.1.9 2 2 2h6v2h-4v3h12v-3h-4v-2h6c1.1 0 2-.9 2-2v-12c0-1.1-.9-2-2-2zm-1 13h-14v-10h14v10zM47.2 27.7h-16c-1.1 0-2 .9-2 2v12c0 1.1.9 2 2 2h6v2h-4v3h12v-3h-4v-2h6c1.1 0 2-.9 2-2v-12c0-1.1-.9-2-2-2zm-1 13h-14v-10h14v10z"/></g></switch></svg>