<svg xmlns="http://www.w3.org/2000/svg" viewBox="0 0 50.4 50.4"><switch><g><path fill="#404040" d="M16.7 29.3l-7.4 2.8c1.6 4.1 4.8 7.4 9 9l2.8-7.4c-2-.8-3.6-2.4-4.4-4.4zM31.9 9L29 16.8c2.1.8 3.8 2.5 4.6 4.6l7.8-2.9c-1.7-4.4-5.1-7.8-9.5-9.5z"/><path fill="#404040" d="M25.2 5c11.2 0 20.2 9 20.2 20.2s-9 20.2-20.2 20.2S5 36.4 5 25.2 14 5 25.2 5m0-3.8c-13.3 0-24 10.7-24 24s10.7 24 24 24 24-10.7 24-24-10.7-24-24-24z"/><path fill="#fa6400" d="M25.2 18.5a6.7 6.7 0 1 0 6.7 6.7c0-3.7-3-6.7-6.7-6.7zm0 9.9c-1.7 0-3.2-1.4-3.2-3.2 0-1.7 1.4-3.2 3.2-3.2 1.7 0 3.2 1.4 3.2 3.2 0 1.7-1.5 3.2-3.2 3.2z"/></g></switch></svg>