<svg xmlns="http://www.w3.org/2000/svg" viewBox="0 0 50.4 50.4"><switch><g><path fill="#fa6400" d="M21.6 15.9v11l2.3-3.8 3.6 6.1 2.1-1.3-3.4-6h4.4z"/><path fill="#404040" d="M41.2 6.7h-32c-2.2 0-4 1.8-4 4v26h40v-26c0-2.3-1.8-4-4-4zm0 25c0 .6-.4 1-1 1h-30c-.6 0-1-.4-1-1v-20c0-.6.4-1 1-1h30c.6 0 1 .4 1 1v20zM29.2 39.7v1c0 .6-.4 1-1 1h-6c-.6 0-1-.4-1-1v-1h-20v2c0 1.1.9 2 2 2h44c1.1 0 2-.9 2-2v-2h-20zm15 3.3c-.7 0-1.2-.6-1.2-1.2 0-.7.6-1.2 1.2-1.2.7 0 1.2.6 1.2 1.2.1.6-.5 1.2-1.2 1.2z"/></g></switch></svg>