<svg xmlns="http://www.w3.org/2000/svg" viewBox="0 0 50.4 50.4"><switch><g fill="#fa6400"><path d="M25.4 35.4c2.2 0 4.1 1.8 4.1 4s-1.8 4.1-4 4.1-4.1-1.8-4.1-4c-.1-2.3 1.7-4.1 4-4.1zM25.3 27.3c-3.7 0-7.3 1.8-9.6 4.7l2.8 2.7c2.6-3.8 7.8-4.8 11.6-2.2.8.6 1.5 1.3 2.1 2.1l2.7-2.8c-2.3-2.9-5.9-4.6-9.6-4.5zM25.1 6.9C16 7 7.3 10.9 1.2 17.7l2.7 2.7c10.5-11.8 28.5-13 40.4-2.5.8.7 1.5 1.4 2.2 2.2l2.7-2.7C43 10.6 34.2 6.8 25.1 6.9z"/><path d="M25.2 17.1c-6.4.1-12.5 2.9-16.7 7.8l2.7 2.6c6.6-7.8 18.2-8.9 26.1-2.3.8.6 1.5 1.3 2.1 2.1l2.7-2.7c-4.3-4.9-10.5-7.6-16.9-7.5z"/></g></switch></svg>