<svg xmlns="http://www.w3.org/2000/svg" viewBox="0 0 50.4 50.4"><switch><g><path fill="#404040" d="M40.3 31.8c-2.4 0-4.7 1.1-6.3 2.9l-15.6-7.6c.2-1 .2-2.1 0-3.1l15.4-7.9c3.4 3.6 9 3.8 12.6.4 3.6-3.4 3.8-9 .4-12.6-3.4-3.6-9-3.8-12.6-.4-2.2 2.2-3.2 5.3-2.6 8.3l-15.4 7.9c-3.3-3.5-8.8-3.7-12.3-.4-3.5 3.3-3.7 8.8-.4 12.3s8.8 3.7 12.3.4l.5-.5 15.6 7.6c-.8 4.7 2.4 9.2 7.1 10 4.7.8 9.2-2.4 10-7.1.8-4.7-2.4-9.2-7.1-10-.5-.1-1.1-.1-1.6-.2z"/><path fill="#fa6400" d="M9.8 16.9c4.8 0 8.7 3.8 8.7 8.6s-3.8 8.7-8.6 8.7-8.7-3.8-8.7-8.6c-.1-4.8 3.8-8.7 8.6-8.7z"/></g></switch></svg>