<svg xmlns="http://www.w3.org/2000/svg" viewBox="0 0 50.4 50.4"><switch><g><path fill="#404040" d="M47.6 38.7L22.5 14.1c.1-.7.2-1.4.2-2.1 0-6-4.9-10.8-10.9-10.7-.7 0-1.4.1-2.1.2l-.1.1 5.8 5.7c.9.9.9 2.4 0 3.3l-4.9 5c-.9.9-2.4.9-3.3 0l-5.4-5.3-.4-.4-.1.1c-.1.7-.2 1.4-.2 2.1 0 6 4.9 10.8 10.9 10.7.7 0 1.4-.1 2.1-.2l25 24.6c2.4 2.3 6.2 2.3 8.5 0s2.3-6.1 0-8.5c0 0-.1 0 0 0zm-4.2 8.2c-2.2 0-3.9-1.7-3.9-3.9s1.7-3.9 3.9-3.9 3.9 1.7 3.9 3.9c0 2.1-1.8 3.9-3.9 3.9z"/><path fill="#fa6400" d="M9.6 38.5H6.1l-4.7 8.4 2.5 2.5 8.3-4.9-.1-3.5 8.1-8.1-2.6-2.6zM39.3 5.1l2.1 2.1L30.7 18l1.5 1.5L42.9 8.7l2.1 2.1-10.6 10.8 1.4 1.4 11.5-11.7c2.3-2.4 2.3-6.2-.1-8.5s-6.2-2.3-8.5.1L27.2 14.6l1.4 1.4L39.3 5.1z"/></g></switch></svg>