<svg xmlns="http://www.w3.org/2000/svg" viewBox="0 0 50.4 50.4"><switch><g fill="#fa6400"><path d="M4.1 1.8l8.6-.1c1.2 0 2.1.9 2.2 2.1v4.3c0 1.2-.9 2.1-2.1 2.2l-8.6.1C3 10.4 2 9.5 2 8.3V4c0-1.2.9-2.1 2.1-2.2zM21.2 1.8l8.6-.1c1.2 0 2.1.9 2.2 2.1v4.3c0 1.2-.9 2.1-2.1 2.2l-8.6.1c-1.2 0-2.1-.9-2.2-2.1V4c0-1.2.9-2.1 2.1-2.2zM37.7 1.9l8.6-.1c1.2 0 2.1.9 2.2 2.1v4.3c0 1.2-.9 2.1-2.1 2.2l-8.6.1c-1.2 0-2.1-.9-2.2-2.1V4.1c-.1-1.3.9-2.2 2.1-2.2zM4.1 14.4l8.6-.1c1.2 0 2.1.9 2.2 2.1v4.3c0 1.2-.9 2.1-2.1 2.2l-8.6.1C3 23 2 22 2 20.9v-4.3c0-1.2.9-2.2 2.1-2.2zM21.2 14.4l8.6-.1c1.2 0 2.1.9 2.2 2.1v4.3c0 1.2-.9 2.1-2.1 2.2l-8.6.1c-1.2 0-2.1-.9-2.2-2.1v-4.3c0-1.2.9-2.2 2.1-2.2zM37.7 14.4l8.6-.1c1.2 0 2.1.9 2.2 2.1v4.3c0 1.2-.9 2.1-2.1 2.2l-8.7.1c-1.2 0-2.1-.9-2.2-2.1v-4.3c0-1.2 1-2.2 2.2-2.2zM4.1 27.2l8.6-.1c1.2 0 2.1.9 2.2 2.1v4.3c0 1.2-.9 2.1-2.1 2.2l-8.6.1C3 35.8 2 34.9 2 33.7v-4.3c0-1.2.9-2.1 2.1-2.2zM21.2 27.2l8.6-.1c1.2 0 2.1.9 2.2 2.1v4.3c0 1.2-.9 2.1-2.1 2.2l-8.6.1c-1.2 0-2.1-.9-2.2-2.1v-4.3c0-1.2.9-2.1 2.1-2.2zM37.7 27.2l8.6-.1c1.2 0 2.1.9 2.2 2.1v4.3c0 1.2-.9 2.1-2.1 2.2l-8.6.1c-1.2 0-2.1-.9-2.2-2.1v-4.3c-.1-1.2.9-2.1 2.1-2.2zM4.1 40.1l8.6-.1c1.2 0 2.1.9 2.2 2.1v4.3c0 1.2-.9 2.1-2.1 2.2l-8.6.1C3 48.6 2 47.7 2 46.5v-4.3c0-1.1.9-2.1 2.1-2.1zM21.2 40.1l8.6-.1c1.2 0 2.1.9 2.2 2.1v4.3c0 1.2-.9 2.1-2.1 2.2l-8.6.1c-1.2 0-2.1-.9-2.2-2.1v-4.3c0-1.2.9-2.2 2.1-2.2zM37.7 40.1l8.6-.1c1.2 0 2.1.9 2.2 2.1v4.3c0 1.2-.9 2.1-2.1 2.2l-8.6.1c-1.2 0-2.1-.9-2.2-2.1v-4.3c-.1-1.3.9-2.2 2.1-2.2z"/></g></switch></svg>