<svg xmlns="http://www.w3.org/2000/svg" viewBox="0 0 50.4 50.4"><switch><g><g fill="#fa6400"><path d="M3 18.5c-1.2-.1-2.1.8-2.2 2l.1 10c.1 1.2 1.1 2.1 2.2 2l7.3-.1L23 44.8l-.3-39-12.4 12.6-7.3.1zM27 35c-1.1 0-2-.9-2-2 0-.9.5-1.6 1.4-1.9 3.2-1.3 4.7-5 3.4-8.2-.7-1.6-2-2.9-3.6-3.5-1.1-.3-1.7-1.4-1.4-2.5.3-1.1 1.4-1.7 2.5-1.4 5.4 1.8 8.3 7.6 6.5 12.9-1 2.9-3.2 5.3-6.1 6.4-.3.2-.5.2-.7.2z"/><path d="M31.4 41.7c-1.1 0-2-.9-2-2 0-.8.4-1.5 1.1-1.8 4.8-2.4 7.9-7.4 7.8-12.8-.1-5.4-3.2-10.4-8.1-12.7-1-.5-1.5-1.6-1-2.6s1.6-1.5 2.6-1h.1c6.3 3 10.4 9.3 10.4 16.3.1 6.9-3.8 13.3-10 16.4-.3.2-.6.2-.9.2z"/><path d="M36 47.5c-1.1 0-2-.9-2-2 0-.7.4-1.4 1-1.7 10.2-5.9 13.7-18.9 7.8-29-2-3.4-4.8-6.2-8.3-8.1-.9-.6-1.2-1.8-.7-2.7.5-.9 1.7-1.2 2.6-.8 12.3 6.7 16.8 22 10.1 34.3-2.2 4.1-5.5 7.5-9.6 9.8-.2.1-.6.2-.9.2z"/></g></g></switch></svg>