<svg xmlns="http://www.w3.org/2000/svg" viewBox="0 0 50.4 50.4"><switch><g><path fill="#fa6400" d="M18.7 28.9l4.9-7.3-14-20.3C8.2 3.6 7.5 6.3 7.5 9c.1 1.5.5 3 1.1 4.3l10.1 15.6zM44 34.6c-1.8-1.9-4.4-3-7-3-1.9 0-3.7.7-5.1 1.9l-.8 1.3-4 1.4-.1.2 2.7 3.8c.3 2.2 1.4 4.3 3 5.9 1.8 1.9 4.4 3 7 3 2 0 3.9-.8 5.3-2.2 3.1-3.2 2.6-8.7-1-12.3zm-2 9.5c-.6.6-1.5 1-2.4.9-1.6 0-3-.7-4.1-1.8-1-1-1.7-2.3-1.9-3.8-.1-1 .2-2 .9-2.8.6-.6 1.5-1 2.4-.9 1.6 0 3 .7 4.1 1.8 1 1 1.7 2.3 1.9 3.8.1 1-.2 2-.9 2.8z"/><path fill="#404040" d="M40.1 1.1L18.4 33.7c-1.4-1.3-3.3-1.9-5.1-1.9-2.6.1-5.1 1.2-6.9 3.1-3.6 3.7-4 9.2-.8 12.3C7 48.6 9 49.3 11 49.3c2.6-.1 5.1-1.2 6.9-3.1 1.6-1.6 2.6-3.7 2.9-5.9l4.5-6.5 4-1.4L41.4 13c.6-1.4 1-2.9 1-4.4-.1-2.6-.8-5.2-2.3-7.5zM16.7 39.6c-.1 1.4-.8 2.8-1.8 3.8-1.1 1.1-2.5 1.8-4.1 1.9-.9 0-1.8-.3-2.4-.9-.7-.7-1-1.7-.9-2.7.1-1.4.8-2.8 1.8-3.8 1.1-1.1 2.5-1.8 4.1-1.9.9 0 1.8.3 2.4.9.7.7 1 1.7.9 2.7zm8.4-7.6c-1.4 0-2.5-1.1-2.5-2.4 0-1.4 1.1-2.5 2.4-2.5 1.4 0 2.5 1.1 2.5 2.4.1 1.4-1 2.5-2.4 2.5z"/></g></switch></svg>