<svg xmlns="http://www.w3.org/2000/svg" viewBox="0 0 50.4 50.4"><switch><g fill="#fa6400"><path d="M9.3 14.3l.3 33c0 1.1.9 2 2 2l28-.2c1.1 0 2-.9 2-2l-.3-33-32 .2zm9.2 29.9c0 1 0 1-1 1h-2c-1 0-1 0-1-1l-.2-25c0-1 0-1 1-1h2c1 0 1 0 1 1l.2 25zm9-.1c0 1 0 1-1 1h-2c-1 0-1 0-1-1l-.2-25c0-1 0-1 1-1h2c1 0 1 0 1 1l.2 25zm9 0c0 1 0 1-1 1h-2c-1 0-1 0-1-1l-.2-25c0-1 0-1 1-1h2c1 0 1 0 1 1l.2 25zM41.2 6l-8 .1v-3c0-1.1-.9-2-2-2l-12 .1c-1.1 0-2 .9-2 2v3l-8 .1c-1.1 0-2 .9-2 2v4l36-.3V8c0-1.1-.9-2-2-2zm-11 .1l-10 .1v-2l10-.1v2z"/></g></switch></svg>