<svg xmlns="http://www.w3.org/2000/svg" viewBox="0 0 50.4 50.4"><switch><g><path fill="#404040" d="M39.2 26.6c-1.6 0-2.8 1.3-2.8 2.8v-1.9c0-1.6-1.3-2.8-2.8-2.8-1.6 0-2.8 1.3-2.8 2.8v-1.9c0-1.6-1.3-2.8-2.8-2.8-1.6 0-2.8 1.3-2.8 2.8l-.2-13c0-1.6-1.3-2.8-2.8-2.8-1.6 0-2.8 1.3-2.8 2.8l.2 21.6s-2.3-3-3.3-4.3c-1.9-2.3-3.6-4.4-5.3-4.4-1.3-.1-2.5.8-2.6 2.1v.1c0 1.2 1.8 3 2.7 4.4 1.3 2.2 3 7.7 3 7.7l5.7 9.3 18.6-.1 3.7-9.4-.1-10.2c0-1.6-1.2-2.8-2.8-2.8z"/><path fill="#fa6400" d="M16.7 19.7v-4.2C14.3 12.4 15 8 18 5.7c3.1-2.3 7.5-1.7 9.8 1.4 1.9 2.5 1.9 5.9.1 8.3v4.2c4.6-3.1 5.8-9.4 2.6-14C27.4 1 21.1-.2 16.5 3c-4.6 3.1-5.8 9.4-2.6 14 .7 1.1 1.7 2 2.8 2.7z"/></g></switch></svg>