<svg xmlns="http://www.w3.org/2000/svg" viewBox="0 0 50.4 50.4"><switch><g><path fill="#fa6400" d="M46 17c0-3.2-2.6-5.7-5.8-5.7h-4.7C35.4 5.7 30.7 1.1 25 1.2c-5.7 0-10.3 4.7-10.4 10.4H9.8c-3.2 0-5.7 2.6-5.7 5.8l.2 26.2c0 3.2 2.6 5.7 5.8 5.7l30.4-.3c3.2 0 5.7-2.6 5.7-5.8L46 17zM25 5.1c3.6-.1 6.5 2.8 6.6 6.3l-12.9.1c0-3.5 2.8-6.3 6.3-6.4zm7.6 35.6l-7.9-8.3h4.7v-4.2c0-2.3-1.9-4.2-4.2-4.1-2.3 0-4.2 1.9-4.1 4.2l.1 12.5-6.3.1-.1-12.7c0-5.8 4.6-10.5 10.4-10.5 5.8 0 10.5 4.6 10.5 10.4v4.4h4.7l-7.8 8.2z"/></g></switch></svg>