<svg xmlns="http://www.w3.org/2000/svg" viewBox="0 0 50.4 50.4"><switch><g><path fill="#404040" d="M25.3 37.2c5.5 0 10-4.6 9.9-10.1v-6l-20 .2.1 6c.1 5.5 4.5 9.9 10 9.9z"/><path fill="#404040" d="M39.2 21.1h-2v6.2c.1 6.6-5.3 12-11.9 12.1-6.6.1-12-5.3-12.1-11.9l-.1-6.2h-2c-1.1 0-2 .9-2 2s.9 2 2 2v2.2c.1 7 5.2 12.8 12.1 13.7v4h-6c-1.1 0-2 .9-2 2v2l20-.2v-2c0-1.1-.9-2-2-2h-6v-4c6.9-1.1 11.9-7 11.9-13.9V25c1.1 0 2-.9 2-2 .1-1.1-.8-2-1.9-1.9z"/><path fill="#fa6400" d="M35.2 15.1l-7.2.1c-.6 0-1-.4-1-1s.4-1 1-1l7.2-.1v-2l-7.2.1c-.6 0-1-.4-1-1s.4-1 1-1l7-.1c-.1-.7-.4-1.4-.6-2l-6.4.1c-.6 0-1-.4-1-1s.4-1 1-1h5.2C29.9.8 23.6 0 19.2 3.3c-.8.6-1.4 1.3-2 2h5.2c.6 0 1 .4 1 1s-.4 1-1 1H16c-.3.6-.5 1.3-.6 2l7-.1c.6 0 1 .4 1 1s-.4 1-1 1l-7.4.1v2l7.2-.1c.6 0 1 .4 1 1s-.4 1-1 1l-7.2.1v4l20-.2.2-4z"/></g></switch></svg>