<svg xmlns="http://www.w3.org/2000/svg" viewBox="0 0 50.4 50.4"><switch><g><path fill="#404040" d="M21.8 36.6l-4.6 4.6c-2.2 2.2-5.7 2.2-8 .1-2.2-2.2-2.2-5.7-.1-8l9.8-10c2.2-2.2 5.7-2.3 7.9-.1.7.7 1.2 1.5 1.5 2.5.3-.1.6-.3.9-.6l3.9-4c-3.4-5.6-10.7-7.4-16.3-4-.8.5-1.6 1.1-2.3 1.8L4.8 29C.2 33.7.3 41.2 4.9 45.8c4.7 4.6 12.2 4.5 16.8-.1l8.1-8.2c-.8.1-1.6.2-2.4.2-1.9 0-3.8-.4-5.6-1.1z"/><path fill="#fa6400" d="M45.4 4.6C40.8 0 33.2.1 28.6 4.7l-8 8.3c.8-.1 1.6-.2 2.4-.2 1.9 0 3.8.4 5.6 1.1l4.6-4.6c2.2-2.2 5.7-2.2 8-.1 2.2 2.2 2.2 5.7.1 8l-9.8 10c-2.2 2.2-5.7 2.3-7.9.1-.7-.7-1.2-1.5-1.5-2.5-.3.1-.6.3-.9.6l-3.9 4c3.4 5.6 10.7 7.4 16.3 4 .8-.5 1.6-1.1 2.3-1.8l9.8-10c4.5-4.8 4.5-12.3-.3-17 .1 0 .1 0 0 0z"/></g></switch></svg>