<svg xmlns="http://www.w3.org/2000/svg" viewBox="0 0 50.4 50.4"><switch><g fill="#fa6400"><path d="M25.2.7C14.2.8 5.4 9.8 5.4 20.9l.1 16c0 1.1.9 2 2 2h2c2.2 0 4-1.8 4-4l-.1-8c0-2.2-1.8-4-4-4v-3c-.1-8 6.9-15.3 15.9-15.4 9-.1 16.1 7.1 16.1 15.1v3c-2.2 0-4 1.8-4 4l.1 8c0 2.2 1.7 3.9 3.9 4h2.2c1.1 0 2-.9 2-2l-.1-16c0-11-9-20-20.1-19.9h-.2z"/><path d="M8.2 37.7c-3.9 0-7-3.1-7.1-6.9 0-3.9 3.1-7 6.9-7.1l.2 14zM42.2 23.4c3.9 0 7 3.1 7.1 6.9s-3.1 7-6.9 7.1l-.2-14zM27.5 47.8v-3c12.4-.1 12.7-5.9 12.7-6.6h3c0 1-.4 9.5-15.7 9.6z"/><path d="M29.8 43c1.8 0 3.3 1.5 3.4 3.3 0 1.8-1.5 3.3-3.3 3.4-1.8 0-3.3-1.5-3.4-3.3s1.5-3.3 3.3-3.4z"/></g></switch></svg>