<svg xmlns="http://www.w3.org/2000/svg" viewBox="0 0 50.4 50.4"><switch><g><path fill="#404040" d="M42.8 28.8c0-2.1-1.7-3.8-3.8-3.8l-20.8.2-.1-11c0-3.9 3.1-7.1 7-7.1s7.1 3.1 7.1 7v5.1H38V14c-.1-7.2-5.9-12.9-13.1-12.9C17.8 1.2 12 7 12.1 14.2l.1 11.1h-.9c-2.1 0-3.8 1.7-3.8 3.8l.1 16.4c0 2.1 1.7 3.8 3.8 3.8l27.7-.3c2.1 0 3.8-1.7 3.8-3.8l-.1-16.4z"/><path fill="#fa6400" d="M27.2 38.3v6.2h-3.9l-.1-6.2c-2-1.1-2.8-3.6-1.7-5.7 1.1-2 3.6-2.8 5.7-1.7 2 1.1 2.8 3.6 1.7 5.7-.4.7-1 1.3-1.7 1.7z"/></g></switch></svg>