<svg xmlns="http://www.w3.org/2000/svg" viewBox="0 0 50.4 50.4"><switch><g fill="#fa6400"><path d="M48.4 9.9L40 1.7c-.5-.4-1.1-.6-1.8-.6-.6 0-1.2.2-1.6.5L32.3 6l11.9 11.7 4.4-4.4c.4-.4.6-1 .5-1.6 0-.7-.3-1.3-.7-1.8zM27.5 11L7.6 31.1 1.4 47.4c-.3.7.1 1.6.8 1.8.3.1.7.1 1 0l16.2-6.5 19.8-20.2L27.5 11zm-9.2 30l-8.9 3.5-3.3-3.2 3.4-9 18-18.3 1.4 1.4-17 17.3c-.6.6-.6 1.5 0 2.1.6.6 1.5.6 2.1 0l17-17.3 1.7 1.7-17 17.3c-.6.6-.6 1.5 0 2.1.6.6 1.5.6 2.1 0l17-17.3 1.5 1.4-18 18.3zM29.162 9.22l1.472-1.498 11.836 11.64-1.472 1.497z"/></g></switch></svg>