<svg xmlns="http://www.w3.org/2000/svg" viewBox="0 0 50.4 50.4"><switch><g><g fill="#fa6400"><path d="M5.3 3.6c.8-.8 2-.8 2.8 0l37 36.4c.8.8.8 2 0 2.8-.8.8-2 .8-2.8 0L5.3 6.4c-.8-.7-.8-2 0-2.8zM35.4 45.1l-8 .1v-3.7c2.4-.4 4.6-1.3 6.5-2.8l-2.1-2.1C26.9 40.1 20 39 16.4 34.1c-1.3-1.8-2-4-2.1-6.3l-.1-7.5c0-.8-.7-1.5-1.5-1.5s-1.5.7-1.5 1.5l.1 7.5c.1 7 5.2 12.8 12.1 13.7v3.7l-8 .1c-1.1 0-2 .9-2 2s.9 2 2 2l20-.2c1.1 0 2-.9 2-2s-.9-2-2-2zM39 29.8c.1-.8.2-1.5.2-2.3l-.1-7.5c0-.8-.7-1.5-1.5-1.5s-1.5.7-1.5 1.5l.1 7 2.8 2.8zM31.8 23.1l-.1-15c0-3.9-3.2-7-7.1-6.9-3.9 0-7 3.2-6.9 7.1v1l14.1 13.8z"/><path d="M17.8 23.3v4.9c0 3.9 3.2 7 7.1 6.9 1.3 0 2.6-.4 3.8-1.1L17.8 23.3z"/></g></g></switch></svg>