<svg xmlns="http://www.w3.org/2000/svg" viewBox="0 0 50.4 50.4"><switch><g><path fill="#404040" d="M48.5 35.1c0-2.8-1.6-5.4-4.1-6.8v-.8c0-.5-.4-1-.9-1.1v-1.8c.3-10.1-7.8-18.6-18-18.9-10.2-.2-18.7 7.9-18.9 18.1v3c-.5.2-.8.6-.8 1.1v.8C2 30.8.7 35.6 2.9 39.3c.7 1.3 1.8 2.3 3 3v.1c0 1.2 1 2.2 2.3 2.2h2.2c2.5 0 4.5-2.1 4.5-4.5l-.1-9c0-2.5-2.1-4.5-4.5-4.5V24C10.2 16.6 16.7 9.8 25 9.8c8.3-.1 14.9 6.6 14.9 14v2.6c-2.4.1-4.4 2.1-4.4 4.5l.1 9c0 2.5 2.1 4.5 4.5 4.5h2.2c1.2 0 2.2-1 2.2-2.3V42c2.6-1.4 4.1-4 4-6.9z"/><path fill="#fa6400" d="M5.9 42.6c-2.6 0-4.7-3.1-4.7-6.9 0-3.8 2-7 4.6-7l.1 13.9zM44.5 28.3c2.6 0 4.7 3.1 4.7 6.9 0 3.8-2 7-4.6 7l-.1-13.9z"/></g></switch></svg>