<svg xmlns="http://www.w3.org/2000/svg" viewBox="0 0 50.4 50.4"><switch><g><path fill="#fa6400" d="M19.4 36.1c2.2 0 4 1.8 4 4s-1.8 4-4 4-4-1.8-4-4c0-2.1 1.8-3.9 4-4zM39.4 36c2.2 0 4 1.8 4 4s-1.8 4-4 4-4-1.8-4-4 1.8-4 4-4z"/><path fill="#404040" d="M48.8 12.8c-.4-.5-1-.8-1.6-.8l-34.6.3L11 7.7c-.3-.8-1-1.4-1.9-1.4l-6 .1c-1.1 0-2 .9-2 2s.9 2 2 2h4.6L15.4 33c.3.8 1 1.4 1.9 1.3l24-.2c.9 0 1.7-.6 1.9-1.4l5.8-18c.4-.7.2-1.4-.2-1.9zM19.4 30.2h-.6l-2.7-8h3.2l.1 8zm-.1-10h-3.9l-1.4-4h5.2l.1 4zm6.1 9.9h-4l-.1-8h4l.1 8zm-.1-10h-4v-4h4v4zm6.1 10h-4l-.1-8h4l.1 8zm-.1-10h-4v-4h4v4zm6.1 9.9h-4l-.1-8h4l.1 8zm-.1-10h-4v-4h4v4zm2.6 10h-.6l-.1-8h3.2l-2.5 8zm3.3-10h-3.9v-4h5.2l-1.3 4z"/></g></switch></svg>