<svg xmlns="http://www.w3.org/2000/svg" viewBox="0 0 50.4 50.4"><switch><g><path fill="#404040" d="M43 27.3c0-2.1-1.8-3.8-3.9-3.8h-.9l-.1-8.2c-.1-7.2-6-13.1-13.2-13-7.2.1-13.1 6-13 13.2l.1 8.2h-.9c-2.1 0-3.8 1.8-3.8 3.9l.1 16.6c0 2.1 1.8 3.8 3.9 3.8l28-.2c2.1 0 3.8-1.8 3.8-3.9L43 27.3zM17.9 15.5c0-3.9 3.1-7.1 7.1-7.2 3.9 0 7.1 3.1 7.2 7.1l.1 8.2-14.3.1-.1-8.2z"/><path fill="#fa6400" d="M27.2 36.8l.1 6.3h-4l-.1-6.3c-2.1-1.1-2.9-3.7-1.8-5.8 1.1-2.1 3.7-2.9 5.8-1.8 2.1 1.1 2.9 3.7 1.8 5.8-.5.8-1.1 1.4-1.8 1.8z"/></g></switch></svg>