<svg xmlns="http://www.w3.org/2000/svg" viewBox="0 0 50.4 50.4"><switch><g fill="#fa6400"><path d="M25 9.8l1.4.2c4.3.8 7.4 4.6 7.4 9l.1 9.6c0 2.9 1.3 5.6 3.6 7.4l-24.5.3c2.2-1.8 3.5-4.6 3.5-7.5l-.1-10c0-4.3 3-7.9 7.2-8.7l1.4-.3m-.1-8.6c-1.2 0-2.2 1-2.2 2.2v2.4c-6.3 1.1-10.9 6.6-10.8 13l.1 10c0 2.9-2.3 5.3-5.2 5.3-1.8 0-3.3 1.3-3.4 3.1-.1 1.8 1.3 3.3 3.1 3.4h.2l37.1-.3c1.8 0 3.2-1.5 3.2-3.3v-.2c-.2-1.8-1.7-3.1-3.5-3.1-2.9 0-5.3-2.3-5.3-5.2l-.1-9.5c0-6.5-4.6-12-11-13.2V3.3c0-1.2-1-2.1-2.2-2.1zM25.3 49.2c3.6 0 6.5-3 6.5-6.6l-13.1.1c0 3.6 3 6.5 6.6 6.5z"/></g></switch></svg>