<svg xmlns="http://www.w3.org/2000/svg" viewBox="0 0 50.4 50.4"><switch><g><path fill="#404040" d="M46.5 33.3V33l-.3-29.4c0-1.4-1.2-2.5-2.6-2.5h-.5l-23 4.7c-2.1.4-3.5 2.2-3.5 4.4l.2 23.3c-3.9-2.4-8.9-1.3-11.4 2.6-1.2 2-1.6 4.4-1 6.6v.3c.1.5.4 1.1.7 1.5 2.2 4 7.2 5.4 11.2 3.2 3-1.6 4.6-4.9 4.2-8.2v-.6l-.2-21.1c0-2.1 1.5-4 3.6-4.4l15.5-2.8c1.4-.2 2.7.7 3 2.1v.4l.1 14.7c-3.9-2.3-9-1.1-11.3 2.9C30.4 32 30 33.5 30 35c0 .4 0 .7.1 1.1 0 .3 0 .6.1.9.1.4.2.7.4 1.1 1.7 4.2 6.5 6.3 10.7 4.6 3.9-1.5 6-5.5 5.2-9.4z"/><path fill="#fa6400" d="M12 32c4.8 0 8.7 3.8 8.7 8.5 0 4.8-3.8 8.7-8.5 8.7-4.8 0-8.7-3.8-8.7-8.5C3.4 36 7.2 32.1 12 32zM38.3 26.1c4.8 0 8.7 3.8 8.7 8.5 0 4.8-3.8 8.7-8.5 8.7-4.8 0-8.7-3.8-8.7-8.5-.1-4.8 3.7-8.7 8.5-8.7z"/></g></switch></svg>