<svg xmlns="http://www.w3.org/2000/svg" viewBox="0 0 50.4 50.4"><switch><g><path fill="#404040" d="M38.4 35.5l-4.8-4.8c5.5-7.3 4.9-17.5-1.5-24.1-7-7.1-18.4-7.1-25.5-.2 0 .1 0 .1-.1.2-7.1 7.2-7.1 18.7 0 25.9 6.6 6.7 17.2 7.2 24.4 1.1l4.7 4.8 2.8-2.9zM9.3 29.6C3.8 24 3.8 15 9.3 9.4c5.4-5.5 14.3-5.6 19.8-.1l.1.1c5.5 5.6 5.5 14.6 0 20.3-5.4 5.5-14.3 5.6-19.8.1 0-.1 0-.1-.1-.2z"/><path fill="#404040" d="M48.3 48.3c-1.2 1.2-3.1 1.2-4.3.1L34.7 39l4.3-4.3 9.3 9.4c1.2 1.1 1.2 3 0 4.2z"/><path fill="#fa6400" d="M19.3 12.3c3.9 0 7.2 3.1 7.2 7.1 0 3.9-3.1 7.2-7.1 7.2-3.9 0-7.2-3.1-7.2-7.1 0-3.9 3.2-7.1 7.1-7.2z"/></g></switch></svg>